<svg xmlns="http://www.w3.org/2000/svg" xmlns:xlink="http://www.w3.org/1999/xlink" width="1920" height="1080" viewBox="0 0 1920 1080">
  <defs>
    <clipPath id="clip-path">
      <rect width="417" height="907" fill="none"/>
    </clipPath>
    <clipPath id="clip-path-2">
      <rect width="339" height="44" fill="none"/>
    </clipPath>
    <clipPath id="clip-Call_Center_Selector_de_productos_Barra_de_pedidos_on_2">
      <rect width="1920" height="1080"/>
    </clipPath>
  </defs>
  <g id="Call_Center_Selector_de_productos_Barra_de_pedidos_on_2" data-name="Call Center Selector de productos Barra de pedidos on – 2" clip-path="url(#clip-Call_Center_Selector_de_productos_Barra_de_pedidos_on_2)">
    <rect width="1920" height="1080" fill="#fff"/>
    <g id="Home" transform="translate(-3)">
      <g id="Grupo_23" data-name="Grupo 23" transform="translate(51)">
        <path id="Fondo" d="M0,0H1927V1080H0Z" transform="translate(-48)" fill="#212121"/>
        <path id="Fondo_-_Contorno" data-name="Fondo - Contorno" d="M1,1V1079H1926V1H1M0,0H1927V1080H0Z" transform="translate(-48)" fill="#707070"/>
      </g>
      <g id="Pedidos">
        <g id="Pedidos-2" data-name="Pedidos" fill="#171717" stroke="#707070" stroke-width="1">
          <rect width="472" height="1080" stroke="none"/>
          <rect x="0.5" y="0.5" width="471" height="1079" fill="none"/>
        </g>
        <g id="Barra_de_navegacion_pedidos_hechos" data-name="Barra de navegacion pedidos hechos" transform="translate(447.5 65.079)">
          <path id="Barra_de_navegacion" data-name="Barra de navegacion" d="M0,0H24.5V896.842H0Z" fill="#424242"/>
          <g id="Barra" transform="translate(0.5 24.191)" fill="#686868" stroke="#707070" stroke-width="1">
            <rect width="24" height="412" stroke="none"/>
            <rect x="0.5" y="0.5" width="23" height="411" fill="none"/>
          </g>
          <g id="boton_barra_de_navegacion" data-name="boton barra de navegacion" transform="translate(0.5 874.651)">
            <g id="Rectángulo_2" data-name="Rectángulo 2" fill="#424242" stroke="#707070" stroke-width="1">
              <rect width="24" height="22" stroke="none"/>
              <rect x="0.5" y="0.5" width="23" height="21" fill="none"/>
            </g>
            <g id="Polígono_1" data-name="Polígono 1" transform="translate(20 16) rotate(180)" fill="#686868">
              <path d="M 15.06573581695557 11.5 L 0.9342628717422485 11.5 L 7.999999523162842 0.9013950228691101 L 15.06573581695557 11.5 Z" stroke="none"/>
              <path d="M 7.999999523162842 1.802775382995605 L 1.868515968322754 11 L 14.13148307800293 11 L 7.999999523162842 1.802775382995605 M 7.999999523162842 0 L 16 12 L -9.5367431640625e-07 12 L 7.999999523162842 0 Z" stroke="none" fill="#707070"/>
            </g>
          </g>
          <g id="boton_barra_de_navegacion-2" data-name="boton barra de navegacion" transform="translate(0.5 0.191)">
            <g id="Rectángulo_2-2" data-name="Rectángulo 2" fill="#424242" stroke="#707070" stroke-width="1">
              <rect width="24" height="22" stroke="none"/>
              <rect x="0.5" y="0.5" width="23" height="21" fill="none"/>
            </g>
            <g id="Polígono_1-2" data-name="Polígono 1" transform="translate(4 4)" fill="#686868">
              <path d="M 15.01810932159424 10.5 L 0.981889545917511 10.5 L 7.999999523162842 0.850098729133606 L 15.01810932159424 10.5 Z" stroke="none"/>
              <path d="M 7.999999523162842 1.700187683105469 L 1.963771820068359 10 L 14.03622627258301 10 L 7.999999523162842 1.700187683105469 M 7.999999523162842 0 L 16 11 L -9.5367431640625e-07 11 L 7.999999523162842 0 Z" stroke="none" fill="#707070"/>
            </g>
          </g>
        </g>
        <g id="Tarjeta_del_pedido" data-name="Tarjeta del pedido" transform="translate(16 81)" clip-path="url(#clip-path)">
          <g id="Tarjeta_del_pedido-2" data-name="Tarjeta del pedido" transform="translate(-16 -81)">
            <g id="Tarjeta_del_pedido-3" data-name="Tarjeta del pedido">
              <rect id="Rectángulo_16" data-name="Rectángulo 16" width="417" height="113" rx="16" transform="translate(16 81)" fill="#2f2f2f"/>
              <text id="Mario_Estrada" data-name="Mario Estrada" transform="translate(33 111)" fill="#b4b4b4" font-size="20" font-family="SegoeUI-Semibold, Segoe UI" font-weight="600"><tspan x="0" y="0">Mario Estrada</tspan></text>
              <text id="_8564256" data-name="#8564256" transform="translate(334 111)" fill="#b4b4b4" font-size="20" font-family="SegoeUI-Semibold, Segoe UI" font-weight="600"><tspan x="0" y="0">#8564256</tspan></text>
              <text id="_35708405" data-name="35708405" transform="translate(33 143)" fill="#b4b4b4" font-size="20" font-family="SegoeUI-Semibold, Segoe UI" font-weight="600"><tspan x="0" y="0">35708405</tspan></text>
              <text id="En_camino" data-name="En camino" transform="translate(330 143)" fill="#b4b4b4" font-size="20" font-family="SegoeUI-Semibold, Segoe UI" font-weight="600"><tspan x="0" y="0">En camino</tspan></text>
              <text id="Delivery" transform="translate(33 175)" fill="#b4b4b4" font-size="20" font-family="SegoeUI-Semibold, Segoe UI" font-weight="600"><tspan x="0" y="0">Delivery</tspan></text>
              <text id="_13_m" data-name="13 m" transform="translate(382 175)" fill="#b4b4b4" font-size="20" font-family="SegoeUI-Semibold, Segoe UI" font-weight="600"><tspan x="0" y="0">13 m</tspan></text>
            </g>
          </g>
          <g id="Tarjeta_del_pedido-4" data-name="Tarjeta del pedido" transform="translate(-16 37)">
            <g id="Tarjeta_del_pedido-5" data-name="Tarjeta del pedido">
              <rect id="Rectángulo_16-2" data-name="Rectángulo 16" width="417" height="113" rx="16" transform="translate(16 81)" fill="#2f2f2f"/>
              <text id="Mario_Estrada-2" data-name="Mario Estrada" transform="translate(33 111)" fill="#b4b4b4" font-size="20" font-family="SegoeUI-Semibold, Segoe UI" font-weight="600"><tspan x="0" y="0">Mario Estrada</tspan></text>
              <text id="_8564256-2" data-name="#8564256" transform="translate(334 111)" fill="#b4b4b4" font-size="20" font-family="SegoeUI-Semibold, Segoe UI" font-weight="600"><tspan x="0" y="0">#8564256</tspan></text>
              <text id="_35708405-2" data-name="35708405" transform="translate(33 143)" fill="#b4b4b4" font-size="20" font-family="SegoeUI-Semibold, Segoe UI" font-weight="600"><tspan x="0" y="0">35708405</tspan></text>
              <text id="En_camino-2" data-name="En camino" transform="translate(330 143)" fill="#b4b4b4" font-size="20" font-family="SegoeUI-Semibold, Segoe UI" font-weight="600"><tspan x="0" y="0">En camino</tspan></text>
              <text id="Delivery-2" data-name="Delivery" transform="translate(33 175)" fill="#b4b4b4" font-size="20" font-family="SegoeUI-Semibold, Segoe UI" font-weight="600"><tspan x="0" y="0">Delivery</tspan></text>
              <text id="_13_m-2" data-name="13 m" transform="translate(382 175)" fill="#b4b4b4" font-size="20" font-family="SegoeUI-Semibold, Segoe UI" font-weight="600"><tspan x="0" y="0">13 m</tspan></text>
            </g>
          </g>
          <g id="Tarjeta_del_pedido-6" data-name="Tarjeta del pedido" transform="translate(-16 155)">
            <g id="Tarjeta_del_pedido-7" data-name="Tarjeta del pedido">
              <rect id="Rectángulo_16-3" data-name="Rectángulo 16" width="417" height="113" rx="16" transform="translate(16 81)" fill="#2f2f2f"/>
              <text id="Mario_Estrada-3" data-name="Mario Estrada" transform="translate(33 111)" fill="#b4b4b4" font-size="20" font-family="SegoeUI-Semibold, Segoe UI" font-weight="600"><tspan x="0" y="0">Mario Estrada</tspan></text>
              <text id="_8564256-3" data-name="#8564256" transform="translate(334 111)" fill="#b4b4b4" font-size="20" font-family="SegoeUI-Semibold, Segoe UI" font-weight="600"><tspan x="0" y="0">#8564256</tspan></text>
              <text id="_35708405-3" data-name="35708405" transform="translate(33 143)" fill="#b4b4b4" font-size="20" font-family="SegoeUI-Semibold, Segoe UI" font-weight="600"><tspan x="0" y="0">35708405</tspan></text>
              <text id="En_camino-3" data-name="En camino" transform="translate(330 143)" fill="#b4b4b4" font-size="20" font-family="SegoeUI-Semibold, Segoe UI" font-weight="600"><tspan x="0" y="0">En camino</tspan></text>
              <text id="Tienda" transform="translate(33 175)" fill="#b4b4b4" font-size="20" font-family="SegoeUI-Semibold, Segoe UI" font-weight="600"><tspan x="0" y="0">Tienda</tspan></text>
              <text id="_13_m-3" data-name="13 m" transform="translate(382 175)" fill="#b4b4b4" font-size="20" font-family="SegoeUI-Semibold, Segoe UI" font-weight="600"><tspan x="0" y="0">13 m</tspan></text>
            </g>
          </g>
          <g id="Tarjeta_del_pedido-8" data-name="Tarjeta del pedido" transform="translate(-16 273)">
            <g id="Tarjeta_del_pedido-9" data-name="Tarjeta del pedido">
              <rect id="Rectángulo_16-4" data-name="Rectángulo 16" width="417" height="113" rx="16" transform="translate(16 81)" fill="#2f2f2f"/>
              <text id="Mario_Estrada-4" data-name="Mario Estrada" transform="translate(33 111)" fill="#b4b4b4" font-size="20" font-family="SegoeUI-Semibold, Segoe UI" font-weight="600"><tspan x="0" y="0">Mario Estrada</tspan></text>
              <text id="_8564256-4" data-name="#8564256" transform="translate(334 111)" fill="#b4b4b4" font-size="20" font-family="SegoeUI-Semibold, Segoe UI" font-weight="600"><tspan x="0" y="0">#8564256</tspan></text>
              <text id="_35708405-4" data-name="35708405" transform="translate(33 143)" fill="#b4b4b4" font-size="20" font-family="SegoeUI-Semibold, Segoe UI" font-weight="600"><tspan x="0" y="0">35708405</tspan></text>
              <text id="En_camino-4" data-name="En camino" transform="translate(330 143)" fill="#b4b4b4" font-size="20" font-family="SegoeUI-Semibold, Segoe UI" font-weight="600"><tspan x="0" y="0">En camino</tspan></text>
              <text id="Delivery-3" data-name="Delivery" transform="translate(33 175)" fill="#b4b4b4" font-size="20" font-family="SegoeUI-Semibold, Segoe UI" font-weight="600"><tspan x="0" y="0">Delivery</tspan></text>
              <text id="_13_m-4" data-name="13 m" transform="translate(382 175)" fill="#b4b4b4" font-size="20" font-family="SegoeUI-Semibold, Segoe UI" font-weight="600"><tspan x="0" y="0">13 m</tspan></text>
            </g>
          </g>
          <g id="Tarjeta_del_pedido-10" data-name="Tarjeta del pedido" transform="translate(-16 391)">
            <g id="Tarjeta_del_pedido-11" data-name="Tarjeta del pedido">
              <rect id="Rectángulo_16-5" data-name="Rectángulo 16" width="417" height="113" rx="16" transform="translate(16 81)" fill="#2f2f2f"/>
              <text id="Mario_Estrada-5" data-name="Mario Estrada" transform="translate(33 111)" fill="#b4b4b4" font-size="20" font-family="SegoeUI-Semibold, Segoe UI" font-weight="600"><tspan x="0" y="0">Mario Estrada</tspan></text>
              <text id="_8564256-5" data-name="#8564256" transform="translate(334 111)" fill="#b4b4b4" font-size="20" font-family="SegoeUI-Semibold, Segoe UI" font-weight="600"><tspan x="0" y="0">#8564256</tspan></text>
              <text id="_35708405-5" data-name="35708405" transform="translate(33 143)" fill="#b4b4b4" font-size="20" font-family="SegoeUI-Semibold, Segoe UI" font-weight="600"><tspan x="0" y="0">35708405</tspan></text>
              <text id="En_camino-5" data-name="En camino" transform="translate(330 143)" fill="#b4b4b4" font-size="20" font-family="SegoeUI-Semibold, Segoe UI" font-weight="600"><tspan x="0" y="0">En camino</tspan></text>
              <text id="Tienda-2" data-name="Tienda" transform="translate(33 175)" fill="#b4b4b4" font-size="20" font-family="SegoeUI-Semibold, Segoe UI" font-weight="600"><tspan x="0" y="0">Tienda</tspan></text>
              <text id="_13_m-5" data-name="13 m" transform="translate(382 175)" fill="#b4b4b4" font-size="20" font-family="SegoeUI-Semibold, Segoe UI" font-weight="600"><tspan x="0" y="0">13 m</tspan></text>
            </g>
          </g>
          <g id="Tarjeta_del_pedido-12" data-name="Tarjeta del pedido" transform="translate(-16 509)">
            <g id="Tarjeta_del_pedido-13" data-name="Tarjeta del pedido">
              <rect id="Rectángulo_16-6" data-name="Rectángulo 16" width="417" height="113" rx="16" transform="translate(16 81)" fill="#2f2f2f"/>
              <text id="Mario_Estrada-6" data-name="Mario Estrada" transform="translate(33 111)" fill="#b4b4b4" font-size="20" font-family="SegoeUI-Semibold, Segoe UI" font-weight="600"><tspan x="0" y="0">Mario Estrada</tspan></text>
              <text id="_8564256-6" data-name="#8564256" transform="translate(334 111)" fill="#b4b4b4" font-size="20" font-family="SegoeUI-Semibold, Segoe UI" font-weight="600"><tspan x="0" y="0">#8564256</tspan></text>
              <text id="_35708405-6" data-name="35708405" transform="translate(33 143)" fill="#b4b4b4" font-size="20" font-family="SegoeUI-Semibold, Segoe UI" font-weight="600"><tspan x="0" y="0">35708405</tspan></text>
              <text id="En_camino-6" data-name="En camino" transform="translate(330 143)" fill="#b4b4b4" font-size="20" font-family="SegoeUI-Semibold, Segoe UI" font-weight="600"><tspan x="0" y="0">En camino</tspan></text>
              <text id="Tienda-3" data-name="Tienda" transform="translate(33 175)" fill="#b4b4b4" font-size="20" font-family="SegoeUI-Semibold, Segoe UI" font-weight="600"><tspan x="0" y="0">Tienda</tspan></text>
              <text id="_13_m-6" data-name="13 m" transform="translate(382 175)" fill="#b4b4b4" font-size="20" font-family="SegoeUI-Semibold, Segoe UI" font-weight="600"><tspan x="0" y="0">13 m</tspan></text>
            </g>
          </g>
          <g id="Tarjeta_del_pedido-14" data-name="Tarjeta del pedido" transform="translate(-16 627)">
            <g id="Tarjeta_del_pedido-15" data-name="Tarjeta del pedido">
              <rect id="Rectángulo_16-7" data-name="Rectángulo 16" width="417" height="113" rx="16" transform="translate(16 81)" fill="#2f2f2f"/>
              <text id="Mario_Estrada-7" data-name="Mario Estrada" transform="translate(33 111)" fill="#b4b4b4" font-size="20" font-family="SegoeUI-Semibold, Segoe UI" font-weight="600"><tspan x="0" y="0">Mario Estrada</tspan></text>
              <text id="_8564256-7" data-name="#8564256" transform="translate(334 111)" fill="#b4b4b4" font-size="20" font-family="SegoeUI-Semibold, Segoe UI" font-weight="600"><tspan x="0" y="0">#8564256</tspan></text>
              <text id="_35708405-7" data-name="35708405" transform="translate(33 143)" fill="#b4b4b4" font-size="20" font-family="SegoeUI-Semibold, Segoe UI" font-weight="600"><tspan x="0" y="0">35708405</tspan></text>
              <text id="En_camino-7" data-name="En camino" transform="translate(330 143)" fill="#b4b4b4" font-size="20" font-family="SegoeUI-Semibold, Segoe UI" font-weight="600"><tspan x="0" y="0">En camino</tspan></text>
              <text id="Entrega_Inmediata" data-name="Entrega Inmediata" transform="translate(33 175)" fill="#b4b4b4" font-size="20" font-family="SegoeUI-Semibold, Segoe UI" font-weight="600"><tspan x="0" y="0">Entrega Inmediata</tspan></text>
              <text id="_13_m-7" data-name="13 m" transform="translate(382 175)" fill="#b4b4b4" font-size="20" font-family="SegoeUI-Semibold, Segoe UI" font-weight="600"><tspan x="0" y="0">13 m</tspan></text>
            </g>
          </g>
          <g id="Tarjeta_del_pedido-16" data-name="Tarjeta del pedido" transform="translate(-16 745)">
            <g id="Tarjeta_del_pedido-17" data-name="Tarjeta del pedido">
              <rect id="Rectángulo_16-8" data-name="Rectángulo 16" width="417" height="113" rx="16" transform="translate(16 81)" fill="#2f2f2f"/>
              <text id="Mario_Estrada-8" data-name="Mario Estrada" transform="translate(33 111)" fill="#b4b4b4" font-size="20" font-family="SegoeUI-Semibold, Segoe UI" font-weight="600"><tspan x="0" y="0">Mario Estrada</tspan></text>
              <text id="_8564256-8" data-name="#8564256" transform="translate(334 111)" fill="#b4b4b4" font-size="20" font-family="SegoeUI-Semibold, Segoe UI" font-weight="600"><tspan x="0" y="0">#8564256</tspan></text>
              <text id="_35708405-8" data-name="35708405" transform="translate(33 143)" fill="#b4b4b4" font-size="20" font-family="SegoeUI-Semibold, Segoe UI" font-weight="600"><tspan x="0" y="0">35708405</tspan></text>
              <text id="En_camino-8" data-name="En camino" transform="translate(330 143)" fill="#b4b4b4" font-size="20" font-family="SegoeUI-Semibold, Segoe UI" font-weight="600"><tspan x="0" y="0">En camino</tspan></text>
              <text id="Entrega_Inmediata-2" data-name="Entrega Inmediata" transform="translate(33 175)" fill="#b4b4b4" font-size="20" font-family="SegoeUI-Semibold, Segoe UI" font-weight="600"><tspan x="0" y="0">Entrega Inmediata</tspan></text>
              <text id="_13_m-8" data-name="13 m" transform="translate(382 175)" fill="#b4b4b4" font-size="20" font-family="SegoeUI-Semibold, Segoe UI" font-weight="600"><tspan x="0" y="0">13 m</tspan></text>
            </g>
          </g>
        </g>
        <path id="side_navigation_24dp_E8EAED_FILL0_wght400_GRAD0_opsz24" d="M124.512-797.895a4.269,4.269,0,0,1-3.186-1.374,4.59,4.59,0,0,1-1.325-3.3v-32.749a4.59,4.59,0,0,1,1.325-3.3A4.268,4.268,0,0,1,124.512-840h31.582a4.268,4.268,0,0,1,3.186,1.374,4.59,4.59,0,0,1,1.325,3.3v32.749a4.59,4.59,0,0,1-1.325,3.3,4.269,4.269,0,0,1-3.186,1.374Zm15.791-4.678h15.791v-32.749H140.3Z" transform="translate(-104 852.217)" fill="#b4b4b4"/>
        <g id="Filtros">
          <g id="Trazado_1" data-name="Trazado 1" transform="translate(0 963.253)" fill="#171717">
            <path d="M 469.5 116.247428894043 L 0.5 116.247428894043 L 0.5 0.5000162124633789 L 469.5 0.5000162124633789 L 469.5 116.247428894043 Z" stroke="none"/>
            <path d="M 1 1.000015258789062 L 1 115.747428894043 L 469 115.747428894043 L 469 1.000015258789062 L 1 1.000015258789062 M 0 1.52587890625e-05 L 470 1.52587890625e-05 L 470 116.747428894043 L 0 116.747428894043 L 0 1.52587890625e-05 Z" stroke="none" fill="#171717"/>
          </g>
          <g id="Sucursal" transform="translate(-652.657 677.1)">
            <g id="Rectángulo_10" data-name="Rectángulo 10" transform="translate(662.657 344.9)" fill="#2f2f2f" stroke="#707070" stroke-width="1">
              <rect width="217" height="28" rx="14" stroke="none"/>
              <rect x="0.5" y="0.5" width="216" height="27" rx="13.5" fill="none"/>
            </g>
            <path id="keyboard_arrow_down_24dp_E8EAED_FILL0_wght400_GRAD0_opsz24" d="M9.042,11.151,0,2.11,2.11,0,9.042,6.932,15.974,0l2.11,2.11Z" transform="translate(865.839 364.276) rotate(180)" fill="#9b9b9b"/>
          </g>
          <g id="Pedidos_en_Curso" data-name="Pedidos en Curso">
            <g id="Rectángulo_14" data-name="Rectángulo 14" transform="translate(0 963)" fill="#2f2f2f" stroke="#171717" stroke-width="1">
              <rect width="235" height="44" stroke="none"/>
              <rect x="0.5" y="0.5" width="234" height="43" fill="none"/>
            </g>
            <text id="Pedidos_en_curso-2" data-name="Pedidos en curso" transform="translate(41 994)" fill="#b4b4b4" font-size="20" font-family="SegoeUI-Semibold, Segoe UI" font-weight="600"><tspan x="0" y="0">Pedidos en curso</tspan></text>
          </g>
          <g id="Pedidos_Cerrados" data-name="Pedidos Cerrados">
            <rect id="Rectángulo_15" data-name="Rectángulo 15" width="235" height="44" transform="translate(235 963)" fill="none"/>
            <text id="Pedidos_cerrados-2" data-name="Pedidos cerrados" transform="translate(276 994)" fill="#b4b4b4" font-size="20" font-family="SegoeUI-Semibold, Segoe UI" font-weight="600"><tspan x="0" y="0">Pedidos cerrados</tspan></text>
          </g>
          <g id="Busqueda_de_pedidos" data-name="Busqueda de pedidos" transform="translate(-418.657 677.1)">
            <g id="Rectángulo_10-2" data-name="Rectángulo 10" transform="translate(662.657 344.9)" fill="#2f2f2f" stroke="#707070" stroke-width="1">
              <rect width="217" height="28" rx="14" stroke="none"/>
              <rect x="0.5" y="0.5" width="216" height="27" rx="13.5" fill="none"/>
            </g>
            <path id="search_24dp_E8EAED_FILL0_wght400_GRAD0_opsz24" d="M129.74-829.439l-3.7-3.7a3.5,3.5,0,0,1-1.012.557,3.575,3.575,0,0,1-1.217.205,3.682,3.682,0,0,1-2.706-1.108A3.681,3.681,0,0,1,120-836.186a3.681,3.681,0,0,1,1.107-2.706A3.681,3.681,0,0,1,123.814-840a3.681,3.681,0,0,1,2.706,1.108,3.681,3.681,0,0,1,1.107,2.706,3.577,3.577,0,0,1-.205,1.217,3.5,3.5,0,0,1-.557,1.012l3.7,3.7Zm-5.926-4.107a2.547,2.547,0,0,0,1.87-.77,2.546,2.546,0,0,0,.77-1.87,2.546,2.546,0,0,0-.77-1.87,2.546,2.546,0,0,0-1.87-.77,2.546,2.546,0,0,0-1.87.77,2.546,2.546,0,0,0-.77,1.87,2.546,2.546,0,0,0,.77,1.87A2.547,2.547,0,0,0,123.814-833.546Z" transform="translate(737.657 1193.619)" fill="#e8eaed"/>
          </g>
        </g>
      </g>
      <path id="arrow_forward_ios_24dp_E8EAED_FILL0_wght400_GRAD0_opsz24" d="M257.847-791.584,250-799.431l36.361-36.361L250-872.153,257.847-880l44.208,44.208Z" transform="translate(1601.5 1375.792)" fill="#2f2f2f"/>
      <path id="arrow_forward_ios_24dp_E8EAED_FILL0_wght400_GRAD0_opsz24-2" data-name="arrow_forward_ios_24dp_E8EAED_FILL0_wght400_GRAD0_opsz24" d="M257.847-791.584,250-799.431l36.361-36.361L250-872.153,257.847-880l44.208,44.208Z" transform="translate(798.37 -295.792) rotate(180)" fill="#2f2f2f"/>
      <g id="Bar_Menu" data-name="Bar Menu" transform="translate(571 33)">
        <g id="Rectángulo_17" data-name="Rectángulo 17" fill="none" stroke="#707070" stroke-width="1">
          <rect width="1260" height="66" rx="33" stroke="none"/>
          <rect x="0.5" y="0.5" width="1259" height="65" rx="32.5" fill="none"/>
        </g>
        <text id="_Ludwin" data-name="    Ludwin" transform="translate(1138 38)" fill="#212121" font-size="18" font-family="SegoeUI-Semibold, Segoe UI" font-weight="600"><tspan x="0" y="0"> </tspan><tspan y="0" xml:space="preserve" fill="#b4b4b4">   Ludwin</tspan></text>
        <text id="Gestion" transform="translate(31 38)" fill="#b4b4b4" font-size="18" font-family="SegoeUI-Semibold, Segoe UI" font-weight="600"><tspan x="0" y="0">Gestion</tspan></text>
        <text id="Cocina" transform="translate(131 38)" fill="#b4b4b4" font-size="18" font-family="SegoeUI-Semibold, Segoe UI" font-weight="600"><tspan x="0" y="0">Cocina</tspan></text>
        <text id="Call_Center" data-name="Call Center" transform="translate(224 38)" fill="#b4b4b4" font-size="18" font-family="SegoeUI-Semibold, Segoe UI" font-weight="600" text-decoration="underline"><tspan x="0" y="0">Call Center</tspan></text>
        <text id="Delivery-4" data-name="Delivery" transform="translate(351 38)" fill="#b4b4b4" font-size="18" font-family="SegoeUI-Semibold, Segoe UI" font-weight="600"><tspan x="0" y="0">Delivery</tspan></text>
        <text id="Dashboard" transform="translate(456 38)" fill="#b4b4b4" font-size="18" font-family="SegoeUI-Semibold, Segoe UI" font-weight="600"><tspan x="0" y="0">Dashboard</tspan></text>
      </g>
      <g id="Formulario_cliente" data-name="Formulario cliente" transform="translate(160.597 66.813)">
        <path id="Formulario_Cliente-2" data-name="Formulario Cliente" d="M28,1A26.977,26.977,0,0,0,1,28V551a26.977,26.977,0,0,0,27,27H800a26.977,26.977,0,0,0,27-27V28A26.977,26.977,0,0,0,800,1H28m0-1H800a28,28,0,0,1,28,28V551a28,28,0,0,1-28,28H28A28,28,0,0,1,0,551V28A28,28,0,0,1,28,0Z" transform="translate(636.403 184.187)" fill="#707070"/>
        <g id="Guardar" transform="translate(1110.26 686.813)">
          <rect id="Rectángulo_8" data-name="Rectángulo 8" width="105" height="50" rx="25" transform="translate(0.143 0.374)" fill="#2f2f2f"/>
          <path id="Rectángulo_8_-_Contorno" data-name="Rectángulo 8 - Contorno" d="M25,1a24.007,24.007,0,0,0-9.342,46.114A23.849,23.849,0,0,0,25,49H80A24.007,24.007,0,0,0,89.342,2.886,23.849,23.849,0,0,0,80,1H25m0-1H80a25,25,0,0,1,0,50H25A25,25,0,0,1,25,0Z" transform="translate(0.143 0.374)" fill="#707070"/>
          <text id="Guardar-2" data-name="Guardar" transform="translate(26.143 28.374)" fill="#b4b4b4" font-size="14" font-family="SegoeUI-Semibold, Segoe UI" font-weight="600"><tspan x="0" y="0">Guardar</tspan></text>
        </g>
        <g id="Limpiar" transform="translate(955.883 686.813)">
          <rect id="Rectángulo_13" data-name="Rectángulo 13" width="106" height="50" rx="25" transform="translate(-0.48 0.374)" fill="#2f2f2f"/>
          <path id="Rectángulo_13_-_Contorno" data-name="Rectángulo 13 - Contorno" d="M25,1a24.007,24.007,0,0,0-9.342,46.114A23.849,23.849,0,0,0,25,49H81A24.007,24.007,0,0,0,90.342,2.886,23.849,23.849,0,0,0,81,1H25m0-1H81a25,25,0,0,1,0,50H25A25,25,0,0,1,25,0Z" transform="translate(-0.48 0.374)" fill="#707070"/>
          <text id="Limpiar-2" data-name="Limpiar" transform="translate(30.52 28.374)" fill="#b4b4b4" font-size="14" font-family="SegoeUI-Semibold, Segoe UI" font-weight="600"><tspan x="0" y="0">Limpiar</tspan></text>
        </g>
        <g id="Grupo_22" data-name="Grupo 22" transform="translate(512.403 -110.813)">
          <text id="Nombre:_Mario_Estrada" data-name="Nombre:
Mario Estrada" transform="translate(576 493)" fill="#b4b4b4" font-size="18" font-family="SegoeUI-Semibold, Segoe UI" font-weight="600"><tspan x="0" y="0" text-decoration="underline">Nombre</tspan><tspan y="0">:</tspan><tspan x="0" y="24">Mario Estrada</tspan></text>
          <text id="Datos_de_entega" data-name="Datos de entega" transform="translate(686 452)" fill="#b4b4b4" font-size="20" font-family="SegoeUI-Semibold, Segoe UI" font-weight="600"><tspan x="0" y="0">Datos de entega</tspan></text>
          <text id="Teléfono:_35708405" data-name="Teléfono:
35708405" transform="translate(924 493)" fill="#b4b4b4" font-size="18" font-family="SegoeUI-Semibold, Segoe UI" font-weight="600"><tspan x="-74.558" y="0" text-decoration="underline">Teléfono</tspan><tspan y="0">:</tspan><tspan x="-79.98" y="24">35708405</tspan></text>
          <text id="Dirección:_KM_16.5_Condominio_Altos_de_Arrazola_casa_D-8" data-name="Dirección:
KM 16.5 Condominio Altos de Arrazola casa D-8" transform="translate(584 534)" fill="#b4b4b4" font-size="18" font-family="SegoeUI-Semibold, Segoe UI" font-weight="600"><tspan x="133.548" y="19" text-decoration="underline">Dirección</tspan><tspan y="19">:</tspan><tspan x="16.632" y="43">KM 16.5 Condominio Altos de Arrazola </tspan><tspan x="138.949" y="67">casa D-8</tspan></text>
          <text id="Nota:_Cuidado_con_el_perro_Tocar_Timbre" data-name="Nota:
Cuidado con el perro, Tocar Timbre" transform="translate(584 672)" fill="#b4b4b4" font-size="18" font-family="SegoeUI-Semibold, Segoe UI" font-weight="600"><tspan text-decoration="underline"><tspan x="151.601" y="19">Nota:</tspan></tspan><tspan x="30.725" y="43">Cuidado con el perro, Tocar Timbre</tspan></text>
          <text id="Centro_de_despacho:_Bennets_CAES" data-name="Centro de despacho:
Bennets CAES" transform="translate(599 619)" fill="#b4b4b4" font-size="18" font-family="SegoeUI-Semibold, Segoe UI" font-weight="600"><tspan text-decoration="underline"><tspan x="74.731" y="19">Centro de despacho:</tspan></tspan><tspan x="102.202" y="43">Bennets CAES</tspan></text>
        </g>
        <g id="Grupo_24" data-name="Grupo 24" transform="translate(-298.911 -101.813)">
          <text id="Detalles_del_pedido" data-name="Detalles del pedido" transform="translate(1080.814 452)" fill="#b4b4b4" font-size="20" font-family="SegoeUI-Semibold, Segoe UI" font-weight="600"><tspan x="0" y="0">Detalles del pedido</tspan></text>
          <text id="N_" data-name="N#" transform="translate(991.814 479)" fill="#b4b4b4" font-size="15" font-family="SegoeUI-Semibold, Segoe UI" font-weight="600"><tspan x="0" y="0">N#</tspan></text>
          <text id="Nombre:" transform="translate(1020.814 479)" fill="#b4b4b4" font-size="15" font-family="SegoeUI-Semibold, Segoe UI" font-weight="600"><tspan x="0" y="0">Nombre:</tspan></text>
          <text id="Coste:" transform="translate(1297.814 479)" fill="#b4b4b4" font-size="15" font-family="SegoeUI-Semibold, Segoe UI" font-weight="600"><tspan x="0" y="0">Coste:</tspan></text>
          <g id="Cuadrícula_de_repetición_1" data-name="Cuadrícula de repetición 1" transform="translate(998.814 489)" clip-path="url(#clip-path-2)">
            <g id="Grupo_2" data-name="Grupo 2" transform="translate(-74 -907.921)">
              <text id="_1" data-name="1" transform="translate(74 923.921)" fill="#b4b4b4" font-size="15" font-family="SegoeUI-Semibold, Segoe UI" font-weight="600"><tspan x="0" y="0">1</tspan></text>
              <text id="Pizza_Alfredo_Chicken:_personal" data-name="Pizza Alfredo Chicken: personal" transform="translate(96 923.921)" fill="#b4b4b4" font-size="15" font-family="SegoeUI-Semibold, Segoe UI" font-weight="600"><tspan x="0" y="0">Pizza Alfredo Chicken: personal</tspan></text>
              <text id="_35.00" data-name="35.00" transform="translate(376 923.921)" fill="#b4b4b4" font-size="15" font-family="SegoeUI-Semibold, Segoe UI" font-weight="600"><tspan x="0" y="0">35.00</tspan></text>
            </g>
            <g id="Grupo_2-2" data-name="Grupo 2" transform="translate(-74 -887.921)">
              <text id="_1-2" data-name="1" transform="translate(74 923.921)" fill="#b4b4b4" font-size="15" font-family="SegoeUI-Semibold, Segoe UI" font-weight="600"><tspan x="0" y="0">1</tspan></text>
              <text id="Pizza_Alfredo_Chicken:_personal-2" data-name="Pizza Alfredo Chicken: personal" transform="translate(96 923.921)" fill="#b4b4b4" font-size="15" font-family="SegoeUI-Semibold, Segoe UI" font-weight="600"><tspan x="0" y="0">Pizza Alfredo Chicken: personal</tspan></text>
              <text id="_35.00-2" data-name="35.00" transform="translate(376 923.921)" fill="#b4b4b4" font-size="15" font-family="SegoeUI-Semibold, Segoe UI" font-weight="600"><tspan x="0" y="0">35.00</tspan></text>
            </g>
            <g id="Grupo_2-3" data-name="Grupo 2" transform="translate(-74 -867.921)">
              <text id="_1-3" data-name="1" transform="translate(74 923.921)" fill="#b4b4b4" font-size="15" font-family="SegoeUI-Semibold, Segoe UI" font-weight="600"><tspan x="0" y="0">1</tspan></text>
              <text id="Pizza_Alfredo_Chicken:_personal-3" data-name="Pizza Alfredo Chicken: personal" transform="translate(96 923.921)" fill="#b4b4b4" font-size="15" font-family="SegoeUI-Semibold, Segoe UI" font-weight="600"><tspan x="0" y="0">Pizza Alfredo Chicken: personal</tspan></text>
              <text id="_35.00-3" data-name="35.00" transform="translate(376 923.921)" fill="#b4b4b4" font-size="15" font-family="SegoeUI-Semibold, Segoe UI" font-weight="600"><tspan x="0" y="0">35.00</tspan></text>
            </g>
          </g>
          <path id="Línea_3" data-name="Línea 3" d="M386,.5H0v-1H386Z" transform="translate(974.314 533.079)" fill="#707070"/>
          <text id="Pago_en_efectivo_Total:_70.00" data-name="Pago en efectivo                                     Total: 70.00" transform="translate(998.814 534.579)" fill="#b4b4b4" font-size="15" font-family="SegoeUI-Semibold, Segoe UI" font-weight="600"><tspan x="0" y="16" xml:space="preserve">Pago en efectivo                                     Total: 70.00</tspan></text>
        </g>
        <g id="Grupo_21" data-name="Grupo 21" transform="translate(79.403 -70.813)">
          <text id="Datos_de_facturacion" data-name="Datos de facturacion" transform="translate(889 296)" fill="#b4b4b4" font-size="20" font-family="SegoeUI-Semibold, Segoe UI" font-weight="600"><tspan x="0" y="0">Datos de facturacion</tspan></text>
          <text id="Nombre:_Mario_Estrada-2" data-name="Nombre:
Mario Estrada" transform="translate(779 334)" fill="#b4b4b4" font-size="18" font-family="SegoeUI-Semibold, Segoe UI" font-weight="600"><tspan x="-35.877" y="0" text-decoration="underline">Nombre</tspan><tspan y="0">:</tspan><tspan x="-56.487" y="24">Mario Estrada</tspan></text>
          <text id="NIT:_35708405" data-name="NIT:
35708405" transform="translate(1188 334)" fill="#b4b4b4" font-size="18" font-family="SegoeUI-Semibold, Segoe UI" font-weight="600"><tspan x="-16.572" y="0" text-decoration="underline">NIT</tspan><tspan y="0">:</tspan><tspan x="-39.99" y="24">35708405</tspan></text>
        </g>
      </g>
    </g>
  </g>
</svg>
