<svg xmlns="http://www.w3.org/2000/svg" xmlns:xlink="http://www.w3.org/1999/xlink" width="1921" height="1080" viewBox="0 0 1921 1080">
  <defs>
    <clipPath id="clip-Call_Center_Cliente_NIT_1">
      <rect width="1921" height="1080"/>
    </clipPath>
  </defs>
  <g id="Call_Center_Cliente_NIT_1" data-name="Call Center Cliente NIT – 1" clip-path="url(#clip-Call_Center_Cliente_NIT_1)">
    <rect width="1921" height="1080" fill="#fff"/>
    <g id="Home" transform="translate(-2 2)">
      <rect id="Fondo" width="1920" height="1080" transform="translate(2 -2)" fill="#212121"/>
      <path id="Fondo_-_Contorno" data-name="Fondo - Contorno" d="M1,1V1079H1919V1H1M0,0H1920V1080H0Z" transform="translate(2 -2)" fill="#707070"/>
      <g id="Formulario_cliente" data-name="Formulario cliente" transform="translate(-103.147 87.992)">
        <path id="Formulario_Cliente-2" data-name="Formulario Cliente" d="M28,1A26.977,26.977,0,0,0,1,28V549a26.977,26.977,0,0,0,27,27H800a26.977,26.977,0,0,0,27-27V28A26.977,26.977,0,0,0,800,1H28m0-1H800a28,28,0,0,1,28,28V549a28,28,0,0,1-28,28H28A28,28,0,0,1,0,549V28A28,28,0,0,1,28,0Z" transform="translate(636.147 185.008)" fill="#707070"/>
        <g id="Guardar" transform="translate(1341.626 686.358)">
          <rect id="Rectángulo_8" data-name="Rectángulo 8" width="106" height="50" rx="25" transform="translate(-0.479 -0.35)" fill="#2f2f2f"/>
          <path id="Rectángulo_8_-_Contorno" data-name="Rectángulo 8 - Contorno" d="M25,1a24.007,24.007,0,0,0-9.342,46.114A23.849,23.849,0,0,0,25,49H81A24.007,24.007,0,0,0,90.342,2.886,23.849,23.849,0,0,0,81,1H25m0-1H81a25,25,0,0,1,0,50H25A25,25,0,0,1,25,0Z" transform="translate(-0.479 -0.35)" fill="#707070"/>
          <text id="Guardar-2" data-name="Guardar" transform="translate(26.521 27.65)" fill="#b4b4b4" font-size="14" font-family="SegoeUI-Semibold, Segoe UI" font-weight="600"><tspan x="0" y="0">Guardar</tspan></text>
        </g>
        <g id="Limpiar" transform="translate(1213.415 686.358)">
          <rect id="Rectángulo_13" data-name="Rectángulo 13" width="105" height="50" rx="25" transform="translate(-0.268 -0.35)" fill="#2f2f2f"/>
          <path id="Rectángulo_13_-_Contorno" data-name="Rectángulo 13 - Contorno" d="M25,1a24.007,24.007,0,0,0-9.342,46.114A23.849,23.849,0,0,0,25,49H80A24.007,24.007,0,0,0,89.342,2.886,23.849,23.849,0,0,0,80,1H25m0-1H80a25,25,0,0,1,0,50H25A25,25,0,0,1,25,0Z" transform="translate(-0.268 -0.35)" fill="#707070"/>
          <text id="Limpiar-2" data-name="Limpiar" transform="translate(29.732 30.65)" fill="#b4b4b4" font-size="14" font-family="SegoeUI-Semibold, Segoe UI" font-weight="600"><tspan x="0" y="0">Limpiar</tspan></text>
        </g>
        <g id="Nombre_de_quien_recibe" data-name="Nombre de quien recibe" transform="translate(657.502 591.202)">
          <rect id="Rectángulo_11" data-name="Rectángulo 11" width="386" height="38" rx="19" transform="translate(-0.355 33.807)" fill="#2f2f2f"/>
          <path id="Rectángulo_11_-_Contorno" data-name="Rectángulo 11 - Contorno" d="M19,1A18,18,0,0,0,6.272,31.728,17.882,17.882,0,0,0,19,37H367A18,18,0,0,0,379.728,6.272,17.882,17.882,0,0,0,367,1H19m0-1H367a19,19,0,0,1,0,38H19A19,19,0,0,1,19,0Z" transform="translate(-0.355 33.807)" fill="#707070"/>
          <text id="Nombre_de_quien_recibe-2" data-name="Nombre de quien recibe" transform="translate(8.645 14.807)" fill="#b4b4b4" font-size="14" font-family="SegoeUI-Semibold, Segoe UI" font-weight="600"><tspan x="0" y="0">Nombre de quien recibe</tspan></text>
          <path id="keyboard_arrow_down_24dp_E8EAED_FILL0_wght400_GRAD0_opsz24" d="M249.512-628.269,240-637.781,242.219-640l7.292,7.292L256.8-640l2.219,2.219Z" transform="translate(118.334 688.069)" fill="#9b9b9b"/>
          <text id="_5_" data-name="5*" transform="translate(171.645 16.807)" fill="#76d0eb" font-size="16" font-family="SegoeUI-Semibold, Segoe UI" font-weight="600"><tspan x="0" y="0">5*</tspan></text>
        </g>
        <g id="Nombre_De_facturacion" data-name="Nombre De facturacion" transform="translate(657.502 506.062)">
          <text id="Nombre_de_facturacion-2" data-name="Nombre de facturacion" transform="translate(8.645 14.946)" fill="#b4b4b4" font-size="14" font-family="SegoeUI-Semibold, Segoe UI" font-weight="600"><tspan x="0" y="0">Nombre de facturacion</tspan></text>
          <rect id="Rectángulo_11-2" data-name="Rectángulo 11" width="386" height="38" rx="19" transform="translate(-0.355 27.946)" fill="#2f2f2f"/>
          <path id="Rectángulo_11_-_Contorno-2" data-name="Rectángulo 11 - Contorno" d="M19,1A18,18,0,0,0,6.272,31.728,17.882,17.882,0,0,0,19,37H367A18,18,0,0,0,379.728,6.272,17.882,17.882,0,0,0,367,1H19m0-1H367a19,19,0,0,1,0,38H19A19,19,0,0,1,19,0Z" transform="translate(-0.355 27.946)" fill="#707070"/>
          <text id="_4_" data-name="4*" transform="translate(163.645 16.946)" fill="#76d0eb" font-size="16" font-family="SegoeUI-Semibold, Segoe UI" font-weight="600"><tspan x="0" y="0">4*</tspan></text>
        </g>
        <g id="Telefonos" transform="translate(657.502 423.927)">
          <rect id="Rectángulo_18" data-name="Rectángulo 18" width="178" height="39" rx="19.5" transform="translate(-0.355 31.081)" fill="#2f2f2f"/>
          <path id="Rectángulo_18_-_Contorno" data-name="Rectángulo 18 - Contorno" d="M19.5,1a18.505,18.505,0,0,0-7.2,35.547A18.383,18.383,0,0,0,19.5,38h139a18.505,18.505,0,0,0,7.2-35.547A18.383,18.383,0,0,0,158.5,1H19.5m0-1h139a19.5,19.5,0,0,1,0,39H19.5a19.5,19.5,0,0,1,0-39Z" transform="translate(-0.355 31.081)" fill="#707070"/>
          <text id="Teléfono" transform="translate(16.645 15.081)" fill="#b4b4b4" font-size="14" font-family="SegoeUI-Semibold, Segoe UI" font-weight="600"><tspan x="0" y="0">Teléfono</tspan></text>
          <text id="_2_" data-name="2*" transform="translate(74.645 17.081)" fill="#76d0eb" font-size="16" font-family="SegoeUI-Semibold, Segoe UI" font-weight="600"><tspan x="0" y="0">2*</tspan></text>
          <path id="keyboard_arrow_down_24dp_E8EAED_FILL0_wght400_GRAD0_opsz24-2" data-name="keyboard_arrow_down_24dp_E8EAED_FILL0_wght400_GRAD0_opsz24" d="M249.512-628.269,240-637.781,242.219-640l7.292,7.292L256.8-640l2.219,2.219Z" transform="translate(-86.579 686.422)" fill="#9b9b9b"/>
        </g>
        <g id="Nombre_Cliente" data-name="Nombre Cliente" transform="translate(657.502 335.782)">
          <text id="Nombre_Cliente-2" data-name="Nombre Cliente" transform="translate(8.645 17.226)" fill="#b4b4b4" font-size="14" font-family="SegoeUI-Semibold, Segoe UI" font-weight="600"><tspan x="0" y="0">Nombre Cliente</tspan></text>
          <rect id="Rectángulo_11-3" data-name="Rectángulo 11" width="386" height="37" rx="18.5" transform="translate(-0.355 35.226)" fill="#2f2f2f"/>
          <path id="Rectángulo_11_-_Contorno-3" data-name="Rectángulo 11 - Contorno" d="M18.5,1A17.5,17.5,0,0,0,6.126,30.874,17.385,17.385,0,0,0,18.5,36h349A17.5,17.5,0,0,0,379.874,6.126,17.385,17.385,0,0,0,367.5,1H18.5m0-1h349a18.5,18.5,0,0,1,0,37H18.5a18.5,18.5,0,0,1,0-37Z" transform="translate(-0.355 35.226)" fill="#707070"/>
          <text id="_1_" data-name="1*" transform="translate(118.645 18.226)" fill="#76d0eb" font-size="17" font-family="SegoeUI-Semibold, Segoe UI" font-weight="600"><tspan x="0" y="0">1*</tspan></text>
        </g>
        <g id="Direccion" transform="translate(1068.177 333.779)">
          <text id="Direccion-2" data-name="Direccion" transform="translate(14.97 17.23)" fill="#b4b4b4" font-size="14" font-family="SegoeUI-Semibold, Segoe UI" font-weight="600"><tspan x="0" y="0">Dirección</tspan></text>
          <rect id="Rectángulo_11-4" data-name="Rectángulo 11" width="387" height="39" rx="19.5" transform="translate(-0.03 35.23)" fill="#2f2f2f"/>
          <path id="Rectángulo_11_-_Contorno-4" data-name="Rectángulo 11 - Contorno" d="M19.5,1a18.505,18.505,0,0,0-7.2,35.547A18.384,18.384,0,0,0,19.5,38h348a18.505,18.505,0,0,0,7.2-35.547A18.384,18.384,0,0,0,367.5,1H19.5m0-1h348a19.5,19.5,0,0,1,0,39H19.5a19.5,19.5,0,0,1,0-39Z" transform="translate(-0.03 35.23)" fill="#707070"/>
          <path id="keyboard_arrow_down_24dp_E8EAED_FILL0_wght400_GRAD0_opsz24-3" data-name="keyboard_arrow_down_24dp_E8EAED_FILL0_wght400_GRAD0_opsz24" d="M249.512-628.269,240-637.781,242.219-640l7.292,7.292L256.8-640l2.219,2.219Z" transform="translate(116.425 688.821)" fill="#9b9b9b"/>
          <text id="_6_" data-name="6*" transform="translate(79.97 17.23)" fill="#76d0eb" font-size="16" font-family="SegoeUI-Semibold, Segoe UI" font-weight="600"><tspan x="0" y="0">6*</tspan></text>
        </g>
        <g id="Buscador" transform="translate(850.82 263.664)">
          <rect id="Rectángulo_5" data-name="Rectángulo 5" width="416" height="44" rx="22" transform="translate(0.328 0.345)" fill="#2f2f2f"/>
          <path id="Rectángulo_5_-_Contorno" data-name="Rectángulo 5 - Contorno" d="M22,1a21.006,21.006,0,0,0-8.174,40.35A20.867,20.867,0,0,0,22,43H394a21.006,21.006,0,0,0,8.174-40.35A20.867,20.867,0,0,0,394,1H22m0-1H394a22,22,0,0,1,0,44H22A22,22,0,0,1,22,0Z" transform="translate(0.328 0.345)" fill="#707070"/>
          <path id="search_24dp_E8EAED_FILL0_wght400_GRAD0_opsz24" d="M137.5-821.029l-6.64-6.64a6.283,6.283,0,0,1-1.818,1,6.423,6.423,0,0,1-2.187.369,6.613,6.613,0,0,1-4.861-1.99A6.612,6.612,0,0,1,120-833.149a6.612,6.612,0,0,1,1.989-4.861,6.612,6.612,0,0,1,4.861-1.99,6.613,6.613,0,0,1,4.861,1.99,6.612,6.612,0,0,1,1.989,4.861,6.425,6.425,0,0,1-.369,2.187,6.281,6.281,0,0,1-1,1.818l6.64,6.64Zm-10.645-7.378a4.574,4.574,0,0,0,3.359-1.383,4.574,4.574,0,0,0,1.383-3.359,4.573,4.573,0,0,0-1.383-3.359,4.573,4.573,0,0,0-3.359-1.383,4.573,4.573,0,0,0-3.359,1.383,4.574,4.574,0,0,0-1.383,3.359,4.574,4.574,0,0,0,1.383,3.359A4.574,4.574,0,0,0,126.851-828.406Z" transform="translate(262.433 852.937)" fill="#9b9b9b"/>
        </g>
        <text id="Cliente" transform="translate(1018.147 239.008)" fill="#b4b4b4" font-size="20" font-family="SegoeUI-Semibold, Segoe UI" font-weight="600"><tspan x="0" y="0">Cliente</tspan></text>
        <g id="Sucursall" transform="translate(1075.188 421.923)">
          <rect id="Rectángulo_10" data-name="Rectángulo 10" width="380" height="39" rx="19.5" transform="translate(-0.041 33.085)" fill="#2f2f2f"/>
          <path id="Rectángulo_10_-_Contorno" data-name="Rectángulo 10 - Contorno" d="M19.5,1a18.505,18.505,0,0,0-7.2,35.547A18.384,18.384,0,0,0,19.5,38h341a18.505,18.505,0,0,0,7.2-35.547A18.384,18.384,0,0,0,360.5,1H19.5m0-1h341a19.5,19.5,0,0,1,0,39H19.5a19.5,19.5,0,0,1,0-39Z" transform="translate(-0.041 33.085)" fill="#707070"/>
          <path id="keyboard_arrow_down_24dp_E8EAED_FILL0_wght400_GRAD0_opsz24-4" data-name="keyboard_arrow_down_24dp_E8EAED_FILL0_wght400_GRAD0_opsz24" d="M249.512-628.269,240-637.781,242.219-640l7.292,7.292L256.8-640l2.219,2.219Z" transform="translate(108.623 686.701)" fill="#9b9b9b"/>
          <text id="NIT" transform="translate(18.959 17.085)" fill="#b4b4b4" font-size="14" font-family="SegoeUI-Semibold, Segoe UI" font-weight="600"><tspan x="0" y="0">Sucursal</tspan></text>
          <text id="_7_" data-name="7*" transform="translate(75.959 18.085)" fill="#76d0eb" font-size="17" font-family="SegoeUI-Semibold, Segoe UI" font-weight="600"><tspan x="0" y="0">7*</tspan></text>
        </g>
        <g id="Notas" transform="translate(1075.188 508.065)">
          <rect id="Rectángulo_10-2" data-name="Rectángulo 10" width="380" height="118" rx="23" transform="translate(-0.041 32.943)" fill="#2f2f2f"/>
          <path id="Rectángulo_10_-_Contorno-2" data-name="Rectángulo 10 - Contorno" d="M23,1A21.981,21.981,0,0,0,1,23V95a21.981,21.981,0,0,0,22,22H357a21.981,21.981,0,0,0,22-22V23A21.981,21.981,0,0,0,357,1H23m0-1H357a23,23,0,0,1,23,23V95a23,23,0,0,1-23,23H23A23,23,0,0,1,0,95V23A23,23,0,0,1,23,0Z" transform="translate(-0.041 32.943)" fill="#707070"/>
          <text id="NIT-2" data-name="NIT" transform="translate(18.959 16.943)" fill="#b4b4b4" font-size="14" font-family="SegoeUI-Semibold, Segoe UI" font-weight="600"><tspan x="0" y="0">Notas</tspan></text>
          <text id="_8_" data-name="8*" transform="translate(60.959 16.943)" fill="#76d0eb" font-size="16" font-family="SegoeUI-Semibold, Segoe UI" font-weight="600"><tspan x="0" y="0">8*</tspan></text>
        </g>
        <g id="NIT-3" data-name="NIT" transform="translate(865.844 423.927)">
          <path id="Trazado_2" data-name="Trazado 2" d="M15.046,0h147.19a15.046,15.046,0,0,1,15.046,15.046V24.2a15.046,15.046,0,0,1-15.046,15.046H15.046A15.046,15.046,0,0,1,0,24.2V15.046A15.046,15.046,0,0,1,15.046,0Z" transform="translate(0.479 30.937)" fill="#2f2f2f"/>
          <path id="Trazado_2_-_Contorno" data-name="Trazado 2 - Contorno" d="M15.046,1A14.046,14.046,0,0,0,1,15.046V24.2A14.046,14.046,0,0,0,15.046,38.251h147.19A14.046,14.046,0,0,0,176.283,24.2V15.046A14.046,14.046,0,0,0,162.236,1H15.046m0-1h147.19a15.046,15.046,0,0,1,15.046,15.046V24.2a15.046,15.046,0,0,1-15.046,15.046H15.046A15.046,15.046,0,0,1,0,24.2V15.046A15.046,15.046,0,0,1,15.046,0Z" transform="translate(0.479 30.937)" fill="#707070"/>
          <path id="keyboard_arrow_down_24dp_E8EAED_FILL0_wght400_GRAD0_opsz24-5" data-name="keyboard_arrow_down_24dp_E8EAED_FILL0_wght400_GRAD0_opsz24" d="M249.512-628.269,240-637.781,242.219-640l7.292,7.292L256.8-640l2.219,2.219Z" transform="translate(-92.204 685.114)" fill="#9b9b9b"/>
          <text id="NIT-4" data-name="NIT" transform="translate(19.303 15.081)" fill="#b4b4b4" font-size="14" font-family="SegoeUI-Semibold, Segoe UI" font-weight="600"><tspan x="0" y="0">NIT</tspan></text>
          <text id="_3_" data-name="3*" transform="translate(48.303 17.081)" fill="#76d0eb" font-size="16" font-family="SegoeUI-Semibold, Segoe UI" font-weight="600"><tspan x="0" y="0">3*</tspan></text>
          <g id="spam" transform="translate(0 73.12)">
            <rect id="Rectángulo_10-3" data-name="Rectángulo 10" width="177" height="118" rx="23" transform="translate(0.303 -0.039)" fill="#2f2f2f"/>
            <path id="Rectángulo_10_-_Contorno-3" data-name="Rectángulo 10 - Contorno" d="M23,1A21.981,21.981,0,0,0,1,23V95a21.981,21.981,0,0,0,22,22H154a21.981,21.981,0,0,0,22-22V23A21.981,21.981,0,0,0,154,1H23m0-1H154a23,23,0,0,1,23,23V95a23,23,0,0,1-23,23H23A23,23,0,0,1,0,95V23A23,23,0,0,1,23,0Z" transform="translate(0.303 -0.039)" fill="#707070"/>
            <g id="add_telefonos" data-name="add telefonos" transform="translate(8.013 8.013)">
              <rect id="Rectángulo_19" data-name="Rectángulo 19" width="162" height="28" rx="14" transform="translate(0.289 -0.052)" fill="#2f2f2f"/>
              <path id="Rectángulo_19_-_Contorno" data-name="Rectángulo 19 - Contorno" d="M14,1A13,13,0,0,0,4.808,23.192,12.915,12.915,0,0,0,14,27H148a13,13,0,0,0,9.192-22.192A12.915,12.915,0,0,0,148,1H14m0-1H148a14,14,0,0,1,0,28H14A14,14,0,0,1,14,0Z" transform="translate(0.289 -0.052)" fill="#707070"/>
              <path id="add_24dp_E8EAED_FILL0_wght400_GRAD0_opsz24" d="M204.3-754.269H200V-755.7h4.3V-760h1.433v4.3h4.3v1.433h-4.3v4.3H204.3Z" transform="translate(-52.929 768.553)" fill="#9b9b9b"/>
            </g>
            <g id="list_numeros" data-name="list numeros" transform="translate(19.05 38.935)">
              <text id="_35708405" data-name="35708405" transform="translate(0 15)" fill="#b4b4b4" font-size="14" font-family="SegoeUI-Semibold, Segoe UI" font-weight="600"><tspan x="0" y="0">35708405</tspan></text>
              <path id="delete_24dp_E8EAED_FILL0_wght400_GRAD0_opsz24" d="M161.84-828.961a1.181,1.181,0,0,1-.866-.36,1.181,1.181,0,0,1-.36-.866v-7.973H160v-1.227h3.066V-840h3.68v.613h3.066v1.227H169.2v7.973a1.181,1.181,0,0,1-.36.866,1.181,1.181,0,0,1-.866.36Zm6.133-9.2H161.84v7.973h6.133Zm-4.906,6.746h1.227v-5.52h-1.227Zm2.453,0h1.227v-5.52H165.52Zm-3.68-6.746v0Z" transform="translate(-25.748 844.293)" fill="#9b9b9b"/>
              <path id="edit_24dp_E8EAED_FILL0_wght400_GRAD0_opsz24" d="M121.227-830.187h.874l5.995-5.995-.874-.874-5.995,5.995ZM120-828.961v-2.607l8.1-8.08a1.378,1.378,0,0,1,.406-.261,1.21,1.21,0,0,1,.468-.092,1.267,1.267,0,0,1,.475.092,1.077,1.077,0,0,1,.4.276l.843.859a1,1,0,0,1,.268.4,1.328,1.328,0,0,1,.084.46,1.308,1.308,0,0,1-.084.468,1.15,1.15,0,0,1-.268.406l-4.729,4.729-3.351,3.351Zm9.813-8.954-.859-.859Zm-2.162,1.3-.429-.445.874.874Z" transform="translate(-6.713 844.293)" fill="#e8eaed"/>
            </g>
            <g id="list_numeros-2" data-name="list numeros" transform="translate(19.05 60.523)">
              <text id="_35708405-2" data-name="35708405" transform="translate(0 15)" fill="#b4b4b4" font-size="14" font-family="SegoeUI-Semibold, Segoe UI" font-weight="600"><tspan x="0" y="0">35708405</tspan></text>
              <path id="delete_24dp_E8EAED_FILL0_wght400_GRAD0_opsz24-2" data-name="delete_24dp_E8EAED_FILL0_wght400_GRAD0_opsz24" d="M161.84-828.961a1.181,1.181,0,0,1-.866-.36,1.181,1.181,0,0,1-.36-.866v-7.973H160v-1.227h3.066V-840h3.68v.613h3.066v1.227H169.2v7.973a1.181,1.181,0,0,1-.36.866,1.181,1.181,0,0,1-.866.36Zm6.133-9.2H161.84v7.973h6.133Zm-4.906,6.746h1.227v-5.52h-1.227Zm2.453,0h1.227v-5.52H165.52Zm-3.68-6.746v0Z" transform="translate(-25.748 844.293)" fill="#9b9b9b"/>
              <path id="edit_24dp_E8EAED_FILL0_wght400_GRAD0_opsz24-2" data-name="edit_24dp_E8EAED_FILL0_wght400_GRAD0_opsz24" d="M121.227-830.187h.874l5.995-5.995-.874-.874-5.995,5.995ZM120-828.961v-2.607l8.1-8.08a1.378,1.378,0,0,1,.406-.261,1.21,1.21,0,0,1,.468-.092,1.267,1.267,0,0,1,.475.092,1.077,1.077,0,0,1,.4.276l.843.859a1,1,0,0,1,.268.4,1.328,1.328,0,0,1,.084.46,1.308,1.308,0,0,1-.084.468,1.15,1.15,0,0,1-.268.406l-4.729,4.729-3.351,3.351Zm9.813-8.954-.859-.859Zm-2.162,1.3-.429-.445.874.874Z" transform="translate(-6.713 844.293)" fill="#e8eaed"/>
            </g>
            <g id="list_numeros-3" data-name="list numeros" transform="translate(19.05 82.111)">
              <text id="_35708405-3" data-name="35708405" transform="translate(0 15)" fill="#b4b4b4" font-size="14" font-family="SegoeUI-Semibold, Segoe UI" font-weight="600"><tspan x="0" y="0">35708405</tspan></text>
              <path id="delete_24dp_E8EAED_FILL0_wght400_GRAD0_opsz24-3" data-name="delete_24dp_E8EAED_FILL0_wght400_GRAD0_opsz24" d="M161.84-828.961a1.181,1.181,0,0,1-.866-.36,1.181,1.181,0,0,1-.36-.866v-7.973H160v-1.227h3.066V-840h3.68v.613h3.066v1.227H169.2v7.973a1.181,1.181,0,0,1-.36.866,1.181,1.181,0,0,1-.866.36Zm6.133-9.2H161.84v7.973h6.133Zm-4.906,6.746h1.227v-5.52h-1.227Zm2.453,0h1.227v-5.52H165.52Zm-3.68-6.746v0Z" transform="translate(-25.748 844.293)" fill="#9b9b9b"/>
              <path id="edit_24dp_E8EAED_FILL0_wght400_GRAD0_opsz24-3" data-name="edit_24dp_E8EAED_FILL0_wght400_GRAD0_opsz24" d="M121.227-830.187h.874l5.995-5.995-.874-.874-5.995,5.995ZM120-828.961v-2.607l8.1-8.08a1.378,1.378,0,0,1,.406-.261,1.21,1.21,0,0,1,.468-.092,1.267,1.267,0,0,1,.475.092,1.077,1.077,0,0,1,.4.276l.843.859a1,1,0,0,1,.268.4,1.328,1.328,0,0,1,.084.46,1.308,1.308,0,0,1-.084.468,1.15,1.15,0,0,1-.268.406l-4.729,4.729-3.351,3.351Zm9.813-8.954-.859-.859Zm-2.162,1.3-.429-.445.874.874Z" transform="translate(-6.713 844.293)" fill="#e8eaed"/>
            </g>
          </g>
          <text id="_123456789" data-name="123456789" transform="translate(19.303 56.081)" fill="#b4b4b4" font-size="14" font-family="SegoeUI-Semibold, Segoe UI" font-weight="600"><tspan x="0" y="0">123456789</tspan></text>
        </g>
      </g>
      <path id="arrow_forward_ios_24dp_E8EAED_FILL0_wght400_GRAD0_opsz24" d="M257.847-791.584,250-799.431l36.361-36.361L250-872.153,257.847-880l44.208,44.208Z" transform="translate(1586.5 1375.792)" fill="#2f2f2f"/>
      <path id="arrow_forward_ios_24dp_E8EAED_FILL0_wght400_GRAD0_opsz24-2" data-name="arrow_forward_ios_24dp_E8EAED_FILL0_wght400_GRAD0_opsz24" d="M257.847-791.584,250-799.431l36.361-36.361L250-872.153,257.847-880l44.208,44.208Z" transform="translate(358.66 -295.792) rotate(180)" fill="#2f2f2f"/>
      <path id="side_navigation_24dp_E8EAED_FILL0_wght400_GRAD0_opsz24" d="M124.512-797.895a4.269,4.269,0,0,1-3.186-1.374,4.59,4.59,0,0,1-1.325-3.3v-32.749a4.59,4.59,0,0,1,1.325-3.3A4.268,4.268,0,0,1,124.512-840h31.582a4.268,4.268,0,0,1,3.186,1.374,4.59,4.59,0,0,1,1.325,3.3v32.749a4.59,4.59,0,0,1-1.325,3.3,4.269,4.269,0,0,1-3.186,1.374Zm15.791-4.678h15.791v-32.749H140.3Z" transform="translate(-104 852.217)" fill="#b4b4b4"/>
      <g id="Bar_Menu" data-name="Bar Menu" transform="translate(319 33)">
        <g id="Rectángulo_17" data-name="Rectángulo 17" fill="none" stroke="#707070" stroke-width="1">
          <rect width="1260" height="66" rx="33" stroke="none"/>
          <rect x="0.5" y="0.5" width="1259" height="65" rx="32.5" fill="none"/>
        </g>
        <text id="_Ludwin" data-name="    Ludwin" transform="translate(1138 38)" fill="#212121" font-size="18" font-family="SegoeUI-Semibold, Segoe UI" font-weight="600"><tspan x="0" y="0"> </tspan><tspan y="0" xml:space="preserve" fill="#b4b4b4">   Ludwin</tspan></text>
        <text id="Gestion" transform="translate(31 38)" fill="#b4b4b4" font-size="18" font-family="SegoeUI-Semibold, Segoe UI" font-weight="600"><tspan x="0" y="0">Gestion</tspan></text>
        <text id="Cocina" transform="translate(131 38)" fill="#b4b4b4" font-size="18" font-family="SegoeUI-Semibold, Segoe UI" font-weight="600"><tspan x="0" y="0">Cocina</tspan></text>
        <text id="Call_Center" data-name="Call Center" transform="translate(224 38)" fill="#b4b4b4" font-size="18" font-family="SegoeUI-Semibold, Segoe UI" font-weight="600" text-decoration="underline"><tspan x="0" y="0">Call Center</tspan></text>
        <text id="Delivery" transform="translate(351 38)" fill="#b4b4b4" font-size="18" font-family="SegoeUI-Semibold, Segoe UI" font-weight="600"><tspan x="0" y="0">Delivery</tspan></text>
        <text id="Dashboard" transform="translate(456 38)" fill="#b4b4b4" font-size="18" font-family="SegoeUI-Semibold, Segoe UI" font-weight="600"><tspan x="0" y="0">Dashboard</tspan></text>
      </g>
      <rect id="Rectángulo_42" data-name="Rectángulo 42" width="1920" height="1080" transform="translate(2 -2)" fill="rgba(254,254,254,0.17)"/>
      <path id="Rectángulo_42_-_Contorno" data-name="Rectángulo 42 - Contorno" d="M1,1V1079H1919V1H1M0,0H1920V1080H0Z" transform="translate(2 -2)" fill="#707070"/>
    </g>
    <g id="Ingrese_nombre_de_facturacion" data-name="Ingrese nombre de facturacion" transform="translate(-294 -75)">
      <rect id="Rectángulo_21" data-name="Rectángulo 21" width="590" height="382" rx="39" transform="translate(960 424)" fill="#212121"/>
      <path id="Rectángulo_21_-_Contorno" data-name="Rectángulo 21 - Contorno" d="M39,1A37.968,37.968,0,0,0,1,39V343a37.968,37.968,0,0,0,38,38H551a37.968,37.968,0,0,0,38-38V39A37.968,37.968,0,0,0,551,1H39m0-1H551a39,39,0,0,1,39,39V343a39,39,0,0,1-39,39H39A39,39,0,0,1,0,343V39A39,39,0,0,1,39,0Z" transform="translate(960 424)" fill="#707070"/>
      <text id="Nombre_de_facturación_" data-name="Nombre de facturación " transform="translate(1026 476)" fill="#b4b4b4" font-size="22" font-family="SegoeUI-Semibold, Segoe UI" font-weight="600"><tspan x="0" y="0">Nombre de facturación </tspan></text>
      <rect id="Rectángulo_22" data-name="Rectángulo 22" width="499" height="60" rx="23" transform="translate(1006 499)" fill="#2f2f2f"/>
      <path id="Rectángulo_22_-_Contorno" data-name="Rectángulo 22 - Contorno" d="M23,1A21.981,21.981,0,0,0,1,23V37A21.981,21.981,0,0,0,23,59H476a21.981,21.981,0,0,0,22-22V23A21.981,21.981,0,0,0,476,1H23m0-1H476a23,23,0,0,1,23,23V37a23,23,0,0,1-23,23H23A23,23,0,0,1,0,37V23A23,23,0,0,1,23,0Z" transform="translate(1006 499)" fill="#707070"/>
      <g id="Guardar-3" data-name="Guardar" transform="translate(1344 691.207)">
        <rect id="Rectángulo_13-2" data-name="Rectángulo 13" width="161" height="77" rx="29" transform="translate(0 -0.207)" fill="#2f2f2f"/>
        <path id="Rectángulo_13_-_Contorno-2" data-name="Rectángulo 13 - Contorno" d="M29,1A27.976,27.976,0,0,0,1,29V48A27.976,27.976,0,0,0,29,76H132a27.976,27.976,0,0,0,28-28V29A27.976,27.976,0,0,0,132,1H29m0-1H132a29,29,0,0,1,29,29V48a29,29,0,0,1-29,29H29A29,29,0,0,1,0,48V29A29,29,0,0,1,29,0Z" transform="translate(0 -0.207)" fill="#707070"/>
        <text id="Guardar-4" data-name="Guardar" transform="translate(41 47.793)" fill="#b4b4b4" font-size="22" font-family="SegoeUI-Semibold, Segoe UI" font-weight="600"><tspan x="0" y="0">Guardar</tspan></text>
      </g>
      <text id="NIT_" data-name="NIT " transform="translate(1026 590)" fill="#b4b4b4" font-size="22" font-family="SegoeUI-Semibold, Segoe UI" font-weight="600"><tspan x="0" y="0">NIT </tspan></text>
      <rect id="Rectángulo_23" data-name="Rectángulo 23" width="499" height="60" rx="23" transform="translate(1006 604)" fill="#2f2f2f"/>
      <path id="Rectángulo_23_-_Contorno" data-name="Rectángulo 23 - Contorno" d="M23,1A21.981,21.981,0,0,0,1,23V37A21.981,21.981,0,0,0,23,59H476a21.981,21.981,0,0,0,22-22V23A21.981,21.981,0,0,0,476,1H23m0-1H476a23,23,0,0,1,23,23V37a23,23,0,0,1-23,23H23A23,23,0,0,1,0,37V23A23,23,0,0,1,23,0Z" transform="translate(1006 604)" fill="#707070"/>
      <g id="Cancelar" transform="translate(1164 691)">
        <g id="Rectángulo_13-3" data-name="Rectángulo 13" fill="#2f2f2f" stroke="#707070" stroke-width="1">
          <rect width="161" height="77" rx="29" stroke="none"/>
          <rect x="0.5" y="0.5" width="160" height="76" rx="28.5" fill="none"/>
        </g>
        <text id="Cancelar-2" data-name="Cancelar" transform="translate(41 48)" fill="#b4b4b4" font-size="22" font-family="SegoeUI-Semibold, Segoe UI" font-weight="600"><tspan x="0" y="0">Cancelar</tspan></text>
      </g>
    </g>
  </g>
</svg>
