<svg xmlns="http://www.w3.org/2000/svg" xmlns:xlink="http://www.w3.org/1999/xlink" width="1917" height="1080" viewBox="0 0 1917 1080">
  <defs>
    <clipPath id="clip-Call_Center_Cliente_Dirección_">
      <rect width="1917" height="1080"/>
    </clipPath>
  </defs>
  <g id="Call_Center_Cliente_Dirección_" data-name="Call Center Cliente Dirección " clip-path="url(#clip-Call_Center_Cliente_Dirección_)">
    <rect width="1917" height="1080" fill="#fff"/>
    <g id="Home" transform="translate(-5 2)">
      <rect id="Fondo" width="1920" height="1080" transform="translate(2 -2)" fill="#212121"/>
      <path id="Fondo_-_Contorno" data-name="Fondo - Contorno" d="M1,1V1079H1919V1H1M0,0H1920V1080H0Z" transform="translate(2 -2)" fill="#707070"/>
      <g id="Formulario_cliente" data-name="Formulario cliente" transform="translate(-103.515 87.734)">
        <path id="Formulario_Cliente-2" data-name="Formulario Cliente" d="M28,1A26.977,26.977,0,0,0,1,28V551a26.977,26.977,0,0,0,27,27H800a26.977,26.977,0,0,0,27-27V28A26.977,26.977,0,0,0,800,1H28m0-1H800a28,28,0,0,1,28,28V551a28,28,0,0,1-28,28H28A28,28,0,0,1,0,551V28A28,28,0,0,1,28,0Z" transform="translate(636.515 184.266)" fill="#707070"/>
        <g id="Guardar" transform="translate(1342.538 686.89)">
          <rect id="Rectángulo_8" data-name="Rectángulo 8" width="105" height="50" rx="25" transform="translate(-0.022 0.376)" fill="#2f2f2f"/>
          <path id="Rectángulo_8_-_Contorno" data-name="Rectángulo 8 - Contorno" d="M25,1a24.007,24.007,0,0,0-9.342,46.114A23.849,23.849,0,0,0,25,49H80A24.007,24.007,0,0,0,89.342,2.886,23.849,23.849,0,0,0,80,1H25m0-1H80a25,25,0,0,1,0,50H25A25,25,0,0,1,25,0Z" transform="translate(-0.022 0.376)" fill="#707070"/>
          <text id="Guardar-2" data-name="Guardar" transform="translate(25.978 28.376)" fill="#b4b4b4" font-size="14" font-family="SegoeUI-Semibold, Segoe UI" font-weight="600"><tspan x="0" y="0">Guardar</tspan></text>
        </g>
        <g id="Limpiar" transform="translate(1213.55 686.89)">
          <rect id="Rectángulo_13" data-name="Rectángulo 13" width="105" height="50" rx="25" transform="translate(-0.035 0.376)" fill="#2f2f2f"/>
          <path id="Rectángulo_13_-_Contorno" data-name="Rectángulo 13 - Contorno" d="M25,1a24.007,24.007,0,0,0-9.342,46.114A23.849,23.849,0,0,0,25,49H80A24.007,24.007,0,0,0,89.342,2.886,23.849,23.849,0,0,0,80,1H25m0-1H80a25,25,0,0,1,0,50H25A25,25,0,0,1,25,0Z" transform="translate(-0.035 0.376)" fill="#707070"/>
          <text id="Limpiar-2" data-name="Limpiar" transform="translate(29.965 30.376)" fill="#b4b4b4" font-size="14" font-family="SegoeUI-Semibold, Segoe UI" font-weight="600"><tspan x="0" y="0">Limpiar</tspan></text>
        </g>
        <g id="Nombre_de_quien_recibe" data-name="Nombre de quien recibe" transform="translate(657.659 591.295)">
          <rect id="Rectángulo_11" data-name="Rectángulo 11" width="386" height="38" rx="19" transform="translate(-0.144 33.971)" fill="#2f2f2f"/>
          <path id="Rectángulo_11_-_Contorno" data-name="Rectángulo 11 - Contorno" d="M19,1A18,18,0,0,0,6.272,31.728,17.882,17.882,0,0,0,19,37H367A18,18,0,0,0,379.728,6.272,17.882,17.882,0,0,0,367,1H19m0-1H367a19,19,0,0,1,0,38H19A19,19,0,0,1,19,0Z" transform="translate(-0.144 33.971)" fill="#707070"/>
          <text id="Nombre_de_quien_recibe-2" data-name="Nombre de quien recibe" transform="translate(8.856 14.971)" fill="#b4b4b4" font-size="14" font-family="SegoeUI-Semibold, Segoe UI" font-weight="600"><tspan x="0" y="0">Nombre de quien recibe</tspan></text>
          <path id="keyboard_arrow_down_24dp_E8EAED_FILL0_wght400_GRAD0_opsz24" d="M249.52-628.258l-9.52-9.52L242.221-640l7.3,7.3,7.3-7.3,2.221,2.221Z" transform="translate(118.514 688.38)" fill="#9b9b9b"/>
          <text id="_5_" data-name="5*" transform="translate(170.856 16.971)" fill="#76d0eb" font-size="16" font-family="SegoeUI-Semibold, Segoe UI" font-weight="600"><tspan x="0" y="0">5*</tspan></text>
        </g>
        <g id="Nombre_De_facturacion" data-name="Nombre De facturacion" transform="translate(657.659 506.831)">
          <text id="Nombre_de_facturacion-2" data-name="Nombre de facturacion" transform="translate(8.856 15.435)" fill="#b4b4b4" font-size="14" font-family="SegoeUI-Semibold, Segoe UI" font-weight="600"><tspan x="0" y="0">Nombre de facturacion</tspan></text>
          <rect id="Rectángulo_11-2" data-name="Rectángulo 11" width="386" height="37" rx="18.5" transform="translate(-0.144 34.435)" fill="#2f2f2f"/>
          <path id="Rectángulo_11_-_Contorno-2" data-name="Rectángulo 11 - Contorno" d="M18.5,1A17.5,17.5,0,0,0,6.126,30.874,17.385,17.385,0,0,0,18.5,36h349A17.5,17.5,0,0,0,379.874,6.126,17.385,17.385,0,0,0,367.5,1H18.5m0-1h349a18.5,18.5,0,0,1,0,37H18.5a18.5,18.5,0,0,1,0-37Z" transform="translate(-0.144 34.435)" fill="#707070"/>
          <text id="_4_" data-name="4*" transform="translate(163.856 17.435)" fill="#76d0eb" font-size="16" font-family="SegoeUI-Semibold, Segoe UI" font-weight="600"><tspan x="0" y="0">4*</tspan></text>
        </g>
        <g id="Telefonos" transform="translate(657.659 424.332)">
          <rect id="Rectángulo_18" data-name="Rectángulo 18" width="178" height="39" rx="19.5" transform="translate(-0.144 30.934)" fill="#2f2f2f"/>
          <path id="Rectángulo_18_-_Contorno" data-name="Rectángulo 18 - Contorno" d="M19.5,1a18.505,18.505,0,0,0-7.2,35.547A18.383,18.383,0,0,0,19.5,38h139a18.505,18.505,0,0,0,7.2-35.547A18.383,18.383,0,0,0,158.5,1H19.5m0-1h139a19.5,19.5,0,0,1,0,39H19.5a19.5,19.5,0,0,1,0-39Z" transform="translate(-0.144 30.934)" fill="#707070"/>
          <text id="Teléfono" transform="translate(16.856 14.934)" fill="#b4b4b4" font-size="14" font-family="SegoeUI-Semibold, Segoe UI" font-weight="600"><tspan x="0" y="0">Teléfono</tspan></text>
          <text id="_2_" data-name="2*" transform="translate(74.856 16.934)" fill="#76d0eb" font-size="16" font-family="SegoeUI-Semibold, Segoe UI" font-weight="600"><tspan x="0" y="0">2*</tspan></text>
          <path id="keyboard_arrow_down_24dp_E8EAED_FILL0_wght400_GRAD0_opsz24-2" data-name="keyboard_arrow_down_24dp_E8EAED_FILL0_wght400_GRAD0_opsz24" d="M249.52-628.258l-9.52-9.52L242.221-640l7.3,7.3,7.3-7.3,2.221,2.221Z" transform="translate(-86.581 686.272)" fill="#9b9b9b"/>
        </g>
        <g id="Nombre_Cliente" data-name="Nombre Cliente" transform="translate(657.659 335.939)">
          <text id="Nombre_Cliente-2" data-name="Nombre Cliente" transform="translate(8.856 17.327)" fill="#b4b4b4" font-size="14" font-family="SegoeUI-Semibold, Segoe UI" font-weight="600"><tspan x="0" y="0">Nombre Cliente</tspan></text>
          <rect id="Rectángulo_11-3" data-name="Rectángulo 11" width="386" height="38" rx="19" transform="translate(-0.144 34.327)" fill="#2f2f2f"/>
          <path id="Rectángulo_11_-_Contorno-3" data-name="Rectángulo 11 - Contorno" d="M19,1A18,18,0,0,0,6.272,31.728,17.882,17.882,0,0,0,19,37H367A18,18,0,0,0,379.728,6.272,17.882,17.882,0,0,0,367,1H19m0-1H367a19,19,0,0,1,0,38H19A19,19,0,0,1,19,0Z" transform="translate(-0.144 34.327)" fill="#707070"/>
          <text id="_1_" data-name="1*" transform="translate(117.856 18.327)" fill="#76d0eb" font-size="17" font-family="SegoeUI-Semibold, Segoe UI" font-weight="600"><tspan x="0" y="0">1*</tspan></text>
        </g>
        <g id="Direccion" transform="translate(1068.849 333.975)">
          <text id="Direccion-2" data-name="Direccion" transform="translate(14.667 17.291)" fill="#b4b4b4" font-size="14" font-family="SegoeUI-Semibold, Segoe UI" font-weight="600"><tspan x="0" y="0">Dirección</tspan></text>
          <rect id="Rectángulo_11-4" data-name="Rectángulo 11" width="387" height="39" rx="19.5" transform="translate(-0.334 35.291)" fill="#2f2f2f"/>
          <path id="Rectángulo_11_-_Contorno-4" data-name="Rectángulo 11 - Contorno" d="M19.5,1a18.505,18.505,0,0,0-7.2,35.547A18.384,18.384,0,0,0,19.5,38h348a18.505,18.505,0,0,0,7.2-35.547A18.384,18.384,0,0,0,367.5,1H19.5m0-1h348a19.5,19.5,0,0,1,0,39H19.5a19.5,19.5,0,0,1,0-39Z" transform="translate(-0.334 35.291)" fill="#707070"/>
          <path id="keyboard_arrow_down_24dp_E8EAED_FILL0_wght400_GRAD0_opsz24-3" data-name="keyboard_arrow_down_24dp_E8EAED_FILL0_wght400_GRAD0_opsz24" d="M249.52-628.258l-9.52-9.52L242.221-640l7.3,7.3,7.3-7.3,2.221,2.221Z" transform="translate(116.454 688.802)" fill="#9b9b9b"/>
          <text id="_6_" data-name="6*" transform="translate(79.667 17.291)" fill="#76d0eb" font-size="16" font-family="SegoeUI-Semibold, Segoe UI" font-weight="600"><tspan x="0" y="0">6*</tspan></text>
        </g>
        <g id="Buscador" transform="translate(850.814 263.261)">
          <rect id="Rectángulo_5" data-name="Rectángulo 5" width="418" height="45" rx="22.5" transform="translate(-0.298 0.005)" fill="#2f2f2f"/>
          <path id="Rectángulo_5_-_Contorno" data-name="Rectángulo 5 - Contorno" d="M22.5,1a21.506,21.506,0,0,0-8.368,41.311A21.365,21.365,0,0,0,22.5,44h373a21.506,21.506,0,0,0,8.368-41.311A21.365,21.365,0,0,0,395.5,1H22.5m0-1h373a22.5,22.5,0,0,1,0,45H22.5a22.5,22.5,0,0,1,0-45Z" transform="translate(-0.298 0.005)" fill="#707070"/>
          <path id="search_24dp_E8EAED_FILL0_wght400_GRAD0_opsz24" d="M137.511-821.012l-6.646-6.646a6.288,6.288,0,0,1-1.82,1,6.428,6.428,0,0,1-2.189.369,6.619,6.619,0,0,1-4.866-1.991A6.618,6.618,0,0,1,120-833.143a6.619,6.619,0,0,1,1.991-4.866A6.618,6.618,0,0,1,126.857-840a6.619,6.619,0,0,1,4.866,1.991,6.619,6.619,0,0,1,1.991,4.866,6.43,6.43,0,0,1-.369,2.189,6.289,6.289,0,0,1-1,1.82l6.646,6.646ZM126.857-828.4a4.578,4.578,0,0,0,3.362-1.385,4.578,4.578,0,0,0,1.385-3.362,4.578,4.578,0,0,0-1.385-3.362,4.577,4.577,0,0,0-3.362-1.385,4.577,4.577,0,0,0-3.362,1.385,4.578,4.578,0,0,0-1.385,3.362,4.578,4.578,0,0,0,1.385,3.362A4.578,4.578,0,0,0,126.857-828.4Z" transform="translate(262.969 853.423)" fill="#9b9b9b"/>
        </g>
        <text id="Cliente" transform="translate(1018.515 239.266)" fill="#b4b4b4" font-size="20" font-family="SegoeUI-Semibold, Segoe UI" font-weight="600"><tspan x="0" y="0">Cliente</tspan></text>
        <g id="Sucursall" transform="translate(1075.396 422.367)">
          <rect id="Rectángulo_10" data-name="Rectángulo 10" width="380" height="39" rx="19.5" transform="translate(0.119 32.899)" fill="#2f2f2f"/>
          <path id="Rectángulo_10_-_Contorno" data-name="Rectángulo 10 - Contorno" d="M19.5,1a18.505,18.505,0,0,0-7.2,35.547A18.384,18.384,0,0,0,19.5,38h341a18.505,18.505,0,0,0,7.2-35.547A18.384,18.384,0,0,0,360.5,1H19.5m0-1h341a19.5,19.5,0,0,1,0,39H19.5a19.5,19.5,0,0,1,0-39Z" transform="translate(0.119 32.899)" fill="#707070"/>
          <path id="keyboard_arrow_down_24dp_E8EAED_FILL0_wght400_GRAD0_opsz24-4" data-name="keyboard_arrow_down_24dp_E8EAED_FILL0_wght400_GRAD0_opsz24" d="M249.52-628.258l-9.52-9.52L242.221-640l7.3,7.3,7.3-7.3,2.221,2.221Z" transform="translate(109.115 686.51)" fill="#9b9b9b"/>
          <text id="NIT" transform="translate(19.119 16.899)" fill="#b4b4b4" font-size="14" font-family="SegoeUI-Semibold, Segoe UI" font-weight="600"><tspan x="0" y="0">Sucursal</tspan></text>
          <text id="_7_" data-name="7*" transform="translate(76.119 17.899)" fill="#76d0eb" font-size="17" font-family="SegoeUI-Semibold, Segoe UI" font-weight="600"><tspan x="0" y="0">7*</tspan></text>
        </g>
        <g id="Notas" transform="translate(1075.396 508.796)">
          <rect id="Rectángulo_10-2" data-name="Rectángulo 10" width="380" height="119" rx="23" transform="translate(0.119 32.47)" fill="#2f2f2f"/>
          <path id="Rectángulo_10_-_Contorno-2" data-name="Rectángulo 10 - Contorno" d="M23,1A21.981,21.981,0,0,0,1,23V96a21.981,21.981,0,0,0,22,22H357a21.981,21.981,0,0,0,22-22V23A21.981,21.981,0,0,0,357,1H23m0-1H357a23,23,0,0,1,23,23V96a23,23,0,0,1-23,23H23A23,23,0,0,1,0,96V23A23,23,0,0,1,23,0Z" transform="translate(0.119 32.47)" fill="#707070"/>
          <text id="NIT-2" data-name="NIT" transform="translate(19.119 16.47)" fill="#b4b4b4" font-size="14" font-family="SegoeUI-Semibold, Segoe UI" font-weight="600"><tspan x="0" y="0">Notas</tspan></text>
          <text id="_8_" data-name="8*" transform="translate(61.119 17.47)" fill="#76d0eb" font-size="16" font-family="SegoeUI-Semibold, Segoe UI" font-weight="600"><tspan x="0" y="0">8*</tspan></text>
        </g>
        <g id="NIT-3" data-name="NIT" transform="translate(866.528 423.677)">
          <path id="Trazado_2" data-name="Trazado 2" d="M15.059,0H162.38A15.059,15.059,0,0,1,177.44,15.059v9.167A15.059,15.059,0,0,1,162.38,39.286H15.059A15.059,15.059,0,0,1,0,24.226V15.059A15.059,15.059,0,0,1,15.059,0Z" transform="translate(0 31.428)" fill="#2f2f2f"/>
          <path id="Trazado_2_-_Contorno" data-name="Trazado 2 - Contorno" d="M15.059,1A14.059,14.059,0,0,0,1,15.059v9.167A14.059,14.059,0,0,0,15.059,38.286H162.38A14.06,14.06,0,0,0,176.44,24.226V15.059A14.06,14.06,0,0,0,162.38,1H15.059m0-1H162.38A15.059,15.059,0,0,1,177.44,15.059v9.167A15.059,15.059,0,0,1,162.38,39.286H15.059A15.059,15.059,0,0,1,0,24.226V15.059A15.059,15.059,0,0,1,15.059,0Z" transform="translate(0 31.428)" fill="#707070"/>
          <path id="keyboard_arrow_down_24dp_E8EAED_FILL0_wght400_GRAD0_opsz24-5" data-name="keyboard_arrow_down_24dp_E8EAED_FILL0_wght400_GRAD0_opsz24" d="M249.52-628.258l-9.52-9.52L242.221-640l7.3,7.3,7.3-7.3,2.221,2.221Z" transform="translate(-92.551 685.617)" fill="#9b9b9b"/>
          <text id="NIT-4" data-name="NIT" transform="translate(18.987 15.589)" fill="#b4b4b4" font-size="14" font-family="SegoeUI-Semibold, Segoe UI" font-weight="600"><tspan x="0" y="0">NIT</tspan></text>
          <text id="_3_" data-name="3*" transform="translate(47.987 16.589)" fill="#76d0eb" font-size="16" font-family="SegoeUI-Semibold, Segoe UI" font-weight="600"><tspan x="0" y="0">3*</tspan></text>
        </g>
        <g id="spam" transform="translate(1069.503 415.165)">
          <rect id="Rectángulo_10-3" data-name="Rectángulo 10" width="385" height="118" rx="23" transform="translate(0.012 0.101)" fill="#2f2f2f"/>
          <path id="Rectángulo_10_-_Contorno-3" data-name="Rectángulo 10 - Contorno" d="M23,1A21.981,21.981,0,0,0,1,23V95a21.981,21.981,0,0,0,22,22H362a21.981,21.981,0,0,0,22-22V23A21.981,21.981,0,0,0,362,1H23m0-1H362a23,23,0,0,1,23,23V95a23,23,0,0,1-23,23H23A23,23,0,0,1,0,95V23A23,23,0,0,1,23,0Z" transform="translate(0.012 0.101)" fill="#707070"/>
          <g id="add_telefonos" data-name="add telefonos" transform="translate(7.202 7.202)">
            <rect id="Rectángulo_19" data-name="Rectángulo 19" width="371" height="28" rx="14" transform="translate(-0.19 -0.101)" fill="#2f2f2f"/>
            <path id="Rectángulo_19_-_Contorno" data-name="Rectángulo 19 - Contorno" d="M14,1A13,13,0,0,0,4.808,23.192,12.915,12.915,0,0,0,14,27H357a13,13,0,0,0,9.192-22.192A12.915,12.915,0,0,0,357,1H14m0-1H357a14,14,0,0,1,0,28H14A14,14,0,0,1,14,0Z" transform="translate(-0.19 -0.101)" fill="#707070"/>
            <path id="add_24dp_E8EAED_FILL0_wght400_GRAD0_opsz24" d="M204.3-754.264H200V-755.7h4.3V-760h1.434v4.3h4.3v1.434h-4.3v4.3H204.3Z" transform="translate(155.376 769.039)" fill="#9b9b9b"/>
          </g>
          <g id="list_numeros" data-name="list numeros" transform="translate(18.588 38.631)">
            <text id="Proyectos_4-4_av_las_Américas_zona_17" data-name="Proyectos 4-4 av las Américas zona 17" transform="translate(0 15)" fill="#b4b4b4" font-size="14" font-family="SegoeUI-Semibold, Segoe UI" font-weight="600"><tspan x="0" y="0">Proyectos 4-4 av las Américas zona 17</tspan></text>
            <path id="delete_24dp_E8EAED_FILL0_wght400_GRAD0_opsz24" d="M161.842-828.951a1.182,1.182,0,0,1-.867-.361,1.182,1.182,0,0,1-.361-.867v-7.98H160v-1.228h3.069V-840h3.683v.614h3.069v1.228h-.614v7.98a1.182,1.182,0,0,1-.361.867,1.182,1.182,0,0,1-.867.361Zm6.138-9.208h-6.138v7.98h6.138Zm-4.911,6.752H164.3v-5.525h-1.228Zm2.455,0h1.228v-5.525h-1.228Zm-3.683-6.752v0Z" transform="translate(182.206 844.297)" fill="#9b9b9b"/>
            <path id="edit_24dp_E8EAED_FILL0_wght400_GRAD0_opsz24" d="M121.228-830.179h.875l6-6-.875-.875-6,6ZM120-828.951v-2.609l8.1-8.087a1.379,1.379,0,0,1,.407-.261,1.212,1.212,0,0,1,.468-.092,1.269,1.269,0,0,1,.476.092,1.079,1.079,0,0,1,.4.276l.844.859a1,1,0,0,1,.269.4,1.329,1.329,0,0,1,.084.46,1.309,1.309,0,0,1-.084.468,1.151,1.151,0,0,1-.269.407l-4.734,4.734-3.354,3.354Zm9.821-8.962-.859-.859Zm-2.164,1.3-.43-.445.875.875Z" transform="translate(201.223 844.297)" fill="#e8eaed"/>
          </g>
          <g id="list_numeros-2" data-name="list numeros" transform="translate(18.588 60.238)">
            <text id="Proyectos_4-4_av_las_Américas_zona_17-2" data-name="Proyectos 4-4 av las Américas zona 17" transform="translate(0 15)" fill="#b4b4b4" font-size="14" font-family="SegoeUI-Semibold, Segoe UI" font-weight="600"><tspan x="0" y="0">Proyectos 4-4 av las Américas zona 17</tspan></text>
            <path id="delete_24dp_E8EAED_FILL0_wght400_GRAD0_opsz24-2" data-name="delete_24dp_E8EAED_FILL0_wght400_GRAD0_opsz24" d="M161.842-828.951a1.182,1.182,0,0,1-.867-.361,1.182,1.182,0,0,1-.361-.867v-7.98H160v-1.228h3.069V-840h3.683v.614h3.069v1.228h-.614v7.98a1.182,1.182,0,0,1-.361.867,1.182,1.182,0,0,1-.867.361Zm6.138-9.208h-6.138v7.98h6.138Zm-4.911,6.752H164.3v-5.525h-1.228Zm2.455,0h1.228v-5.525h-1.228Zm-3.683-6.752v0Z" transform="translate(182.206 844.297)" fill="#9b9b9b"/>
            <path id="edit_24dp_E8EAED_FILL0_wght400_GRAD0_opsz24-2" data-name="edit_24dp_E8EAED_FILL0_wght400_GRAD0_opsz24" d="M121.228-830.179h.875l6-6-.875-.875-6,6ZM120-828.951v-2.609l8.1-8.087a1.379,1.379,0,0,1,.407-.261,1.212,1.212,0,0,1,.468-.092,1.269,1.269,0,0,1,.476.092,1.079,1.079,0,0,1,.4.276l.844.859a1,1,0,0,1,.269.4,1.329,1.329,0,0,1,.084.46,1.309,1.309,0,0,1-.084.468,1.151,1.151,0,0,1-.269.407l-4.734,4.734-3.354,3.354Zm9.821-8.962-.859-.859Zm-2.164,1.3-.43-.445.875.875Z" transform="translate(201.223 844.297)" fill="#e8eaed"/>
          </g>
          <g id="list_numeros-3" data-name="list numeros" transform="translate(18.588 81.845)">
            <text id="Proyectos_4-4_av_las_Américas_zona_17-3" data-name="Proyectos 4-4 av las Américas zona 17" transform="translate(0 15)" fill="#b4b4b4" font-size="14" font-family="SegoeUI-Semibold, Segoe UI" font-weight="600"><tspan x="0" y="0">Proyectos 4-4 av las Américas zona 17</tspan></text>
            <path id="delete_24dp_E8EAED_FILL0_wght400_GRAD0_opsz24-3" data-name="delete_24dp_E8EAED_FILL0_wght400_GRAD0_opsz24" d="M161.842-828.951a1.182,1.182,0,0,1-.867-.361,1.182,1.182,0,0,1-.361-.867v-7.98H160v-1.228h3.069V-840h3.683v.614h3.069v1.228h-.614v7.98a1.182,1.182,0,0,1-.361.867,1.182,1.182,0,0,1-.867.361Zm6.138-9.208h-6.138v7.98h6.138Zm-4.911,6.752H164.3v-5.525h-1.228Zm2.455,0h1.228v-5.525h-1.228Zm-3.683-6.752v0Z" transform="translate(182.206 844.297)" fill="#9b9b9b"/>
            <path id="edit_24dp_E8EAED_FILL0_wght400_GRAD0_opsz24-3" data-name="edit_24dp_E8EAED_FILL0_wght400_GRAD0_opsz24" d="M121.228-830.179h.875l6-6-.875-.875-6,6ZM120-828.951v-2.609l8.1-8.087a1.379,1.379,0,0,1,.407-.261,1.212,1.212,0,0,1,.468-.092,1.269,1.269,0,0,1,.476.092,1.079,1.079,0,0,1,.4.276l.844.859a1,1,0,0,1,.269.4,1.329,1.329,0,0,1,.084.46,1.309,1.309,0,0,1-.084.468,1.151,1.151,0,0,1-.269.407l-4.734,4.734-3.354,3.354Zm9.821-8.962-.859-.859Zm-2.164,1.3-.43-.445.875.875Z" transform="translate(201.223 844.297)" fill="#e8eaed"/>
          </g>
        </g>
      </g>
      <path id="arrow_forward_ios_24dp_E8EAED_FILL0_wght400_GRAD0_opsz24" d="M257.847-791.584,250-799.431l36.361-36.361L250-872.153,257.847-880l44.208,44.208Z" transform="translate(1586.5 1375.792)" fill="#2f2f2f"/>
      <path id="arrow_forward_ios_24dp_E8EAED_FILL0_wght400_GRAD0_opsz24-2" data-name="arrow_forward_ios_24dp_E8EAED_FILL0_wght400_GRAD0_opsz24" d="M257.847-791.584,250-799.431l36.361-36.361L250-872.153,257.847-880l44.208,44.208Z" transform="translate(358.66 -295.792) rotate(180)" fill="#2f2f2f"/>
      <path id="side_navigation_24dp_E8EAED_FILL0_wght400_GRAD0_opsz24" d="M124.512-797.895a4.269,4.269,0,0,1-3.186-1.374,4.59,4.59,0,0,1-1.325-3.3v-32.749a4.59,4.59,0,0,1,1.325-3.3A4.268,4.268,0,0,1,124.512-840h31.582a4.268,4.268,0,0,1,3.186,1.374,4.59,4.59,0,0,1,1.325,3.3v32.749a4.59,4.59,0,0,1-1.325,3.3,4.269,4.269,0,0,1-3.186,1.374Zm15.791-4.678h15.791v-32.749H140.3Z" transform="translate(-104 852.217)" fill="#b4b4b4"/>
    </g>
    <g id="Bar_Menu" data-name="Bar Menu" transform="translate(321 29)">
      <g id="Rectángulo_17" data-name="Rectángulo 17" fill="none" stroke="#707070" stroke-width="1">
        <rect width="1260" height="66" rx="33" stroke="none"/>
        <rect x="0.5" y="0.5" width="1259" height="65" rx="32.5" fill="none"/>
      </g>
      <text id="_Ludwin" data-name="    Ludwin" transform="translate(1138 38)" fill="#212121" font-size="18" font-family="SegoeUI-Semibold, Segoe UI" font-weight="600"><tspan x="0" y="0"> </tspan><tspan y="0" xml:space="preserve" fill="#b4b4b4">   Ludwin</tspan></text>
      <text id="Gestion" transform="translate(31 38)" fill="#b4b4b4" font-size="18" font-family="SegoeUI-Semibold, Segoe UI" font-weight="600"><tspan x="0" y="0">Gestion</tspan></text>
      <text id="Cocina" transform="translate(131 38)" fill="#b4b4b4" font-size="18" font-family="SegoeUI-Semibold, Segoe UI" font-weight="600"><tspan x="0" y="0">Cocina</tspan></text>
      <text id="Call_Center" data-name="Call Center" transform="translate(224 38)" fill="#b4b4b4" font-size="18" font-family="SegoeUI-Semibold, Segoe UI" font-weight="600" text-decoration="underline"><tspan x="0" y="0">Call Center</tspan></text>
      <text id="Delivery" transform="translate(351 38)" fill="#b4b4b4" font-size="18" font-family="SegoeUI-Semibold, Segoe UI" font-weight="600"><tspan x="0" y="0">Delivery</tspan></text>
      <text id="Dashboard" transform="translate(456 38)" fill="#b4b4b4" font-size="18" font-family="SegoeUI-Semibold, Segoe UI" font-weight="600"><tspan x="0" y="0">Dashboard</tspan></text>
    </g>
  </g>
</svg>
