<svg xmlns="http://www.w3.org/2000/svg" xmlns:xlink="http://www.w3.org/1999/xlink" width="1921" height="1080" viewBox="0 0 1921 1080">
  <defs>
    <clipPath id="clip-path">
      <rect width="339" height="44" fill="none"/>
    </clipPath>
    <clipPath id="clip-Call_Center_Pedido_Desplegado_Cliente">
      <rect width="1921" height="1080"/>
    </clipPath>
  </defs>
  <g id="Call_Center_Pedido_Desplegado_Cliente" data-name="Call Center Pedido Desplegado Cliente" clip-path="url(#clip-Call_Center_Pedido_Desplegado_Cliente)">
    <rect width="1921" height="1080" fill="#fff"/>
    <g id="Home">
      <rect id="Fondo" width="1920" height="1080" fill="#212121"/>
      <path id="Fondo_-_Contorno" data-name="Fondo - Contorno" d="M1,1V1079H1919V1H1M0,0H1920V1080H0Z" fill="#707070"/>
      <g id="Pedidos">
        <rect id="Pedidos-2" data-name="Pedidos" width="472" height="1080" fill="#171717"/>
        <path id="Pedidos_-_Contorno" data-name="Pedidos - Contorno" d="M1,1V1079H471V1H1M0,0H472V1080H0Z" fill="#707070"/>
        <g id="Barra_de_navegacion_pedidos_hechos" data-name="Barra de navegacion pedidos hechos" transform="translate(101.289 65.094)">
          <path id="Barra_de_navegacion" data-name="Barra de navegacion" d="M0,0H24.5V896.842H0Z" transform="translate(346.211 -0.015)" fill="#424242"/>
          <rect id="Barra" width="24" height="412" transform="translate(346.711 24.176)" fill="#686868"/>
          <path id="Barra_-_Contorno" data-name="Barra - Contorno" d="M1,1V411H23V1H1M0,0H24V412H0Z" transform="translate(346.711 24.176)" fill="#707070"/>
          <g id="boton_barra_de_navegacion" data-name="boton barra de navegacion" transform="translate(346.711 874.636)">
            <rect id="Rectángulo_2" data-name="Rectángulo 2" width="24" height="22" fill="#424242"/>
            <path id="Rectángulo_2_-_Contorno" data-name="Rectángulo 2 - Contorno" d="M1,1V21H23V1H1M0,0H24V22H0Z" fill="#707070"/>
            <path id="Polígono_1" data-name="Polígono 1" d="M8,0l8,12H0Z" transform="translate(20 16) rotate(180)" fill="#686868"/>
            <path id="Polígono_1_-_Contorno" data-name="Polígono 1 - Contorno" d="M8,1.8,1.869,11H14.131L8,1.8M8,0l8,12H0Z" transform="translate(20 16) rotate(180)" fill="#707070"/>
          </g>
          <g id="boton_barra_de_navegacion-2" data-name="boton barra de navegacion" transform="translate(346.711 0.176)">
            <rect id="Rectángulo_2-2" data-name="Rectángulo 2" width="24" height="22" fill="#424242"/>
            <path id="Rectángulo_2_-_Contorno-2" data-name="Rectángulo 2 - Contorno" d="M1,1V21H23V1H1M0,0H24V22H0Z" fill="#707070"/>
            <path id="Polígono_1-2" data-name="Polígono 1" d="M8,0l8,11H0Z" transform="translate(4 4)" fill="#686868"/>
            <path id="Polígono_1_-_Contorno-2" data-name="Polígono 1 - Contorno" d="M8,1.7,1.964,10H14.036L8,1.7M8,0l8,11H0Z" transform="translate(4 4)" fill="#707070"/>
          </g>
        </g>
        <path id="side_navigation_24dp_E8EAED_FILL0_wght400_GRAD0_opsz24" d="M124.512-797.895a4.269,4.269,0,0,1-3.186-1.374,4.59,4.59,0,0,1-1.325-3.3v-32.749a4.59,4.59,0,0,1,1.325-3.3A4.268,4.268,0,0,1,124.512-840h31.582a4.268,4.268,0,0,1,3.186,1.374,4.59,4.59,0,0,1,1.325,3.3v32.749a4.59,4.59,0,0,1-1.325,3.3,4.269,4.269,0,0,1-3.186,1.374Zm15.791-4.678h15.791v-32.749H140.3Z" transform="translate(-104 852.217)" fill="#b4b4b4"/>
        <g id="Tarjeta_del_pedido" data-name="Tarjeta del pedido" transform="translate(-12.697 -15.921)">
          <rect id="Rectángulo_16" data-name="Rectángulo 16" width="384" height="919" rx="16" transform="translate(51 81)" fill="#2f2f2f"/>
          <text id="Pedido:_123568" data-name="Pedido:
#123568" transform="translate(241 103)" fill="#b4b4b4" font-size="18" font-family="SegoeUI-Semibold, Segoe UI" font-weight="600"><tspan x="-30.48" y="0">Pedido:</tspan><tspan x="-33.952" y="24">#123568</tspan></text>
          <text id="Estado:_En_camino" data-name="Estado: 
En camino" transform="translate(73 157)" fill="#b4b4b4" font-size="18" font-family="SegoeUI-Semibold, Segoe UI" font-weight="600"><tspan x="0" y="0" text-decoration="underline">Estado</tspan><tspan y="0">: </tspan><tspan x="0" y="24">En camino</tspan></text>
          <text id="Registrado:_Madisson_Ramirez" data-name="Registrado:
Madisson Ramirez" transform="translate(407 157)" fill="#b4b4b4" font-size="18" font-family="SegoeUI-Semibold, Segoe UI" font-weight="600"><tspan x="-92.101" y="0" text-decoration="underline">Registrado</tspan><tspan y="0">:</tspan><tspan x="-148.975" y="24">Madisson Ramirez</tspan></text>
          <path id="Trazado_3" data-name="Trazado 3" d="M388,.5H5.43v-1H388Z" transform="translate(46.5 266)" fill="#707070"/>
          <text id="Nombre:_Mario_Estrada" data-name="Nombre:
Mario Estrada" transform="translate(59 329)" fill="#b4b4b4" font-size="18" font-family="SegoeUI-Semibold, Segoe UI" font-weight="600"><tspan x="0" y="0" text-decoration="underline">Nombre</tspan><tspan y="0">:</tspan><tspan x="0" y="24">Mario Estrada</tspan></text>
          <text id="Datos_de_entega" data-name="Datos de entega" transform="translate(169 288)" fill="#b4b4b4" font-size="20" font-family="SegoeUI-Semibold, Segoe UI" font-weight="600"><tspan x="0" y="0">Datos de entega</tspan></text>
          <text id="Teléfono:_35708405" data-name="Teléfono:
35708405" transform="translate(407 329)" fill="#b4b4b4" font-size="18" font-family="SegoeUI-Semibold, Segoe UI" font-weight="600"><tspan x="-74.558" y="0" text-decoration="underline">Teléfono</tspan><tspan y="0">:</tspan><tspan x="-79.98" y="24">35708405</tspan></text>
          <text id="Dirección:_KM_16.5_Condominio_Altos_de_Arrazola_casa_D-8" data-name="Dirección:
KM 16.5 Condominio Altos de Arrazola casa D-8" transform="translate(67 370)" fill="#b4b4b4" font-size="18" font-family="SegoeUI-Semibold, Segoe UI" font-weight="600"><tspan x="133.548" y="19" text-decoration="underline">Dirección</tspan><tspan y="19">:</tspan><tspan x="16.632" y="43">KM 16.5 Condominio Altos de Arrazola </tspan><tspan x="138.949" y="67">casa D-8</tspan></text>
          <text id="Nota:_Cuidado_con_el_perro_Tocar_Timbre" data-name="Nota:
Cuidado con el perro, Tocar Timbre" transform="translate(67 508)" fill="#b4b4b4" font-size="18" font-family="SegoeUI-Semibold, Segoe UI" font-weight="600"><tspan text-decoration="underline"><tspan x="151.601" y="19">Nota:</tspan></tspan><tspan x="30.725" y="43">Cuidado con el perro, Tocar Timbre</tspan></text>
          <text id="Centro_de_despacho:_Bennets_CAES" data-name="Centro de despacho:
Bennets CAES" transform="translate(82 455)" fill="#b4b4b4" font-size="18" font-family="SegoeUI-Semibold, Segoe UI" font-weight="600"><tspan text-decoration="underline"><tspan x="74.731" y="19">Centro de despacho:</tspan></tspan><tspan x="102.202" y="43">Bennets CAES</tspan></text>
          <path id="Trazado_4" data-name="Trazado 4" transform="translate(241.5 89.5)" fill="#707070"/>
          <path id="Trazado_5" data-name="Trazado 5" d="M384,.5H0v-1H384Z" transform="translate(49 575)" fill="#707070"/>
          <text id="Datos_de_facturacion" data-name="Datos de facturacion" transform="translate(150 611)" fill="#b4b4b4" font-size="20" font-family="SegoeUI-Semibold, Segoe UI" font-weight="600"><tspan x="0" y="0">Datos de facturacion</tspan></text>
          <text id="Nombre:_Mario_Estrada-2" data-name="Nombre:
Mario Estrada" transform="translate(59 634)" fill="#b4b4b4" font-size="18" font-family="SegoeUI-Semibold, Segoe UI" font-weight="600"><tspan x="0" y="0" text-decoration="underline">Nombre</tspan><tspan y="0">:</tspan><tspan x="0" y="24">Mario Estrada</tspan></text>
          <text id="NIT:_35708405" data-name="NIT:
35708405" transform="translate(407 634)" fill="#b4b4b4" font-size="18" font-family="SegoeUI-Semibold, Segoe UI" font-weight="600"><tspan x="-33.144" y="0" text-decoration="underline">NIT</tspan><tspan y="0">:</tspan><tspan x="-79.98" y="24">35708405</tspan></text>
          <path id="Línea_1" data-name="Línea 1" d="M382,.5H0v-1H382Z" transform="translate(51.5 674.5)" fill="#707070"/>
          <text id="Estados" transform="translate(212.5 697.5)" fill="#b4b4b4" font-size="20" font-family="SegoeUI-Semibold, Segoe UI" font-weight="600"><tspan x="0" y="0">Estados</tspan></text>
          <text id="Confirmado:_11_07_24_2:00_PM" data-name="Confirmado:
11/07/24 2:00 PM" transform="translate(59 743)" fill="#b4b4b4" font-size="18" font-family="SegoeUI-Semibold, Segoe UI" font-weight="600"><tspan x="0" y="0">Confirmado:</tspan><tspan x="0" y="24">11/07/24 2:00 PM</tspan></text>
          <text id="En_preparación:_11_07_24_2:00_PM" data-name="En preparación:
11/07/24 2:00 PM" transform="translate(415 743)" fill="#b4b4b4" font-size="18" font-family="SegoeUI-Semibold, Segoe UI" font-weight="600"><tspan x="-126.527" y="0">En preparación:</tspan><tspan x="-140.757" y="24">11/07/24 2:00 PM</tspan></text>
          <text id="En_Camino:_11_07_24_2:00_PM" data-name="En Camino:
11/07/24 2:00 PM" transform="translate(59 803)" fill="#b4b4b4" font-size="18" font-family="SegoeUI-Semibold, Segoe UI" font-weight="600"><tspan x="0" y="0">En Camino:</tspan><tspan x="0" y="24">11/07/24 2:00 PM</tspan></text>
          <text id="Entregado:_11_07_24_2:00_PM" data-name="Entregado:
11/07/24 2:00 PM" transform="translate(415 803)" fill="#b4b4b4" font-size="18" font-family="SegoeUI-Semibold, Segoe UI" font-weight="600"><tspan x="-88.567" y="0">Entregado:</tspan><tspan x="-140.757" y="24">11/07/24 2:00 PM</tspan></text>
          <text id="Detalles_del_pedido" data-name="Detalles del pedido" transform="translate(156 870.921)" fill="#b4b4b4" font-size="20" font-family="SegoeUI-Semibold, Segoe UI" font-weight="600"><tspan x="0" y="0">Detalles del pedido</tspan></text>
          <text id="N_" data-name="N#" transform="translate(67 897.921)" fill="#b4b4b4" font-size="15" font-family="SegoeUI-Semibold, Segoe UI" font-weight="600"><tspan x="0" y="0">N#</tspan></text>
          <text id="Nombre:" transform="translate(96 897.921)" fill="#b4b4b4" font-size="15" font-family="SegoeUI-Semibold, Segoe UI" font-weight="600"><tspan x="0" y="0">Nombre:</tspan></text>
          <text id="Coste:" transform="translate(373 897.921)" fill="#b4b4b4" font-size="15" font-family="SegoeUI-Semibold, Segoe UI" font-weight="600"><tspan x="0" y="0">Coste:</tspan></text>
          <g id="Cuadrícula_de_repetición_1" data-name="Cuadrícula de repetición 1" transform="translate(74 907.921)" clip-path="url(#clip-path)">
            <g id="Grupo_2" data-name="Grupo 2" transform="translate(-74 -907.921)">
              <text id="_1" data-name="1" transform="translate(74 923.921)" fill="#b4b4b4" font-size="15" font-family="SegoeUI-Semibold, Segoe UI" font-weight="600"><tspan x="0" y="0">1</tspan></text>
              <text id="Pizza_Alfredo_Chicken:_personal" data-name="Pizza Alfredo Chicken: personal" transform="translate(96 923.921)" fill="#b4b4b4" font-size="15" font-family="SegoeUI-Semibold, Segoe UI" font-weight="600"><tspan x="0" y="0">Pizza Alfredo Chicken: personal</tspan></text>
              <text id="_35.00" data-name="35.00" transform="translate(376 923.921)" fill="#b4b4b4" font-size="15" font-family="SegoeUI-Semibold, Segoe UI" font-weight="600"><tspan x="0" y="0">35.00</tspan></text>
            </g>
            <g id="Grupo_2-2" data-name="Grupo 2" transform="translate(-74 -887.921)">
              <text id="_1-2" data-name="1" transform="translate(74 923.921)" fill="#b4b4b4" font-size="15" font-family="SegoeUI-Semibold, Segoe UI" font-weight="600"><tspan x="0" y="0">1</tspan></text>
              <text id="Pizza_Alfredo_Chicken:_personal-2" data-name="Pizza Alfredo Chicken: personal" transform="translate(96 923.921)" fill="#b4b4b4" font-size="15" font-family="SegoeUI-Semibold, Segoe UI" font-weight="600"><tspan x="0" y="0">Pizza Alfredo Chicken: personal</tspan></text>
              <text id="_35.00-2" data-name="35.00" transform="translate(376 923.921)" fill="#b4b4b4" font-size="15" font-family="SegoeUI-Semibold, Segoe UI" font-weight="600"><tspan x="0" y="0">35.00</tspan></text>
            </g>
            <g id="Grupo_2-3" data-name="Grupo 2" transform="translate(-74 -867.921)">
              <text id="_1-3" data-name="1" transform="translate(74 923.921)" fill="#b4b4b4" font-size="15" font-family="SegoeUI-Semibold, Segoe UI" font-weight="600"><tspan x="0" y="0">1</tspan></text>
              <text id="Pizza_Alfredo_Chicken:_personal-3" data-name="Pizza Alfredo Chicken: personal" transform="translate(96 923.921)" fill="#b4b4b4" font-size="15" font-family="SegoeUI-Semibold, Segoe UI" font-weight="600"><tspan x="0" y="0">Pizza Alfredo Chicken: personal</tspan></text>
              <text id="_35.00-3" data-name="35.00" transform="translate(376 923.921)" fill="#b4b4b4" font-size="15" font-family="SegoeUI-Semibold, Segoe UI" font-weight="600"><tspan x="0" y="0">35.00</tspan></text>
            </g>
          </g>
          <path id="Línea_2" data-name="Línea 2" d="M0,.921v-1L382-.5v1Z" transform="translate(53.5 840)" fill="#707070"/>
          <text id="Fecha_de_emisión:_" data-name="Fecha de emisión: " transform="translate(319 224)" fill="#b4b4b4" font-size="18" font-family="SegoeUI-Semibold, Segoe UI" font-weight="600"><tspan x="-150.46" y="0">Fecha de emisión: </tspan></text>
          <text id="_10_de_Julio_2024_a_ls_2:00_PM" data-name="10 de Julio 2024 a ls 2:00 PM" transform="translate(357.5 249)" fill="#b4b4b4" font-size="18" font-family="SegoeUI-Semibold, Segoe UI" font-weight="600"><tspan x="-233.763" y="0">10 de Julio 2024 a ls 2:00 PM</tspan></text>
        </g>
        <g id="Filtros">
          <path id="Trazado_1" data-name="Trazado 1" d="M0,0H470V116.747H0Z" transform="translate(0 963.253)" fill="#171717"/>
          <path id="Trazado_1_-_Contorno" data-name="Trazado 1 - Contorno" d="M1,1V115.747H469V1H1M0,0H470V116.747H0Z" transform="translate(0 963.253)" fill="#171717"/>
          <g id="Sucursal" transform="translate(-652.657 677.1)">
            <rect id="Rectángulo_10" data-name="Rectángulo 10" width="217" height="28" rx="14" transform="translate(662.657 344.9)" fill="#2f2f2f"/>
            <path id="Rectángulo_10_-_Contorno" data-name="Rectángulo 10 - Contorno" d="M14,1A13,13,0,0,0,4.808,23.192,12.915,12.915,0,0,0,14,27H203a13,13,0,0,0,9.192-22.192A12.915,12.915,0,0,0,203,1H14m0-1H203a14,14,0,0,1,0,28H14A14,14,0,0,1,14,0Z" transform="translate(662.657 344.9)" fill="#707070"/>
            <path id="keyboard_arrow_down_24dp_E8EAED_FILL0_wght400_GRAD0_opsz24" d="M9.042,11.151,0,2.11,2.11,0,9.042,6.932,15.974,0l2.11,2.11Z" transform="translate(865.839 364.276) rotate(180)" fill="#9b9b9b"/>
          </g>
          <g id="Pedidos_en_Curso" data-name="Pedidos en Curso">
            <rect id="Rectángulo_14" data-name="Rectángulo 14" width="235" height="44" transform="translate(0 963)" fill="#2f2f2f"/>
            <path id="Rectángulo_14_-_Contorno" data-name="Rectángulo 14 - Contorno" d="M1,1V43H234V1H1M0,0H235V44H0Z" transform="translate(0 963)" fill="#171717"/>
            <text id="Pedidos_en_curso-2" data-name="Pedidos en curso" transform="translate(41 994)" fill="#b4b4b4" font-size="20" font-family="SegoeUI-Semibold, Segoe UI" font-weight="600"><tspan x="0" y="0">Pedidos en curso</tspan></text>
          </g>
          <g id="Pedidos_Cerrados" data-name="Pedidos Cerrados">
            <rect id="Rectángulo_15" data-name="Rectángulo 15" width="235" height="44" transform="translate(235 963)" fill="none"/>
            <text id="Pedidos_cerrados-2" data-name="Pedidos cerrados" transform="translate(276 994)" fill="#b4b4b4" font-size="20" font-family="SegoeUI-Semibold, Segoe UI" font-weight="600"><tspan x="0" y="0">Pedidos cerrados</tspan></text>
          </g>
          <g id="Busqueda_de_pedidos" data-name="Busqueda de pedidos" transform="translate(-418.657 677.1)">
            <rect id="Rectángulo_10-2" data-name="Rectángulo 10" width="217" height="28" rx="14" transform="translate(662.657 344.9)" fill="#2f2f2f"/>
            <path id="Rectángulo_10_-_Contorno-2" data-name="Rectángulo 10 - Contorno" d="M14,1A13,13,0,0,0,4.808,23.192,12.915,12.915,0,0,0,14,27H203a13,13,0,0,0,9.192-22.192A12.915,12.915,0,0,0,203,1H14m0-1H203a14,14,0,0,1,0,28H14A14,14,0,0,1,14,0Z" transform="translate(662.657 344.9)" fill="#707070"/>
            <path id="search_24dp_E8EAED_FILL0_wght400_GRAD0_opsz24" d="M129.74-829.439l-3.7-3.7a3.5,3.5,0,0,1-1.012.557,3.575,3.575,0,0,1-1.217.205,3.682,3.682,0,0,1-2.706-1.108A3.681,3.681,0,0,1,120-836.186a3.681,3.681,0,0,1,1.107-2.706A3.681,3.681,0,0,1,123.814-840a3.681,3.681,0,0,1,2.706,1.108,3.681,3.681,0,0,1,1.107,2.706,3.577,3.577,0,0,1-.205,1.217,3.5,3.5,0,0,1-.557,1.012l3.7,3.7Zm-5.926-4.107a2.547,2.547,0,0,0,1.87-.77,2.546,2.546,0,0,0,.77-1.87,2.546,2.546,0,0,0-.77-1.87,2.546,2.546,0,0,0-1.87-.77,2.546,2.546,0,0,0-1.87.77,2.546,2.546,0,0,0-.77,1.87,2.546,2.546,0,0,0,.77,1.87A2.547,2.547,0,0,0,123.814-833.546Z" transform="translate(737.657 1193.619)" fill="#e8eaed"/>
          </g>
        </g>
      </g>
      <g id="Formulario_cliente" data-name="Formulario cliente" transform="translate(146.598 84.512)">
        <path id="Formulario_Cliente-2" data-name="Formulario Cliente" d="M28,1A26.977,26.977,0,0,0,1,28V550.4a26.977,26.977,0,0,0,27,27H800a26.977,26.977,0,0,0,27-27V28A26.977,26.977,0,0,0,800,1H28m0-1H800a28,28,0,0,1,28,28V550.4a28,28,0,0,1-28,28H28a28,28,0,0,1-28-28V28A28,28,0,0,1,28,0Z" transform="translate(636.402 184.488)" fill="#707070"/>
        <g id="Guardar" transform="translate(1342.402 686.885)">
          <rect id="Rectángulo_8" data-name="Rectángulo 8" width="105" height="50" rx="25" fill="#2f2f2f"/>
          <path id="Rectángulo_8_-_Contorno" data-name="Rectángulo 8 - Contorno" d="M25,1a24.007,24.007,0,0,0-9.342,46.114A23.849,23.849,0,0,0,25,49H80A24.007,24.007,0,0,0,89.342,2.886,23.849,23.849,0,0,0,80,1H25m0-1H80a25,25,0,0,1,0,50H25A25,25,0,0,1,25,0Z" fill="#707070"/>
          <text id="Guardar-2" data-name="Guardar" transform="translate(26 28)" fill="#b4b4b4" font-size="14" font-family="SegoeUI-Semibold, Segoe UI" font-weight="600"><tspan x="0" y="0">Guardar</tspan></text>
        </g>
        <g id="Limpiar" transform="translate(1214 686.885)">
          <rect id="Rectángulo_13" data-name="Rectángulo 13" width="105" height="50" rx="25" fill="#2f2f2f"/>
          <path id="Rectángulo_13_-_Contorno" data-name="Rectángulo 13 - Contorno" d="M25,1a24.007,24.007,0,0,0-9.342,46.114A23.849,23.849,0,0,0,25,49H80A24.007,24.007,0,0,0,89.342,2.886,23.849,23.849,0,0,0,80,1H25m0-1H80a25,25,0,0,1,0,50H25A25,25,0,0,1,25,0Z" fill="#707070"/>
          <text id="Limpiar-2" data-name="Limpiar" transform="translate(30 28)" fill="#b4b4b4" font-size="14" font-family="SegoeUI-Semibold, Segoe UI" font-weight="600"><tspan x="0" y="0">Limpiar</tspan></text>
        </g>
        <g id="Nombre_de_quien_recibe" data-name="Nombre de quien recibe" transform="translate(657.402 591.611)">
          <rect id="Rectángulo_11" data-name="Rectángulo 11" width="385" height="38" rx="19" transform="translate(0 34)" fill="#2f2f2f"/>
          <path id="Rectángulo_11_-_Contorno" data-name="Rectángulo 11 - Contorno" d="M19,1A18,18,0,0,0,6.272,31.728,17.882,17.882,0,0,0,19,37H366A18,18,0,0,0,378.728,6.272,17.882,17.882,0,0,0,366,1H19m0-1H366a19,19,0,0,1,0,38H19A19,19,0,0,1,19,0Z" transform="translate(0 34)" fill="#707070"/>
          <text id="Nombre_de_quien_recibe-2" data-name="Nombre de quien recibe" transform="translate(9 15)" fill="#b4b4b4" font-size="14" font-family="SegoeUI-Semibold, Segoe UI" font-weight="600"><tspan x="0" y="0">Nombre de quien recibe</tspan></text>
          <path id="keyboard_arrow_down_24dp_E8EAED_FILL0_wght400_GRAD0_opsz24-2" data-name="keyboard_arrow_down_24dp_E8EAED_FILL0_wght400_GRAD0_opsz24" d="M249.495-628.29,240-637.785,242.215-640l7.279,7.279L256.774-640l2.215,2.215Z" transform="translate(117.75 687.965)" fill="#9b9b9b"/>
          <text id="_5_" data-name="5*" transform="translate(171 17)" fill="#76d0eb" font-size="16" font-family="SegoeUI-Semibold, Segoe UI" font-weight="600"><tspan x="0" y="0">5*</tspan></text>
        </g>
        <g id="Nombre_De_facturacion" data-name="Nombre De facturacion" transform="translate(657.402 506.376)">
          <text id="Nombre_de_facturacion-2" data-name="Nombre de facturacion" transform="translate(9 15)" fill="#b4b4b4" font-size="14" font-family="SegoeUI-Semibold, Segoe UI" font-weight="600"><tspan x="0" y="0">Nombre de facturacion</tspan></text>
          <rect id="Rectángulo_11-2" data-name="Rectángulo 11" width="385" height="38" rx="19" transform="translate(0 34)" fill="#2f2f2f"/>
          <path id="Rectángulo_11_-_Contorno-2" data-name="Rectángulo 11 - Contorno" d="M19,1A18,18,0,0,0,6.272,31.728,17.882,17.882,0,0,0,19,37H366A18,18,0,0,0,378.728,6.272,17.882,17.882,0,0,0,366,1H19m0-1H366a19,19,0,0,1,0,38H19A19,19,0,0,1,19,0Z" transform="translate(0 34)" fill="#707070"/>
          <text id="_4_" data-name="4*" transform="translate(163 17)" fill="#76d0eb" font-size="16" font-family="SegoeUI-Semibold, Segoe UI" font-weight="600"><tspan x="0" y="0">4*</tspan></text>
        </g>
        <g id="Telefonos" transform="translate(657.402 424.146)">
          <rect id="Rectángulo_10-3" data-name="Rectángulo 10" width="177" height="39" rx="19.5" transform="translate(0 31)" fill="#2f2f2f"/>
          <path id="Rectángulo_10_-_Contorno-3" data-name="Rectángulo 10 - Contorno" d="M19.5,1a18.505,18.505,0,0,0-7.2,35.547A18.383,18.383,0,0,0,19.5,38h138a18.505,18.505,0,0,0,7.2-35.547A18.383,18.383,0,0,0,157.5,1H19.5m0-1h138a19.5,19.5,0,0,1,0,39H19.5a19.5,19.5,0,0,1,0-39Z" transform="translate(0 31)" fill="#707070"/>
          <path id="keyboard_arrow_down_24dp_E8EAED_FILL0_wght400_GRAD0_opsz24-3" data-name="keyboard_arrow_down_24dp_E8EAED_FILL0_wght400_GRAD0_opsz24" d="M249.495-628.29,240-637.785,242.215-640l7.279,7.279L256.774-640l2.215,2.215Z" transform="translate(-86.794 686.34)" fill="#9b9b9b"/>
          <text id="Teléfono" transform="translate(17 15)" fill="#b4b4b4" font-size="14" font-family="SegoeUI-Semibold, Segoe UI" font-weight="600"><tspan x="0" y="0">Teléfono</tspan></text>
          <text id="_2_" data-name="2*" transform="translate(75 17)" fill="#76d0eb" font-size="16" font-family="SegoeUI-Semibold, Segoe UI" font-weight="600"><tspan x="0" y="0">2*</tspan></text>
        </g>
        <g id="NIT" transform="translate(867.11 424.146)">
          <rect id="Rectángulo_10-4" data-name="Rectángulo 10" width="176" height="39" rx="19.5" transform="translate(0 31)" fill="#2f2f2f"/>
          <path id="Rectángulo_10_-_Contorno-4" data-name="Rectángulo 10 - Contorno" d="M19.5,1a18.505,18.505,0,0,0-7.2,35.547A18.383,18.383,0,0,0,19.5,38h137a18.505,18.505,0,0,0,7.2-35.547A18.383,18.383,0,0,0,156.5,1H19.5m0-1h137a19.5,19.5,0,0,1,0,39H19.5a19.5,19.5,0,0,1,0-39Z" transform="translate(0 31)" fill="#707070"/>
          <path id="keyboard_arrow_down_24dp_E8EAED_FILL0_wght400_GRAD0_opsz24-4" data-name="keyboard_arrow_down_24dp_E8EAED_FILL0_wght400_GRAD0_opsz24" d="M249.495-628.29,240-637.785,242.215-640l7.279,7.279L256.774-640l2.215,2.215Z" transform="translate(-93.455 685.034)" fill="#9b9b9b"/>
          <text id="NIT-2" data-name="NIT" transform="translate(18 15)" fill="#b4b4b4" font-size="14" font-family="SegoeUI-Semibold, Segoe UI" font-weight="600"><tspan x="0" y="0">NIT</tspan></text>
          <text id="_3_" data-name="3*" transform="translate(47 17)" fill="#76d0eb" font-size="16" font-family="SegoeUI-Semibold, Segoe UI" font-weight="600"><tspan x="0" y="0">3*</tspan></text>
        </g>
        <g id="Nombre_Cliente" data-name="Nombre Cliente" transform="translate(657.402 335.905)">
          <text id="Nombre_Cliente-2" data-name="Nombre Cliente" transform="translate(9 17)" fill="#b4b4b4" font-size="14" font-family="SegoeUI-Semibold, Segoe UI" font-weight="600"><tspan x="0" y="0">Nombre Cliente</tspan></text>
          <rect id="Rectángulo_11-3" data-name="Rectángulo 11" width="385" height="37" rx="18.5" transform="translate(0 35)" fill="#2f2f2f"/>
          <path id="Rectángulo_11_-_Contorno-3" data-name="Rectángulo 11 - Contorno" d="M18.5,1A17.5,17.5,0,0,0,6.126,30.874,17.385,17.385,0,0,0,18.5,36h348A17.5,17.5,0,0,0,378.874,6.126,17.385,17.385,0,0,0,366.5,1H18.5m0-1h348a18.5,18.5,0,0,1,0,37H18.5a18.5,18.5,0,0,1,0-37Z" transform="translate(0 35)" fill="#707070"/>
          <text id="_1_" data-name="1*" transform="translate(118 18)" fill="#76d0eb" font-size="17" font-family="SegoeUI-Semibold, Segoe UI" font-weight="600"><tspan x="0" y="0">1*</tspan></text>
        </g>
        <g id="Direccion" transform="translate(1069.402 333.902)">
          <text id="Direccion-2" data-name="Direccion" transform="translate(15 17)" fill="#b4b4b4" font-size="14" font-family="SegoeUI-Semibold, Segoe UI" font-weight="600"><tspan x="0" y="0">Dirección</tspan></text>
          <rect id="Rectángulo_11-4" data-name="Rectángulo 11" width="386" height="39" rx="19.5" transform="translate(0 35)" fill="#2f2f2f"/>
          <path id="Rectángulo_11_-_Contorno-4" data-name="Rectángulo 11 - Contorno" d="M19.5,1a18.505,18.505,0,0,0-7.2,35.547A18.384,18.384,0,0,0,19.5,38h347a18.505,18.505,0,0,0,7.2-35.547A18.384,18.384,0,0,0,366.5,1H19.5m0-1h347a19.5,19.5,0,0,1,0,39H19.5a19.5,19.5,0,0,1,0-39Z" transform="translate(0 35)" fill="#707070"/>
          <path id="keyboard_arrow_down_24dp_E8EAED_FILL0_wght400_GRAD0_opsz24-5" data-name="keyboard_arrow_down_24dp_E8EAED_FILL0_wght400_GRAD0_opsz24" d="M249.495-628.29,240-637.785,242.215-640l7.279,7.279L256.774-640l2.215,2.215Z" transform="translate(115.78 688.754)" fill="#9b9b9b"/>
          <text id="_6_" data-name="6*" transform="translate(80 17)" fill="#76d0eb" font-size="16" font-family="SegoeUI-Semibold, Segoe UI" font-weight="600"><tspan x="0" y="0">6*</tspan></text>
        </g>
        <g id="Buscador" transform="translate(851.446 263.488)">
          <rect id="Rectángulo_5" data-name="Rectángulo 5" width="416" height="44" rx="22" fill="#2f2f2f"/>
          <path id="Rectángulo_5_-_Contorno" data-name="Rectángulo 5 - Contorno" d="M22,1a21.006,21.006,0,0,0-8.174,40.35A20.867,20.867,0,0,0,22,43H394a21.006,21.006,0,0,0,8.174-40.35A20.867,20.867,0,0,0,394,1H22m0-1H394a22,22,0,0,1,0,44H22A22,22,0,0,1,22,0Z" fill="#707070"/>
          <path id="search_24dp_E8EAED_FILL0_wght400_GRAD0_opsz24-2" data-name="search_24dp_E8EAED_FILL0_wght400_GRAD0_opsz24" d="M137.464-821.063l-6.628-6.628a6.27,6.27,0,0,1-1.815,1,6.412,6.412,0,0,1-2.183.368,6.6,6.6,0,0,1-4.853-1.986A6.6,6.6,0,0,1,120-833.162a6.6,6.6,0,0,1,1.986-4.852A6.6,6.6,0,0,1,126.838-840a6.6,6.6,0,0,1,4.853,1.986,6.6,6.6,0,0,1,1.986,4.852,6.413,6.413,0,0,1-.368,2.183,6.271,6.271,0,0,1-1,1.815l6.628,6.628Zm-10.626-7.364a4.566,4.566,0,0,0,3.353-1.381,4.566,4.566,0,0,0,1.381-3.353,4.565,4.565,0,0,0-1.381-3.353,4.565,4.565,0,0,0-3.353-1.381,4.565,4.565,0,0,0-3.353,1.381,4.565,4.565,0,0,0-1.381,3.353,4.566,4.566,0,0,0,1.381,3.353A4.566,4.566,0,0,0,126.838-828.427Z" transform="translate(259.174 852.294)" fill="#9b9b9b"/>
        </g>
        <text id="Cliente" transform="translate(1018.401 238.488)" fill="#b4b4b4" font-size="20" font-family="SegoeUI-Semibold, Segoe UI" font-weight="600"><tspan x="0" y="0">Cliente</tspan></text>
        <g id="NIT-3" data-name="NIT" transform="translate(1076.402 422.143)">
          <rect id="Rectángulo_10-5" data-name="Rectángulo 10" width="379" height="39" rx="19.5" transform="translate(0 33)" fill="#2f2f2f"/>
          <path id="Rectángulo_10_-_Contorno-5" data-name="Rectángulo 10 - Contorno" d="M19.5,1a18.505,18.505,0,0,0-7.2,35.547A18.384,18.384,0,0,0,19.5,38h340a18.505,18.505,0,0,0,7.2-35.547A18.384,18.384,0,0,0,359.5,1H19.5m0-1h340a19.5,19.5,0,0,1,0,39H19.5a19.5,19.5,0,0,1,0-39Z" transform="translate(0 33)" fill="#707070"/>
          <path id="keyboard_arrow_down_24dp_E8EAED_FILL0_wght400_GRAD0_opsz24-6" data-name="keyboard_arrow_down_24dp_E8EAED_FILL0_wght400_GRAD0_opsz24" d="M249.495-628.29,240-637.785,242.215-640l7.279,7.279L256.774-640l2.215,2.215Z" transform="translate(107.991 686.618)" fill="#9b9b9b"/>
          <text id="NIT-4" data-name="NIT" transform="translate(19 17)" fill="#b4b4b4" font-size="14" font-family="SegoeUI-Semibold, Segoe UI" font-weight="600"><tspan x="0" y="0">Sucursal</tspan></text>
          <text id="_7_" data-name="7*" transform="translate(76 18)" fill="#76d0eb" font-size="17" font-family="SegoeUI-Semibold, Segoe UI" font-weight="600"><tspan x="0" y="0">7*</tspan></text>
        </g>
        <g id="Nota" transform="translate(1076.402 508.547)">
          <rect id="Rectángulo_10-6" data-name="Rectángulo 10" width="379" height="118" rx="23" transform="translate(0 33)" fill="#2f2f2f"/>
          <path id="Rectángulo_10_-_Contorno-6" data-name="Rectángulo 10 - Contorno" d="M23,1A21.981,21.981,0,0,0,1,23V95a21.981,21.981,0,0,0,22,22H356a21.981,21.981,0,0,0,22-22V23A21.981,21.981,0,0,0,356,1H23m0-1H356a23,23,0,0,1,23,23V95a23,23,0,0,1-23,23H23A23,23,0,0,1,0,95V23A23,23,0,0,1,23,0Z" transform="translate(0 33)" fill="#707070"/>
          <text id="NIT-5" data-name="NIT" transform="translate(19 17)" fill="#b4b4b4" font-size="14" font-family="SegoeUI-Semibold, Segoe UI" font-weight="600"><tspan x="0" y="0">Notas</tspan></text>
          <text id="_8_" data-name="8*" transform="translate(61 17)" fill="#76d0eb" font-size="16" font-family="SegoeUI-Semibold, Segoe UI" font-weight="600"><tspan x="0" y="0">8*</tspan></text>
        </g>
      </g>
      <path id="arrow_forward_ios_24dp_E8EAED_FILL0_wght400_GRAD0_opsz24" d="M257.847-791.584,250-799.431l36.361-36.361L250-872.153,257.847-880l44.208,44.208Z" transform="translate(1601.5 1375.792)" fill="#2f2f2f"/>
      <path id="arrow_forward_ios_24dp_E8EAED_FILL0_wght400_GRAD0_opsz24-2" data-name="arrow_forward_ios_24dp_E8EAED_FILL0_wght400_GRAD0_opsz24" d="M257.847-791.584,250-799.431l36.361-36.361L250-872.153,257.847-880l44.208,44.208Z" transform="translate(798.37 -295.792) rotate(180)" fill="#2f2f2f"/>
      <g id="Bar_Menu" data-name="Bar Menu" transform="translate(566 29)">
        <g id="Rectángulo_17" data-name="Rectángulo 17" fill="none" stroke="#707070" stroke-width="1">
          <rect width="1260" height="66" rx="33" stroke="none"/>
          <rect x="0.5" y="0.5" width="1259" height="65" rx="32.5" fill="none"/>
        </g>
        <text id="_Ludwin" data-name="    Ludwin" transform="translate(1138 38)" fill="#212121" font-size="18" font-family="SegoeUI-Semibold, Segoe UI" font-weight="600"><tspan x="0" y="0"> </tspan><tspan y="0" xml:space="preserve" fill="#b4b4b4">   Ludwin</tspan></text>
        <text id="Gestion" transform="translate(31 38)" fill="#b4b4b4" font-size="18" font-family="SegoeUI-Semibold, Segoe UI" font-weight="600"><tspan x="0" y="0">Gestion</tspan></text>
        <text id="Cocina" transform="translate(131 38)" fill="#b4b4b4" font-size="18" font-family="SegoeUI-Semibold, Segoe UI" font-weight="600"><tspan x="0" y="0">Cocina</tspan></text>
        <text id="Call_Center" data-name="Call Center" transform="translate(224 38)" fill="#b4b4b4" font-size="18" font-family="SegoeUI-Semibold, Segoe UI" font-weight="600" text-decoration="underline"><tspan x="0" y="0">Call Center</tspan></text>
        <text id="Delivery" transform="translate(351 38)" fill="#b4b4b4" font-size="18" font-family="SegoeUI-Semibold, Segoe UI" font-weight="600"><tspan x="0" y="0">Delivery</tspan></text>
        <text id="Dashboard" transform="translate(456 38)" fill="#b4b4b4" font-size="18" font-family="SegoeUI-Semibold, Segoe UI" font-weight="600"><tspan x="0" y="0">Dashboard</tspan></text>
      </g>
    </g>
  </g>
</svg>
