<svg xmlns="http://www.w3.org/2000/svg" xmlns:xlink="http://www.w3.org/1999/xlink" width="1920" height="1080" viewBox="0 0 1920 1080">
  <defs>
    <clipPath id="clip-Call_Center_Barra_de_pedidos_off_">
      <rect width="1920" height="1080"/>
    </clipPath>
  </defs>
  <g id="Call_Center_Barra_de_pedidos_off_" data-name="Call Center Barra de pedidos off " clip-path="url(#clip-Call_Center_Barra_de_pedidos_off_)">
    <rect width="1920" height="1080" fill="#fff"/>
    <g id="Home">
      <rect id="Fondo" width="1920" height="1080" fill="#212121"/>
      <path id="Fondo_-_Contorno" data-name="Fondo - Contorno" d="M1,1V1079H1919V1H1M0,0H1920V1080H0Z" fill="#707070"/>
      <g id="Formulario_cliente" data-name="Formulario cliente" transform="translate(-103.403 87.813)">
        <path id="Formulario_Cliente-2" data-name="Formulario Cliente" d="M28,1A26.977,26.977,0,0,0,1,28V551a26.977,26.977,0,0,0,27,27H800a26.977,26.977,0,0,0,27-27V28A26.977,26.977,0,0,0,800,1H28m0-1H800a28,28,0,0,1,28,28V551a28,28,0,0,1-28,28H28A28,28,0,0,1,0,551V28A28,28,0,0,1,28,0Z" transform="translate(636.403 184.187)" fill="#707070"/>
        <g id="Guardar" transform="translate(1342.26 686.813)">
          <rect id="Rectángulo_8" data-name="Rectángulo 8" width="105" height="50" rx="25" transform="translate(0.143 0.374)" fill="#2f2f2f"/>
          <path id="Rectángulo_8_-_Contorno" data-name="Rectángulo 8 - Contorno" d="M25,1a24.007,24.007,0,0,0-9.342,46.114A23.849,23.849,0,0,0,25,49H80A24.007,24.007,0,0,0,89.342,2.886,23.849,23.849,0,0,0,80,1H25m0-1H80a25,25,0,0,1,0,50H25A25,25,0,0,1,25,0Z" transform="translate(0.143 0.374)" fill="#707070"/>
          <text id="Guardar-2" data-name="Guardar" transform="translate(26.143 28.374)" fill="#b4b4b4" font-size="14" font-family="SegoeUI-Semibold, Segoe UI" font-weight="600"><tspan x="0" y="0">Guardar</tspan></text>
        </g>
        <g id="Limpiar" transform="translate(1213.883 686.813)">
          <rect id="Rectángulo_13" data-name="Rectángulo 13" width="106" height="50" rx="25" transform="translate(-0.48 0.374)" fill="#2f2f2f"/>
          <path id="Rectángulo_13_-_Contorno" data-name="Rectángulo 13 - Contorno" d="M25,1a24.007,24.007,0,0,0-9.342,46.114A23.849,23.849,0,0,0,25,49H81A24.007,24.007,0,0,0,90.342,2.886,23.849,23.849,0,0,0,81,1H25m0-1H81a25,25,0,0,1,0,50H25A25,25,0,0,1,25,0Z" transform="translate(-0.48 0.374)" fill="#707070"/>
          <text id="Limpiar-2" data-name="Limpiar" transform="translate(30.52 28.374)" fill="#b4b4b4" font-size="14" font-family="SegoeUI-Semibold, Segoe UI" font-weight="600"><tspan x="0" y="0">Limpiar</tspan></text>
        </g>
        <g id="Nombre_de_quien_recibe" data-name="Nombre de quien recibe" transform="translate(657.249 591.533)">
          <rect id="Rectángulo_11" data-name="Rectángulo 11" width="386" height="38" rx="19" transform="translate(0.154 33.654)" fill="#2f2f2f"/>
          <path id="Rectángulo_11_-_Contorno" data-name="Rectángulo 11 - Contorno" d="M19,1A18,18,0,0,0,6.272,31.728,17.882,17.882,0,0,0,19,37H367A18,18,0,0,0,379.728,6.272,17.882,17.882,0,0,0,367,1H19m0-1H367a19,19,0,0,1,0,38H19A19,19,0,0,1,19,0Z" transform="translate(0.154 33.654)" fill="#707070"/>
          <text id="Nombre_de_quien_recibe-2" data-name="Nombre de quien recibe" transform="translate(9.154 14.654)" fill="#b4b4b4" font-size="14" font-family="SegoeUI-Semibold, Segoe UI" font-weight="600"><tspan x="0" y="0">Nombre de quien recibe</tspan></text>
          <path id="keyboard_arrow_down_24dp_E8EAED_FILL0_wght400_GRAD0_opsz24" d="M249.518-628.262,240-637.779,242.221-640l7.3,7.3,7.3-7.3,2.221,2.221Z" transform="translate(118.822 688.019)" fill="#9b9b9b"/>
          <text id="_5_" data-name="5*" transform="translate(171.154 16.654)" fill="#76d0eb" font-size="16" font-family="SegoeUI-Semibold, Segoe UI" font-weight="600"><tspan x="0" y="0">5*</tspan></text>
        </g>
        <g id="Nombre_De_facturacion" data-name="Nombre De facturacion" transform="translate(657.249 506.283)">
          <text id="Nombre_de_facturacion-2" data-name="Nombre de facturacion" transform="translate(9.154 14.904)" fill="#b4b4b4" font-size="14" font-family="SegoeUI-Semibold, Segoe UI" font-weight="600"><tspan x="0" y="0">Nombre de facturacion</tspan></text>
          <rect id="Rectángulo_11-2" data-name="Rectángulo 11" width="386" height="38" rx="19" transform="translate(0.154 33.904)" fill="#2f2f2f"/>
          <path id="Rectángulo_11_-_Contorno-2" data-name="Rectángulo 11 - Contorno" d="M19,1A18,18,0,0,0,6.272,31.728,17.882,17.882,0,0,0,19,37H367A18,18,0,0,0,379.728,6.272,17.882,17.882,0,0,0,367,1H19m0-1H367a19,19,0,0,1,0,38H19A19,19,0,0,1,19,0Z" transform="translate(0.154 33.904)" fill="#707070"/>
          <text id="_4_" data-name="4*" transform="translate(164.154 16.904)" fill="#76d0eb" font-size="16" font-family="SegoeUI-Semibold, Segoe UI" font-weight="600"><tspan x="0" y="0">4*</tspan></text>
        </g>
        <g id="Telefonos" transform="translate(657.249 424.041)">
          <rect id="Rectángulo_18" data-name="Rectángulo 18" width="177" height="39" rx="19.5" transform="translate(0.154 31.146)" fill="#2f2f2f"/>
          <path id="Rectángulo_18_-_Contorno" data-name="Rectángulo 18 - Contorno" d="M19.5,1a18.505,18.505,0,0,0-7.2,35.547A18.383,18.383,0,0,0,19.5,38h138a18.505,18.505,0,0,0,7.2-35.547A18.383,18.383,0,0,0,157.5,1H19.5m0-1h138a19.5,19.5,0,0,1,0,39H19.5a19.5,19.5,0,0,1,0-39Z" transform="translate(0.154 31.146)" fill="#707070"/>
          <text id="Teléfono" transform="translate(17.154 15.146)" fill="#b4b4b4" font-size="14" font-family="SegoeUI-Semibold, Segoe UI" font-weight="600"><tspan x="0" y="0">Teléfono</tspan></text>
          <text id="_2_" data-name="2*" transform="translate(75.154 17.146)" fill="#76d0eb" font-size="16" font-family="SegoeUI-Semibold, Segoe UI" font-weight="600"><tspan x="0" y="0">2*</tspan></text>
          <path id="keyboard_arrow_down_24dp_E8EAED_FILL0_wght400_GRAD0_opsz24-2" data-name="keyboard_arrow_down_24dp_E8EAED_FILL0_wght400_GRAD0_opsz24" d="M249.518-628.262,240-637.779,242.221-640l7.3,7.3,7.3-7.3,2.221,2.221Z" transform="translate(-86.218 686.484)" fill="#9b9b9b"/>
          <g id="spam" transform="translate(0 74.218)">
            <rect id="Rectángulo_10" data-name="Rectángulo 10" width="177" height="117" rx="23" transform="translate(0.154 -0.072)" fill="#2f2f2f"/>
            <path id="Rectángulo_10_-_Contorno" data-name="Rectángulo 10 - Contorno" d="M23,1A21.981,21.981,0,0,0,1,23V94a21.981,21.981,0,0,0,22,22H154a21.981,21.981,0,0,0,22-22V23A21.981,21.981,0,0,0,154,1H23m0-1H154a23,23,0,0,1,23,23V94a23,23,0,0,1-23,23H23A23,23,0,0,1,0,94V23A23,23,0,0,1,23,0Z" transform="translate(0.154 -0.072)" fill="#707070"/>
            <g id="add_telefonos" data-name="add telefonos" transform="translate(8.024 7.021)">
              <rect id="Rectángulo_19" data-name="Rectángulo 19" width="162" height="28" rx="14" transform="translate(0.131 -0.093)" fill="#2f2f2f"/>
              <path id="Rectángulo_19_-_Contorno" data-name="Rectángulo 19 - Contorno" d="M14,1A13,13,0,0,0,4.808,23.192,12.915,12.915,0,0,0,14,27H148a13,13,0,0,0,9.192-22.192A12.915,12.915,0,0,0,148,1H14m0-1H148a14,14,0,0,1,0,28H14A14,14,0,0,1,14,0Z" transform="translate(0.131 -0.093)" fill="#707070"/>
              <path id="add_24dp_E8EAED_FILL0_wght400_GRAD0_opsz24" d="M204.3-754.266H200V-755.7h4.3V-760h1.434v4.3h4.3v1.434h-4.3v4.3H204.3Z" transform="translate(-52.918 769.192)" fill="#9b9b9b"/>
            </g>
            <g id="list_numeros" data-name="list numeros" transform="translate(10.478 41.213)">
              <rect id="Rectángulo_20" data-name="Rectángulo 20" width="15.71" height="13.746" rx="6.873" transform="translate(0 3.273)" fill="#2f2f2f"/>
              <path id="Rectángulo_20_-_Contorno" data-name="Rectángulo 20 - Contorno" d="M6.873,1a5.873,5.873,0,0,0,0,11.746H8.837A5.873,5.873,0,0,0,8.837,1H6.873m0-1H8.837a6.873,6.873,0,0,1,0,13.746H6.873A6.873,6.873,0,0,1,6.873,0Z" transform="translate(0 3.273)" fill="#707070"/>
              <text id="_35708405" data-name="35708405" transform="translate(20.292 15)" fill="#b4b4b4" font-size="14" font-family="SegoeUI-Semibold, Segoe UI" font-weight="600"><tspan x="0" y="0">35708405</tspan></text>
              <path id="delete_24dp_E8EAED_FILL0_wght400_GRAD0_opsz24" d="M161.841-828.954a1.182,1.182,0,0,1-.867-.361,1.182,1.182,0,0,1-.361-.867v-7.978H160v-1.227h3.068V-840h3.682v.614h3.068v1.227h-.614v7.978a1.182,1.182,0,0,1-.361.867,1.182,1.182,0,0,1-.867.361Zm6.137-9.205h-6.137v7.978h6.137Zm-4.909,6.75H164.3v-5.523h-1.227Zm2.455,0h1.227v-5.523h-1.227Zm-3.682-6.75v0Z" transform="translate(-16.501 843.273)" fill="#9b9b9b"/>
            </g>
            <g id="list_numeros-2" data-name="list numeros" transform="translate(10.478 62.16)">
              <rect id="Rectángulo_20-2" data-name="Rectángulo 20" width="15.71" height="13.746" rx="6.873" transform="translate(0 3.273)" fill="#2f2f2f"/>
              <path id="Rectángulo_20_-_Contorno-2" data-name="Rectángulo 20 - Contorno" d="M6.873,1a5.873,5.873,0,0,0,0,11.746H8.837A5.873,5.873,0,0,0,8.837,1H6.873m0-1H8.837a6.873,6.873,0,0,1,0,13.746H6.873A6.873,6.873,0,0,1,6.873,0Z" transform="translate(0 3.273)" fill="#707070"/>
              <text id="_35708405-2" data-name="35708405" transform="translate(20.292 15)" fill="#b4b4b4" font-size="14" font-family="SegoeUI-Semibold, Segoe UI" font-weight="600"><tspan x="0" y="0">35708405</tspan></text>
              <path id="delete_24dp_E8EAED_FILL0_wght400_GRAD0_opsz24-2" data-name="delete_24dp_E8EAED_FILL0_wght400_GRAD0_opsz24" d="M161.841-828.954a1.182,1.182,0,0,1-.867-.361,1.182,1.182,0,0,1-.361-.867v-7.978H160v-1.227h3.068V-840h3.682v.614h3.068v1.227h-.614v7.978a1.182,1.182,0,0,1-.361.867,1.182,1.182,0,0,1-.867.361Zm6.137-9.205h-6.137v7.978h6.137Zm-4.909,6.75H164.3v-5.523h-1.227Zm2.455,0h1.227v-5.523h-1.227Zm-3.682-6.75v0Z" transform="translate(-16.501 843.273)" fill="#9b9b9b"/>
            </g>
            <g id="list_numeros-3" data-name="list numeros" transform="translate(10.478 83.107)">
              <rect id="Rectángulo_20-3" data-name="Rectángulo 20" width="15.71" height="13.746" rx="6.873" transform="translate(0 3.273)" fill="#2f2f2f"/>
              <path id="Rectángulo_20_-_Contorno-3" data-name="Rectángulo 20 - Contorno" d="M6.873,1a5.873,5.873,0,0,0,0,11.746H8.837A5.873,5.873,0,0,0,8.837,1H6.873m0-1H8.837a6.873,6.873,0,0,1,0,13.746H6.873A6.873,6.873,0,0,1,6.873,0Z" transform="translate(0 3.273)" fill="#707070"/>
              <text id="_35708405-3" data-name="35708405" transform="translate(20.292 15)" fill="#b4b4b4" font-size="14" font-family="SegoeUI-Semibold, Segoe UI" font-weight="600"><tspan x="0" y="0">35708405</tspan></text>
              <path id="delete_24dp_E8EAED_FILL0_wght400_GRAD0_opsz24-3" data-name="delete_24dp_E8EAED_FILL0_wght400_GRAD0_opsz24" d="M161.841-828.954a1.182,1.182,0,0,1-.867-.361,1.182,1.182,0,0,1-.361-.867v-7.978H160v-1.227h3.068V-840h3.682v.614h3.068v1.227h-.614v7.978a1.182,1.182,0,0,1-.361.867,1.182,1.182,0,0,1-.867.361Zm6.137-9.205h-6.137v7.978h6.137Zm-4.909,6.75H164.3v-5.523h-1.227Zm2.455,0h1.227v-5.523h-1.227Zm-3.682-6.75v0Z" transform="translate(-16.501 843.273)" fill="#9b9b9b"/>
            </g>
          </g>
        </g>
        <g id="NIT" transform="translate(866.864 424.041)">
          <rect id="Rectángulo_10-2" data-name="Rectángulo 10" width="177" height="39" rx="19.5" transform="translate(-0.461 31.146)" fill="#2f2f2f"/>
          <path id="Rectángulo_10_-_Contorno-2" data-name="Rectángulo 10 - Contorno" d="M19.5,1a18.505,18.505,0,0,0-7.2,35.547A18.383,18.383,0,0,0,19.5,38h138a18.505,18.505,0,0,0,7.2-35.547A18.383,18.383,0,0,0,157.5,1H19.5m0-1h138a19.5,19.5,0,0,1,0,39H19.5a19.5,19.5,0,0,1,0-39Z" transform="translate(-0.461 31.146)" fill="#707070"/>
          <path id="keyboard_arrow_down_24dp_E8EAED_FILL0_wght400_GRAD0_opsz24-3" data-name="keyboard_arrow_down_24dp_E8EAED_FILL0_wght400_GRAD0_opsz24" d="M249.518-628.262,240-637.779,242.221-640l7.3,7.3,7.3-7.3,2.221,2.221Z" transform="translate(-92.99 685.175)" fill="#9b9b9b"/>
          <text id="NIT-2" data-name="NIT" transform="translate(19.539 15.146)" fill="#b4b4b4" font-size="14" font-family="SegoeUI-Semibold, Segoe UI" font-weight="600"><tspan x="0" y="0">NIT</tspan></text>
          <text id="_3_" data-name="3*" transform="translate(47.539 17.146)" fill="#76d0eb" font-size="16" font-family="SegoeUI-Semibold, Segoe UI" font-weight="600"><tspan x="0" y="0">3*</tspan></text>
        </g>
        <g id="Nombre_Cliente" data-name="Nombre Cliente" transform="translate(657.249 335.782)">
          <text id="Nombre_Cliente-2" data-name="Nombre Cliente" transform="translate(9.154 17.405)" fill="#b4b4b4" font-size="14" font-family="SegoeUI-Semibold, Segoe UI" font-weight="600"><tspan x="0" y="0">Nombre Cliente</tspan></text>
          <rect id="Rectángulo_11-3" data-name="Rectángulo 11" width="386" height="37" rx="18.5" transform="translate(0.154 35.405)" fill="#2f2f2f"/>
          <path id="Rectángulo_11_-_Contorno-3" data-name="Rectángulo 11 - Contorno" d="M18.5,1A17.5,17.5,0,0,0,6.126,30.874,17.385,17.385,0,0,0,18.5,36h349A17.5,17.5,0,0,0,379.874,6.126,17.385,17.385,0,0,0,367.5,1H18.5m0-1h349a18.5,18.5,0,0,1,0,37H18.5a18.5,18.5,0,0,1,0-37Z" transform="translate(0.154 35.405)" fill="#707070"/>
          <text id="_1_" data-name="1*" transform="translate(118.154 18.405)" fill="#76d0eb" font-size="17" font-family="SegoeUI-Semibold, Segoe UI" font-weight="600"><tspan x="0" y="0">1*</tspan></text>
        </g>
        <g id="Direccion" transform="translate(1068.456 333.776)">
          <text id="Direccion-2" data-name="Direccion" transform="translate(14.947 17.411)" fill="#b4b4b4" font-size="14" font-family="SegoeUI-Semibold, Segoe UI" font-weight="600"><tspan x="0" y="0">Dirección</tspan></text>
          <rect id="Rectángulo_11-4" data-name="Rectángulo 11" width="387" height="39" rx="19.5" transform="translate(-0.053 35.411)" fill="#2f2f2f"/>
          <path id="Rectángulo_11_-_Contorno-4" data-name="Rectángulo 11 - Contorno" d="M19.5,1a18.505,18.505,0,0,0-7.2,35.547A18.384,18.384,0,0,0,19.5,38h348a18.505,18.505,0,0,0,7.2-35.547A18.384,18.384,0,0,0,367.5,1H19.5m0-1h348a19.5,19.5,0,0,1,0,39H19.5a19.5,19.5,0,0,1,0-39Z" transform="translate(-0.053 35.411)" fill="#707070"/>
          <path id="keyboard_arrow_down_24dp_E8EAED_FILL0_wght400_GRAD0_opsz24-4" data-name="keyboard_arrow_down_24dp_E8EAED_FILL0_wght400_GRAD0_opsz24" d="M249.518-628.262,240-637.779,242.221-640l7.3,7.3,7.3-7.3,2.221,2.221Z" transform="translate(116.634 688.946)" fill="#9b9b9b"/>
          <text id="_6_" data-name="6*" transform="translate(79.947 17.411)" fill="#76d0eb" font-size="16" font-family="SegoeUI-Semibold, Segoe UI" font-weight="600"><tspan x="0" y="0">6*</tspan></text>
        </g>
        <g id="Buscador" transform="translate(850.817 263.57)">
          <rect id="Rectángulo_5" data-name="Rectángulo 5" width="418" height="45" rx="22.5" transform="translate(-0.414 -0.383)" fill="#2f2f2f"/>
          <path id="Rectángulo_5_-_Contorno" data-name="Rectángulo 5 - Contorno" d="M22.5,1a21.506,21.506,0,0,0-8.368,41.311A21.365,21.365,0,0,0,22.5,44h373a21.506,21.506,0,0,0,8.368-41.311A21.365,21.365,0,0,0,395.5,1H22.5m0-1h373a22.5,22.5,0,0,1,0,45H22.5a22.5,22.5,0,0,1,0-45Z" transform="translate(-0.414 -0.383)" fill="#707070"/>
        </g>
        <text id="Cliente" transform="translate(1018.403 238.187)" fill="#b4b4b4" font-size="20" font-family="SegoeUI-Semibold, Segoe UI" font-weight="600"><tspan x="0" y="0">Cliente</tspan></text>
        <g id="Sucursall" transform="translate(1075.477 422.036)">
          <rect id="Rectángulo_10-3" data-name="Rectángulo 10" width="380" height="39" rx="19.5" transform="translate(-0.074 33.152)" fill="#2f2f2f"/>
          <path id="Rectángulo_10_-_Contorno-3" data-name="Rectángulo 10 - Contorno" d="M19.5,1a18.505,18.505,0,0,0-7.2,35.547A18.384,18.384,0,0,0,19.5,38h341a18.505,18.505,0,0,0,7.2-35.547A18.384,18.384,0,0,0,360.5,1H19.5m0-1h341a19.5,19.5,0,0,1,0,39H19.5a19.5,19.5,0,0,1,0-39Z" transform="translate(-0.074 33.152)" fill="#707070"/>
          <path id="keyboard_arrow_down_24dp_E8EAED_FILL0_wght400_GRAD0_opsz24-5" data-name="keyboard_arrow_down_24dp_E8EAED_FILL0_wght400_GRAD0_opsz24" d="M249.518-628.262,240-637.779,242.221-640l7.3,7.3,7.3-7.3,2.221,2.221Z" transform="translate(108.821 686.764)" fill="#9b9b9b"/>
          <text id="NIT-3" data-name="NIT" transform="translate(18.927 17.152)" fill="#b4b4b4" font-size="14" font-family="SegoeUI-Semibold, Segoe UI" font-weight="600"><tspan x="0" y="0">Sucursal</tspan></text>
          <text id="_7_" data-name="7*" transform="translate(75.926 18.152)" fill="#76d0eb" font-size="17" font-family="SegoeUI-Semibold, Segoe UI" font-weight="600"><tspan x="0" y="0">7*</tspan></text>
        </g>
        <g id="Notas" transform="translate(1075.477 508.289)">
          <rect id="Rectángulo_10-4" data-name="Rectángulo 10" width="380" height="119" rx="23" transform="translate(-0.074 32.898)" fill="#2f2f2f"/>
          <path id="Rectángulo_10_-_Contorno-4" data-name="Rectángulo 10 - Contorno" d="M23,1A21.981,21.981,0,0,0,1,23V96a21.981,21.981,0,0,0,22,22H357a21.981,21.981,0,0,0,22-22V23A21.981,21.981,0,0,0,357,1H23m0-1H357a23,23,0,0,1,23,23V96a23,23,0,0,1-23,23H23A23,23,0,0,1,0,96V23A23,23,0,0,1,23,0Z" transform="translate(-0.074 32.898)" fill="#707070"/>
          <text id="NIT-4" data-name="NIT" transform="translate(18.927 16.898)" fill="#b4b4b4" font-size="14" font-family="SegoeUI-Semibold, Segoe UI" font-weight="600"><tspan x="0" y="0">Notas</tspan></text>
          <text id="_8_" data-name="8*" transform="translate(59.926 16.898)" fill="#76d0eb" font-size="16" font-family="SegoeUI-Semibold, Segoe UI" font-weight="600"><tspan x="0" y="0">8*</tspan></text>
        </g>
        <path id="search_24dp_E8EAED_FILL0_wght400_GRAD0_opsz24" d="M137.506-821.017l-6.644-6.644a6.283,6.283,0,0,1-1.819,1,6.425,6.425,0,0,1-2.188.369,6.617,6.617,0,0,1-4.864-1.991A6.617,6.617,0,0,1,120-833.145a6.617,6.617,0,0,1,1.991-4.864A6.616,6.616,0,0,1,126.855-840a6.616,6.616,0,0,1,4.864,1.991,6.617,6.617,0,0,1,1.991,4.864,6.429,6.429,0,0,1-.369,2.188,6.287,6.287,0,0,1-1,1.819l6.644,6.644ZM126.855-828.4a4.577,4.577,0,0,0,3.362-1.384,4.577,4.577,0,0,0,1.384-3.362,4.576,4.576,0,0,0-1.384-3.362,4.576,4.576,0,0,0-3.362-1.384,4.576,4.576,0,0,0-3.362,1.384,4.577,4.577,0,0,0-1.384,3.362,4.577,4.577,0,0,0,1.384,3.362A4.577,4.577,0,0,0,126.855-828.4Z" transform="translate(1114.931 1114.694)" fill="#9b9b9b"/>
      </g>
      <path id="arrow_forward_ios_24dp_E8EAED_FILL0_wght400_GRAD0_opsz24" d="M257.847-791.584,250-799.431l36.361-36.361L250-872.153,257.847-880l44.208,44.208Z" transform="translate(1586.5 1375.792)" fill="#2f2f2f"/>
      <path id="arrow_forward_ios_24dp_E8EAED_FILL0_wght400_GRAD0_opsz24-2" data-name="arrow_forward_ios_24dp_E8EAED_FILL0_wght400_GRAD0_opsz24" d="M257.847-791.584,250-799.431l36.361-36.361L250-872.153,257.847-880l44.208,44.208Z" transform="translate(358.66 -295.792) rotate(180)" fill="#2f2f2f"/>
      <path id="side_navigation_24dp_E8EAED_FILL0_wght400_GRAD0_opsz24" d="M124.512-797.895a4.269,4.269,0,0,1-3.186-1.374,4.59,4.59,0,0,1-1.325-3.3v-32.749a4.59,4.59,0,0,1,1.325-3.3A4.268,4.268,0,0,1,124.512-840h31.582a4.268,4.268,0,0,1,3.186,1.374,4.59,4.59,0,0,1,1.325,3.3v32.749a4.59,4.59,0,0,1-1.325,3.3,4.269,4.269,0,0,1-3.186,1.374Zm15.791-4.678h15.791v-32.749H140.3Z" transform="translate(-104 852.217)" fill="#b4b4b4"/>
    </g>
    <g id="Bar_Menu" data-name="Bar Menu" transform="translate(320 31)">
      <g id="Rectángulo_17" data-name="Rectángulo 17" fill="none" stroke="#707070" stroke-width="1">
        <rect width="1260" height="66" rx="33" stroke="none"/>
        <rect x="0.5" y="0.5" width="1259" height="65" rx="32.5" fill="none"/>
      </g>
      <text id="_Ludwin" data-name="    Ludwin" transform="translate(1138 38)" fill="#212121" font-size="18" font-family="SegoeUI-Semibold, Segoe UI" font-weight="600"><tspan x="0" y="0"> </tspan><tspan y="0" xml:space="preserve" fill="#b4b4b4">   Ludwin</tspan></text>
      <text id="Gestion" transform="translate(31 38)" fill="#b4b4b4" font-size="18" font-family="SegoeUI-Semibold, Segoe UI" font-weight="600"><tspan x="0" y="0">Gestion</tspan></text>
      <text id="Cocina" transform="translate(131 38)" fill="#b4b4b4" font-size="18" font-family="SegoeUI-Semibold, Segoe UI" font-weight="600"><tspan x="0" y="0">Cocina</tspan></text>
      <text id="Call_Center" data-name="Call Center" transform="translate(224 38)" fill="#b4b4b4" font-size="18" font-family="SegoeUI-Semibold, Segoe UI" font-weight="600" text-decoration="underline"><tspan x="0" y="0">Call Center</tspan></text>
      <text id="Delivery" transform="translate(351 38)" fill="#b4b4b4" font-size="18" font-family="SegoeUI-Semibold, Segoe UI" font-weight="600"><tspan x="0" y="0">Delivery</tspan></text>
      <text id="Dashboard" transform="translate(456 38)" fill="#b4b4b4" font-size="18" font-family="SegoeUI-Semibold, Segoe UI" font-weight="600"><tspan x="0" y="0">Dashboard</tspan></text>
    </g>
  </g>
</svg>
