<svg xmlns="http://www.w3.org/2000/svg" xmlns:xlink="http://www.w3.org/1999/xlink" width="251" height="421" viewBox="0 0 251 421">
  <defs>
    <clipPath id="clip-path">
      <rect width="64" height="249" fill="none"/>
    </clipPath>
    <clipPath id="clip-Extras_1">
      <rect width="251" height="421"/>
    </clipPath>
  </defs>
  <g id="Extras_1" data-name="Extras – 1" clip-path="url(#clip-Extras_1)">
    <rect width="251" height="421" fill="#fff"/>
    <g id="Extras">
      <g id="Trazado_6" data-name="Trazado 6" fill="#212121">
        <path d="M 250.5 418.3918762207031 L 0.5 418.3918762207031 L 0.5 0.500028133392334 L 250.5 0.500028133392334 L 250.5 418.3918762207031 Z" stroke="none"/>
        <path d="M 1 0.999969482421875 L 1 417.8918151855469 L 250 417.8918151855469 L 250 0.999969482421875 L 1 0.999969482421875 M 0 -3.0517578125e-05 L 251 -3.0517578125e-05 L 251 418.8918151855469 L 0 418.8918151855469 L 0 -3.0517578125e-05 Z" stroke="none" fill="#707070"/>
      </g>
      <g id="Barra_de_navegacion_pedidos_hechos" data-name="Barra de navegacion pedidos hechos" transform="translate(226.5 58.635)">
        <path id="Barra_de_navegacion" data-name="Barra de navegacion" d="M0,0H24.5V270H0Z" fill="#424242"/>
        <g id="Barra" transform="translate(0.5 24.191)" fill="#686868" stroke="#707070" stroke-width="1">
          <rect width="24" height="45" stroke="none"/>
          <rect x="0.5" y="0.5" width="23" height="44" fill="none"/>
        </g>
        <g id="boton_barra_de_navegacion" data-name="boton barra de navegacion" transform="translate(0.5 247.809)">
          <g id="Rectángulo_2" data-name="Rectángulo 2" fill="#424242" stroke="#707070" stroke-width="1">
            <rect width="24" height="22" stroke="none"/>
            <rect x="0.5" y="0.5" width="23" height="21" fill="none"/>
          </g>
          <g id="Polígono_1" data-name="Polígono 1" transform="translate(20 16) rotate(180)" fill="#686868">
            <path d="M 15.06573581695557 11.5 L 0.9342628717422485 11.5 L 7.999999523162842 0.9013950228691101 L 15.06573581695557 11.5 Z" stroke="none"/>
            <path d="M 7.999999523162842 1.802775382995605 L 1.868515968322754 11 L 14.13148307800293 11 L 7.999999523162842 1.802775382995605 M 7.999999523162842 0 L 16 12 L -9.5367431640625e-07 12 L 7.999999523162842 0 Z" stroke="none" fill="#707070"/>
          </g>
        </g>
        <g id="boton_barra_de_navegacion-2" data-name="boton barra de navegacion" transform="translate(0.5 0.191)">
          <g id="Rectángulo_2-2" data-name="Rectángulo 2" fill="#424242" stroke="#707070" stroke-width="1">
            <rect width="24" height="22" stroke="none"/>
            <rect x="0.5" y="0.5" width="23" height="21" fill="none"/>
          </g>
          <g id="Polígono_1-2" data-name="Polígono 1" transform="translate(4 4)" fill="#686868">
            <path d="M 15.01810932159424 10.5 L 0.981889545917511 10.5 L 7.999999523162842 0.850098729133606 L 15.01810932159424 10.5 Z" stroke="none"/>
            <path d="M 7.999999523162842 1.700187683105469 L 1.963771820068359 10 L 14.03622627258301 10 L 7.999999523162842 1.700187683105469 M 7.999999523162842 0 L 16 11 L -9.5367431640625e-07 11 L 7.999999523162842 0 Z" stroke="none" fill="#707070"/>
          </g>
        </g>
      </g>
      <g id="Grupo_20" data-name="Grupo 20" transform="translate(67 0.509)">
        <g id="Grupo_19" data-name="Grupo 19" transform="translate(29.144 69.125)">
          <g id="Cuadrícula_de_repetición_3" data-name="Cuadrícula de repetición 3" transform="translate(1 4)" clip-path="url(#clip-path)">
            <g transform="translate(-1 -4)">
              <text id="Peperoni" transform="translate(33 19)" fill="#b4b4b4" font-size="14" font-family="SegoeUI, Segoe UI"><tspan x="-27.289" y="0">Peperoni</tspan></text>
            </g>
            <g transform="translate(-1 21)">
              <text id="Peperoni-2" data-name="Peperoni" transform="translate(33 19)" fill="#b4b4b4" font-size="14" font-family="SegoeUI, Segoe UI"><tspan x="-27.289" y="0">Peperoni</tspan></text>
            </g>
            <g transform="translate(-1 46)">
              <text id="Peperoni-3" data-name="Peperoni" transform="translate(33 19)" fill="#b4b4b4" font-size="14" font-family="SegoeUI, Segoe UI"><tspan x="-27.289" y="0">Peperoni</tspan></text>
            </g>
            <g transform="translate(-1 71)">
              <text id="Peperoni-4" data-name="Peperoni" transform="translate(33 19)" fill="#b4b4b4" font-size="14" font-family="SegoeUI, Segoe UI"><tspan x="-27.289" y="0">Peperoni</tspan></text>
            </g>
            <g transform="translate(-1 96)">
              <text id="Peperoni-5" data-name="Peperoni" transform="translate(33 19)" fill="#b4b4b4" font-size="14" font-family="SegoeUI, Segoe UI"><tspan x="-27.289" y="0">Peperoni</tspan></text>
            </g>
            <g transform="translate(-1 121)">
              <text id="Peperoni-6" data-name="Peperoni" transform="translate(33 19)" fill="#b4b4b4" font-size="14" font-family="SegoeUI, Segoe UI"><tspan x="-27.289" y="0">Peperoni</tspan></text>
            </g>
            <g transform="translate(-1 146)">
              <text id="Peperoni-7" data-name="Peperoni" transform="translate(33 19)" fill="#b4b4b4" font-size="14" font-family="SegoeUI, Segoe UI"><tspan x="-27.289" y="0">Peperoni</tspan></text>
            </g>
            <g transform="translate(-1 171)">
              <text id="Peperoni-8" data-name="Peperoni" transform="translate(33 19)" fill="#b4b4b4" font-size="14" font-family="SegoeUI, Segoe UI"><tspan x="-27.289" y="0">Peperoni</tspan></text>
            </g>
            <g transform="translate(-1 196)">
              <text id="Peperoni-9" data-name="Peperoni" transform="translate(33 19)" fill="#b4b4b4" font-size="14" font-family="SegoeUI, Segoe UI"><tspan x="-27.289" y="0">Peperoni</tspan></text>
            </g>
            <g transform="translate(-1 221)">
              <text id="Peperoni-10" data-name="Peperoni" transform="translate(33 19)" fill="#b4b4b4" font-size="14" font-family="SegoeUI, Segoe UI"><tspan x="-27.289" y="0">Peperoni</tspan></text>
            </g>
          </g>
        </g>
      </g>
      <g id="Limpiar" transform="translate(73 353.635)">
        <g id="Rectángulo_13" data-name="Rectángulo 13" fill="#2f2f2f" stroke="#707070" stroke-width="1">
          <rect width="105" height="51" rx="25.5" stroke="none"/>
          <rect x="0.5" y="0.5" width="104" height="50" rx="25" fill="none"/>
        </g>
        <text id="Cancelar" transform="translate(26 31)" fill="#b4b4b4" font-size="14" font-family="SegoeUI-Semibold, Segoe UI" font-weight="600"><tspan x="0" y="0">Cancelar</tspan></text>
      </g>
      <text id="Pizza_grande_de_jamon" data-name="Pizza grande 
de jamon" transform="translate(126 27)" fill="#b4b4b4" font-size="20" font-family="SegoeUI-Semibold, Segoe UI" font-weight="600"><tspan x="-60.581" y="0">Pizza grande </tspan><tspan x="-42.583" y="27">de jamon</tspan></text>
    </g>
  </g>
</svg>
