<svg xmlns="http://www.w3.org/2000/svg" xmlns:xlink="http://www.w3.org/1999/xlink" width="1920" height="1081" viewBox="0 0 1920 1081">
  <defs>
    <clipPath id="clip-path">
      <rect width="476" height="738.5" fill="none"/>
    </clipPath>
    <clipPath id="clip-path-2">
      <rect width="339" height="44" fill="none"/>
    </clipPath>
    <clipPath id="clip-path-4">
      <rect width="476" height="733.5" fill="none"/>
    </clipPath>
    <clipPath id="clip-path-7">
      <rect width="476" height="736.5" fill="none"/>
    </clipPath>
    <clipPath id="clip-GestionDePedidosDelivery">
      <rect width="1920" height="1081"/>
    </clipPath>
  </defs>
  <g id="GestionDePedidosDelivery" clip-path="url(#clip-GestionDePedidosDelivery)">
    <g id="Cocina">
      <rect id="Fondo" width="1920" height="1081" fill="#212121"/>
      <path id="Fondo_-_Contorno" data-name="Fondo - Contorno" d="M1,1V1080H1919V1H1M0,0H1920V1081H0Z" fill="#707070"/>
      <g id="Entrantes" transform="translate(55 147)">
        <path id="Rectángulo_17" data-name="Rectángulo 17" d="M1,1V862H556V1H1M0,0H557V863H0Z" fill="#707070"/>
        <path id="stat_1_24dp_5F6368_FILL0_wght400_GRAD0_opsz24" d="M244.476-617.343,240-621.819,259.181-641l19.181,19.181-4.476,4.476-14.705-14.625Z" transform="translate(214.638 904.985)" fill="#5f6368"/>
        <path id="stat_1_24dp_5F6368_FILL0_wght400_GRAD0_opsz24_-_Contorno" data-name="stat_1_24dp_5F6368_FILL0_wght400_GRAD0_opsz24 - Contorno" d="M273.888-616.637l-14.706-14.626-14.706,14.626-5.182-5.182,19.888-19.888,19.888,19.888Zm-33.18-5.182,3.769,3.769,14.7-14.625,14.7,14.625,3.769-3.769-18.474-18.474Z" transform="translate(214.638 904.985)" fill="#707070"/>
        <g id="Barra_de_navegacion_pedidos_hechos" data-name="Barra de navegacion pedidos hechos" transform="translate(528.508)">
          <g id="Barra_de_navegacion" data-name="Barra de navegacion" fill="#424242">
            <path d="M 27.99183082580566 862.5 L 0.500052273273468 862.5 L 0.500052273273468 0.499969482421875 L 27.99183082580566 0.499969482421875 L 27.99183082580566 14.16174697875977 L 27.99183082580566 862.5 Z" stroke="none"/>
            <path d="M 1.000051498413086 0.99993896484375 L 1.000051498413086 862 L 27.49183082580566 862 L 27.49183082580566 0.99993896484375 L 1.000051498413086 0.99993896484375 M 5.14984130859375e-05 -6.103515625e-05 L 28.49183082580566 -6.103515625e-05 L 28.49183082580566 863 L 5.14984130859375e-05 863 L 5.14984130859375e-05 -6.103515625e-05 Z" stroke="none" fill="#707070"/>
          </g>
          <g id="Barra" transform="translate(0.5 24.191)" fill="#686868" stroke="#707070" stroke-width="1">
            <rect width="27.992" height="412" stroke="none"/>
            <rect x="0.5" y="0.5" width="26.992" height="411" fill="none"/>
          </g>
          <g id="boton_barra_de_navegacion" data-name="boton barra de navegacion" transform="translate(0.5 840.809)">
            <g id="Rectángulo_2" data-name="Rectángulo 2" fill="#424242" stroke="#707070" stroke-width="1">
              <rect width="27.992" height="22" stroke="none"/>
              <rect x="0.5" y="0.5" width="26.992" height="21" fill="none"/>
            </g>
            <g id="Polígono_1" data-name="Polígono 1" transform="translate(23.992 16) rotate(180)" fill="#686868">
              <path d="M 18.92463874816895 11.5 L 1.067243695259094 11.5 L 9.995941162109375 0.781211256980896 L 18.92463874816895 11.5 Z" stroke="none"/>
              <path d="M 9.995941162109375 1.562424659729004 L 2.134487152099609 11 L 17.85739517211914 11 L 9.995941162109375 1.562424659729004 M 9.995941162109375 0 L 19.99188041687012 12 L 1.9073486328125e-06 12 L 9.995941162109375 0 Z" stroke="none" fill="#707070"/>
            </g>
          </g>
          <g id="boton_barra_de_navegacion-2" data-name="boton barra de navegacion" transform="translate(0.5 0.191)">
            <g id="Rectángulo_2-2" data-name="Rectángulo 2" fill="#424242" stroke="#707070" stroke-width="1">
              <rect width="27.992" height="22" stroke="none"/>
              <rect x="0.5" y="0.5" width="26.992" height="21" fill="none"/>
            </g>
            <g id="Polígono_1-2" data-name="Polígono 1" transform="translate(4 4)" fill="#686868">
              <path d="M 18.86191368103027 10.5 L 1.129968881607056 10.5 L 9.995941162109375 0.7434692978858948 L 18.86191368103027 10.5 Z" stroke="none"/>
              <path d="M 9.995941162109375 1.4869384765625 L 2.259937286376953 10 L 17.7319450378418 10 L 9.995941162109375 1.4869384765625 M 9.995941162109375 0 L 19.99188041687012 11 L 1.9073486328125e-06 11 L 9.995941162109375 0 Z" stroke="none" fill="#707070"/>
            </g>
          </g>
        </g>
        <g id="detalle_extendido" data-name="detalle extendido" transform="translate(26 124.5)" clip-path="url(#clip-path)">
          <g id="detalle_extendido-2" data-name="detalle extendido">
            <g id="Trazado_7" data-name="Trazado 7" fill="#2f2f2f">
              <path d="M 460 547.62255859375 L 16 547.62255859375 C 7.453266620635986 547.62255859375 0.5 541.939697265625 0.5 534.9544677734375 L 0.5 13.16814613342285 C 0.5 6.182945728302002 7.453266620635986 0.5000126361846924 16 0.5000126361846924 L 460 0.5000126361846924 C 468.5467224121094 0.5000126361846924 475.5 6.182945728302002 475.5 13.16814613342285 L 475.5 534.9544677734375 C 475.5 541.939697265625 468.5467224121094 547.62255859375 460 547.62255859375 Z" stroke="none"/>
              <path d="M 16 1 C 7.72900390625 1 1 6.45855712890625 1 13.1680908203125 L 1 534.9544677734375 C 1 541.6640014648438 7.72900390625 547.12255859375 16 547.12255859375 L 460 547.12255859375 C 468.27099609375 547.12255859375 475 541.6640014648438 475 534.9544677734375 L 475 13.1680908203125 C 475 6.45855712890625 468.27099609375 1 460 1 L 16 1 M 16 0 L 460 0 C 468.8365783691406 0 476 5.89556884765625 476 13.1680908203125 L 476 534.9544677734375 C 476 542.2269897460938 468.8365783691406 548.12255859375 460 548.12255859375 L 16 548.12255859375 C 7.163421630859375 548.12255859375 0 542.2269897460938 0 534.9544677734375 L 0 13.1680908203125 C 0 5.89556884765625 7.163421630859375 0 16 0 Z" stroke="none" fill="#707070"/>
            </g>
            <text id="Pedido:_123568" data-name="Pedido:
#123568" transform="translate(238 38)" fill="#b4b4b4" stroke="#707070" stroke-width="1" font-size="18" font-family="SegoeUI-Semibold, Segoe UI" font-weight="600"><tspan x="-30.48" y="0">Pedido:</tspan><tspan x="-33.952" y="24">#123568</tspan></text>
            <path id="CambiaEstado" d="M187.5-687l-3.85-3.988,9.762-9.762H160v-5.5h33.412l-9.762-9.762L187.5-720,204-703.5Z" transform="translate(256 1224.655)" fill="#5f6368" stroke="#707070" stroke-width="1"/>
            <g id="Grupo_22" data-name="Grupo 22" transform="translate(60 68)">
              <text id="Nombre:_Mario_Estrada" data-name="Nombre:
Mario Estrada" transform="translate(0 63)" fill="#b4b4b4" font-size="18" font-family="SegoeUI-Semibold, Segoe UI" font-weight="600"><tspan x="0" y="0" text-decoration="underline">Nombre</tspan><tspan y="0">:</tspan><tspan x="0" y="24">Mario Estrada</tspan></text>
              <text id="Datos_de_entega" data-name="Datos de entega" transform="translate(110 22)" fill="#b4b4b4" font-size="20" font-family="SegoeUI-Semibold, Segoe UI" font-weight="600"><tspan x="0" y="0">Datos de entega</tspan></text>
              <text id="Teléfono:_35708405" data-name="Teléfono:
35708405" transform="translate(348 63)" fill="#b4b4b4" font-size="18" font-family="SegoeUI-Semibold, Segoe UI" font-weight="600"><tspan x="-74.558" y="0" text-decoration="underline">Teléfono</tspan><tspan y="0">:</tspan><tspan x="-79.98" y="24">35708405</tspan></text>
              <text id="Dirección:_KM_16.5_Condominio_Altos_de_Arrazola_casa_D-8" data-name="Dirección:
KM 16.5 Condominio Altos de Arrazola casa D-8" transform="translate(8 104)" fill="#b4b4b4" font-size="18" font-family="SegoeUI-Semibold, Segoe UI" font-weight="600"><tspan x="133.548" y="19" text-decoration="underline">Dirección</tspan><tspan y="19">:</tspan><tspan x="16.632" y="43">KM 16.5 Condominio Altos de Arrazola </tspan><tspan x="138.949" y="67">casa D-8</tspan></text>
              <text id="Nota:_Cuidado_con_el_perro_Tocar_Timbre" data-name="Nota:
Cuidado con el perro, Tocar Timbre" transform="translate(8 242)" fill="#b4b4b4" font-size="18" font-family="SegoeUI-Semibold, Segoe UI" font-weight="600"><tspan text-decoration="underline"><tspan x="151.601" y="19">Nota:</tspan></tspan><tspan x="30.725" y="43">Cuidado con el perro, Tocar Timbre</tspan></text>
              <text id="Centro_de_despacho:_Bennets_CAES" data-name="Centro de despacho:
Bennets CAES" transform="translate(23 189)" fill="#b4b4b4" font-size="18" font-family="SegoeUI-Semibold, Segoe UI" font-weight="600"><tspan text-decoration="underline"><tspan x="74.731" y="19">Centro de despacho:</tspan></tspan><tspan x="102.202" y="43">Bennets CAES</tspan></text>
            </g>
            <g id="Grupo_24" data-name="Grupo 24" transform="translate(-919.314 -56.5)">
              <text id="Detalles_del_pedido" data-name="Detalles del pedido" transform="translate(1080.814 452)" fill="#b4b4b4" font-size="20" font-family="SegoeUI-Semibold, Segoe UI" font-weight="600"><tspan x="0" y="0">Detalles del pedido</tspan></text>
              <text id="N_" data-name="N#" transform="translate(991.814 479)" fill="#b4b4b4" font-size="15" font-family="SegoeUI-Semibold, Segoe UI" font-weight="600"><tspan x="0" y="0">N#</tspan></text>
              <text id="Nombre:" transform="translate(1020.814 479)" fill="#b4b4b4" font-size="15" font-family="SegoeUI-Semibold, Segoe UI" font-weight="600"><tspan x="0" y="0">Nombre:</tspan></text>
              <text id="Coste:" transform="translate(1297.814 479)" fill="#b4b4b4" font-size="15" font-family="SegoeUI-Semibold, Segoe UI" font-weight="600"><tspan x="0" y="0">Coste:</tspan></text>
              <g id="Cuadrícula_de_repetición_1" data-name="Cuadrícula de repetición 1" transform="translate(998.814 489)" clip-path="url(#clip-path-2)">
                <g id="Grupo_2" data-name="Grupo 2" transform="translate(-74 -907.921)">
                  <text id="_1" data-name="1" transform="translate(74 923.921)" fill="#b4b4b4" font-size="15" font-family="SegoeUI-Semibold, Segoe UI" font-weight="600"><tspan x="0" y="0">1</tspan></text>
                  <text id="Pizza_Alfredo_Chicken:_personal" data-name="Pizza Alfredo Chicken: personal" transform="translate(96 923.921)" fill="#b4b4b4" font-size="15" font-family="SegoeUI-Semibold, Segoe UI" font-weight="600"><tspan x="0" y="0">Pizza Alfredo Chicken: personal</tspan></text>
                  <text id="_35.00" data-name="35.00" transform="translate(376 923.921)" fill="#b4b4b4" font-size="15" font-family="SegoeUI-Semibold, Segoe UI" font-weight="600"><tspan x="0" y="0">35.00</tspan></text>
                </g>
                <g id="Grupo_2-2" data-name="Grupo 2" transform="translate(-74 -887.921)">
                  <text id="_1-2" data-name="1" transform="translate(74 923.921)" fill="#b4b4b4" font-size="15" font-family="SegoeUI-Semibold, Segoe UI" font-weight="600"><tspan x="0" y="0">1</tspan></text>
                  <text id="Pizza_Alfredo_Chicken:_personal-2" data-name="Pizza Alfredo Chicken: personal" transform="translate(96 923.921)" fill="#b4b4b4" font-size="15" font-family="SegoeUI-Semibold, Segoe UI" font-weight="600"><tspan x="0" y="0">Pizza Alfredo Chicken: personal</tspan></text>
                  <text id="_35.00-2" data-name="35.00" transform="translate(376 923.921)" fill="#b4b4b4" font-size="15" font-family="SegoeUI-Semibold, Segoe UI" font-weight="600"><tspan x="0" y="0">35.00</tspan></text>
                </g>
                <g id="Grupo_2-3" data-name="Grupo 2" transform="translate(-74 -867.921)">
                  <text id="_1-3" data-name="1" transform="translate(74 923.921)" fill="#b4b4b4" font-size="15" font-family="SegoeUI-Semibold, Segoe UI" font-weight="600"><tspan x="0" y="0">1</tspan></text>
                  <text id="Pizza_Alfredo_Chicken:_personal-3" data-name="Pizza Alfredo Chicken: personal" transform="translate(96 923.921)" fill="#b4b4b4" font-size="15" font-family="SegoeUI-Semibold, Segoe UI" font-weight="600"><tspan x="0" y="0">Pizza Alfredo Chicken: personal</tspan></text>
                  <text id="_35.00-3" data-name="35.00" transform="translate(376 923.921)" fill="#b4b4b4" font-size="15" font-family="SegoeUI-Semibold, Segoe UI" font-weight="600"><tspan x="0" y="0">35.00</tspan></text>
                </g>
              </g>
              <line id="Línea_3" data-name="Línea 3" x2="386" transform="translate(974.314 533.079)" fill="none" stroke="#707070" stroke-width="1"/>
              <text id="Pago_en_efectivo_Total:_70.00" data-name="Pago en efectivo                                     Total: 70.00" transform="translate(998.814 534.579)" fill="#b4b4b4" font-size="15" font-family="SegoeUI-Semibold, Segoe UI" font-weight="600"><tspan x="0" y="16" xml:space="preserve">Pago en efectivo                                     Total: 70.00</tspan></text>
            </g>
            <path id="close_24dp_E8EAED_FILL0_wght400_GRAD0_opsz24" d="M203.4-726l-3.4-3.4L213.6-743,200-756.6l3.4-3.4L217-746.4,230.6-760l3.4,3.4L220.4-743,234-729.4l-3.4,3.4L217-739.6Z" transform="translate(208 780.5)" fill="#5f6368"/>
          </g>
          <g id="detalle_extendido-3" data-name="detalle extendido" transform="translate(0 569)">
            <g id="Trazado_7-2" data-name="Trazado 7" fill="#2f2f2f">
              <path d="M 460 547.62255859375 L 16 547.62255859375 C 7.453266620635986 547.62255859375 0.5 541.939697265625 0.5 534.9544677734375 L 0.5 13.16814613342285 C 0.5 6.182945728302002 7.453266620635986 0.5000126361846924 16 0.5000126361846924 L 460 0.5000126361846924 C 468.5467224121094 0.5000126361846924 475.5 6.182945728302002 475.5 13.16814613342285 L 475.5 534.9544677734375 C 475.5 541.939697265625 468.5467224121094 547.62255859375 460 547.62255859375 Z" stroke="none"/>
              <path d="M 16 1 C 7.72900390625 1 1 6.45855712890625 1 13.1680908203125 L 1 534.9544677734375 C 1 541.6640014648438 7.72900390625 547.12255859375 16 547.12255859375 L 460 547.12255859375 C 468.27099609375 547.12255859375 475 541.6640014648438 475 534.9544677734375 L 475 13.1680908203125 C 475 6.45855712890625 468.27099609375 1 460 1 L 16 1 M 16 0 L 460 0 C 468.8365783691406 0 476 5.89556884765625 476 13.1680908203125 L 476 534.9544677734375 C 476 542.2269897460938 468.8365783691406 548.12255859375 460 548.12255859375 L 16 548.12255859375 C 7.163421630859375 548.12255859375 0 542.2269897460938 0 534.9544677734375 L 0 13.1680908203125 C 0 5.89556884765625 7.163421630859375 0 16 0 Z" stroke="none" fill="#707070"/>
            </g>
            <text id="Pedido:_123568-2" data-name="Pedido:
#123568" transform="translate(238 38)" fill="#b4b4b4" stroke="#707070" stroke-width="1" font-size="18" font-family="SegoeUI-Semibold, Segoe UI" font-weight="600"><tspan x="-30.48" y="0">Pedido:</tspan><tspan x="-33.952" y="24">#123568</tspan></text>
            <path id="CambiaEstado-2" data-name="CambiaEstado" d="M187.5-687l-3.85-3.988,9.762-9.762H160v-5.5h33.412l-9.762-9.762L187.5-720,204-703.5Z" transform="translate(256 1224.655)" fill="#5f6368" stroke="#707070" stroke-width="1"/>
            <g id="Grupo_22-2" data-name="Grupo 22" transform="translate(60 68)">
              <text id="Nombre:_Mario_Estrada-2" data-name="Nombre:
Mario Estrada" transform="translate(0 63)" fill="#b4b4b4" font-size="18" font-family="SegoeUI-Semibold, Segoe UI" font-weight="600"><tspan x="0" y="0" text-decoration="underline">Nombre</tspan><tspan y="0">:</tspan><tspan x="0" y="24">Mario Estrada</tspan></text>
              <text id="Datos_de_entega-2" data-name="Datos de entega" transform="translate(110 22)" fill="#b4b4b4" font-size="20" font-family="SegoeUI-Semibold, Segoe UI" font-weight="600"><tspan x="0" y="0">Datos de entega</tspan></text>
              <text id="Teléfono:_35708405-2" data-name="Teléfono:
35708405" transform="translate(348 63)" fill="#b4b4b4" font-size="18" font-family="SegoeUI-Semibold, Segoe UI" font-weight="600"><tspan x="-74.558" y="0" text-decoration="underline">Teléfono</tspan><tspan y="0">:</tspan><tspan x="-79.98" y="24">35708405</tspan></text>
              <text id="Dirección:_KM_16.5_Condominio_Altos_de_Arrazola_casa_D-8-2" data-name="Dirección:
KM 16.5 Condominio Altos de Arrazola casa D-8" transform="translate(8 104)" fill="#b4b4b4" font-size="18" font-family="SegoeUI-Semibold, Segoe UI" font-weight="600"><tspan x="133.548" y="19" text-decoration="underline">Dirección</tspan><tspan y="19">:</tspan><tspan x="16.632" y="43">KM 16.5 Condominio Altos de Arrazola </tspan><tspan x="138.949" y="67">casa D-8</tspan></text>
              <text id="Nota:_Cuidado_con_el_perro_Tocar_Timbre-2" data-name="Nota:
Cuidado con el perro, Tocar Timbre" transform="translate(8 242)" fill="#b4b4b4" font-size="18" font-family="SegoeUI-Semibold, Segoe UI" font-weight="600"><tspan text-decoration="underline"><tspan x="151.601" y="19">Nota:</tspan></tspan><tspan x="30.725" y="43">Cuidado con el perro, Tocar Timbre</tspan></text>
              <text id="Centro_de_despacho:_Bennets_CAES-2" data-name="Centro de despacho:
Bennets CAES" transform="translate(23 189)" fill="#b4b4b4" font-size="18" font-family="SegoeUI-Semibold, Segoe UI" font-weight="600"><tspan text-decoration="underline"><tspan x="74.731" y="19">Centro de despacho:</tspan></tspan><tspan x="102.202" y="43">Bennets CAES</tspan></text>
            </g>
            <g id="Grupo_24-2" data-name="Grupo 24" transform="translate(-919.314 -56.5)">
              <text id="Detalles_del_pedido-2" data-name="Detalles del pedido" transform="translate(1080.814 452)" fill="#b4b4b4" font-size="20" font-family="SegoeUI-Semibold, Segoe UI" font-weight="600"><tspan x="0" y="0">Detalles del pedido</tspan></text>
              <text id="N_2" data-name="N#" transform="translate(991.814 479)" fill="#b4b4b4" font-size="15" font-family="SegoeUI-Semibold, Segoe UI" font-weight="600"><tspan x="0" y="0">N#</tspan></text>
              <text id="Nombre:-2" data-name="Nombre:" transform="translate(1020.814 479)" fill="#b4b4b4" font-size="15" font-family="SegoeUI-Semibold, Segoe UI" font-weight="600"><tspan x="0" y="0">Nombre:</tspan></text>
              <text id="Coste:-2" data-name="Coste:" transform="translate(1297.814 479)" fill="#b4b4b4" font-size="15" font-family="SegoeUI-Semibold, Segoe UI" font-weight="600"><tspan x="0" y="0">Coste:</tspan></text>
              <g id="Cuadrícula_de_repetición_1-2" data-name="Cuadrícula de repetición 1" transform="translate(998.814 489)" clip-path="url(#clip-path-2)">
                <g id="Grupo_2-4" data-name="Grupo 2" transform="translate(-74 -907.921)">
                  <text id="_1-4" data-name="1" transform="translate(74 923.921)" fill="#b4b4b4" font-size="15" font-family="SegoeUI-Semibold, Segoe UI" font-weight="600"><tspan x="0" y="0">1</tspan></text>
                  <text id="Pizza_Alfredo_Chicken:_personal-4" data-name="Pizza Alfredo Chicken: personal" transform="translate(96 923.921)" fill="#b4b4b4" font-size="15" font-family="SegoeUI-Semibold, Segoe UI" font-weight="600"><tspan x="0" y="0">Pizza Alfredo Chicken: personal</tspan></text>
                  <text id="_35.00-4" data-name="35.00" transform="translate(376 923.921)" fill="#b4b4b4" font-size="15" font-family="SegoeUI-Semibold, Segoe UI" font-weight="600"><tspan x="0" y="0">35.00</tspan></text>
                </g>
                <g id="Grupo_2-5" data-name="Grupo 2" transform="translate(-74 -887.921)">
                  <text id="_1-5" data-name="1" transform="translate(74 923.921)" fill="#b4b4b4" font-size="15" font-family="SegoeUI-Semibold, Segoe UI" font-weight="600"><tspan x="0" y="0">1</tspan></text>
                  <text id="Pizza_Alfredo_Chicken:_personal-5" data-name="Pizza Alfredo Chicken: personal" transform="translate(96 923.921)" fill="#b4b4b4" font-size="15" font-family="SegoeUI-Semibold, Segoe UI" font-weight="600"><tspan x="0" y="0">Pizza Alfredo Chicken: personal</tspan></text>
                  <text id="_35.00-5" data-name="35.00" transform="translate(376 923.921)" fill="#b4b4b4" font-size="15" font-family="SegoeUI-Semibold, Segoe UI" font-weight="600"><tspan x="0" y="0">35.00</tspan></text>
                </g>
                <g id="Grupo_2-6" data-name="Grupo 2" transform="translate(-74 -867.921)">
                  <text id="_1-6" data-name="1" transform="translate(74 923.921)" fill="#b4b4b4" font-size="15" font-family="SegoeUI-Semibold, Segoe UI" font-weight="600"><tspan x="0" y="0">1</tspan></text>
                  <text id="Pizza_Alfredo_Chicken:_personal-6" data-name="Pizza Alfredo Chicken: personal" transform="translate(96 923.921)" fill="#b4b4b4" font-size="15" font-family="SegoeUI-Semibold, Segoe UI" font-weight="600"><tspan x="0" y="0">Pizza Alfredo Chicken: personal</tspan></text>
                  <text id="_35.00-6" data-name="35.00" transform="translate(376 923.921)" fill="#b4b4b4" font-size="15" font-family="SegoeUI-Semibold, Segoe UI" font-weight="600"><tspan x="0" y="0">35.00</tspan></text>
                </g>
              </g>
              <line id="Línea_3-2" data-name="Línea 3" x2="386" transform="translate(974.314 533.079)" fill="none" stroke="#707070" stroke-width="1"/>
              <text id="Pago_en_efectivo_Total:_70.00-2" data-name="Pago en efectivo                                     Total: 70.00" transform="translate(998.814 534.579)" fill="#b4b4b4" font-size="15" font-family="SegoeUI-Semibold, Segoe UI" font-weight="600"><tspan x="0" y="16" xml:space="preserve">Pago en efectivo                                     Total: 70.00</tspan></text>
            </g>
            <path id="close_24dp_E8EAED_FILL0_wght400_GRAD0_opsz24-2" data-name="close_24dp_E8EAED_FILL0_wght400_GRAD0_opsz24" d="M203.4-726l-3.4-3.4L213.6-743,200-756.6l3.4-3.4L217-746.4,230.6-760l3.4,3.4L220.4-743,234-729.4l-3.4,3.4L217-739.6Z" transform="translate(208 780.5)" fill="#5f6368"/>
          </g>
        </g>
        <path id="Línea_1" data-name="Línea 1" d="M472,.5H0v-1H472Z" transform="translate(38 94.5)" fill="#707070"/>
        <text id="POR_CONFIRMAR" data-name="POR CONFIRMAR" transform="translate(148.5 56.5)" fill="#b4b4b4" font-size="32" font-family="SegoeUI-Semibold, Segoe UI" font-weight="600"><tspan x="0" y="0">POR CONFIRMAR</tspan></text>
        <path id="POR_CONFIRMAR_-_Contorno" data-name="POR CONFIRMAR - Contorno" d="M103.078.875a10.6,10.6,0,0,1-8.124-3.3,12.069,12.069,0,0,1-3.048-8.512,12.757,12.757,0,0,1,3.1-8.964,10.954,10.954,0,0,1,8.43-3.38A10.376,10.376,0,0,1,111.407-20a12.109,12.109,0,0,1,3.015,8.511c0,3.769-1.038,6.8-3.086,9.012A10.764,10.764,0,0,1,103.078.875Zm.359-23.156a10,10,0,0,0-7.695,3.058,11.8,11.8,0,0,0-2.836,8.286,11.1,11.1,0,0,0,2.781,7.832,9.64,9.64,0,0,0,7.391,2.981A9.8,9.8,0,0,0,110.6-3.152c1.871-2.02,2.82-4.823,2.82-8.332a11.144,11.144,0,0,0-2.75-7.833A9.414,9.414,0,0,0,103.438-22.281ZM83.7.875a10.821,10.821,0,0,1-8.174-3.233,11.746,11.746,0,0,1-3.076-8.423A12.3,12.3,0,0,1,75.9-19.822a11.838,11.838,0,0,1,8.706-3.459,14.237,14.237,0,0,1,5.588.963l.3.13v4.894l-.755-.448A9.169,9.169,0,0,0,85-19.016a7.305,7.305,0,0,0-5.539,2.176,8.109,8.109,0,0,0-2.117,5.871,7.711,7.711,0,0,0,1.97,5.552A6.8,6.8,0,0,0,84.5-3.375,9.486,9.486,0,0,0,89.729-4.8l.771-.5V-.634l-.27.14A14.133,14.133,0,0,1,83.7.875Zm.906-23.156a10.871,10.871,0,0,0-8,3.166,11.332,11.332,0,0,0-3.159,8.334,10.782,10.782,0,0,0,2.8,7.733A9.86,9.86,0,0,0,83.7-.125a13.48,13.48,0,0,0,5.8-1.122V-3.509a10.775,10.775,0,0,1-5,1.134,7.854,7.854,0,0,1-5.907-2.349,8.672,8.672,0,0,1-2.249-6.245,9.071,9.071,0,0,1,2.4-6.567A8.363,8.363,0,0,1,85-20.016a10.225,10.225,0,0,1,4.5,1.008v-2.515A13.786,13.786,0,0,0,84.609-22.281ZM30.7.875a10.6,10.6,0,0,1-8.124-3.3,12.069,12.069,0,0,1-3.048-8.512,12.757,12.757,0,0,1,3.1-8.964,10.954,10.954,0,0,1,8.43-3.38A10.376,10.376,0,0,1,39.032-20a12.109,12.109,0,0,1,3.015,8.511c0,3.769-1.038,6.8-3.086,9.012A10.764,10.764,0,0,1,30.7.875Zm.359-23.156a10,10,0,0,0-7.695,3.058,11.8,11.8,0,0,0-2.836,8.286,11.1,11.1,0,0,0,2.781,7.832A9.64,9.64,0,0,0,30.7-.125a9.8,9.8,0,0,0,7.524-3.027c1.871-2.02,2.82-4.823,2.82-8.332a11.144,11.144,0,0,0-2.75-7.833A9.414,9.414,0,0,0,31.063-22.281ZM257.189.5h-5.536L247.93-5.744a12.109,12.109,0,0,0-.909-1.361,5.22,5.22,0,0,0-.854-.877,2.68,2.68,0,0,0-.876-.462,3.848,3.848,0,0,0-1.12-.15h-1V.5h-4.7V-22.906h7.875a11.216,11.216,0,0,1,3.042.394,7.282,7.282,0,0,1,2.482,1.218,5.8,5.8,0,0,1,1.683,2.067,6.476,6.476,0,0,1,.606,2.868,7.014,7.014,0,0,1-.38,2.347,6.192,6.192,0,0,1-1.088,1.92A6.643,6.643,0,0,1,251-10.665a7.863,7.863,0,0,1-1.233.595q.169.132.321.271c.311.284.61.58.889.88a10.765,10.765,0,0,1,.844,1.041c.268.374.569.813.894,1.306l.005.008Zm-4.968-1h3.152l-3.5-5.525c-.317-.48-.609-.907-.869-1.269a9.752,9.752,0,0,0-.765-.944c-.26-.28-.54-.557-.83-.823a5.292,5.292,0,0,0-.971-.691l-.254-.143v-.741l.374-.1a7.345,7.345,0,0,0,1.924-.789,5.646,5.646,0,0,0,1.436-1.212,5.2,5.2,0,0,0,.912-1.611,6.019,6.019,0,0,0,.323-2.013,5.491,5.491,0,0,0-.5-2.429,4.813,4.813,0,0,0-1.395-1.714,6.289,6.289,0,0,0-2.143-1.048,10.219,10.219,0,0,0-2.77-.356h-6.875V-.5h2.7V-9.594h2a4.842,4.842,0,0,1,1.412.194,3.677,3.677,0,0,1,1.2.632,6.214,6.214,0,0,1,1.021,1.045,13.076,13.076,0,0,1,.984,1.471ZM236.61.5h-5.151l-2.016-5.7h-8.1L219.405.5h-5.142l8.765-23.406h4.882Zm-4.444-1h3.005l-7.956-21.406h-3.493L215.706-.5h2.983l1.938-5.7h9.524Zm-19.7,1h-4.687v-15q0-.385.01-.81L201.479.5h-3.239l-6.4-15.873q0,.433,0,.9V.5h-4.437V-22.906h6.075L199.5-7.668c.181.464.337.879.467,1.247.189-.539.355-.979.5-1.315l6.125-15.17h5.884Zm-3.687-1h2.688V-21.906h-4.21L201.383-7.354c-.233.558-.544,1.429-.924,2.588l-.113.344h-.834L199.42-4.8a21.747,21.747,0,0,0-.855-2.5l-5.765-14.6h-4.394V-.5h2.438V-14.469c0-2.006-.041-3.468-.123-4.344l-.051-.546h1.018l.083.4a15.332,15.332,0,0,0,.57,2.154L198.916-.5H200.8l6.564-16.441a14.714,14.714,0,0,0,.584-2.032l.09-.386h1l-.046.542c-.144,1.7-.217,3.149-.217,4.317ZM186.2.5h-5.536l-3.724-6.244a12.109,12.109,0,0,0-.909-1.361,5.22,5.22,0,0,0-.854-.877,2.68,2.68,0,0,0-.876-.462,3.848,3.848,0,0,0-1.12-.15h-1V.5h-4.7V-22.906h7.875a11.216,11.216,0,0,1,3.042.394,7.282,7.282,0,0,1,2.482,1.218,5.8,5.8,0,0,1,1.683,2.067,6.476,6.476,0,0,1,.606,2.868,7.014,7.014,0,0,1-.38,2.347,6.192,6.192,0,0,1-1.088,1.92,6.643,6.643,0,0,1-1.689,1.428,7.863,7.863,0,0,1-1.233.595q.169.132.321.271c.311.284.61.58.889.88a10.765,10.765,0,0,1,.844,1.041c.268.374.569.813.894,1.306l.005.008Zm-4.968-1h3.152l-3.5-5.525c-.317-.48-.609-.907-.869-1.269a9.752,9.752,0,0,0-.765-.944c-.26-.28-.54-.557-.83-.823a5.292,5.292,0,0,0-.971-.691L177.2-9.9v-.741l.374-.1a7.345,7.345,0,0,0,1.924-.789,5.646,5.646,0,0,0,1.436-1.212,5.2,5.2,0,0,0,.912-1.611,6.019,6.019,0,0,0,.323-2.013,5.491,5.491,0,0,0-.5-2.429,4.813,4.813,0,0,0-1.395-1.714,6.289,6.289,0,0,0-2.143-1.048,10.219,10.219,0,0,0-2.77-.356h-6.875V-.5h2.7V-9.594h2A4.842,4.842,0,0,1,174.6-9.4a3.677,3.677,0,0,1,1.2.632,6.214,6.214,0,0,1,1.021,1.045,13.076,13.076,0,0,1,.984,1.471ZM162.969.5h-4.828V-22.906h4.828Zm-3.828-1h2.828V-21.906h-2.828ZM146.8.5h-4.719V-22.906h13.094v4.156H146.8v5.734h7.719v4.141H146.8Zm-3.719-1H145.8V-9.875h7.719v-2.141H145.8V-19.75h8.375v-2.156H143.078Zm-5.547,1H132.7l-10.58-16.28q.008.494.008,1.092V.5h-4.594V-22.906h5.1L132.966-6.844q-.013-.511-.013-1.125V-22.906h4.578Zm-4.291-1h3.291V-21.906h-2.578V-7.969A19.619,19.619,0,0,0,134.1-5.04l.1.586h-.967L133.1-4.73c-.08-.159-.285-.518-.815-1.324l-10.2-15.852h-3.555V-.5h2.594V-14.687a22.967,22.967,0,0,0-.118-2.992l-.1-.586h1.028l.125.316a6.837,6.837,0,0,0,.626,1.208ZM63.877.5H58.341L54.617-5.744A12.112,12.112,0,0,0,53.709-7.1a5.22,5.22,0,0,0-.854-.877,2.68,2.68,0,0,0-.876-.462,3.848,3.848,0,0,0-1.119-.15h-1V.5h-4.7V-22.906h7.875a11.216,11.216,0,0,1,3.042.394,7.282,7.282,0,0,1,2.482,1.218,5.8,5.8,0,0,1,1.683,2.067,6.476,6.476,0,0,1,.606,2.868,7.013,7.013,0,0,1-.38,2.347,6.192,6.192,0,0,1-1.088,1.92,6.643,6.643,0,0,1-1.689,1.428,7.864,7.864,0,0,1-1.233.595q.169.132.321.271c.311.284.61.58.889.88a10.763,10.763,0,0,1,.844,1.041c.268.374.569.813.894,1.306l.005.008Zm-4.968-1h3.152l-3.5-5.525c-.317-.48-.609-.907-.869-1.269a9.753,9.753,0,0,0-.765-.944c-.26-.28-.54-.557-.83-.823a5.292,5.292,0,0,0-.971-.691L54.875-9.9v-.741l.374-.1a7.345,7.345,0,0,0,1.924-.789,5.646,5.646,0,0,0,1.436-1.212,5.2,5.2,0,0,0,.912-1.611,6.019,6.019,0,0,0,.323-2.013,5.491,5.491,0,0,0-.5-2.429,4.813,4.813,0,0,0-1.4-1.714A6.289,6.289,0,0,0,55.8-21.55a10.22,10.22,0,0,0-2.77-.356H46.156V-.5h2.7V-9.594h2a4.842,4.842,0,0,1,1.412.194,3.677,3.677,0,0,1,1.2.632,6.213,6.213,0,0,1,1.021,1.045,13.076,13.076,0,0,1,.984,1.471ZM6.969.5h-4.7V-22.906h7.3a9.519,9.519,0,0,1,6.307,1.915,6.77,6.77,0,0,1,2.3,5.444,7.506,7.506,0,0,1-2.377,5.709A8.942,8.942,0,0,1,9.453-7.625H6.969Zm-3.7-1h2.7V-8.625H9.453a7.982,7.982,0,0,0,5.658-1.943,6.459,6.459,0,0,0,2.061-4.979,5.742,5.742,0,0,0-1.948-4.681,8.568,8.568,0,0,0-5.662-1.679h-6.3Zm99.828-1.875A6.55,6.55,0,0,1,97.8-4.839a9.7,9.7,0,0,1-1.989-6.333,9.61,9.61,0,0,1,2.047-6.368,6.74,6.74,0,0,1,5.391-2.475,6.605,6.605,0,0,1,5.362,2.369,10.018,10.018,0,0,1,1.919,6.521,9.578,9.578,0,0,1-1.98,6.4A6.84,6.84,0,0,1,103.094-2.375Zm.156-16.641A5.708,5.708,0,0,0,98.625-16.9a8.645,8.645,0,0,0-1.812,5.725,8.733,8.733,0,0,0,1.761,5.7,5.522,5.522,0,0,0,4.52,2.1,5.809,5.809,0,0,0,4.7-2,8.625,8.625,0,0,0,1.739-5.753,9.069,9.069,0,0,0-1.69-5.885A5.579,5.579,0,0,0,103.25-19.016ZM30.719-2.375a6.55,6.55,0,0,1-5.293-2.464,9.7,9.7,0,0,1-1.989-6.333,9.61,9.61,0,0,1,2.047-6.368,6.74,6.74,0,0,1,5.391-2.475,6.605,6.605,0,0,1,5.362,2.369,10.018,10.018,0,0,1,1.919,6.521,9.578,9.578,0,0,1-1.98,6.4A6.84,6.84,0,0,1,30.719-2.375Zm.156-16.641A5.708,5.708,0,0,0,26.25-16.9a8.645,8.645,0,0,0-1.812,5.725,8.733,8.733,0,0,0,1.761,5.7,5.522,5.522,0,0,0,4.52,2.1,5.809,5.809,0,0,0,4.7-2,8.626,8.626,0,0,0,1.739-5.753,9.069,9.069,0,0,0-1.69-5.885A5.579,5.579,0,0,0,30.875-19.016ZM229.516-8.234h-8.264l3.306-9.6a8.724,8.724,0,0,0,.291-1.321l.067-.422h.916l.068.42a10.33,10.33,0,0,0,.277,1.327Zm-6.862-1h5.455l-2.741-7.879ZM8.875-10.656H5.969v-9.187h3.2c4.21,0,5.094,2.422,5.094,4.453a4.454,4.454,0,0,1-1.418,3.5A5.819,5.819,0,0,1,8.875-10.656Zm-1.906-1H8.875a4.875,4.875,0,0,0,3.309-.983,3.455,3.455,0,0,0,1.082-2.751c0-2.356-1.3-3.453-4.094-3.453h-2.2Zm238.8.047h-3.594v-8.281H245.8a4.743,4.743,0,0,1,3.255,1.033,3.69,3.69,0,0,1,1.183,2.889,4.694,4.694,0,0,1-.335,1.8,3.978,3.978,0,0,1-.948,1.392,4.143,4.143,0,0,1-1.429.871A5.1,5.1,0,0,1,245.766-11.609Zm-2.594-1h2.594a4.109,4.109,0,0,0,1.414-.235,3.15,3.15,0,0,0,1.087-.66,2.985,2.985,0,0,0,.709-1.046,3.7,3.7,0,0,0,.259-1.418,2.7,2.7,0,0,0-.848-2.143,3.8,3.8,0,0,0-2.589-.779h-2.625Zm-68.391,1h-3.594v-8.281h3.625a4.743,4.743,0,0,1,3.255,1.033,3.69,3.69,0,0,1,1.183,2.889,4.694,4.694,0,0,1-.335,1.8,3.978,3.978,0,0,1-.948,1.392,4.143,4.143,0,0,1-1.429.871A5.1,5.1,0,0,1,174.781-11.609Zm-2.594-1h2.594a4.109,4.109,0,0,0,1.414-.235,3.15,3.15,0,0,0,1.087-.66,2.985,2.985,0,0,0,.709-1.046,3.7,3.7,0,0,0,.259-1.418,2.7,2.7,0,0,0-.848-2.143,3.8,3.8,0,0,0-2.589-.779h-2.625Zm-119.734,1H48.859v-8.281h3.625a4.743,4.743,0,0,1,3.255,1.033,3.69,3.69,0,0,1,1.183,2.889,4.694,4.694,0,0,1-.335,1.8,3.977,3.977,0,0,1-.948,1.392,4.143,4.143,0,0,1-1.429.871A5.1,5.1,0,0,1,52.453-11.609Zm-2.594-1h2.594a4.109,4.109,0,0,0,1.414-.235,3.15,3.15,0,0,0,1.087-.66,2.985,2.985,0,0,0,.709-1.046,3.7,3.7,0,0,0,.259-1.418,2.7,2.7,0,0,0-.848-2.143,3.8,3.8,0,0,0-2.589-.779H49.859Z" transform="translate(148.5 56.5)" fill="#707070"/>
      </g>
      <g id="EnPreparacion" transform="translate(648 157)">
        <path id="Rectángulo_19" data-name="Rectángulo 19" d="M1,1V862H579V1H1M0,0H580V863H0Z" transform="translate(22 -10)" fill="#707070"/>
        <path id="Línea_2" data-name="Línea 2" d="M472,.5H0v-1H472Z" transform="translate(65 95.5)" fill="#707070"/>
        <g id="Barra_de_navegacion_pedidos_hechos-2" data-name="Barra de navegacion pedidos hechos" transform="translate(573.57)">
          <g id="Barra_de_navegacion-2" data-name="Barra de navegacion" fill="#424242">
            <path d="M 27.93025970458984 852.5 L 0.5000377893447876 852.5 L 0.5000377893447876 0.5 L 27.93025970458984 0.5 L 27.93025970458984 13.99766635894775 L 27.93025970458984 852.5 Z" stroke="none"/>
            <path d="M 1.000038146972656 1 L 1.000038146972656 852 L 27.43025970458984 852 L 27.43025970458984 1 L 1.000038146972656 1 M 3.814697265625e-05 0 L 28.43025970458984 0 L 28.43025970458984 853 L 3.814697265625e-05 853 L 3.814697265625e-05 0 Z" stroke="none" fill="#707070"/>
          </g>
          <g id="Barra-2" data-name="Barra" transform="translate(0.5 24.191)" fill="#686868" stroke="#707070" stroke-width="1">
            <rect width="27.93" height="412" stroke="none"/>
            <rect x="0.5" y="0.5" width="26.93" height="411" fill="none"/>
          </g>
          <g id="boton_barra_de_navegacion-3" data-name="boton barra de navegacion" transform="translate(0.5 830.809)">
            <g id="Rectángulo_2-3" data-name="Rectángulo 2" fill="#424242" stroke="#707070" stroke-width="1">
              <rect width="27.93" height="22" stroke="none"/>
              <rect x="0.5" y="0.5" width="26.93" height="21" fill="none"/>
            </g>
            <g id="Polígono_1-3" data-name="Polígono 1" transform="translate(23.93 16) rotate(180)" fill="#686868">
              <path d="M 18.86515998840332 11.5 L 1.065136551856995 11.5 L 9.965147972106934 0.782636284828186 L 18.86515998840332 11.5 Z" stroke="none"/>
              <path d="M 9.965147972106934 1.565272331237793 L 2.130275726318359 11 L 17.80002021789551 11 L 9.965147972106934 1.565272331237793 M 9.965147972106934 0 L 19.9302978515625 12 L -1.9073486328125e-06 12 L 9.965147972106934 0 Z" stroke="none" fill="#707070"/>
            </g>
          </g>
          <g id="boton_barra_de_navegacion-4" data-name="boton barra de navegacion" transform="translate(0.5 0.191)">
            <g id="Rectángulo_2-4" data-name="Rectángulo 2" fill="#424242" stroke="#707070" stroke-width="1">
              <rect width="27.93" height="22" stroke="none"/>
              <rect x="0.5" y="0.5" width="26.93" height="21" fill="none"/>
            </g>
            <g id="Polígono_1-4" data-name="Polígono 1" transform="translate(4 4)" fill="#686868">
              <path d="M 18.80267906188965 10.5 L 1.127619504928589 10.5 L 9.96514892578125 0.744720458984375 L 18.80267906188965 10.5 Z" stroke="none"/>
              <path d="M 9.96514892578125 1.489461898803711 L 2.255258560180664 10 L 17.67503929138184 10 L 9.96514892578125 1.489461898803711 M 9.96514892578125 0 L 19.93029975891113 11 L -1.9073486328125e-06 11 L 9.96514892578125 0 Z" stroke="none" fill="#707070"/>
            </g>
          </g>
        </g>
        <g id="detalle_extendido-4" data-name="detalle extendido" transform="translate(65 119.5)" clip-path="url(#clip-path-4)">
          <g id="detalle_extendido-5" data-name="detalle extendido">
            <g id="Trazado_7-3" data-name="Trazado 7" fill="#2f2f2f">
              <path d="M 460 547.62255859375 L 16 547.62255859375 C 7.453266620635986 547.62255859375 0.5 541.939697265625 0.5 534.9544677734375 L 0.5 13.16814613342285 C 0.5 6.182945728302002 7.453266620635986 0.5000126361846924 16 0.5000126361846924 L 460 0.5000126361846924 C 468.5467224121094 0.5000126361846924 475.5 6.182945728302002 475.5 13.16814613342285 L 475.5 534.9544677734375 C 475.5 541.939697265625 468.5467224121094 547.62255859375 460 547.62255859375 Z" stroke="none"/>
              <path d="M 16 1 C 7.72900390625 1 1 6.45855712890625 1 13.1680908203125 L 1 534.9544677734375 C 1 541.6640014648438 7.72900390625 547.12255859375 16 547.12255859375 L 460 547.12255859375 C 468.27099609375 547.12255859375 475 541.6640014648438 475 534.9544677734375 L 475 13.1680908203125 C 475 6.45855712890625 468.27099609375 1 460 1 L 16 1 M 16 0 L 460 0 C 468.8365783691406 0 476 5.89556884765625 476 13.1680908203125 L 476 534.9544677734375 C 476 542.2269897460938 468.8365783691406 548.12255859375 460 548.12255859375 L 16 548.12255859375 C 7.163421630859375 548.12255859375 0 542.2269897460938 0 534.9544677734375 L 0 13.1680908203125 C 0 5.89556884765625 7.163421630859375 0 16 0 Z" stroke="none" fill="#707070"/>
            </g>
            <text id="Pedido:_123568-3" data-name="Pedido:
#123568" transform="translate(238 38)" fill="#b4b4b4" stroke="#707070" stroke-width="1" font-size="18" font-family="SegoeUI-Semibold, Segoe UI" font-weight="600"><tspan x="-30.48" y="0">Pedido:</tspan><tspan x="-33.952" y="24">#123568</tspan></text>
            <path id="CambiaEstado-3" data-name="CambiaEstado" d="M187.5-687l-3.85-3.988,9.762-9.762H160v-5.5h33.412l-9.762-9.762L187.5-720,204-703.5Z" transform="translate(256 1224.655)" fill="#5f6368" stroke="#707070" stroke-width="1"/>
            <g id="Grupo_22-3" data-name="Grupo 22" transform="translate(60 68)">
              <text id="Nombre:_Mario_Estrada-3" data-name="Nombre:
Mario Estrada" transform="translate(0 63)" fill="#b4b4b4" font-size="18" font-family="SegoeUI-Semibold, Segoe UI" font-weight="600"><tspan x="0" y="0" text-decoration="underline">Nombre</tspan><tspan y="0">:</tspan><tspan x="0" y="24">Mario Estrada</tspan></text>
              <text id="Datos_de_entega-3" data-name="Datos de entega" transform="translate(110 22)" fill="#b4b4b4" font-size="20" font-family="SegoeUI-Semibold, Segoe UI" font-weight="600"><tspan x="0" y="0">Datos de entega</tspan></text>
              <text id="Teléfono:_35708405-3" data-name="Teléfono:
35708405" transform="translate(348 63)" fill="#b4b4b4" font-size="18" font-family="SegoeUI-Semibold, Segoe UI" font-weight="600"><tspan x="-74.558" y="0" text-decoration="underline">Teléfono</tspan><tspan y="0">:</tspan><tspan x="-79.98" y="24">35708405</tspan></text>
              <text id="Dirección:_KM_16.5_Condominio_Altos_de_Arrazola_casa_D-8-3" data-name="Dirección:
KM 16.5 Condominio Altos de Arrazola casa D-8" transform="translate(8 104)" fill="#b4b4b4" font-size="18" font-family="SegoeUI-Semibold, Segoe UI" font-weight="600"><tspan x="133.548" y="19" text-decoration="underline">Dirección</tspan><tspan y="19">:</tspan><tspan x="16.632" y="43">KM 16.5 Condominio Altos de Arrazola </tspan><tspan x="138.949" y="67">casa D-8</tspan></text>
              <text id="Nota:_Cuidado_con_el_perro_Tocar_Timbre-3" data-name="Nota:
Cuidado con el perro, Tocar Timbre" transform="translate(8 242)" fill="#b4b4b4" font-size="18" font-family="SegoeUI-Semibold, Segoe UI" font-weight="600"><tspan text-decoration="underline"><tspan x="151.601" y="19">Nota:</tspan></tspan><tspan x="30.725" y="43">Cuidado con el perro, Tocar Timbre</tspan></text>
              <text id="Centro_de_despacho:_Bennets_CAES-3" data-name="Centro de despacho:
Bennets CAES" transform="translate(23 189)" fill="#b4b4b4" font-size="18" font-family="SegoeUI-Semibold, Segoe UI" font-weight="600"><tspan text-decoration="underline"><tspan x="74.731" y="19">Centro de despacho:</tspan></tspan><tspan x="102.202" y="43">Bennets CAES</tspan></text>
            </g>
            <g id="Grupo_24-3" data-name="Grupo 24" transform="translate(-919.314 -56.5)">
              <text id="Detalles_del_pedido-3" data-name="Detalles del pedido" transform="translate(1080.814 452)" fill="#b4b4b4" font-size="20" font-family="SegoeUI-Semibold, Segoe UI" font-weight="600"><tspan x="0" y="0">Detalles del pedido</tspan></text>
              <text id="N_3" data-name="N#" transform="translate(991.814 479)" fill="#b4b4b4" font-size="15" font-family="SegoeUI-Semibold, Segoe UI" font-weight="600"><tspan x="0" y="0">N#</tspan></text>
              <text id="Nombre:-3" data-name="Nombre:" transform="translate(1020.814 479)" fill="#b4b4b4" font-size="15" font-family="SegoeUI-Semibold, Segoe UI" font-weight="600"><tspan x="0" y="0">Nombre:</tspan></text>
              <text id="Coste:-3" data-name="Coste:" transform="translate(1297.814 479)" fill="#b4b4b4" font-size="15" font-family="SegoeUI-Semibold, Segoe UI" font-weight="600"><tspan x="0" y="0">Coste:</tspan></text>
              <g id="Cuadrícula_de_repetición_1-3" data-name="Cuadrícula de repetición 1" transform="translate(998.814 489)" clip-path="url(#clip-path-2)">
                <g id="Grupo_2-7" data-name="Grupo 2" transform="translate(-74 -907.921)">
                  <text id="_1-7" data-name="1" transform="translate(74 923.921)" fill="#b4b4b4" font-size="15" font-family="SegoeUI-Semibold, Segoe UI" font-weight="600"><tspan x="0" y="0">1</tspan></text>
                  <text id="Pizza_Alfredo_Chicken:_personal-7" data-name="Pizza Alfredo Chicken: personal" transform="translate(96 923.921)" fill="#b4b4b4" font-size="15" font-family="SegoeUI-Semibold, Segoe UI" font-weight="600"><tspan x="0" y="0">Pizza Alfredo Chicken: personal</tspan></text>
                  <text id="_35.00-7" data-name="35.00" transform="translate(376 923.921)" fill="#b4b4b4" font-size="15" font-family="SegoeUI-Semibold, Segoe UI" font-weight="600"><tspan x="0" y="0">35.00</tspan></text>
                </g>
                <g id="Grupo_2-8" data-name="Grupo 2" transform="translate(-74 -887.921)">
                  <text id="_1-8" data-name="1" transform="translate(74 923.921)" fill="#b4b4b4" font-size="15" font-family="SegoeUI-Semibold, Segoe UI" font-weight="600"><tspan x="0" y="0">1</tspan></text>
                  <text id="Pizza_Alfredo_Chicken:_personal-8" data-name="Pizza Alfredo Chicken: personal" transform="translate(96 923.921)" fill="#b4b4b4" font-size="15" font-family="SegoeUI-Semibold, Segoe UI" font-weight="600"><tspan x="0" y="0">Pizza Alfredo Chicken: personal</tspan></text>
                  <text id="_35.00-8" data-name="35.00" transform="translate(376 923.921)" fill="#b4b4b4" font-size="15" font-family="SegoeUI-Semibold, Segoe UI" font-weight="600"><tspan x="0" y="0">35.00</tspan></text>
                </g>
                <g id="Grupo_2-9" data-name="Grupo 2" transform="translate(-74 -867.921)">
                  <text id="_1-9" data-name="1" transform="translate(74 923.921)" fill="#b4b4b4" font-size="15" font-family="SegoeUI-Semibold, Segoe UI" font-weight="600"><tspan x="0" y="0">1</tspan></text>
                  <text id="Pizza_Alfredo_Chicken:_personal-9" data-name="Pizza Alfredo Chicken: personal" transform="translate(96 923.921)" fill="#b4b4b4" font-size="15" font-family="SegoeUI-Semibold, Segoe UI" font-weight="600"><tspan x="0" y="0">Pizza Alfredo Chicken: personal</tspan></text>
                  <text id="_35.00-9" data-name="35.00" transform="translate(376 923.921)" fill="#b4b4b4" font-size="15" font-family="SegoeUI-Semibold, Segoe UI" font-weight="600"><tspan x="0" y="0">35.00</tspan></text>
                </g>
              </g>
              <line id="Línea_3-3" data-name="Línea 3" x2="386" transform="translate(974.314 533.079)" fill="none" stroke="#707070" stroke-width="1"/>
              <text id="Pago_en_efectivo_Total:_70.00-3" data-name="Pago en efectivo                                     Total: 70.00" transform="translate(998.814 534.579)" fill="#b4b4b4" font-size="15" font-family="SegoeUI-Semibold, Segoe UI" font-weight="600"><tspan x="0" y="16" xml:space="preserve">Pago en efectivo                                     Total: 70.00</tspan></text>
            </g>
          </g>
          <g id="detalle_extendido-6" data-name="detalle extendido" transform="translate(0 569)">
            <g id="Trazado_7-4" data-name="Trazado 7" fill="#2f2f2f">
              <path d="M 460 547.62255859375 L 16 547.62255859375 C 7.453266620635986 547.62255859375 0.5 541.939697265625 0.5 534.9544677734375 L 0.5 13.16814613342285 C 0.5 6.182945728302002 7.453266620635986 0.5000126361846924 16 0.5000126361846924 L 460 0.5000126361846924 C 468.5467224121094 0.5000126361846924 475.5 6.182945728302002 475.5 13.16814613342285 L 475.5 534.9544677734375 C 475.5 541.939697265625 468.5467224121094 547.62255859375 460 547.62255859375 Z" stroke="none"/>
              <path d="M 16 1 C 7.72900390625 1 1 6.45855712890625 1 13.1680908203125 L 1 534.9544677734375 C 1 541.6640014648438 7.72900390625 547.12255859375 16 547.12255859375 L 460 547.12255859375 C 468.27099609375 547.12255859375 475 541.6640014648438 475 534.9544677734375 L 475 13.1680908203125 C 475 6.45855712890625 468.27099609375 1 460 1 L 16 1 M 16 0 L 460 0 C 468.8365783691406 0 476 5.89556884765625 476 13.1680908203125 L 476 534.9544677734375 C 476 542.2269897460938 468.8365783691406 548.12255859375 460 548.12255859375 L 16 548.12255859375 C 7.163421630859375 548.12255859375 0 542.2269897460938 0 534.9544677734375 L 0 13.1680908203125 C 0 5.89556884765625 7.163421630859375 0 16 0 Z" stroke="none" fill="#707070"/>
            </g>
            <text id="Pedido:_123568-4" data-name="Pedido:
#123568" transform="translate(238 38)" fill="#b4b4b4" stroke="#707070" stroke-width="1" font-size="18" font-family="SegoeUI-Semibold, Segoe UI" font-weight="600"><tspan x="-30.48" y="0">Pedido:</tspan><tspan x="-33.952" y="24">#123568</tspan></text>
            <path id="CambiaEstado-4" data-name="CambiaEstado" d="M187.5-687l-3.85-3.988,9.762-9.762H160v-5.5h33.412l-9.762-9.762L187.5-720,204-703.5Z" transform="translate(256 1224.655)" fill="#5f6368" stroke="#707070" stroke-width="1"/>
            <g id="Grupo_22-4" data-name="Grupo 22" transform="translate(60 68)">
              <text id="Nombre:_Mario_Estrada-4" data-name="Nombre:
Mario Estrada" transform="translate(0 63)" fill="#b4b4b4" font-size="18" font-family="SegoeUI-Semibold, Segoe UI" font-weight="600"><tspan x="0" y="0" text-decoration="underline">Nombre</tspan><tspan y="0">:</tspan><tspan x="0" y="24">Mario Estrada</tspan></text>
              <text id="Datos_de_entega-4" data-name="Datos de entega" transform="translate(110 22)" fill="#b4b4b4" font-size="20" font-family="SegoeUI-Semibold, Segoe UI" font-weight="600"><tspan x="0" y="0">Datos de entega</tspan></text>
              <text id="Teléfono:_35708405-4" data-name="Teléfono:
35708405" transform="translate(348 63)" fill="#b4b4b4" font-size="18" font-family="SegoeUI-Semibold, Segoe UI" font-weight="600"><tspan x="-74.558" y="0" text-decoration="underline">Teléfono</tspan><tspan y="0">:</tspan><tspan x="-79.98" y="24">35708405</tspan></text>
              <text id="Dirección:_KM_16.5_Condominio_Altos_de_Arrazola_casa_D-8-4" data-name="Dirección:
KM 16.5 Condominio Altos de Arrazola casa D-8" transform="translate(8 104)" fill="#b4b4b4" font-size="18" font-family="SegoeUI-Semibold, Segoe UI" font-weight="600"><tspan x="133.548" y="19" text-decoration="underline">Dirección</tspan><tspan y="19">:</tspan><tspan x="16.632" y="43">KM 16.5 Condominio Altos de Arrazola </tspan><tspan x="138.949" y="67">casa D-8</tspan></text>
              <text id="Nota:_Cuidado_con_el_perro_Tocar_Timbre-4" data-name="Nota:
Cuidado con el perro, Tocar Timbre" transform="translate(8 242)" fill="#b4b4b4" font-size="18" font-family="SegoeUI-Semibold, Segoe UI" font-weight="600"><tspan text-decoration="underline"><tspan x="151.601" y="19">Nota:</tspan></tspan><tspan x="30.725" y="43">Cuidado con el perro, Tocar Timbre</tspan></text>
              <text id="Centro_de_despacho:_Bennets_CAES-4" data-name="Centro de despacho:
Bennets CAES" transform="translate(23 189)" fill="#b4b4b4" font-size="18" font-family="SegoeUI-Semibold, Segoe UI" font-weight="600"><tspan text-decoration="underline"><tspan x="74.731" y="19">Centro de despacho:</tspan></tspan><tspan x="102.202" y="43">Bennets CAES</tspan></text>
            </g>
            <g id="Grupo_24-4" data-name="Grupo 24" transform="translate(-919.314 -56.5)">
              <text id="Detalles_del_pedido-4" data-name="Detalles del pedido" transform="translate(1080.814 452)" fill="#b4b4b4" font-size="20" font-family="SegoeUI-Semibold, Segoe UI" font-weight="600"><tspan x="0" y="0">Detalles del pedido</tspan></text>
              <text id="N_4" data-name="N#" transform="translate(991.814 479)" fill="#b4b4b4" font-size="15" font-family="SegoeUI-Semibold, Segoe UI" font-weight="600"><tspan x="0" y="0">N#</tspan></text>
              <text id="Nombre:-4" data-name="Nombre:" transform="translate(1020.814 479)" fill="#b4b4b4" font-size="15" font-family="SegoeUI-Semibold, Segoe UI" font-weight="600"><tspan x="0" y="0">Nombre:</tspan></text>
              <text id="Coste:-4" data-name="Coste:" transform="translate(1297.814 479)" fill="#b4b4b4" font-size="15" font-family="SegoeUI-Semibold, Segoe UI" font-weight="600"><tspan x="0" y="0">Coste:</tspan></text>
              <g id="Cuadrícula_de_repetición_1-4" data-name="Cuadrícula de repetición 1" transform="translate(998.814 489)" clip-path="url(#clip-path-2)">
                <g id="Grupo_2-10" data-name="Grupo 2" transform="translate(-74 -907.921)">
                  <text id="_1-10" data-name="1" transform="translate(74 923.921)" fill="#b4b4b4" font-size="15" font-family="SegoeUI-Semibold, Segoe UI" font-weight="600"><tspan x="0" y="0">1</tspan></text>
                  <text id="Pizza_Alfredo_Chicken:_personal-10" data-name="Pizza Alfredo Chicken: personal" transform="translate(96 923.921)" fill="#b4b4b4" font-size="15" font-family="SegoeUI-Semibold, Segoe UI" font-weight="600"><tspan x="0" y="0">Pizza Alfredo Chicken: personal</tspan></text>
                  <text id="_35.00-10" data-name="35.00" transform="translate(376 923.921)" fill="#b4b4b4" font-size="15" font-family="SegoeUI-Semibold, Segoe UI" font-weight="600"><tspan x="0" y="0">35.00</tspan></text>
                </g>
                <g id="Grupo_2-11" data-name="Grupo 2" transform="translate(-74 -887.921)">
                  <text id="_1-11" data-name="1" transform="translate(74 923.921)" fill="#b4b4b4" font-size="15" font-family="SegoeUI-Semibold, Segoe UI" font-weight="600"><tspan x="0" y="0">1</tspan></text>
                  <text id="Pizza_Alfredo_Chicken:_personal-11" data-name="Pizza Alfredo Chicken: personal" transform="translate(96 923.921)" fill="#b4b4b4" font-size="15" font-family="SegoeUI-Semibold, Segoe UI" font-weight="600"><tspan x="0" y="0">Pizza Alfredo Chicken: personal</tspan></text>
                  <text id="_35.00-11" data-name="35.00" transform="translate(376 923.921)" fill="#b4b4b4" font-size="15" font-family="SegoeUI-Semibold, Segoe UI" font-weight="600"><tspan x="0" y="0">35.00</tspan></text>
                </g>
                <g id="Grupo_2-12" data-name="Grupo 2" transform="translate(-74 -867.921)">
                  <text id="_1-12" data-name="1" transform="translate(74 923.921)" fill="#b4b4b4" font-size="15" font-family="SegoeUI-Semibold, Segoe UI" font-weight="600"><tspan x="0" y="0">1</tspan></text>
                  <text id="Pizza_Alfredo_Chicken:_personal-12" data-name="Pizza Alfredo Chicken: personal" transform="translate(96 923.921)" fill="#b4b4b4" font-size="15" font-family="SegoeUI-Semibold, Segoe UI" font-weight="600"><tspan x="0" y="0">Pizza Alfredo Chicken: personal</tspan></text>
                  <text id="_35.00-12" data-name="35.00" transform="translate(376 923.921)" fill="#b4b4b4" font-size="15" font-family="SegoeUI-Semibold, Segoe UI" font-weight="600"><tspan x="0" y="0">35.00</tspan></text>
                </g>
              </g>
              <line id="Línea_3-4" data-name="Línea 3" x2="386" transform="translate(974.314 533.079)" fill="none" stroke="#707070" stroke-width="1"/>
              <text id="Pago_en_efectivo_Total:_70.00-4" data-name="Pago en efectivo                                     Total: 70.00" transform="translate(998.814 534.579)" fill="#b4b4b4" font-size="15" font-family="SegoeUI-Semibold, Segoe UI" font-weight="600"><tspan x="0" y="16" xml:space="preserve">Pago en efectivo                                     Total: 70.00</tspan></text>
            </g>
          </g>
        </g>
        <text id="PARA_ENTREGAR" data-name="PARA ENTREGAR" transform="translate(301 59)" fill="#b4b4b4" font-size="32" font-family="SegoeUI-Semibold, Segoe UI" font-weight="600"><tspan x="-123.578" y="0">PARA ENTREGAR</tspan></text>
        <path id="PARA_ENTREGAR_-_Contorno" data-name="PARA ENTREGAR - Contorno" d="M72.313.875a11.382,11.382,0,0,1-8.4-3.241,11.628,11.628,0,0,1-3.224-8.54A12.038,12.038,0,0,1,64.2-19.8a12.181,12.181,0,0,1,8.907-3.481,16.5,16.5,0,0,1,6.479,1.134l.3.13v5.092l-.777-.518a10.371,10.371,0,0,0-5.863-1.635,7.276,7.276,0,0,0-5.508,2.208,7.959,7.959,0,0,0-2.148,5.761,8.364,8.364,0,0,0,1.842,5.738,6.263,6.263,0,0,0,4.97,2.043,8.212,8.212,0,0,0,3.5-.7V-8.547H71.188v-4.125h9.422V-1.234l-.261.142A16.6,16.6,0,0,1,72.313.875Zm.8-23.156a11.215,11.215,0,0,0-8.2,3.191,11.072,11.072,0,0,0-3.219,8.184A10.666,10.666,0,0,0,64.62-3.071,10.418,10.418,0,0,0,72.313-.125a15.671,15.671,0,0,0,7.3-1.707v-9.84H72.188v2.125h4.719v6.13l-.267.141a8.988,8.988,0,0,1-4.233.948,7.3,7.3,0,0,1-5.717-2.378,9.322,9.322,0,0,1-2.1-6.4,8.925,8.925,0,0,1,2.43-6.458,8.335,8.335,0,0,1,6.226-2.511,11.663,11.663,0,0,1,5.641,1.334v-2.608A15.969,15.969,0,0,0,73.109-22.281ZM124.642.5h-5.536l-3.724-6.244a12.121,12.121,0,0,0-.909-1.361,5.221,5.221,0,0,0-.854-.877,2.681,2.681,0,0,0-.876-.462,3.848,3.848,0,0,0-1.119-.15h-1V.5h-4.7V-22.906H113.8a11.216,11.216,0,0,1,3.042.394,7.283,7.283,0,0,1,2.482,1.218A5.8,5.8,0,0,1,121-19.228a6.476,6.476,0,0,1,.606,2.868,7.013,7.013,0,0,1-.38,2.347,6.192,6.192,0,0,1-1.088,1.92,6.643,6.643,0,0,1-1.689,1.428,7.865,7.865,0,0,1-1.233.595q.169.132.321.271c.31.284.609.58.888.88a10.763,10.763,0,0,1,.844,1.041c.268.374.569.813.894,1.306l.005.008Zm-4.968-1h3.152l-3.5-5.525c-.317-.48-.609-.907-.869-1.269a9.752,9.752,0,0,0-.765-.944c-.261-.281-.54-.557-.83-.823a5.294,5.294,0,0,0-.971-.691l-.254-.143v-.741l.374-.1a7.346,7.346,0,0,0,1.924-.789,5.646,5.646,0,0,0,1.436-1.212,5.2,5.2,0,0,0,.912-1.611,6.019,6.019,0,0,0,.323-2.013,5.491,5.491,0,0,0-.5-2.429,4.813,4.813,0,0,0-1.395-1.714,6.29,6.29,0,0,0-2.143-1.048,10.22,10.22,0,0,0-2.77-.356h-6.875V-.5h2.7V-9.594h2a4.842,4.842,0,0,1,1.412.194,3.677,3.677,0,0,1,1.2.632,6.212,6.212,0,0,1,1.021,1.045,13.08,13.08,0,0,1,.984,1.471ZM104.063.5H98.912L96.9-5.2H88.8L86.858.5H81.716l8.765-23.406h4.882Zm-4.444-1h3.005L94.668-21.906H91.175L83.159-.5h2.983l1.938-5.7H97.6ZM59.141.5H45.563V-22.906H58.641v4.156H50.281v5.344h7.7v4.141h-7.7v5.625h8.859ZM46.563-.5H58.141V-2.641H49.281v-7.625h7.7v-2.141h-7.7V-19.75h8.359v-2.156H46.563Zm-2.2,1H38.825L35.1-5.744A12.12,12.12,0,0,0,34.193-7.1a5.221,5.221,0,0,0-.854-.877,2.681,2.681,0,0,0-.876-.462,3.848,3.848,0,0,0-1.119-.15h-1V.5h-4.7V-22.906h7.875a11.216,11.216,0,0,1,3.042.394,7.283,7.283,0,0,1,2.482,1.218,5.8,5.8,0,0,1,1.683,2.067,6.476,6.476,0,0,1,.606,2.868,7.013,7.013,0,0,1-.38,2.347,6.192,6.192,0,0,1-1.088,1.92,6.643,6.643,0,0,1-1.689,1.428,7.865,7.865,0,0,1-1.233.595q.169.132.321.271c.31.284.609.58.888.88a10.763,10.763,0,0,1,.844,1.041c.268.374.569.813.894,1.306l.005.008Zm-4.968-1h3.152l-3.5-5.525c-.317-.48-.609-.907-.869-1.269a9.753,9.753,0,0,0-.765-.944c-.261-.281-.54-.557-.83-.823a5.294,5.294,0,0,0-.971-.691L35.359-9.9v-.741l.374-.1a7.346,7.346,0,0,0,1.924-.789,5.646,5.646,0,0,0,1.436-1.212,5.2,5.2,0,0,0,.912-1.611,6.019,6.019,0,0,0,.323-2.013,5.491,5.491,0,0,0-.5-2.429,4.813,4.813,0,0,0-1.4-1.714,6.29,6.29,0,0,0-2.143-1.048,10.22,10.22,0,0,0-2.77-.356H26.641V-.5h2.7V-9.594h2a4.842,4.842,0,0,1,1.412.194,3.677,3.677,0,0,1,1.2.632,6.212,6.212,0,0,1,1.021,1.045,13.079,13.079,0,0,1,.984,1.471ZM16.922.5H12.2V-18.75H5.781v-4.156H23.359v4.156H16.922ZM13.2-.5h2.719V-19.75h6.438v-2.156H6.781v2.156H13.2ZM3.438.5H-1.4l-10.58-16.28q.008.494.008,1.092V.5h-4.594V-22.906h5.1L-1.128-6.844q-.013-.511-.013-1.125V-22.906H3.438ZM-.854-.5H2.438V-21.906H-.141V-7.969A19.618,19.618,0,0,0,.008-5.04l.1.586H-.856L-.994-4.73c-.08-.159-.285-.518-.815-1.324l-10.2-15.852h-3.555V-.5h2.594V-14.687a22.966,22.966,0,0,0-.118-2.992l-.1-.586h1.028l.125.316a6.837,6.837,0,0,0,.626,1.208ZM-19.547.5H-33.125V-22.906h13.078v4.156h-8.359v5.344h7.7v4.141h-7.7v5.625h8.859Zm-12.578-1h11.578V-2.641h-8.859v-7.625h7.7v-2.141h-7.7V-19.75h8.359v-2.156H-32.125ZM-43.781.5h-5.151l-2.016-5.7h-8.1L-60.986.5h-9.158l-3.724-6.244A12.121,12.121,0,0,0-74.776-7.1a5.221,5.221,0,0,0-.854-.877,2.681,2.681,0,0,0-.876-.462,3.848,3.848,0,0,0-1.119-.15h-1V.5h-4.7V-22.906h7.875a11.216,11.216,0,0,1,3.042.394,7.283,7.283,0,0,1,2.482,1.218,5.8,5.8,0,0,1,1.683,2.067,6.476,6.476,0,0,1,.606,2.868,7.013,7.013,0,0,1-.38,2.347,6.192,6.192,0,0,1-1.088,1.92A6.643,6.643,0,0,1-70.8-10.665a7.865,7.865,0,0,1-1.233.595q.169.132.321.271c.31.284.609.58.888.88a10.763,10.763,0,0,1,.844,1.041c.268.374.569.813.894,1.306l.005.008,3.515,5.555,8.2-21.9h4.882Zm-4.444-1h3.005l-7.956-21.406h-3.493L-64.685-.5H-61.7l1.938-5.7h9.524Zm-21.351,0h3.152l-3.5-5.525c-.317-.48-.609-.907-.869-1.269a9.752,9.752,0,0,0-.765-.944c-.261-.281-.54-.557-.83-.823a5.294,5.294,0,0,0-.971-.691l-.254-.143v-.741l.374-.1a7.346,7.346,0,0,0,1.924-.789,5.646,5.646,0,0,0,1.436-1.212,5.2,5.2,0,0,0,.912-1.611,6.019,6.019,0,0,0,.323-2.013,5.491,5.491,0,0,0-.5-2.429A4.813,4.813,0,0,0-70.539-20.5a6.29,6.29,0,0,0-2.143-1.048,10.22,10.22,0,0,0-2.77-.356h-6.875V-.5h2.7V-9.594h2a4.842,4.842,0,0,1,1.412.194,3.677,3.677,0,0,1,1.2.632A6.212,6.212,0,0,1-73.99-7.723a13.08,13.08,0,0,1,.984,1.471ZM-85.187.5h-5.151l-2.016-5.7h-8.1L-102.392.5h-5.142l8.765-23.406h4.882Zm-4.444-1h3.005l-7.956-21.406h-3.493L-106.091-.5h2.983l1.938-5.7h9.524Zm-26.979,1h-4.7V-22.906h7.3a9.519,9.519,0,0,1,6.307,1.915,6.77,6.77,0,0,1,2.3,5.444,7.506,7.506,0,0,1-2.377,5.709,8.942,8.942,0,0,1-6.342,2.213h-2.484Zm-3.7-1h2.7V-8.625h3.484a7.982,7.982,0,0,0,5.658-1.943,6.459,6.459,0,0,0,2.061-4.979,5.742,5.742,0,0,0-1.948-4.681,8.568,8.568,0,0,0-5.662-1.679h-6.3ZM96.969-8.234H88.705l3.306-9.6a8.725,8.725,0,0,0,.291-1.321l.067-.422h.916l.068.42a10.322,10.322,0,0,0,.277,1.327Zm-6.862-1h5.455l-2.741-7.879Zm-140.982,1h-8.264l3.306-9.6a8.724,8.724,0,0,0,.291-1.321l.067-.422h.916l.068.42a10.32,10.32,0,0,0,.277,1.327Zm-6.862-1h5.455l-2.741-7.879Zm-34.545,1h-8.264l3.306-9.6a8.725,8.725,0,0,0,.291-1.321l.067-.422h.916l.068.42a10.32,10.32,0,0,0,.277,1.327Zm-6.862-1h5.455l-2.741-7.879Zm-15.56-1.422h-2.906v-9.187h3.2c4.21,0,5.094,2.422,5.094,4.453a4.454,4.454,0,0,1-1.418,3.5A5.819,5.819,0,0,1-114.7-10.656Zm-1.906-1h1.906a4.875,4.875,0,0,0,3.309-.983,3.455,3.455,0,0,0,1.082-2.751c0-2.356-1.3-3.453-4.094-3.453h-2.2Zm229.828.047h-3.594v-8.281h3.625a4.743,4.743,0,0,1,3.255,1.033,3.69,3.69,0,0,1,1.183,2.889,4.7,4.7,0,0,1-.335,1.8,3.978,3.978,0,0,1-.948,1.392,4.143,4.143,0,0,1-1.429.871A5.1,5.1,0,0,1,113.219-11.609Zm-2.594-1h2.594a4.109,4.109,0,0,0,1.414-.235,3.149,3.149,0,0,0,1.087-.66,2.985,2.985,0,0,0,.709-1.046,3.7,3.7,0,0,0,.259-1.418,2.7,2.7,0,0,0-.849-2.143,3.8,3.8,0,0,0-2.589-.779h-2.625Zm-77.687,1H29.344v-8.281h3.625a4.743,4.743,0,0,1,3.255,1.033,3.69,3.69,0,0,1,1.183,2.889,4.7,4.7,0,0,1-.335,1.8,3.978,3.978,0,0,1-.948,1.392,4.143,4.143,0,0,1-1.429.871A5.1,5.1,0,0,1,32.938-11.609Zm-2.594-1h2.594a4.109,4.109,0,0,0,1.414-.235,3.15,3.15,0,0,0,1.087-.66,2.985,2.985,0,0,0,.709-1.046,3.7,3.7,0,0,0,.259-1.418,2.7,2.7,0,0,0-.848-2.143,3.8,3.8,0,0,0-2.589-.779H30.344Zm-106.375,1h-3.594v-8.281H-76a4.743,4.743,0,0,1,3.255,1.033,3.69,3.69,0,0,1,1.183,2.889,4.7,4.7,0,0,1-.335,1.8,3.978,3.978,0,0,1-.948,1.392,4.143,4.143,0,0,1-1.429.871A5.1,5.1,0,0,1-76.031-11.609Zm-2.594-1h2.594a4.109,4.109,0,0,0,1.414-.235,3.149,3.149,0,0,0,1.087-.66,2.985,2.985,0,0,0,.709-1.046,3.7,3.7,0,0,0,.259-1.418,2.7,2.7,0,0,0-.849-2.143A3.8,3.8,0,0,0-76-18.891h-2.625Z" transform="translate(301 59)" fill="#707070"/>
      </g>
      <g id="Preparadas" transform="translate(1308 147)">
        <path id="Trazado_2" data-name="Trazado 2" d="M1,1V863H556V1H1M0,0H557V864H0Z" fill="#707070"/>
        <path id="Línea_3-5" data-name="Línea 3" d="M472,.5H0v-1H472Z" transform="translate(22 105.5)" fill="#707070"/>
        <text id="ENTREGANDO" transform="translate(260 63.5)" fill="#b4b4b4" font-size="32" font-family="SegoeUI-Semibold, Segoe UI" font-weight="600"><tspan x="-105.367" y="0">ENTREGANDO</tspan></text>
        <path id="ENTREGANDO_-_Contorno" data-name="ENTREGANDO - Contorno" d="M93.18.875a10.6,10.6,0,0,1-8.124-3.3,12.069,12.069,0,0,1-3.048-8.512,12.756,12.756,0,0,1,3.1-8.964,10.954,10.954,0,0,1,8.43-3.38A10.376,10.376,0,0,1,101.508-20a12.109,12.109,0,0,1,3.015,8.511c0,3.769-1.038,6.8-3.086,9.012A10.764,10.764,0,0,1,93.18.875Zm.359-23.156a10,10,0,0,0-7.695,3.058,11.794,11.794,0,0,0-2.836,8.286,11.1,11.1,0,0,0,2.781,7.832A9.64,9.64,0,0,0,93.18-.125,9.8,9.8,0,0,0,100.7-3.152c1.871-2.02,2.82-4.823,2.82-8.332a11.144,11.144,0,0,0-2.75-7.833A9.414,9.414,0,0,0,93.539-22.281ZM2.336.875a11.382,11.382,0,0,1-8.4-3.241,11.629,11.629,0,0,1-3.224-8.54A12.037,12.037,0,0,1-5.774-19.8a12.182,12.182,0,0,1,8.907-3.481,16.494,16.494,0,0,1,6.479,1.134l.3.13v5.092l-.777-.518a10.371,10.371,0,0,0-5.863-1.635,7.276,7.276,0,0,0-5.508,2.208,7.959,7.959,0,0,0-2.148,5.761A8.364,8.364,0,0,0-2.541-5.372,6.263,6.263,0,0,0,2.43-3.328a8.212,8.212,0,0,0,3.5-.7V-8.547H1.211v-4.125h9.422V-1.234l-.261.142A16.6,16.6,0,0,1,2.336.875Zm.8-23.156a11.215,11.215,0,0,0-8.2,3.191,11.072,11.072,0,0,0-3.219,8.184A10.666,10.666,0,0,0-5.356-3.071,10.418,10.418,0,0,0,2.336-.125a15.671,15.671,0,0,0,7.3-1.707v-9.84H2.211v2.125H6.93v6.13l-.267.141a8.988,8.988,0,0,1-4.233.948A7.3,7.3,0,0,1-3.287-4.707a9.322,9.322,0,0,1-2.1-6.4,8.925,8.925,0,0,1,2.43-6.458,8.334,8.334,0,0,1,6.226-2.511,11.663,11.663,0,0,1,5.641,1.334v-2.608A15.969,15.969,0,0,0,3.133-22.281ZM67.2.5h-6.7V-22.906h6.969c4.236,0,7.474.961,9.624,2.855,2.168,1.911,3.267,4.793,3.267,8.566a11.29,11.29,0,0,1-3.6,8.7C74.376-.6,71.16.5,67.2.5Zm-5.7-1h5.7a12.7,12.7,0,0,0,8.881-3.017,10.328,10.328,0,0,0,3.275-7.967c0-3.474-.985-6.1-2.928-7.816-1.961-1.729-4.977-2.606-8.962-2.606H61.492ZM55.945.5H51.111L40.531-15.78q.008.494.008,1.092V.5H35.945V-22.906h5.1L51.38-6.844q-.013-.511-.013-1.125V-22.906h4.578Zm-4.291-1h3.291V-21.906H52.367V-7.969a19.618,19.618,0,0,0,.149,2.929l.1.586h-.967l-.138-.276c-.08-.159-.285-.518-.815-1.324L40.5-21.906H36.945V-.5h2.594V-14.687a22.97,22.97,0,0,0-.118-2.992l-.1-.586h1.028l.125.316a6.835,6.835,0,0,0,.626,1.208ZM34.086.5H28.935L26.92-5.2h-8.1L16.882.5H11.74L20.5-22.906h4.882Zm-4.444-1h3.005L24.691-21.906H21.2L13.182-.5h2.983L18.1-6.2h9.524ZM-10.836.5H-24.414V-22.906h13.078v4.156H-19.7v5.344h7.7v4.141h-7.7v5.625h8.859Zm-12.578-1h11.578V-2.641H-20.7v-7.625h7.7v-2.141h-7.7V-19.75h8.359v-2.156H-23.414Zm-2.2,1h-5.536l-3.724-6.244A12.123,12.123,0,0,0-35.784-7.1a5.222,5.222,0,0,0-.854-.877,2.681,2.681,0,0,0-.876-.462,3.849,3.849,0,0,0-1.12-.15h-1V.5h-4.7V-22.906h7.875a11.216,11.216,0,0,1,3.042.394,7.282,7.282,0,0,1,2.482,1.218,5.8,5.8,0,0,1,1.683,2.067,6.476,6.476,0,0,1,.606,2.868,7.013,7.013,0,0,1-.38,2.347,6.193,6.193,0,0,1-1.088,1.92,6.642,6.642,0,0,1-1.689,1.428,7.865,7.865,0,0,1-1.233.595q.169.132.321.271c.311.284.61.58.888.88a10.766,10.766,0,0,1,.844,1.041c.269.374.569.813.894,1.306l.005.008Zm-4.968-1h3.152l-3.5-5.525c-.317-.48-.609-.907-.869-1.269a9.767,9.767,0,0,0-.765-.944c-.26-.28-.54-.557-.83-.823a5.293,5.293,0,0,0-.971-.691l-.254-.143v-.741l.374-.1a7.346,7.346,0,0,0,1.924-.789,5.645,5.645,0,0,0,1.436-1.212,5.2,5.2,0,0,0,.912-1.611,6.019,6.019,0,0,0,.323-2.013,5.491,5.491,0,0,0-.5-2.429,4.813,4.813,0,0,0-1.4-1.714,6.289,6.289,0,0,0-2.143-1.048,10.22,10.22,0,0,0-2.77-.356h-6.875V-.5h2.7V-9.594h2a4.841,4.841,0,0,1,1.412.194,3.676,3.676,0,0,1,1.2.632A6.214,6.214,0,0,1-35-7.723a13.09,13.09,0,0,1,.984,1.471ZM-53.055.5h-4.719V-18.75H-64.2v-4.156h17.578v4.156h-6.437Zm-3.719-1h2.719V-19.75h6.438v-2.156H-63.2v2.156h6.422Zm-9.766,1h-4.834l-10.58-16.28q.008.494.008,1.092V.5h-4.594V-22.906h5.1L-71.1-6.844q-.013-.511-.013-1.125V-22.906h4.578Zm-4.291-1h3.291V-21.906h-2.578V-7.969a19.619,19.619,0,0,0,.149,2.929l.1.586h-.967l-.138-.276c-.08-.159-.285-.518-.815-1.324l-10.2-15.852h-3.555V-.5h2.594V-14.687a22.97,22.97,0,0,0-.118-2.992l-.1-.586h1.028l.125.316a6.836,6.836,0,0,0,.626,1.208ZM-89.523.5H-103.1V-22.906h13.078v4.156h-8.359v5.344h7.7v4.141h-7.7v5.625h8.859ZM-102.1-.5h11.578V-2.641h-8.859v-7.625h7.7v-2.141h-7.7V-19.75h8.359v-2.156H-102.1ZM93.2-2.375A6.55,6.55,0,0,1,87.9-4.839a9.7,9.7,0,0,1-1.989-6.333,9.61,9.61,0,0,1,2.047-6.369,6.74,6.74,0,0,1,5.391-2.475,6.6,6.6,0,0,1,5.362,2.369,10.018,10.018,0,0,1,1.919,6.521,9.579,9.579,0,0,1-1.98,6.4A6.84,6.84,0,0,1,93.2-2.375Zm.156-16.641A5.708,5.708,0,0,0,88.727-16.9a8.645,8.645,0,0,0-1.812,5.725,8.733,8.733,0,0,0,1.761,5.7,5.522,5.522,0,0,0,4.52,2.1,5.809,5.809,0,0,0,4.7-2,8.626,8.626,0,0,0,1.739-5.753,9.069,9.069,0,0,0-1.69-5.885A5.579,5.579,0,0,0,93.352-19.016ZM67.664-2.641H64.2V-19.75H67.8c2.835,0,5.006.708,6.453,2.105s2.188,3.506,2.188,6.254a8.7,8.7,0,0,1-2.328,6.449A8.815,8.815,0,0,1,67.664-2.641Zm-2.469-1h2.469a7.86,7.86,0,0,0,5.75-2.012,7.749,7.749,0,0,0,2.031-5.738c0-2.467-.633-4.329-1.882-5.535S70.372-18.75,67.8-18.75H65.2Zm-38.2-4.594H18.729l3.306-9.6a8.726,8.726,0,0,0,.291-1.321l.067-.422h.916l.068.42a10.306,10.306,0,0,0,.277,1.327Zm-6.862-1h5.455l-2.741-7.88Zm-57.17-2.375h-3.594v-8.281h3.625a4.743,4.743,0,0,1,3.255,1.033,3.69,3.69,0,0,1,1.183,2.889,4.7,4.7,0,0,1-.335,1.8,3.978,3.978,0,0,1-.948,1.392,4.143,4.143,0,0,1-1.429.871A5.105,5.105,0,0,1-37.039-11.609Zm-2.594-1h2.594a4.11,4.11,0,0,0,1.414-.235,3.149,3.149,0,0,0,1.087-.66,2.985,2.985,0,0,0,.709-1.046,3.7,3.7,0,0,0,.259-1.418,2.7,2.7,0,0,0-.849-2.143,3.8,3.8,0,0,0-2.589-.779h-2.625Z" transform="translate(260 63.5)" fill="#707070"/>
        <g id="Barra_de_navegacion_pedidos_hechos-3" data-name="Barra de navegacion pedidos hechos" transform="translate(528.508)">
          <g id="Barra_de_navegacion-3" data-name="Barra de navegacion" fill="#424242">
            <path d="M 27.99183082580566 863.5 L 0.500052273273468 863.5 L 0.500052273273468 0.5 L 27.99183082580566 0.5 L 27.99183082580566 14.17811107635498 L 27.99183082580566 863.5 Z" stroke="none"/>
            <path d="M 1.000051498413086 1 L 1.000051498413086 863 L 27.49183082580566 863 L 27.49183082580566 1 L 1.000051498413086 1 M 5.14984130859375e-05 0 L 28.49183082580566 0 L 28.49183082580566 864 L 5.14984130859375e-05 864 L 5.14984130859375e-05 0 Z" stroke="none" fill="#707070"/>
          </g>
          <g id="Barra-3" data-name="Barra" transform="translate(0.5 24.191)" fill="#686868" stroke="#707070" stroke-width="1">
            <rect width="27.992" height="412" stroke="none"/>
            <rect x="0.5" y="0.5" width="26.992" height="411" fill="none"/>
          </g>
          <g id="boton_barra_de_navegacion-5" data-name="boton barra de navegacion" transform="translate(0.5 841.809)">
            <g id="Rectángulo_2-5" data-name="Rectángulo 2" fill="#424242" stroke="#707070" stroke-width="1">
              <rect width="27.992" height="22" stroke="none"/>
              <rect x="0.5" y="0.5" width="26.992" height="21" fill="none"/>
            </g>
            <g id="Polígono_1-5" data-name="Polígono 1" transform="translate(23.992 16) rotate(180)" fill="#686868">
              <path d="M 18.92463874816895 11.5 L 1.067243695259094 11.5 L 9.995941162109375 0.781211256980896 L 18.92463874816895 11.5 Z" stroke="none"/>
              <path d="M 9.995941162109375 1.562424659729004 L 2.134487152099609 11 L 17.85739517211914 11 L 9.995941162109375 1.562424659729004 M 9.995941162109375 0 L 19.99188041687012 12 L 1.9073486328125e-06 12 L 9.995941162109375 0 Z" stroke="none" fill="#707070"/>
            </g>
          </g>
          <g id="boton_barra_de_navegacion-6" data-name="boton barra de navegacion" transform="translate(0.5 0.191)">
            <g id="Rectángulo_2-6" data-name="Rectángulo 2" fill="#424242" stroke="#707070" stroke-width="1">
              <rect width="27.992" height="22" stroke="none"/>
              <rect x="0.5" y="0.5" width="26.992" height="21" fill="none"/>
            </g>
            <g id="Polígono_1-6" data-name="Polígono 1" transform="translate(4 4)" fill="#686868">
              <path d="M 18.86191368103027 10.5 L 1.129968881607056 10.5 L 9.995941162109375 0.7434692978858948 L 18.86191368103027 10.5 Z" stroke="none"/>
              <path d="M 9.995941162109375 1.4869384765625 L 2.259937286376953 10 L 17.7319450378418 10 L 9.995941162109375 1.4869384765625 M 9.995941162109375 0 L 19.99188041687012 11 L 1.9073486328125e-06 11 L 9.995941162109375 0 Z" stroke="none" fill="#707070"/>
            </g>
          </g>
        </g>
        <g id="detalle_extendido-7" data-name="detalle extendido" transform="translate(22 127.5)" clip-path="url(#clip-path-7)">
          <g id="detalle_extendido-8" data-name="detalle extendido">
            <g id="Trazado_7-5" data-name="Trazado 7" fill="#2f2f2f">
              <path d="M 460 547.62255859375 L 16 547.62255859375 C 7.453266620635986 547.62255859375 0.5 541.939697265625 0.5 534.9544677734375 L 0.5 13.16814613342285 C 0.5 6.182945728302002 7.453266620635986 0.5000126361846924 16 0.5000126361846924 L 460 0.5000126361846924 C 468.5467224121094 0.5000126361846924 475.5 6.182945728302002 475.5 13.16814613342285 L 475.5 534.9544677734375 C 475.5 541.939697265625 468.5467224121094 547.62255859375 460 547.62255859375 Z" stroke="none"/>
              <path d="M 16 1 C 7.72900390625 1 1 6.45855712890625 1 13.1680908203125 L 1 534.9544677734375 C 1 541.6640014648438 7.72900390625 547.12255859375 16 547.12255859375 L 460 547.12255859375 C 468.27099609375 547.12255859375 475 541.6640014648438 475 534.9544677734375 L 475 13.1680908203125 C 475 6.45855712890625 468.27099609375 1 460 1 L 16 1 M 16 0 L 460 0 C 468.8365783691406 0 476 5.89556884765625 476 13.1680908203125 L 476 534.9544677734375 C 476 542.2269897460938 468.8365783691406 548.12255859375 460 548.12255859375 L 16 548.12255859375 C 7.163421630859375 548.12255859375 0 542.2269897460938 0 534.9544677734375 L 0 13.1680908203125 C 0 5.89556884765625 7.163421630859375 0 16 0 Z" stroke="none" fill="#707070"/>
            </g>
            <text id="Pedido:_123568-5" data-name="Pedido:
#123568" transform="translate(238 38)" fill="#b4b4b4" stroke="#707070" stroke-width="1" font-size="18" font-family="SegoeUI-Semibold, Segoe UI" font-weight="600"><tspan x="-30.48" y="0">Pedido:</tspan><tspan x="-33.952" y="24">#123568</tspan></text>
            <path id="CambiaEstado-5" data-name="CambiaEstado" d="M187.5-687l-3.85-3.988,9.762-9.762H160v-5.5h33.412l-9.762-9.762L187.5-720,204-703.5Z" transform="translate(256 1224.655)" fill="#5f6368" stroke="#707070" stroke-width="1"/>
            <g id="Grupo_22-5" data-name="Grupo 22" transform="translate(60 68)">
              <text id="Nombre:_Mario_Estrada-5" data-name="Nombre:
Mario Estrada" transform="translate(0 63)" fill="#b4b4b4" font-size="18" font-family="SegoeUI-Semibold, Segoe UI" font-weight="600"><tspan x="0" y="0" text-decoration="underline">Nombre</tspan><tspan y="0">:</tspan><tspan x="0" y="24">Mario Estrada</tspan></text>
              <text id="Datos_de_entega-5" data-name="Datos de entega" transform="translate(110 22)" fill="#b4b4b4" font-size="20" font-family="SegoeUI-Semibold, Segoe UI" font-weight="600"><tspan x="0" y="0">Datos de entega</tspan></text>
              <text id="Teléfono:_35708405-5" data-name="Teléfono:
35708405" transform="translate(348 63)" fill="#b4b4b4" font-size="18" font-family="SegoeUI-Semibold, Segoe UI" font-weight="600"><tspan x="-74.558" y="0" text-decoration="underline">Teléfono</tspan><tspan y="0">:</tspan><tspan x="-79.98" y="24">35708405</tspan></text>
              <text id="Dirección:_KM_16.5_Condominio_Altos_de_Arrazola_casa_D-8-5" data-name="Dirección:
KM 16.5 Condominio Altos de Arrazola casa D-8" transform="translate(8 104)" fill="#b4b4b4" font-size="18" font-family="SegoeUI-Semibold, Segoe UI" font-weight="600"><tspan x="133.548" y="19" text-decoration="underline">Dirección</tspan><tspan y="19">:</tspan><tspan x="16.632" y="43">KM 16.5 Condominio Altos de Arrazola </tspan><tspan x="138.949" y="67">casa D-8</tspan></text>
              <text id="Nota:_Cuidado_con_el_perro_Tocar_Timbre-5" data-name="Nota:
Cuidado con el perro, Tocar Timbre" transform="translate(8 242)" fill="#b4b4b4" font-size="18" font-family="SegoeUI-Semibold, Segoe UI" font-weight="600"><tspan text-decoration="underline"><tspan x="151.601" y="19">Nota:</tspan></tspan><tspan x="30.725" y="43">Cuidado con el perro, Tocar Timbre</tspan></text>
              <text id="Centro_de_despacho:_Bennets_CAES-5" data-name="Centro de despacho:
Bennets CAES" transform="translate(23 189)" fill="#b4b4b4" font-size="18" font-family="SegoeUI-Semibold, Segoe UI" font-weight="600"><tspan text-decoration="underline"><tspan x="74.731" y="19">Centro de despacho:</tspan></tspan><tspan x="102.202" y="43">Bennets CAES</tspan></text>
            </g>
            <g id="Grupo_24-5" data-name="Grupo 24" transform="translate(-919.314 -56.5)">
              <text id="Detalles_del_pedido-5" data-name="Detalles del pedido" transform="translate(1080.814 452)" fill="#b4b4b4" font-size="20" font-family="SegoeUI-Semibold, Segoe UI" font-weight="600"><tspan x="0" y="0">Detalles del pedido</tspan></text>
              <text id="N_5" data-name="N#" transform="translate(991.814 479)" fill="#b4b4b4" font-size="15" font-family="SegoeUI-Semibold, Segoe UI" font-weight="600"><tspan x="0" y="0">N#</tspan></text>
              <text id="Nombre:-5" data-name="Nombre:" transform="translate(1020.814 479)" fill="#b4b4b4" font-size="15" font-family="SegoeUI-Semibold, Segoe UI" font-weight="600"><tspan x="0" y="0">Nombre:</tspan></text>
              <text id="Coste:-5" data-name="Coste:" transform="translate(1297.814 479)" fill="#b4b4b4" font-size="15" font-family="SegoeUI-Semibold, Segoe UI" font-weight="600"><tspan x="0" y="0">Coste:</tspan></text>
              <g id="Cuadrícula_de_repetición_1-5" data-name="Cuadrícula de repetición 1" transform="translate(998.814 489)" clip-path="url(#clip-path-2)">
                <g id="Grupo_2-13" data-name="Grupo 2" transform="translate(-74 -907.921)">
                  <text id="_1-13" data-name="1" transform="translate(74 923.921)" fill="#b4b4b4" font-size="15" font-family="SegoeUI-Semibold, Segoe UI" font-weight="600"><tspan x="0" y="0">1</tspan></text>
                  <text id="Pizza_Alfredo_Chicken:_personal-13" data-name="Pizza Alfredo Chicken: personal" transform="translate(96 923.921)" fill="#b4b4b4" font-size="15" font-family="SegoeUI-Semibold, Segoe UI" font-weight="600"><tspan x="0" y="0">Pizza Alfredo Chicken: personal</tspan></text>
                  <text id="_35.00-13" data-name="35.00" transform="translate(376 923.921)" fill="#b4b4b4" font-size="15" font-family="SegoeUI-Semibold, Segoe UI" font-weight="600"><tspan x="0" y="0">35.00</tspan></text>
                </g>
                <g id="Grupo_2-14" data-name="Grupo 2" transform="translate(-74 -887.921)">
                  <text id="_1-14" data-name="1" transform="translate(74 923.921)" fill="#b4b4b4" font-size="15" font-family="SegoeUI-Semibold, Segoe UI" font-weight="600"><tspan x="0" y="0">1</tspan></text>
                  <text id="Pizza_Alfredo_Chicken:_personal-14" data-name="Pizza Alfredo Chicken: personal" transform="translate(96 923.921)" fill="#b4b4b4" font-size="15" font-family="SegoeUI-Semibold, Segoe UI" font-weight="600"><tspan x="0" y="0">Pizza Alfredo Chicken: personal</tspan></text>
                  <text id="_35.00-14" data-name="35.00" transform="translate(376 923.921)" fill="#b4b4b4" font-size="15" font-family="SegoeUI-Semibold, Segoe UI" font-weight="600"><tspan x="0" y="0">35.00</tspan></text>
                </g>
                <g id="Grupo_2-15" data-name="Grupo 2" transform="translate(-74 -867.921)">
                  <text id="_1-15" data-name="1" transform="translate(74 923.921)" fill="#b4b4b4" font-size="15" font-family="SegoeUI-Semibold, Segoe UI" font-weight="600"><tspan x="0" y="0">1</tspan></text>
                  <text id="Pizza_Alfredo_Chicken:_personal-15" data-name="Pizza Alfredo Chicken: personal" transform="translate(96 923.921)" fill="#b4b4b4" font-size="15" font-family="SegoeUI-Semibold, Segoe UI" font-weight="600"><tspan x="0" y="0">Pizza Alfredo Chicken: personal</tspan></text>
                  <text id="_35.00-15" data-name="35.00" transform="translate(376 923.921)" fill="#b4b4b4" font-size="15" font-family="SegoeUI-Semibold, Segoe UI" font-weight="600"><tspan x="0" y="0">35.00</tspan></text>
                </g>
              </g>
              <line id="Línea_3-6" data-name="Línea 3" x2="386" transform="translate(974.314 533.079)" fill="none" stroke="#707070" stroke-width="1"/>
              <text id="Pago_en_efectivo_Total:_70.00-5" data-name="Pago en efectivo                                     Total: 70.00" transform="translate(998.814 534.579)" fill="#b4b4b4" font-size="15" font-family="SegoeUI-Semibold, Segoe UI" font-weight="600"><tspan x="0" y="16" xml:space="preserve">Pago en efectivo                                     Total: 70.00</tspan></text>
            </g>
          </g>
          <g id="detalle_extendido-9" data-name="detalle extendido" transform="translate(0 569)">
            <g id="Trazado_7-6" data-name="Trazado 7" fill="#2f2f2f">
              <path d="M 460 547.62255859375 L 16 547.62255859375 C 7.453266620635986 547.62255859375 0.5 541.939697265625 0.5 534.9544677734375 L 0.5 13.16814613342285 C 0.5 6.182945728302002 7.453266620635986 0.5000126361846924 16 0.5000126361846924 L 460 0.5000126361846924 C 468.5467224121094 0.5000126361846924 475.5 6.182945728302002 475.5 13.16814613342285 L 475.5 534.9544677734375 C 475.5 541.939697265625 468.5467224121094 547.62255859375 460 547.62255859375 Z" stroke="none"/>
              <path d="M 16 1 C 7.72900390625 1 1 6.45855712890625 1 13.1680908203125 L 1 534.9544677734375 C 1 541.6640014648438 7.72900390625 547.12255859375 16 547.12255859375 L 460 547.12255859375 C 468.27099609375 547.12255859375 475 541.6640014648438 475 534.9544677734375 L 475 13.1680908203125 C 475 6.45855712890625 468.27099609375 1 460 1 L 16 1 M 16 0 L 460 0 C 468.8365783691406 0 476 5.89556884765625 476 13.1680908203125 L 476 534.9544677734375 C 476 542.2269897460938 468.8365783691406 548.12255859375 460 548.12255859375 L 16 548.12255859375 C 7.163421630859375 548.12255859375 0 542.2269897460938 0 534.9544677734375 L 0 13.1680908203125 C 0 5.89556884765625 7.163421630859375 0 16 0 Z" stroke="none" fill="#707070"/>
            </g>
            <text id="Pedido:_123568-6" data-name="Pedido:
#123568" transform="translate(238 38)" fill="#b4b4b4" stroke="#707070" stroke-width="1" font-size="18" font-family="SegoeUI-Semibold, Segoe UI" font-weight="600"><tspan x="-30.48" y="0">Pedido:</tspan><tspan x="-33.952" y="24">#123568</tspan></text>
            <path id="CambiaEstado-6" data-name="CambiaEstado" d="M187.5-687l-3.85-3.988,9.762-9.762H160v-5.5h33.412l-9.762-9.762L187.5-720,204-703.5Z" transform="translate(256 1224.655)" fill="#5f6368" stroke="#707070" stroke-width="1"/>
            <g id="Grupo_22-6" data-name="Grupo 22" transform="translate(60 68)">
              <text id="Nombre:_Mario_Estrada-6" data-name="Nombre:
Mario Estrada" transform="translate(0 63)" fill="#b4b4b4" font-size="18" font-family="SegoeUI-Semibold, Segoe UI" font-weight="600"><tspan x="0" y="0" text-decoration="underline">Nombre</tspan><tspan y="0">:</tspan><tspan x="0" y="24">Mario Estrada</tspan></text>
              <text id="Datos_de_entega-6" data-name="Datos de entega" transform="translate(110 22)" fill="#b4b4b4" font-size="20" font-family="SegoeUI-Semibold, Segoe UI" font-weight="600"><tspan x="0" y="0">Datos de entega</tspan></text>
              <text id="Teléfono:_35708405-6" data-name="Teléfono:
35708405" transform="translate(348 63)" fill="#b4b4b4" font-size="18" font-family="SegoeUI-Semibold, Segoe UI" font-weight="600"><tspan x="-74.558" y="0" text-decoration="underline">Teléfono</tspan><tspan y="0">:</tspan><tspan x="-79.98" y="24">35708405</tspan></text>
              <text id="Dirección:_KM_16.5_Condominio_Altos_de_Arrazola_casa_D-8-6" data-name="Dirección:
KM 16.5 Condominio Altos de Arrazola casa D-8" transform="translate(8 104)" fill="#b4b4b4" font-size="18" font-family="SegoeUI-Semibold, Segoe UI" font-weight="600"><tspan x="133.548" y="19" text-decoration="underline">Dirección</tspan><tspan y="19">:</tspan><tspan x="16.632" y="43">KM 16.5 Condominio Altos de Arrazola </tspan><tspan x="138.949" y="67">casa D-8</tspan></text>
              <text id="Nota:_Cuidado_con_el_perro_Tocar_Timbre-6" data-name="Nota:
Cuidado con el perro, Tocar Timbre" transform="translate(8 242)" fill="#b4b4b4" font-size="18" font-family="SegoeUI-Semibold, Segoe UI" font-weight="600"><tspan text-decoration="underline"><tspan x="151.601" y="19">Nota:</tspan></tspan><tspan x="30.725" y="43">Cuidado con el perro, Tocar Timbre</tspan></text>
              <text id="Centro_de_despacho:_Bennets_CAES-6" data-name="Centro de despacho:
Bennets CAES" transform="translate(23 189)" fill="#b4b4b4" font-size="18" font-family="SegoeUI-Semibold, Segoe UI" font-weight="600"><tspan text-decoration="underline"><tspan x="74.731" y="19">Centro de despacho:</tspan></tspan><tspan x="102.202" y="43">Bennets CAES</tspan></text>
            </g>
            <g id="Grupo_24-6" data-name="Grupo 24" transform="translate(-919.314 -56.5)">
              <text id="Detalles_del_pedido-6" data-name="Detalles del pedido" transform="translate(1080.814 452)" fill="#b4b4b4" font-size="20" font-family="SegoeUI-Semibold, Segoe UI" font-weight="600"><tspan x="0" y="0">Detalles del pedido</tspan></text>
              <text id="N_6" data-name="N#" transform="translate(991.814 479)" fill="#b4b4b4" font-size="15" font-family="SegoeUI-Semibold, Segoe UI" font-weight="600"><tspan x="0" y="0">N#</tspan></text>
              <text id="Nombre:-6" data-name="Nombre:" transform="translate(1020.814 479)" fill="#b4b4b4" font-size="15" font-family="SegoeUI-Semibold, Segoe UI" font-weight="600"><tspan x="0" y="0">Nombre:</tspan></text>
              <text id="Coste:-6" data-name="Coste:" transform="translate(1297.814 479)" fill="#b4b4b4" font-size="15" font-family="SegoeUI-Semibold, Segoe UI" font-weight="600"><tspan x="0" y="0">Coste:</tspan></text>
              <g id="Cuadrícula_de_repetición_1-6" data-name="Cuadrícula de repetición 1" transform="translate(998.814 489)" clip-path="url(#clip-path-2)">
                <g id="Grupo_2-16" data-name="Grupo 2" transform="translate(-74 -907.921)">
                  <text id="_1-16" data-name="1" transform="translate(74 923.921)" fill="#b4b4b4" font-size="15" font-family="SegoeUI-Semibold, Segoe UI" font-weight="600"><tspan x="0" y="0">1</tspan></text>
                  <text id="Pizza_Alfredo_Chicken:_personal-16" data-name="Pizza Alfredo Chicken: personal" transform="translate(96 923.921)" fill="#b4b4b4" font-size="15" font-family="SegoeUI-Semibold, Segoe UI" font-weight="600"><tspan x="0" y="0">Pizza Alfredo Chicken: personal</tspan></text>
                  <text id="_35.00-16" data-name="35.00" transform="translate(376 923.921)" fill="#b4b4b4" font-size="15" font-family="SegoeUI-Semibold, Segoe UI" font-weight="600"><tspan x="0" y="0">35.00</tspan></text>
                </g>
                <g id="Grupo_2-17" data-name="Grupo 2" transform="translate(-74 -887.921)">
                  <text id="_1-17" data-name="1" transform="translate(74 923.921)" fill="#b4b4b4" font-size="15" font-family="SegoeUI-Semibold, Segoe UI" font-weight="600"><tspan x="0" y="0">1</tspan></text>
                  <text id="Pizza_Alfredo_Chicken:_personal-17" data-name="Pizza Alfredo Chicken: personal" transform="translate(96 923.921)" fill="#b4b4b4" font-size="15" font-family="SegoeUI-Semibold, Segoe UI" font-weight="600"><tspan x="0" y="0">Pizza Alfredo Chicken: personal</tspan></text>
                  <text id="_35.00-17" data-name="35.00" transform="translate(376 923.921)" fill="#b4b4b4" font-size="15" font-family="SegoeUI-Semibold, Segoe UI" font-weight="600"><tspan x="0" y="0">35.00</tspan></text>
                </g>
                <g id="Grupo_2-18" data-name="Grupo 2" transform="translate(-74 -867.921)">
                  <text id="_1-18" data-name="1" transform="translate(74 923.921)" fill="#b4b4b4" font-size="15" font-family="SegoeUI-Semibold, Segoe UI" font-weight="600"><tspan x="0" y="0">1</tspan></text>
                  <text id="Pizza_Alfredo_Chicken:_personal-18" data-name="Pizza Alfredo Chicken: personal" transform="translate(96 923.921)" fill="#b4b4b4" font-size="15" font-family="SegoeUI-Semibold, Segoe UI" font-weight="600"><tspan x="0" y="0">Pizza Alfredo Chicken: personal</tspan></text>
                  <text id="_35.00-18" data-name="35.00" transform="translate(376 923.921)" fill="#b4b4b4" font-size="15" font-family="SegoeUI-Semibold, Segoe UI" font-weight="600"><tspan x="0" y="0">35.00</tspan></text>
                </g>
              </g>
              <line id="Línea_3-7" data-name="Línea 3" x2="386" transform="translate(974.314 533.079)" fill="none" stroke="#707070" stroke-width="1"/>
              <text id="Pago_en_efectivo_Total:_70.00-6" data-name="Pago en efectivo                                     Total: 70.00" transform="translate(998.814 534.579)" fill="#b4b4b4" font-size="15" font-family="SegoeUI-Semibold, Segoe UI" font-weight="600"><tspan x="0" y="16" xml:space="preserve">Pago en efectivo                                     Total: 70.00</tspan></text>
            </g>
          </g>
        </g>
      </g>
      <g id="Bar_Menu" data-name="Bar Menu" transform="translate(347 41)">
        <g id="Rectángulo_17-2" data-name="Rectángulo 17" fill="none" stroke="#707070" stroke-width="1">
          <rect width="1260" height="66" rx="33" stroke="none"/>
          <rect x="0.5" y="0.5" width="1259" height="65" rx="32.5" fill="none"/>
        </g>
        <text id="_Ludwin" data-name="    Ludwin" transform="translate(1138 38)" fill="#212121" stroke="#707070" stroke-width="1" font-size="18" font-family="SegoeUI-Semibold, Segoe UI" font-weight="600"><tspan x="0" y="0"> </tspan><tspan y="0" xml:space="preserve" fill="#b4b4b4">   Ludwin</tspan></text>
        <text id="Gestion" transform="translate(31 38)" fill="#b4b4b4" stroke="#707070" stroke-width="1" font-size="18" font-family="SegoeUI-Semibold, Segoe UI" font-weight="600"><tspan x="0" y="0">Gestion</tspan></text>
        <text id="Cocina-2" data-name="Cocina" transform="translate(131 38)" fill="#b4b4b4" stroke="#707070" stroke-width="1" font-size="18" font-family="SegoeUI-Semibold, Segoe UI" font-weight="600"><tspan x="0" y="0">Cocina</tspan></text>
        <text id="Call_Center" data-name="Call Center" transform="translate(224 38)" fill="#b4b4b4" stroke="#707070" stroke-width="1" font-size="18" font-family="SegoeUI-Semibold, Segoe UI" font-weight="600"><tspan x="0" y="0">Call Center</tspan></text>
        <text id="Delivery" transform="translate(351 38)" fill="#b4b4b4" stroke="#707070" stroke-width="1" font-size="18" font-family="SegoeUI-Semibold, Segoe UI" font-weight="600" text-decoration="underline"><tspan x="0" y="0">Delivery</tspan></text>
        <text id="Dashboard" transform="translate(456 38)" fill="#b4b4b4" stroke="#707070" stroke-width="1" font-size="18" font-family="SegoeUI-Semibold, Segoe UI" font-weight="600"><tspan x="0" y="0">Dashboard</tspan></text>
      </g>
    </g>
  </g>
</svg>
