<svg xmlns="http://www.w3.org/2000/svg" xmlns:xlink="http://www.w3.org/1999/xlink" width="1920" height="1081" viewBox="0 0 1920 1081">
  <defs>
    <clipPath id="clip-path">
      <rect width="476" height="735" fill="none"/>
    </clipPath>
    <clipPath id="clip-path-2">
      <rect width="342" height="302.792" fill="none"/>
    </clipPath>
    <clipPath id="clip-path-4">
      <rect width="476" height="729" fill="none"/>
    </clipPath>
    <clipPath id="clip-path-8">
      <rect width="476" height="163" fill="none"/>
    </clipPath>
    <clipPath id="clip-GestionDePedidosEnCocina">
      <rect width="1920" height="1081"/>
    </clipPath>
  </defs>
  <g id="GestionDePedidosEnCocina" clip-path="url(#clip-GestionDePedidosEnCocina)">
    <rect width="1920" height="1081" fill="#fff"/>
    <g id="Cocina">
      <rect id="Fondo" width="1920" height="1081" fill="#171717"/>
      <path id="Fondo_-_Contorno" data-name="Fondo - Contorno" d="M1,1V1080H1919V1H1M0,0H1920V1081H0Z" fill="#707070"/>
      <g id="Entrantes" transform="translate(52 157)">
        <rect id="Rectángulo_17" data-name="Rectángulo 17" width="557" height="854" fill="#212121"/>
        <path id="Rectángulo_17_-_Contorno" data-name="Rectángulo 17 - Contorno" d="M1,1V853H556V1H1M0,0H557V854H0Z" fill="#707070"/>
        <path id="stat_1_24dp_5F6368_FILL0_wght400_GRAD0_opsz24" d="M244.476-617.343,240-621.819,259.181-641l19.181,19.181-4.476,4.476-14.705-14.625Z" transform="translate(214.638 902.154)" fill="#5f6368"/>
        <path id="stat_1_24dp_5F6368_FILL0_wght400_GRAD0_opsz24_-_Contorno" data-name="stat_1_24dp_5F6368_FILL0_wght400_GRAD0_opsz24 - Contorno" d="M273.888-616.637l-14.706-14.626-14.706,14.626-5.182-5.182,19.888-19.888,19.888,19.888Zm-33.18-5.182,3.769,3.769,14.7-14.625,14.7,14.625,3.769-3.769-18.474-18.474Z" transform="translate(214.638 902.154)" fill="#707070"/>
        <g id="Barra_de_navegacion_pedidos_hechos" data-name="Barra de navegacion pedidos hechos" transform="translate(528.508)">
          <g id="Barra_de_navegacion" data-name="Barra de navegacion" fill="#424242">
            <path d="M 27.99183082580566 853.5 L 0.500052273273468 853.5 L 0.500052273273468 0.5 L 27.99183082580566 0.5 L 27.99183082580566 14.01399993896484 L 27.99183082580566 853.5 Z" stroke="none"/>
            <path d="M 1.000051498413086 1 L 1.000051498413086 853 L 27.49183082580566 853 L 27.49183082580566 1 L 1.000051498413086 1 M 5.14984130859375e-05 0 L 28.49183082580566 0 L 28.49183082580566 854 L 5.14984130859375e-05 854 L 5.14984130859375e-05 0 Z" stroke="none" fill="#707070"/>
          </g>
          <g id="Barra" transform="translate(0.5 24.191)" fill="#686868" stroke="#707070" stroke-width="1">
            <rect width="27.992" height="412" stroke="none"/>
            <rect x="0.5" y="0.5" width="26.992" height="411" fill="none"/>
          </g>
          <g id="boton_barra_de_navegacion" data-name="boton barra de navegacion" transform="translate(0.5 831.809)">
            <g id="Rectángulo_2" data-name="Rectángulo 2" fill="#424242" stroke="#707070" stroke-width="1">
              <rect width="27.992" height="22" stroke="none"/>
              <rect x="0.5" y="0.5" width="26.992" height="21" fill="none"/>
            </g>
            <g id="Polígono_1" data-name="Polígono 1" transform="translate(23.992 16) rotate(180)" fill="#686868">
              <path d="M 18.92463874816895 11.5 L 1.067243695259094 11.5 L 9.995941162109375 0.781211256980896 L 18.92463874816895 11.5 Z" stroke="none"/>
              <path d="M 9.995941162109375 1.562424659729004 L 2.134487152099609 11 L 17.85739517211914 11 L 9.995941162109375 1.562424659729004 M 9.995941162109375 0 L 19.99188041687012 12 L 1.9073486328125e-06 12 L 9.995941162109375 0 Z" stroke="none" fill="#707070"/>
            </g>
          </g>
          <g id="boton_barra_de_navegacion-2" data-name="boton barra de navegacion" transform="translate(0.5 0.191)">
            <g id="Rectángulo_2-2" data-name="Rectángulo 2" fill="#424242" stroke="#707070" stroke-width="1">
              <rect width="27.992" height="22" stroke="none"/>
              <rect x="0.5" y="0.5" width="26.992" height="21" fill="none"/>
            </g>
            <g id="Polígono_1-2" data-name="Polígono 1" transform="translate(4 4)" fill="#686868">
              <path d="M 18.86191368103027 10.5 L 1.129968881607056 10.5 L 9.995941162109375 0.7434692978858948 L 18.86191368103027 10.5 Z" stroke="none"/>
              <path d="M 9.995941162109375 1.4869384765625 L 2.259937286376953 10 L 17.7319450378418 10 L 9.995941162109375 1.4869384765625 M 9.995941162109375 0 L 19.99188041687012 11 L 1.9073486328125e-06 11 L 9.995941162109375 0 Z" stroke="none" fill="#707070"/>
            </g>
          </g>
        </g>
        <g id="detalle_extendido" data-name="detalle extendido" transform="translate(26 119)" clip-path="url(#clip-path)">
          <g id="detalle_extendido-2" data-name="detalle extendido">
            <g id="Rectángulo_16" data-name="Rectángulo 16" fill="#2f2f2f" stroke="#707070" stroke-width="1">
              <rect width="476" height="443" rx="16" stroke="none"/>
              <rect x="0.5" y="0.5" width="475" height="442" rx="15.5" fill="none"/>
            </g>
            <g id="Detalle_del_pedido" data-name="Detalle del pedido" transform="translate(64 85.819)">
              <g id="Cuadrícula_de_repetición_4" data-name="Cuadrícula de repetición 4" transform="translate(22 17.49)" clip-path="url(#clip-path-2)">
                <g id="Grupo_2" data-name="Grupo 2" transform="translate(-74 -907.921)">
                  <text id="_1" data-name="1" transform="translate(74 923.921)" fill="#b4b4b4" stroke="#707070" stroke-width="1" font-size="15" font-family="SegoeUI-Semibold, Segoe UI" font-weight="600"><tspan x="0" y="0">1</tspan></text>
                  <text id="Pizza_Alfredo_Chicken:_personal_1_jamon_2_queso_Sin_Salsa_por_favor_" data-name="Pizza Alfredo Chicken: personal
+ 1 jamon + 2 queso 
Sin Salsa por favor " transform="translate(96 923.921)" fill="#b4b4b4" stroke="#707070" stroke-width="1" font-size="20" font-family="SegoeUI-Semibold, Segoe UI" font-weight="600"><tspan x="0" y="0">Pizza Alfredo Chicken: personal</tspan><tspan x="0" y="27">+ 1 jamon + 2 queso </tspan><tspan x="0" y="54">Sin Salsa por favor </tspan></text>
                </g>
                <g id="Grupo_2-2" data-name="Grupo 2" transform="translate(-74 -798.921)">
                  <text id="_1-2" data-name="1" transform="translate(74 923.921)" fill="#b4b4b4" stroke="#707070" stroke-width="1" font-size="15" font-family="SegoeUI-Semibold, Segoe UI" font-weight="600"><tspan x="0" y="0">1</tspan></text>
                  <text id="Pizza_Alfredo_Chicken:_personal_1_jamon_2_queso_Sin_Salsa_por_favor_2" data-name="Pizza Alfredo Chicken: personal
+ 1 jamon + 2 queso 
Sin Salsa por favor " transform="translate(96 923.921)" fill="#b4b4b4" stroke="#707070" stroke-width="1" font-size="20" font-family="SegoeUI-Semibold, Segoe UI" font-weight="600"><tspan x="0" y="0">Pizza Alfredo Chicken: personal</tspan><tspan x="0" y="27">+ 1 jamon + 2 queso </tspan><tspan x="0" y="54">Sin Salsa por favor </tspan></text>
                </g>
                <g id="Grupo_2-3" data-name="Grupo 2" transform="translate(-74 -689.921)">
                  <text id="_1-3" data-name="1" transform="translate(74 923.921)" fill="#b4b4b4" stroke="#707070" stroke-width="1" font-size="15" font-family="SegoeUI-Semibold, Segoe UI" font-weight="600"><tspan x="0" y="0">1</tspan></text>
                  <text id="Pizza_Alfredo_Chicken:_personal_1_jamon_2_queso_Sin_Salsa_por_favor_3" data-name="Pizza Alfredo Chicken: personal
+ 1 jamon + 2 queso 
Sin Salsa por favor " transform="translate(96 923.921)" fill="#b4b4b4" stroke="#707070" stroke-width="1" font-size="20" font-family="SegoeUI-Semibold, Segoe UI" font-weight="600"><tspan x="0" y="0">Pizza Alfredo Chicken: personal</tspan><tspan x="0" y="27">+ 1 jamon + 2 queso </tspan><tspan x="0" y="54">Sin Salsa por favor </tspan></text>
                </g>
              </g>
            </g>
            <text id="Pedido:_123568" data-name="Pedido:
#123568" transform="translate(238 38)" fill="#b4b4b4" stroke="#707070" stroke-width="1" font-size="18" font-family="SegoeUI-Semibold, Segoe UI" font-weight="600"><tspan x="-30.48" y="0">Pedido:</tspan><tspan x="-33.952" y="24">#123568</tspan></text>
            <path id="CambiaEstado" d="M187.5-687l-3.85-3.988,9.762-9.762H160v-5.5h33.412l-9.762-9.762L187.5-720,204-703.5Z" transform="translate(246 1114)" fill="#5f6368" stroke="#707070" stroke-width="1"/>
          </g>
          <g id="detalle_extendido-3" data-name="detalle extendido" transform="translate(0 463)">
            <g id="Rectángulo_16-2" data-name="Rectángulo 16" fill="#2f2f2f" stroke="#707070" stroke-width="1">
              <rect width="476" height="443" rx="16" stroke="none"/>
              <rect x="0.5" y="0.5" width="475" height="442" rx="15.5" fill="none"/>
            </g>
            <g id="Detalle_del_pedido-2" data-name="Detalle del pedido" transform="translate(64 85.819)">
              <g id="Cuadrícula_de_repetición_4-2" data-name="Cuadrícula de repetición 4" transform="translate(22 17.49)" clip-path="url(#clip-path-2)">
                <g id="Grupo_2-4" data-name="Grupo 2" transform="translate(-74 -907.921)">
                  <text id="_1-4" data-name="1" transform="translate(74 923.921)" fill="#b4b4b4" stroke="#707070" stroke-width="1" font-size="15" font-family="SegoeUI-Semibold, Segoe UI" font-weight="600"><tspan x="0" y="0">1</tspan></text>
                  <text id="Pizza_Alfredo_Chicken:_personal_1_jamon_2_queso_Sin_Salsa_por_favor_4" data-name="Pizza Alfredo Chicken: personal
+ 1 jamon + 2 queso 
Sin Salsa por favor " transform="translate(96 923.921)" fill="#b4b4b4" stroke="#707070" stroke-width="1" font-size="20" font-family="SegoeUI-Semibold, Segoe UI" font-weight="600"><tspan x="0" y="0">Pizza Alfredo Chicken: personal</tspan><tspan x="0" y="27">+ 1 jamon + 2 queso </tspan><tspan x="0" y="54">Sin Salsa por favor </tspan></text>
                </g>
                <g id="Grupo_2-5" data-name="Grupo 2" transform="translate(-74 -798.921)">
                  <text id="_1-5" data-name="1" transform="translate(74 923.921)" fill="#b4b4b4" stroke="#707070" stroke-width="1" font-size="15" font-family="SegoeUI-Semibold, Segoe UI" font-weight="600"><tspan x="0" y="0">1</tspan></text>
                  <text id="Pizza_Alfredo_Chicken:_personal_1_jamon_2_queso_Sin_Salsa_por_favor_5" data-name="Pizza Alfredo Chicken: personal
+ 1 jamon + 2 queso 
Sin Salsa por favor " transform="translate(96 923.921)" fill="#b4b4b4" stroke="#707070" stroke-width="1" font-size="20" font-family="SegoeUI-Semibold, Segoe UI" font-weight="600"><tspan x="0" y="0">Pizza Alfredo Chicken: personal</tspan><tspan x="0" y="27">+ 1 jamon + 2 queso </tspan><tspan x="0" y="54">Sin Salsa por favor </tspan></text>
                </g>
                <g id="Grupo_2-6" data-name="Grupo 2" transform="translate(-74 -689.921)">
                  <text id="_1-6" data-name="1" transform="translate(74 923.921)" fill="#b4b4b4" stroke="#707070" stroke-width="1" font-size="15" font-family="SegoeUI-Semibold, Segoe UI" font-weight="600"><tspan x="0" y="0">1</tspan></text>
                  <text id="Pizza_Alfredo_Chicken:_personal_1_jamon_2_queso_Sin_Salsa_por_favor_6" data-name="Pizza Alfredo Chicken: personal
+ 1 jamon + 2 queso 
Sin Salsa por favor " transform="translate(96 923.921)" fill="#b4b4b4" stroke="#707070" stroke-width="1" font-size="20" font-family="SegoeUI-Semibold, Segoe UI" font-weight="600"><tspan x="0" y="0">Pizza Alfredo Chicken: personal</tspan><tspan x="0" y="27">+ 1 jamon + 2 queso </tspan><tspan x="0" y="54">Sin Salsa por favor </tspan></text>
                </g>
              </g>
            </g>
            <text id="Pedido:_123568-2" data-name="Pedido:
#123568" transform="translate(238 38)" fill="#b4b4b4" stroke="#707070" stroke-width="1" font-size="18" font-family="SegoeUI-Semibold, Segoe UI" font-weight="600"><tspan x="-30.48" y="0">Pedido:</tspan><tspan x="-33.952" y="24">#123568</tspan></text>
            <path id="CambiaEstado-2" data-name="CambiaEstado" d="M187.5-687l-3.85-3.988,9.762-9.762H160v-5.5h33.412l-9.762-9.762L187.5-720,204-703.5Z" transform="translate(246 1114)" fill="#5f6368" stroke="#707070" stroke-width="1"/>
          </g>
        </g>
        <path id="Línea_1" data-name="Línea 1" d="M472,.5H0v-1H472Z" transform="translate(38 94.5)" fill="#707070"/>
        <text id="ORDENES_ENTRANTES" data-name="ORDENES ENTRANTES" transform="translate(110.5 56.5)" fill="#b4b4b4" font-size="32" font-family="SegoeUI-Semibold, Segoe UI" font-weight="600"><tspan x="0" y="0">ORDENES ENTRANTES</tspan></text>
        <path id="ORDENES_ENTRANTES_-_Contorno" data-name="ORDENES ENTRANTES - Contorno" d="M317.547.875a14.2,14.2,0,0,1-1.435-.089c-.558-.058-1.137-.145-1.721-.256a16.018,16.018,0,0,1-1.678-.412,5.578,5.578,0,0,1-1.356-.587l-.232-.147V-5.849l.836.76a5.442,5.442,0,0,0,1.124.771,9.023,9.023,0,0,0,1.428.6,11.44,11.44,0,0,0,1.527.382,8.04,8.04,0,0,0,1.382.133,5.842,5.842,0,0,0,3.211-.695,2.081,2.081,0,0,0,.93-1.852,1.966,1.966,0,0,0-.3-1.109,3.54,3.54,0,0,0-.94-.935,10.8,10.8,0,0,0-1.545-.887c-.615-.295-1.282-.606-1.984-.926l-.028-.014c-.768-.41-1.494-.832-2.157-1.253a9.69,9.69,0,0,1-1.8-1.459,6.311,6.311,0,0,1-1.238-1.858,6.091,6.091,0,0,1-.455-2.434,5.672,5.672,0,0,1,.784-3,6.528,6.528,0,0,1,2.029-2.08,9.133,9.133,0,0,1,2.8-1.191,13.135,13.135,0,0,1,3.151-.382,12.554,12.554,0,0,1,5.347.849l.278.138v4.959l-.793-.572a7.739,7.739,0,0,0-4.614-1.281,8.33,8.33,0,0,0-1.555.147,4.425,4.425,0,0,0-1.32.462,2.7,2.7,0,0,0-.892.777,1.758,1.758,0,0,0-.312,1.067,2.092,2.092,0,0,0,.247,1.049,2.866,2.866,0,0,0,.781.849,8.891,8.891,0,0,0,1.39.834c.568.281,1.236.591,1.987.92l.03.014c.791.412,1.549.851,2.252,1.305a10.973,10.973,0,0,1,1.915,1.556,7.052,7.052,0,0,1,1.345,1.942,5.818,5.818,0,0,1,.508,2.468,6.109,6.109,0,0,1-.756,3.128A6.062,6.062,0,0,1,323.7-.593,8.783,8.783,0,0,1,320.856.536,15.678,15.678,0,0,1,317.547.875Zm-5.422-2.056a5.49,5.49,0,0,0,.881.344,15.026,15.026,0,0,0,1.572.385c.556.106,1.108.188,1.638.244a13.217,13.217,0,0,0,1.331.083,14.679,14.679,0,0,0,3.1-.317,7.789,7.789,0,0,0,2.519-1,5.072,5.072,0,0,0,1.687-1.736,5.132,5.132,0,0,0,.619-2.622,4.83,4.83,0,0,0-.414-2.047A6.054,6.054,0,0,0,323.9-9.511a9.969,9.969,0,0,0-1.741-1.413c-.672-.435-1.4-.855-2.156-1.25-.758-.332-1.435-.646-2.013-.933a9.878,9.878,0,0,1-1.548-.931,3.855,3.855,0,0,1-1.047-1.151,3.074,3.074,0,0,1-.378-1.545,2.758,2.758,0,0,1,.5-1.652,3.69,3.69,0,0,1,1.218-1.066,5.42,5.42,0,0,1,1.618-.569,9.333,9.333,0,0,1,1.742-.165,9.3,9.3,0,0,1,4.406.977v-2.45a13.055,13.055,0,0,0-4.625-.62,12.134,12.134,0,0,0-2.911.353,8.137,8.137,0,0,0-2.5,1.059,5.535,5.535,0,0,0-1.721,1.763,4.69,4.69,0,0,0-.638,2.482,5.106,5.106,0,0,0,.373,2.035,5.313,5.313,0,0,0,1.043,1.564,8.688,8.688,0,0,0,1.618,1.307c.639.406,1.338.812,2.079,1.208.7.32,1.37.632,1.986.927a11.8,11.8,0,0,1,1.689.972,4.528,4.528,0,0,1,1.2,1.206,2.973,2.973,0,0,1,.464,1.656A3.055,3.055,0,0,1,321.2-3.071a6.667,6.667,0,0,1-3.773.868,9.033,9.033,0,0,1-1.556-.148,12.433,12.433,0,0,1-1.661-.415,10.023,10.023,0,0,1-1.587-.666q-.257-.136-.493-.285ZM132.391.875a14.2,14.2,0,0,1-1.435-.089C130.4.728,129.818.642,129.234.53a16.02,16.02,0,0,1-1.678-.412A5.577,5.577,0,0,1,126.2-.468l-.232-.147V-5.849l.836.76a5.442,5.442,0,0,0,1.123.771,9.023,9.023,0,0,0,1.428.6,11.44,11.44,0,0,0,1.527.382,8.04,8.04,0,0,0,1.382.133,5.842,5.842,0,0,0,3.211-.695,2.081,2.081,0,0,0,.93-1.852,1.966,1.966,0,0,0-.3-1.109,3.54,3.54,0,0,0-.94-.935,10.8,10.8,0,0,0-1.545-.887c-.614-.294-1.281-.606-1.984-.926l-.028-.014c-.768-.41-1.493-.832-2.157-1.253a9.689,9.689,0,0,1-1.8-1.459,6.31,6.31,0,0,1-1.238-1.858,6.091,6.091,0,0,1-.455-2.434,5.672,5.672,0,0,1,.784-3,6.528,6.528,0,0,1,2.029-2.08,9.134,9.134,0,0,1,2.8-1.191,13.135,13.135,0,0,1,3.151-.382,12.554,12.554,0,0,1,5.347.849l.278.138v4.959l-.792-.572a7.739,7.739,0,0,0-4.614-1.281,8.33,8.33,0,0,0-1.555.147,4.425,4.425,0,0,0-1.32.462,2.7,2.7,0,0,0-.892.777,1.758,1.758,0,0,0-.312,1.067,2.092,2.092,0,0,0,.247,1.049,2.866,2.866,0,0,0,.781.849,8.891,8.891,0,0,0,1.39.834c.568.282,1.237.591,1.987.92l.03.014c.791.412,1.549.851,2.252,1.305a10.972,10.972,0,0,1,1.915,1.556,7.052,7.052,0,0,1,1.345,1.942,5.819,5.819,0,0,1,.507,2.468,6.11,6.11,0,0,1-.756,3.128A6.062,6.062,0,0,1,138.54-.593,8.782,8.782,0,0,1,135.7.536,15.679,15.679,0,0,1,132.391.875Zm-5.422-2.056a5.49,5.49,0,0,0,.881.344,15.026,15.026,0,0,0,1.572.385c.557.106,1.108.188,1.638.244a13.217,13.217,0,0,0,1.331.083,14.68,14.68,0,0,0,3.1-.317,7.788,7.788,0,0,0,2.519-1,5.071,5.071,0,0,0,1.687-1.736,5.133,5.133,0,0,0,.619-2.622,4.83,4.83,0,0,0-.414-2.047,6.054,6.054,0,0,0-1.155-1.667A9.97,9.97,0,0,0,137-10.924c-.672-.435-1.4-.855-2.155-1.25-.758-.332-1.435-.646-2.014-.933a9.879,9.879,0,0,1-1.548-.931,3.854,3.854,0,0,1-1.047-1.151,3.074,3.074,0,0,1-.378-1.545,2.758,2.758,0,0,1,.5-1.652,3.69,3.69,0,0,1,1.218-1.066,5.42,5.42,0,0,1,1.618-.569,9.333,9.333,0,0,1,1.742-.165,9.3,9.3,0,0,1,4.406.977v-2.45a13.055,13.055,0,0,0-4.625-.62,12.134,12.134,0,0,0-2.911.353,8.137,8.137,0,0,0-2.5,1.059,5.535,5.535,0,0,0-1.721,1.763,4.69,4.69,0,0,0-.638,2.482,5.106,5.106,0,0,0,.373,2.035,5.314,5.314,0,0,0,1.043,1.564,8.689,8.689,0,0,0,1.618,1.307c.639.406,1.338.812,2.078,1.208.7.32,1.371.632,1.987.927a11.8,11.8,0,0,1,1.689.972,4.529,4.529,0,0,1,1.2,1.206,2.973,2.973,0,0,1,.464,1.656,3.055,3.055,0,0,1-1.367,2.679,6.667,6.667,0,0,1-3.773.868,9.033,9.033,0,0,1-1.556-.148,12.434,12.434,0,0,1-1.661-.415,10.022,10.022,0,0,1-1.587-.666q-.257-.136-.493-.285ZM12,.875a10.6,10.6,0,0,1-8.124-3.3A12.069,12.069,0,0,1,.828-10.937a12.757,12.757,0,0,1,3.1-8.964,10.954,10.954,0,0,1,8.43-3.38A10.376,10.376,0,0,1,20.328-20a12.109,12.109,0,0,1,3.015,8.511c0,3.769-1.038,6.8-3.086,9.012A10.764,10.764,0,0,1,12,.875Zm.359-23.156a10,10,0,0,0-7.695,3.058,11.8,11.8,0,0,0-2.836,8.286A11.1,11.1,0,0,0,4.609-3.106,9.64,9.64,0,0,0,12-.125a9.8,9.8,0,0,0,7.524-3.027c1.871-2.02,2.82-4.823,2.82-8.332a11.144,11.144,0,0,0-2.75-7.833A9.414,9.414,0,0,0,12.359-22.281ZM309.172.5H295.594V-22.906h13.078v4.156h-8.359v5.344h7.7v4.141h-7.7v5.625h8.859Zm-12.578-1h11.578V-2.641h-8.859v-7.625h7.7v-2.141h-7.7V-19.75h8.359v-2.156H296.594Zm-9.719,1h-4.719V-18.75h-6.422v-4.156h17.578v4.156h-6.437Zm-3.719-1h2.719V-19.75h6.438v-2.156H276.734v2.156h6.422Zm-9.766,1h-4.834l-10.58-16.28q.008.494.008,1.092V.5h-4.594V-22.906h5.1L268.825-6.844q-.013-.511-.013-1.125V-22.906h4.578ZM269.1-.5h3.291V-21.906h-2.578V-7.969a19.615,19.615,0,0,0,.149,2.929l.1.586H269.1l-.138-.276c-.08-.159-.285-.518-.815-1.324l-10.2-15.852h-3.555V-.5h2.594V-14.687a22.958,22.958,0,0,0-.118-2.992l-.1-.586h1.028l.125.316a6.829,6.829,0,0,0,.626,1.208ZM251.532.5h-5.151l-2.016-5.7h-8.1L234.327.5h-9.158l-3.724-6.244a12.136,12.136,0,0,0-.909-1.361,5.223,5.223,0,0,0-.854-.877,2.681,2.681,0,0,0-.876-.462,3.85,3.85,0,0,0-1.12-.15h-1V.5h-4.7V-22.906h7.875a11.217,11.217,0,0,1,3.042.394,7.283,7.283,0,0,1,2.482,1.218,5.8,5.8,0,0,1,1.683,2.067,6.476,6.476,0,0,1,.606,2.868,7.014,7.014,0,0,1-.38,2.347,6.193,6.193,0,0,1-1.088,1.92,6.643,6.643,0,0,1-1.689,1.428,7.864,7.864,0,0,1-1.233.595q.169.132.321.271c.311.284.61.58.888.88a10.763,10.763,0,0,1,.844,1.041c.268.373.569.812.894,1.305l.005.008,3.515,5.555,8.2-21.9h4.882Zm-4.444-1h3.005l-7.956-21.406h-3.493L230.627-.5h2.983l1.937-5.7h9.524Zm-21.351,0h3.152l-3.5-5.524c-.317-.481-.61-.909-.87-1.27a9.773,9.773,0,0,0-.765-.944c-.26-.28-.539-.557-.83-.823a5.294,5.294,0,0,0-.971-.691L221.7-9.9v-.741l.374-.1A7.345,7.345,0,0,0,224-11.523a5.644,5.644,0,0,0,1.436-1.212,5.2,5.2,0,0,0,.912-1.611,6.018,6.018,0,0,0,.323-2.013,5.491,5.491,0,0,0-.5-2.429,4.813,4.813,0,0,0-1.4-1.714,6.289,6.289,0,0,0-2.143-1.048,10.221,10.221,0,0,0-2.77-.356h-6.875V-.5h2.7V-9.594h2A4.842,4.842,0,0,1,219.1-9.4a3.676,3.676,0,0,1,1.2.632,6.213,6.213,0,0,1,1.021,1.045,13.084,13.084,0,0,1,.984,1.471ZM203.266.5h-4.719V-18.75h-6.422v-4.156H209.7v4.156h-6.437Zm-3.719-1h2.719V-19.75H208.7v-2.156H193.125v2.156h6.422Zm-9.766,1h-4.834l-10.58-16.28q.008.494.008,1.092V.5h-4.594V-22.906h5.1L185.216-6.844q-.013-.511-.013-1.125V-22.906h4.578Zm-4.291-1h3.291V-21.906H186.2V-7.969a19.616,19.616,0,0,0,.149,2.929l.1.586h-.967l-.138-.276c-.08-.159-.285-.518-.815-1.324l-10.2-15.852h-3.555V-.5h2.594V-14.687a22.972,22.972,0,0,0-.118-2.993l-.1-.586h1.028l.125.316a6.831,6.831,0,0,0,.626,1.208ZM166.8.5H153.219V-22.906H166.3v4.156h-8.359v5.344h7.7v4.141h-7.7v5.625H166.8Zm-12.578-1H165.8V-2.641h-8.859v-7.625h7.7v-2.141h-7.7V-19.75H165.3v-2.156H154.219Zm-30.2,1H110.438V-22.906h13.078v4.156h-8.359v5.344h7.7v4.141h-7.7v5.625h8.859Zm-12.578-1h11.578V-2.641h-8.859v-7.625h7.7v-2.141h-7.7V-19.75h8.359v-2.156H111.438Zm-5.547,1h-4.834L90.476-15.78q.008.494.008,1.092V.5H85.891V-22.906h5.1L101.325-6.844q-.013-.511-.013-1.125V-22.906h4.578ZM101.6-.5h3.291V-21.906h-2.578V-7.969a19.62,19.62,0,0,0,.149,2.929l.1.586H101.6l-.138-.276c-.08-.159-.285-.518-.815-1.324l-10.2-15.852H86.891V-.5h2.594V-14.687a22.964,22.964,0,0,0-.118-2.992l-.1-.586h1.028l.125.316a6.836,6.836,0,0,0,.626,1.208ZM82.906.5H69.328V-22.906H82.406v4.156H74.047v5.344h7.7v4.141h-7.7v5.625h8.859ZM70.328-.5H81.906V-2.641H73.047v-7.625h7.7v-2.141h-7.7V-19.75h8.359v-2.156H70.328ZM53.078.5h-6.7V-22.906h6.969c4.236,0,7.474.961,9.624,2.855,2.168,1.911,3.267,4.793,3.267,8.566a11.29,11.29,0,0,1-3.6,8.7C60.259-.6,57.043.5,53.078.5Zm-5.7-1h5.7a12.7,12.7,0,0,0,8.881-3.017,10.328,10.328,0,0,0,3.275-7.967c0-3.474-.985-6.1-2.928-7.816-1.961-1.729-4.977-2.606-8.962-2.606H47.375Zm-2.2,1H39.638L35.914-5.744A12.125,12.125,0,0,0,35.005-7.1a5.222,5.222,0,0,0-.854-.877,2.681,2.681,0,0,0-.876-.462,3.85,3.85,0,0,0-1.12-.15h-1V.5h-4.7V-22.906h7.875a11.215,11.215,0,0,1,3.042.394,7.282,7.282,0,0,1,2.482,1.218,5.8,5.8,0,0,1,1.683,2.067,6.476,6.476,0,0,1,.606,2.868,7.014,7.014,0,0,1-.38,2.347,6.193,6.193,0,0,1-1.088,1.92,6.643,6.643,0,0,1-1.689,1.428,7.864,7.864,0,0,1-1.233.595q.169.132.321.271c.311.284.61.58.888.88A10.76,10.76,0,0,1,39.8-7.878c.269.374.569.813.894,1.305l.005.008Zm-4.968-1h3.152l-3.5-5.525c-.317-.48-.609-.907-.869-1.269a9.76,9.76,0,0,0-.765-.944c-.26-.28-.54-.557-.83-.823a5.292,5.292,0,0,0-.971-.691L36.172-9.9v-.741l.374-.1a7.345,7.345,0,0,0,1.924-.789,5.644,5.644,0,0,0,1.436-1.212,5.2,5.2,0,0,0,.912-1.611,6.019,6.019,0,0,0,.323-2.013,5.491,5.491,0,0,0-.5-2.429A4.813,4.813,0,0,0,39.242-20.5,6.289,6.289,0,0,0,37.1-21.55a10.22,10.22,0,0,0-2.77-.356H27.453V-.5h2.7V-9.594h2a4.842,4.842,0,0,1,1.412.194,3.676,3.676,0,0,1,1.2.632,6.213,6.213,0,0,1,1.021,1.045,13.079,13.079,0,0,1,.984,1.471ZM12.016-2.375A6.55,6.55,0,0,1,6.723-4.839a9.7,9.7,0,0,1-1.989-6.333A9.61,9.61,0,0,1,6.781-17.54a6.74,6.74,0,0,1,5.391-2.475,6.605,6.605,0,0,1,5.362,2.369,10.018,10.018,0,0,1,1.919,6.521,9.578,9.578,0,0,1-1.98,6.4A6.84,6.84,0,0,1,12.016-2.375Zm.156-16.641A5.708,5.708,0,0,0,7.547-16.9a8.645,8.645,0,0,0-1.812,5.725A8.733,8.733,0,0,0,7.5-5.474a5.523,5.523,0,0,0,4.52,2.1,5.809,5.809,0,0,0,4.7-2,8.625,8.625,0,0,0,1.739-5.753,9.069,9.069,0,0,0-1.69-5.885A5.579,5.579,0,0,0,12.172-19.016ZM53.547-2.641H50.078V-19.75h3.609c2.835,0,5.006.708,6.453,2.105s2.188,3.506,2.188,6.254A8.7,8.7,0,0,1,60-4.941,8.815,8.815,0,0,1,53.547-2.641Zm-2.469-1h2.469A7.86,7.86,0,0,0,59.3-5.652a7.749,7.749,0,0,0,2.031-5.738c0-2.467-.633-4.329-1.882-5.535s-3.191-1.825-5.758-1.825H51.078Zm193.36-4.594h-8.264l3.305-9.6a8.741,8.741,0,0,0,.292-1.324l.067-.422h.916l.068.42a10.319,10.319,0,0,0,.277,1.326Zm-6.862-1h5.455l-2.741-7.879Zm-18.295-2.375h-3.594v-8.281h3.625a4.743,4.743,0,0,1,3.255,1.033,3.69,3.69,0,0,1,1.183,2.889,4.7,4.7,0,0,1-.335,1.8,3.978,3.978,0,0,1-.948,1.392,4.143,4.143,0,0,1-1.429.871A5.1,5.1,0,0,1,219.281-11.609Zm-2.594-1h2.594a4.11,4.11,0,0,0,1.414-.235,3.15,3.15,0,0,0,1.087-.66,2.985,2.985,0,0,0,.709-1.046,3.7,3.7,0,0,0,.259-1.418,2.7,2.7,0,0,0-.849-2.143,3.8,3.8,0,0,0-2.589-.779h-2.625Zm-182.937,1H30.156v-8.281h3.625a4.743,4.743,0,0,1,3.255,1.033,3.69,3.69,0,0,1,1.183,2.889,4.7,4.7,0,0,1-.335,1.8,3.977,3.977,0,0,1-.948,1.392,4.143,4.143,0,0,1-1.429.871A5.1,5.1,0,0,1,33.75-11.609Zm-2.594-1H33.75a4.11,4.11,0,0,0,1.414-.235,3.15,3.15,0,0,0,1.087-.66,2.985,2.985,0,0,0,.709-1.046,3.7,3.7,0,0,0,.259-1.418,2.7,2.7,0,0,0-.848-2.143,3.8,3.8,0,0,0-2.589-.779H31.156Z" transform="translate(110.5 56.5)" fill="#707070"/>
      </g>
      <g id="EnPreparacion" transform="translate(659 157)">
        <rect id="Rectángulo_19" data-name="Rectángulo 19" width="602" height="863" transform="translate(0 -10)" fill="#212121"/>
        <path id="Rectángulo_19_-_Contorno" data-name="Rectángulo 19 - Contorno" d="M1,1V862H601V1H1M0,0H602V863H0Z" transform="translate(0 -10)" fill="#707070"/>
        <path id="Línea_2" data-name="Línea 2" d="M472,.5H0v-1H472Z" transform="translate(65 95.5)" fill="#707070"/>
        <g id="Barra_de_navegacion_pedidos_hechos-2" data-name="Barra de navegacion pedidos hechos" transform="translate(573.57)">
          <g id="Barra_de_navegacion-2" data-name="Barra de navegacion" fill="#424242">
            <path d="M 27.93025970458984 862.5 L 0.5000377893447876 862.5 L 0.5000377893447876 0.5 L 27.93025970458984 0.5 L 27.93025970458984 14.16177749633789 L 27.93025970458984 862.5 Z" stroke="none"/>
            <path d="M 1.000038146972656 1 L 1.000038146972656 862 L 27.43025970458984 862 L 27.43025970458984 1 L 1.000038146972656 1 M 3.814697265625e-05 0 L 28.43025970458984 0 L 28.43025970458984 863 L 3.814697265625e-05 863 L 3.814697265625e-05 0 Z" stroke="none" fill="#707070"/>
          </g>
          <g id="Barra-2" data-name="Barra" transform="translate(0.5 24.191)" fill="#686868" stroke="#707070" stroke-width="1">
            <rect width="27.93" height="412" stroke="none"/>
            <rect x="0.5" y="0.5" width="26.93" height="411" fill="none"/>
          </g>
          <g id="boton_barra_de_navegacion-3" data-name="boton barra de navegacion" transform="translate(0.5 840.809)">
            <g id="Rectángulo_2-3" data-name="Rectángulo 2" fill="#424242" stroke="#707070" stroke-width="1">
              <rect width="27.93" height="22" stroke="none"/>
              <rect x="0.5" y="0.5" width="26.93" height="21" fill="none"/>
            </g>
            <g id="Polígono_1-3" data-name="Polígono 1" transform="translate(23.93 16) rotate(180)" fill="#686868">
              <path d="M 18.86515998840332 11.5 L 1.065136551856995 11.5 L 9.965147972106934 0.782636284828186 L 18.86515998840332 11.5 Z" stroke="none"/>
              <path d="M 9.965147972106934 1.565272331237793 L 2.130275726318359 11 L 17.80002021789551 11 L 9.965147972106934 1.565272331237793 M 9.965147972106934 0 L 19.9302978515625 12 L -1.9073486328125e-06 12 L 9.965147972106934 0 Z" stroke="none" fill="#707070"/>
            </g>
          </g>
          <g id="boton_barra_de_navegacion-4" data-name="boton barra de navegacion" transform="translate(0.5 0.191)">
            <g id="Rectángulo_2-4" data-name="Rectángulo 2" fill="#424242" stroke="#707070" stroke-width="1">
              <rect width="27.93" height="22" stroke="none"/>
              <rect x="0.5" y="0.5" width="26.93" height="21" fill="none"/>
            </g>
            <g id="Polígono_1-4" data-name="Polígono 1" transform="translate(4 4)" fill="#686868">
              <path d="M 18.80267906188965 10.5 L 1.127619504928589 10.5 L 9.96514892578125 0.744720458984375 L 18.80267906188965 10.5 Z" stroke="none"/>
              <path d="M 9.96514892578125 1.489461898803711 L 2.255258560180664 10 L 17.67503929138184 10 L 9.96514892578125 1.489461898803711 M 9.96514892578125 0 L 19.93029975891113 11 L -1.9073486328125e-06 11 L 9.96514892578125 0 Z" stroke="none" fill="#707070"/>
            </g>
          </g>
        </g>
        <text id="EN_PREPARACIÓN" data-name="EN PREPARACIÓN" transform="translate(301 59)" fill="#b4b4b4" font-size="32" font-family="SegoeUI-Semibold, Segoe UI" font-weight="600"><tspan x="-130.984" y="0">EN PREPARACIÓN</tspan></text>
        <path id="EN_PREPARACIÓN_-_Contorno" data-name="EN PREPARACIÓN - Contorno" d="M94.25.875a10.6,10.6,0,0,1-8.124-3.3,12.069,12.069,0,0,1-3.048-8.512,12.756,12.756,0,0,1,3.1-8.964,10.954,10.954,0,0,1,8.43-3.38A10.376,10.376,0,0,1,102.578-20a12.109,12.109,0,0,1,3.015,8.511c0,3.769-1.038,6.8-3.086,9.012A10.764,10.764,0,0,1,94.25.875Zm.359-23.156a10,10,0,0,0-7.695,3.058,11.8,11.8,0,0,0-2.836,8.286,11.1,11.1,0,0,0,2.781,7.832A9.64,9.64,0,0,0,94.25-.125a9.8,9.8,0,0,0,7.524-3.027c1.871-2.02,2.82-4.823,2.82-8.332a11.144,11.144,0,0,0-2.75-7.833A9.414,9.414,0,0,0,94.609-22.281ZM65.141.875a10.822,10.822,0,0,1-8.174-3.233,11.747,11.747,0,0,1-3.076-8.423,12.3,12.3,0,0,1,3.451-9.041,11.838,11.838,0,0,1,8.706-3.459,14.237,14.237,0,0,1,5.588.963l.3.13v4.894l-.755-.448a9.17,9.17,0,0,0-4.745-1.274A7.305,7.305,0,0,0,60.9-16.839a8.109,8.109,0,0,0-2.117,5.871,7.711,7.711,0,0,0,1.97,5.552,6.8,6.8,0,0,0,5.186,2.042A9.486,9.486,0,0,0,71.167-4.8l.771-.5V-.634l-.27.14A14.134,14.134,0,0,1,65.141.875Zm.906-23.156a10.871,10.871,0,0,0-8,3.166,11.332,11.332,0,0,0-3.159,8.334,10.782,10.782,0,0,0,2.8,7.733A9.86,9.86,0,0,0,65.141-.125a13.48,13.48,0,0,0,5.8-1.122V-3.509a10.775,10.775,0,0,1-5,1.134A7.854,7.854,0,0,1,60.03-4.724a8.672,8.672,0,0,1-2.249-6.245,9.071,9.071,0,0,1,2.4-6.567,8.363,8.363,0,0,1,6.257-2.48,10.226,10.226,0,0,1,4.5,1.008v-2.515A13.786,13.786,0,0,0,66.047-22.281ZM128.7.5h-4.834l-10.58-16.28q.008.494.008,1.092V.5H108.7V-22.906h5.1L124.138-6.844q-.013-.511-.013-1.125V-22.906H128.7Zm-4.291-1H127.7V-21.906h-2.578V-7.969a19.62,19.62,0,0,0,.149,2.929l.1.586h-.967l-.138-.276c-.08-.159-.285-.518-.815-1.324l-10.2-15.852H109.7V-.5H112.3V-14.687a22.967,22.967,0,0,0-.118-2.992l-.1-.586h1.028l.125.316a6.834,6.834,0,0,0,.626,1.208ZM80,.5H75.172V-22.906H80Zm-3.828-1H79V-21.906H76.172ZM53.907.5H48.756L46.74-5.2h-8.1L36.7.5H27.544L23.821-5.744A12.112,12.112,0,0,0,22.912-7.1a5.22,5.22,0,0,0-.854-.877,2.681,2.681,0,0,0-.876-.462,3.851,3.851,0,0,0-1.12-.15h-1V.5h-4.7V-22.906h7.875a11.216,11.216,0,0,1,3.042.394,7.283,7.283,0,0,1,2.482,1.218,5.8,5.8,0,0,1,1.683,2.067,6.476,6.476,0,0,1,.606,2.868,7.014,7.014,0,0,1-.38,2.347,6.192,6.192,0,0,1-1.088,1.92,6.643,6.643,0,0,1-1.689,1.428,7.86,7.86,0,0,1-1.233.595q.169.132.321.271c.311.284.609.58.888.88a10.765,10.765,0,0,1,.844,1.041c.268.373.569.813.894,1.306l.005.008,3.515,5.555,8.2-21.9h4.882Zm-4.444-1h3.005L44.512-21.906H41.019L33-.5h2.983l1.938-5.7h9.524ZM28.112-.5h3.152l-3.5-5.526c-.317-.48-.609-.907-.869-1.268a9.766,9.766,0,0,0-.765-.944c-.26-.281-.54-.557-.83-.823a5.294,5.294,0,0,0-.971-.691L24.078-9.9v-.741l.374-.1a7.346,7.346,0,0,0,1.924-.789,5.646,5.646,0,0,0,1.436-1.212,5.2,5.2,0,0,0,.912-1.611,6.019,6.019,0,0,0,.323-2.013,5.491,5.491,0,0,0-.5-2.429,4.813,4.813,0,0,0-1.4-1.714A6.289,6.289,0,0,0,25-21.55a10.219,10.219,0,0,0-2.77-.356H15.359V-.5h2.7V-9.594h2a4.842,4.842,0,0,1,1.412.194,3.677,3.677,0,0,1,1.2.632A6.213,6.213,0,0,1,23.7-7.723a13.074,13.074,0,0,1,.984,1.471ZM12.5.5H7.35L5.334-5.2h-8.1L-4.7.5H-9.846l8.765-23.406H3.8ZM8.057-.5h3.005L3.106-21.906H-.388L-8.4-.5h2.983l1.938-5.7H6.041ZM-18.922.5h-4.7V-22.906h7.3a9.519,9.519,0,0,1,6.307,1.915,6.77,6.77,0,0,1,2.3,5.444A7.506,7.506,0,0,1-10.1-9.838a8.942,8.942,0,0,1-6.342,2.213h-2.484Zm-3.7-1h2.7V-8.625h3.484a7.982,7.982,0,0,0,5.658-1.943,6.459,6.459,0,0,0,2.061-4.979,5.743,5.743,0,0,0-1.948-4.681,8.568,8.568,0,0,0-5.662-1.679h-6.3Zm-3.984,1H-40.188V-22.906h13.078v4.156h-8.359v5.344h7.7v4.141h-7.7v5.625h8.859Zm-12.578-1h11.578V-2.641h-8.859v-7.625h7.7v-2.141h-7.7V-19.75h8.359v-2.156H-39.188Zm-2.2,1h-5.536l-3.724-6.244A12.125,12.125,0,0,0-51.557-7.1a5.221,5.221,0,0,0-.854-.877,2.681,2.681,0,0,0-.876-.462,3.851,3.851,0,0,0-1.119-.15h-1V.5h-4.7V-22.906h7.875a11.217,11.217,0,0,1,3.042.394,7.283,7.283,0,0,1,2.482,1.218,5.805,5.805,0,0,1,1.683,2.067,6.477,6.477,0,0,1,.606,2.868,7.013,7.013,0,0,1-.38,2.347,6.192,6.192,0,0,1-1.088,1.92,6.642,6.642,0,0,1-1.689,1.428,7.863,7.863,0,0,1-1.233.595q.169.132.321.271c.311.284.61.58.889.88a10.765,10.765,0,0,1,.844,1.041c.268.373.569.813.894,1.306l.005.008Zm-4.968-1H-43.2l-3.5-5.527c-.317-.48-.609-.906-.868-1.267a9.771,9.771,0,0,0-.765-.944c-.26-.28-.54-.557-.83-.823a5.3,5.3,0,0,0-.971-.691l-.254-.143v-.741l.374-.1a7.345,7.345,0,0,0,1.924-.789,5.644,5.644,0,0,0,1.436-1.212,5.2,5.2,0,0,0,.912-1.611,6.018,6.018,0,0,0,.323-2.013,5.491,5.491,0,0,0-.5-2.429,4.813,4.813,0,0,0-1.4-1.714,6.289,6.289,0,0,0-2.143-1.048,10.219,10.219,0,0,0-2.77-.356h-6.875V-.5h2.7V-9.594h2a4.842,4.842,0,0,1,1.412.194,3.677,3.677,0,0,1,1.2.632,6.212,6.212,0,0,1,1.021,1.045,13.083,13.083,0,0,1,.984,1.471ZM-74.109.5h-4.7V-22.906h7.3a9.519,9.519,0,0,1,6.307,1.915,6.77,6.77,0,0,1,2.3,5.444,7.506,7.506,0,0,1-2.377,5.709,8.942,8.942,0,0,1-6.342,2.213h-2.484Zm-3.7-1h2.7V-8.625h3.484a7.982,7.982,0,0,0,5.658-1.943,6.459,6.459,0,0,0,2.061-4.979,5.743,5.743,0,0,0-1.948-4.681,8.568,8.568,0,0,0-5.662-1.679h-6.3ZM-92.156.5H-96.99l-10.58-16.28q.008.494.008,1.092V.5h-4.594V-22.906h5.1L-96.722-6.844q-.013-.511-.013-1.125V-22.906h4.578Zm-4.291-1h3.291V-21.906h-2.578V-7.969a19.615,19.615,0,0,0,.149,2.929l.1.586h-.967l-.138-.276c-.08-.159-.285-.518-.815-1.324l-10.2-15.852h-3.555V-.5h2.594V-14.687a22.967,22.967,0,0,0-.118-2.992l-.1-.586h1.028l.125.316A6.836,6.836,0,0,0-107-16.741Zm-18.693,1h-13.578V-22.906h13.078v4.156H-124v5.344h7.7v4.141H-124v5.625h8.859Zm-12.578-1h11.578V-2.641H-125v-7.625h7.7v-2.141H-125V-19.75h8.359v-2.156h-11.078ZM94.266-2.375a6.55,6.55,0,0,1-5.292-2.464,9.7,9.7,0,0,1-1.989-6.333,9.61,9.61,0,0,1,2.047-6.368,6.74,6.74,0,0,1,5.391-2.475,6.605,6.605,0,0,1,5.362,2.369,10.018,10.018,0,0,1,1.919,6.521,9.578,9.578,0,0,1-1.98,6.4A6.84,6.84,0,0,1,94.266-2.375Zm.156-16.641A5.708,5.708,0,0,0,89.8-16.9a8.645,8.645,0,0,0-1.812,5.725,8.733,8.733,0,0,0,1.761,5.7,5.523,5.523,0,0,0,4.52,2.1,5.809,5.809,0,0,0,4.7-2,8.625,8.625,0,0,0,1.739-5.753,9.069,9.069,0,0,0-1.69-5.885A5.579,5.579,0,0,0,94.422-19.016ZM46.813-8.234H38.549l3.306-9.6a8.728,8.728,0,0,0,.291-1.321l.067-.422h.916l.068.42a10.3,10.3,0,0,0,.278,1.328Zm-6.862-1h5.455l-2.741-7.879Zm-34.545,1H-2.857l3.306-9.6a8.735,8.735,0,0,0,.291-1.321l.067-.422h.916l.068.42a10.306,10.306,0,0,0,.277,1.327Zm-6.862-1H4L1.258-17.114Zm-15.56-1.422h-2.906v-9.187h3.2c4.21,0,5.094,2.422,5.094,4.453a4.454,4.454,0,0,1-1.418,3.5A5.819,5.819,0,0,1-17.016-10.656Zm-1.906-1h1.906a4.875,4.875,0,0,0,3.309-.983,3.455,3.455,0,0,0,1.082-2.751c0-2.356-1.3-3.453-4.094-3.453h-2.2Zm-53.281,1h-2.906v-9.187h3.2c4.21,0,5.094,2.422,5.094,4.453a4.454,4.454,0,0,1-1.418,3.5A5.819,5.819,0,0,1-72.2-10.656Zm-1.906-1H-72.2a4.875,4.875,0,0,0,3.309-.983,3.455,3.455,0,0,0,1.082-2.751c0-2.356-1.3-3.453-4.094-3.453h-2.2Zm95.766.047H18.062v-8.281h3.625a4.744,4.744,0,0,1,3.255,1.033,3.69,3.69,0,0,1,1.183,2.889,4.7,4.7,0,0,1-.335,1.8,3.977,3.977,0,0,1-.948,1.392,4.144,4.144,0,0,1-1.429.871A5.105,5.105,0,0,1,21.656-11.609Zm-2.594-1h2.594a4.11,4.11,0,0,0,1.414-.235,3.15,3.15,0,0,0,1.087-.66,2.985,2.985,0,0,0,.709-1.046,3.7,3.7,0,0,0,.259-1.418,2.7,2.7,0,0,0-.848-2.143,3.8,3.8,0,0,0-2.589-.779H19.062Zm-71.875,1h-3.594v-8.281h3.625a4.743,4.743,0,0,1,3.255,1.033,3.69,3.69,0,0,1,1.183,2.889,4.7,4.7,0,0,1-.335,1.8,3.978,3.978,0,0,1-.948,1.392,4.144,4.144,0,0,1-1.429.871A5.106,5.106,0,0,1-52.813-11.609Zm-2.594-1h2.594a4.111,4.111,0,0,0,1.414-.235,3.15,3.15,0,0,0,1.087-.66A2.986,2.986,0,0,0-49.6-14.55a3.7,3.7,0,0,0,.259-1.418,2.7,2.7,0,0,0-.849-2.143,3.8,3.8,0,0,0-2.589-.779h-2.625ZM94.821-24.187H90.916l4.519-6.125h4.727Zm-1.925-1h1.47l3.6-4.125H95.94Z" transform="translate(301 59)" fill="#707070"/>
        <g id="detalle_extendido-4" data-name="detalle extendido" transform="translate(63 124)" clip-path="url(#clip-path-4)">
          <g id="detalle_extendido-5" data-name="detalle extendido">
            <g id="Rectángulo_16-3" data-name="Rectángulo 16" fill="#2f2f2f" stroke="#707070" stroke-width="1">
              <rect width="476" height="443" rx="16" stroke="none"/>
              <rect x="0.5" y="0.5" width="475" height="442" rx="15.5" fill="none"/>
            </g>
            <g id="Detalle_del_pedido-3" data-name="Detalle del pedido" transform="translate(64 85.819)">
              <g id="Cuadrícula_de_repetición_4-3" data-name="Cuadrícula de repetición 4" transform="translate(22 17.49)" clip-path="url(#clip-path-2)">
                <g id="Grupo_2-7" data-name="Grupo 2" transform="translate(-74 -907.921)">
                  <text id="_1-7" data-name="1" transform="translate(74 923.921)" fill="#b4b4b4" stroke="#707070" stroke-width="1" font-size="15" font-family="SegoeUI-Semibold, Segoe UI" font-weight="600"><tspan x="0" y="0">1</tspan></text>
                  <text id="Pizza_Alfredo_Chicken:_personal_1_jamon_2_queso_Sin_Salsa_por_favor_7" data-name="Pizza Alfredo Chicken: personal
+ 1 jamon + 2 queso 
Sin Salsa por favor " transform="translate(96 923.921)" fill="#b4b4b4" stroke="#707070" stroke-width="1" font-size="20" font-family="SegoeUI-Semibold, Segoe UI" font-weight="600"><tspan x="0" y="0">Pizza Alfredo Chicken: personal</tspan><tspan x="0" y="27">+ 1 jamon + 2 queso </tspan><tspan x="0" y="54">Sin Salsa por favor </tspan></text>
                </g>
                <g id="Grupo_2-8" data-name="Grupo 2" transform="translate(-74 -798.921)">
                  <text id="_1-8" data-name="1" transform="translate(74 923.921)" fill="#b4b4b4" stroke="#707070" stroke-width="1" font-size="15" font-family="SegoeUI-Semibold, Segoe UI" font-weight="600"><tspan x="0" y="0">1</tspan></text>
                  <text id="Pizza_Alfredo_Chicken:_personal_1_jamon_2_queso_Sin_Salsa_por_favor_8" data-name="Pizza Alfredo Chicken: personal
+ 1 jamon + 2 queso 
Sin Salsa por favor " transform="translate(96 923.921)" fill="#b4b4b4" stroke="#707070" stroke-width="1" font-size="20" font-family="SegoeUI-Semibold, Segoe UI" font-weight="600"><tspan x="0" y="0">Pizza Alfredo Chicken: personal</tspan><tspan x="0" y="27">+ 1 jamon + 2 queso </tspan><tspan x="0" y="54">Sin Salsa por favor </tspan></text>
                </g>
                <g id="Grupo_2-9" data-name="Grupo 2" transform="translate(-74 -689.921)">
                  <text id="_1-9" data-name="1" transform="translate(74 923.921)" fill="#b4b4b4" stroke="#707070" stroke-width="1" font-size="15" font-family="SegoeUI-Semibold, Segoe UI" font-weight="600"><tspan x="0" y="0">1</tspan></text>
                  <text id="Pizza_Alfredo_Chicken:_personal_1_jamon_2_queso_Sin_Salsa_por_favor_9" data-name="Pizza Alfredo Chicken: personal
+ 1 jamon + 2 queso 
Sin Salsa por favor " transform="translate(96 923.921)" fill="#b4b4b4" stroke="#707070" stroke-width="1" font-size="20" font-family="SegoeUI-Semibold, Segoe UI" font-weight="600"><tspan x="0" y="0">Pizza Alfredo Chicken: personal</tspan><tspan x="0" y="27">+ 1 jamon + 2 queso </tspan><tspan x="0" y="54">Sin Salsa por favor </tspan></text>
                </g>
              </g>
            </g>
            <text id="Pedido:_123568-3" data-name="Pedido:
#123568" transform="translate(238 38)" fill="#b4b4b4" stroke="#707070" stroke-width="1" font-size="18" font-family="SegoeUI-Semibold, Segoe UI" font-weight="600"><tspan x="-30.48" y="0">Pedido:</tspan><tspan x="-33.952" y="24">#123568</tspan></text>
            <path id="CambiaEstado-3" data-name="CambiaEstado" d="M187.5-687l-3.85-3.988,9.762-9.762H160v-5.5h33.412l-9.762-9.762L187.5-720,204-703.5Z" transform="translate(246 1114)" fill="#5f6368" stroke="#707070" stroke-width="1"/>
          </g>
          <g id="detalle_extendido-6" data-name="detalle extendido" transform="translate(0 463)">
            <g id="Rectángulo_16-4" data-name="Rectángulo 16" fill="#2f2f2f" stroke="#707070" stroke-width="1">
              <rect width="476" height="443" rx="16" stroke="none"/>
              <rect x="0.5" y="0.5" width="475" height="442" rx="15.5" fill="none"/>
            </g>
            <g id="Detalle_del_pedido-4" data-name="Detalle del pedido" transform="translate(64 85.819)">
              <g id="Cuadrícula_de_repetición_4-4" data-name="Cuadrícula de repetición 4" transform="translate(22 17.49)" clip-path="url(#clip-path-2)">
                <g id="Grupo_2-10" data-name="Grupo 2" transform="translate(-74 -907.921)">
                  <text id="_1-10" data-name="1" transform="translate(74 923.921)" fill="#b4b4b4" stroke="#707070" stroke-width="1" font-size="15" font-family="SegoeUI-Semibold, Segoe UI" font-weight="600"><tspan x="0" y="0">1</tspan></text>
                  <text id="Pizza_Alfredo_Chicken:_personal_1_jamon_2_queso_Sin_Salsa_por_favor_10" data-name="Pizza Alfredo Chicken: personal
+ 1 jamon + 2 queso 
Sin Salsa por favor " transform="translate(96 923.921)" fill="#b4b4b4" stroke="#707070" stroke-width="1" font-size="20" font-family="SegoeUI-Semibold, Segoe UI" font-weight="600"><tspan x="0" y="0">Pizza Alfredo Chicken: personal</tspan><tspan x="0" y="27">+ 1 jamon + 2 queso </tspan><tspan x="0" y="54">Sin Salsa por favor </tspan></text>
                </g>
                <g id="Grupo_2-11" data-name="Grupo 2" transform="translate(-74 -798.921)">
                  <text id="_1-11" data-name="1" transform="translate(74 923.921)" fill="#b4b4b4" stroke="#707070" stroke-width="1" font-size="15" font-family="SegoeUI-Semibold, Segoe UI" font-weight="600"><tspan x="0" y="0">1</tspan></text>
                  <text id="Pizza_Alfredo_Chicken:_personal_1_jamon_2_queso_Sin_Salsa_por_favor_11" data-name="Pizza Alfredo Chicken: personal
+ 1 jamon + 2 queso 
Sin Salsa por favor " transform="translate(96 923.921)" fill="#b4b4b4" stroke="#707070" stroke-width="1" font-size="20" font-family="SegoeUI-Semibold, Segoe UI" font-weight="600"><tspan x="0" y="0">Pizza Alfredo Chicken: personal</tspan><tspan x="0" y="27">+ 1 jamon + 2 queso </tspan><tspan x="0" y="54">Sin Salsa por favor </tspan></text>
                </g>
                <g id="Grupo_2-12" data-name="Grupo 2" transform="translate(-74 -689.921)">
                  <text id="_1-12" data-name="1" transform="translate(74 923.921)" fill="#b4b4b4" stroke="#707070" stroke-width="1" font-size="15" font-family="SegoeUI-Semibold, Segoe UI" font-weight="600"><tspan x="0" y="0">1</tspan></text>
                  <text id="Pizza_Alfredo_Chicken:_personal_1_jamon_2_queso_Sin_Salsa_por_favor_12" data-name="Pizza Alfredo Chicken: personal
+ 1 jamon + 2 queso 
Sin Salsa por favor " transform="translate(96 923.921)" fill="#b4b4b4" stroke="#707070" stroke-width="1" font-size="20" font-family="SegoeUI-Semibold, Segoe UI" font-weight="600"><tspan x="0" y="0">Pizza Alfredo Chicken: personal</tspan><tspan x="0" y="27">+ 1 jamon + 2 queso </tspan><tspan x="0" y="54">Sin Salsa por favor </tspan></text>
                </g>
              </g>
            </g>
            <text id="Pedido:_123568-4" data-name="Pedido:
#123568" transform="translate(238 38)" fill="#b4b4b4" stroke="#707070" stroke-width="1" font-size="18" font-family="SegoeUI-Semibold, Segoe UI" font-weight="600"><tspan x="-30.48" y="0">Pedido:</tspan><tspan x="-33.952" y="24">#123568</tspan></text>
            <path id="CambiaEstado-4" data-name="CambiaEstado" d="M187.5-687l-3.85-3.988,9.762-9.762H160v-5.5h33.412l-9.762-9.762L187.5-720,204-703.5Z" transform="translate(246 1114)" fill="#5f6368" stroke="#707070" stroke-width="1"/>
          </g>
        </g>
      </g>
      <g id="Preparadas" transform="translate(1308 147)">
        <path id="Trazado_2" data-name="Trazado 2" d="M0,0H557V873H0Z" fill="#212121"/>
        <path id="Trazado_2_-_Contorno" data-name="Trazado 2 - Contorno" d="M1,1V872H556V1H1M0,0H557V873H0Z" fill="#707070"/>
        <g id="Grupo_7" data-name="Grupo 7" transform="translate(22 120)">
          <rect id="Rectángulo_16-5" data-name="Rectángulo 16" width="476" height="109" rx="16" fill="#2f2f2f"/>
          <path id="Rectángulo_16_-_Contorno" data-name="Rectángulo 16 - Contorno" d="M16,1A15,15,0,0,0,1,16V93a15,15,0,0,0,15,15H460a15,15,0,0,0,15-15V16A15,15,0,0,0,460,1H16m0-1H460a16,16,0,0,1,16,16V93a16,16,0,0,1-16,16H16A16,16,0,0,1,0,93V16A16,16,0,0,1,16,0Z" fill="#707070"/>
          <path id="DespliegaDetalle" d="M4.471,23.631,0,19.16,19.16,0l19.16,19.16L33.85,23.631,19.16,9.021Z" transform="translate(457.321 39.631) rotate(180)" fill="#5f6368"/>
          <path id="DespliegaDetalle_-_Contorno" data-name="DespliegaDetalle - Contorno" d="M33.851,24.337,19.16,9.727,4.47,24.337-.707,19.16,19.16-.707,39.028,19.16ZM.707,19.16l3.765,3.765L19.16,8.316,33.849,22.925l3.765-3.765L19.16.707Z" transform="translate(457.321 39.631) rotate(180)" fill="#707070"/>
          <text id="Pedido:_123568-5" data-name="Pedido:
#123568" transform="translate(238 47)" fill="#b4b4b4" font-size="18" font-family="SegoeUI-Semibold, Segoe UI" font-weight="600"><tspan x="-30.48" y="0">Pedido:</tspan><tspan x="-33.952" y="24">#123568</tspan></text>
          <path id="Pedido:_123568_-_Contorno" data-name="Pedido:
#123568 - Contorno" d="M-4.033-13.824H-.994V.5H-4.033V-.167A3.813,3.813,0,0,1-6.6.711,3.766,3.766,0,0,1-9.645-.679a5.519,5.519,0,0,1-1.112-3.61A5.972,5.972,0,0,1-9.54-8.183,4.1,4.1,0,0,1-6.214-9.711a3.516,3.516,0,0,1,2.181.662Zm2.039,1H-3.033v5.572H-3.76a2.79,2.79,0,0,1,.753,1.961v1.178a3.451,3.451,0,0,1-.63,2.084h.6V-.5h1.039ZM-3.981-7.466-4-7.506a2.329,2.329,0,0,0-2.21-1.205A3.107,3.107,0,0,0-8.767-7.549a5.009,5.009,0,0,0-.99,3.26,4.561,4.561,0,0,0,.883,2.973A2.773,2.773,0,0,0-6.6-.289,2.744,2.744,0,0,0-4.234-1.417a2.635,2.635,0,0,1-1.619.511,2.531,2.531,0,0,1-2.084-.985,3.9,3.9,0,0,1-.736-2.476,4.294,4.294,0,0,1,.758-2.669A2.628,2.628,0,0,1-5.722-8.085,2.583,2.583,0,0,1-3.981-7.466ZM-5.854-1.906A1.624,1.624,0,0,0-4.539-2.5a2.394,2.394,0,0,0,.532-1.615V-5.291A1.8,1.8,0,0,0-4.5-6.576a1.588,1.588,0,0,0-1.225-.509,1.653,1.653,0,0,0-1.4.657,3.341,3.341,0,0,0-.551,2.06,2.942,2.942,0,0,0,.521,1.857A1.555,1.555,0,0,0-5.854-1.906ZM11.515-13.824h3.039V.5H11.515V-.167A3.813,3.813,0,0,1,8.947.711,3.766,3.766,0,0,1,5.9-.679a5.519,5.519,0,0,1-1.112-3.61A5.972,5.972,0,0,1,6.007-8.183,4.1,4.1,0,0,1,9.334-9.711a3.516,3.516,0,0,1,2.181.662Zm2.039,1H12.515v5.572h-.726a2.79,2.79,0,0,1,.753,1.961v1.178a3.451,3.451,0,0,1-.63,2.084h.6V-.5h1.039ZM11.567-7.465l-.023-.04a2.329,2.329,0,0,0-2.21-1.205A3.107,3.107,0,0,0,6.781-7.549a5.009,5.009,0,0,0-.99,3.26,4.561,4.561,0,0,0,.883,2.973A2.773,2.773,0,0,0,8.947-.289a2.744,2.744,0,0,0,2.366-1.128,2.635,2.635,0,0,1-1.619.511A2.531,2.531,0,0,1,7.61-1.892a3.9,3.9,0,0,1-.736-2.476,4.294,4.294,0,0,1,.758-2.669A2.629,2.629,0,0,1,9.826-8.085,2.584,2.584,0,0,1,11.567-7.465ZM9.694-1.906A1.624,1.624,0,0,0,11.009-2.5a2.394,2.394,0,0,0,.532-1.615V-5.291a1.8,1.8,0,0,0-.489-1.285,1.588,1.588,0,0,0-1.225-.509,1.653,1.653,0,0,0-1.4.657,3.341,3.341,0,0,0-.551,2.06,2.942,2.942,0,0,0,.521,1.857A1.555,1.555,0,0,0,9.694-1.906ZM2.2-13.71a1.736,1.736,0,0,1,1.219.467,1.6,1.6,0,0,1,.52,1.2,1.583,1.583,0,0,1-.518,1.177A1.727,1.727,0,0,1,2.2-10.39,1.717,1.717,0,0,1,1-10.846a1.576,1.576,0,0,1-.519-1.2A1.605,1.605,0,0,1,1-13.241,1.7,1.7,0,0,1,2.2-13.71Zm0,2.32a.738.738,0,0,0,.537-.2.576.576,0,0,0,.2-.448.591.591,0,0,0-.2-.468.747.747,0,0,0-.539-.2.71.71,0,0,0-.515.2.6.6,0,0,0-.2.47.571.571,0,0,0,.193.457A.727.727,0,0,0,2.2-11.39ZM-29.425-13.1H-25.1a5.563,5.563,0,0,1,3.689,1.129A4.017,4.017,0,0,1-20.04-8.745a4.433,4.433,0,0,1-1.406,3.371,5.24,5.24,0,0,1-3.717,1.3h-1.179V.5h-3.083Zm4.262,8.033A4.224,4.224,0,0,0-22.13-6.1a3.425,3.425,0,0,0,1.09-2.641,3.024,3.024,0,0,0-1.018-2.466A4.612,4.612,0,0,0-25.1-12.1h-3.323V-.5h1.083V-5.07Zm-2.179-6.311h2.021a3.389,3.389,0,0,1,2.264.677,2.563,2.563,0,0,1,.82,2.047,2.715,2.715,0,0,1-.871,2.132,3.481,3.481,0,0,1-2.38.75h-1.854Zm1.854,4.605a2.538,2.538,0,0,0,1.716-.5,1.738,1.738,0,0,0,.535-1.384c0-.8-.237-1.724-2.084-1.724h-1.021v3.605Zm10-2.936a4.04,4.04,0,0,1,3.237,1.362,5.427,5.427,0,0,1,1.13,3.62v1.282H-17.2a1.857,1.857,0,0,0,.555,1.057,2.365,2.365,0,0,0,1.678.544,3.925,3.925,0,0,0,2.355-.768l.791-.566V-.286l-.234.147a6.554,6.554,0,0,1-3.518.85A4.522,4.522,0,0,1-19.058-.676a5.4,5.4,0,0,1-1.262-3.788A5.3,5.3,0,0,1-18.94-8.231,4.568,4.568,0,0,1-15.486-9.711Zm3.367,5.265v-.282A4.472,4.472,0,0,0-13.011-7.7a3.047,3.047,0,0,0-2.476-1.011,3.557,3.557,0,0,0-2.725,1.165,4.278,4.278,0,0,0-1.108,3.081,4.45,4.45,0,0,0,1,3.111A3.519,3.519,0,0,0-15.574-.289a5.917,5.917,0,0,0,2.752-.562V-1.33a4.9,4.9,0,0,1-2.146.485,3.354,3.354,0,0,1-2.356-.809,3.083,3.083,0,0,1-.93-2.278l-.014-.514ZM20.927-9.711a4.815,4.815,0,0,1,3.65,1.395,5.287,5.287,0,0,1,1.315,3.781,5.219,5.219,0,0,1-1.413,3.8A5.062,5.062,0,0,1,20.707.711,4.961,4.961,0,0,1,17.024-.7a5.057,5.057,0,0,1-1.388-3.7,5.24,5.24,0,0,1,1.446-3.9A5.269,5.269,0,0,1,20.927-9.711Zm-.22,9.422a4.049,4.049,0,0,0,3.057-1.146,4.2,4.2,0,0,0,1.127-3.1,4.331,4.331,0,0,0-1.04-3.092,3.81,3.81,0,0,0-2.925-1.084A4.252,4.252,0,0,0,17.784-7.58a4.229,4.229,0,0,0-1.147,3.185,4.042,4.042,0,0,0,1.1,2.993A3.949,3.949,0,0,0,20.707-.289Zm7.6-9.343a1.769,1.769,0,0,1,1.252.487,1.626,1.626,0,0,1,.531,1.208,1.6,1.6,0,0,1-.533,1.2,1.778,1.778,0,0,1-1.25.481,1.751,1.751,0,0,1-1.239-.483,1.608,1.608,0,0,1-.527-1.195,1.633,1.633,0,0,1,.524-1.206A1.742,1.742,0,0,1,28.31-9.632Zm0,2.373a.787.787,0,0,0,.569-.213.6.6,0,0,0,.214-.464.617.617,0,0,0-.216-.48.779.779,0,0,0-.567-.216.753.753,0,0,0-.552.214.622.622,0,0,0-.214.482.6.6,0,0,0,.212.466A.761.761,0,0,0,28.31-7.259ZM.669-9.5H3.708V.5H.669Zm2.039,1H1.669v8H2.708Zm-18.221.292a2.218,2.218,0,0,1,1.79.79,3.118,3.118,0,0,1,.635,2.026l0,.5h-5.242l.077-.567a3.432,3.432,0,0,1,.885-1.956A2.47,2.47,0,0,1-15.513-8.208Zm1.386,2.32a1.793,1.793,0,0,0-.364-.889,1.231,1.231,0,0,0-1.022-.431,1.486,1.486,0,0,0-1.128.486,2.178,2.178,0,0,0-.49.834Zm34.93-2.2a2.716,2.716,0,0,1,2.241,1A4.086,4.086,0,0,1,23.8-4.482a4.032,4.032,0,0,1-.757,2.591A2.727,2.727,0,0,1,20.8-.906a2.851,2.851,0,0,1-2.259-.986,3.787,3.787,0,0,1-.825-2.555,3.991,3.991,0,0,1,.81-2.622A2.816,2.816,0,0,1,20.8-8.085Zm0,6.179a1.752,1.752,0,0,0,1.461-.614A3.085,3.085,0,0,0,22.8-4.482a3.139,3.139,0,0,0-.537-1.982A1.742,1.742,0,0,0,20.8-7.085,1.836,1.836,0,0,0,19.3-6.43a3.036,3.036,0,0,0-.579,1.983,2.83,2.83,0,0,0,.581,1.9A1.868,1.868,0,0,0,20.8-1.906ZM28.31-2.68a1.769,1.769,0,0,1,1.252.487,1.626,1.626,0,0,1,.531,1.208,1.6,1.6,0,0,1-.533,1.2,1.778,1.778,0,0,1-1.25.481A1.751,1.751,0,0,1,27.071.21a1.608,1.608,0,0,1-.527-1.195,1.633,1.633,0,0,1,.524-1.206A1.742,1.742,0,0,1,28.31-2.68Zm0,2.373a.787.787,0,0,0,.569-.213.6.6,0,0,0,.214-.464.617.617,0,0,0-.216-.48.779.779,0,0,0-.567-.216.753.753,0,0,0-.552.214.622.622,0,0,0-.214.482.6.6,0,0,0,.212.466A.761.761,0,0,0,28.31-.307ZM-18.926,10.615H-17.4V24.5h-3.039V14.506q-.24.127-.492.236a10.362,10.362,0,0,1-1.529.513l-.625.161v-.948l-.452,2.042h-1.991l-.3,1.426h2.2l-.558,2.23H-26.3l-.721,3.252h-2.418l.7-3.252h-1.1l-.686,3.252h-2.419l.686-3.252h-2.006l.446-2.23h2.039l.284-1.426h-2.149l.462-2.23h2.145l.7-3.384H-27.9l-.694,3.384h1.109l.721-3.384h2.408l-.7,3.384h1.97V12.669l.344-.113c.33-.108.652-.223.959-.342s.6-.25.9-.4.6-.311.9-.491.615-.387.936-.618Zm.522,1h-.2c-.3.21-.592.4-.874.571-.323.193-.648.371-.966.529s-.648.3-.977.431c-.215.084-.438.166-.666.245v.717c.272-.088.525-.182.755-.282a6.025,6.025,0,0,0,1.1-.621l.791-.565V23.5H-18.4Zm-10.721.281h-.4l-.7,3.384h-2.144l-.048.23h2.14l-.683,3.426H-33l-.046.23h2.019l-.686,3.252h.375l.686-3.252H-27.5l-.7,3.252h.376l.721-3.252h2.138l.058-.23h-2.155l.72-3.426h2l.051-.23h-2l.7-3.384h-.369l-.721,3.384h-3.145Zm17.875-1.211a5.54,5.54,0,0,1,1.7.248,3.8,3.8,0,0,1,1.364.76,3.406,3.406,0,0,1,.891,1.27,4.408,4.408,0,0,1,.306,1.685A5.166,5.166,0,0,1-7.2,16.172a4.972,4.972,0,0,1-.6,1.265,6.433,6.433,0,0,1-.91,1.087c-.336.324-.715.661-1.127,1-.345.28-.689.552-1.028.814s-.619.5-.876.736a3.793,3.793,0,0,0-.579.658l-.011.017h5.532V24.5h-8.91V23.024a4.179,4.179,0,0,1,.191-1.273,5.055,5.055,0,0,1,.5-1.093,6.011,6.011,0,0,1,.719-.949c.262-.283.546-.561.844-.825s.6-.514.9-.756.586-.472.869-.708c.256-.217.5-.435.708-.645a4.011,4.011,0,0,0,.508-.605,2.6,2.6,0,0,0,.31-.623,2.154,2.154,0,0,0,.106-.688,1.805,1.805,0,0,0-.116-.684,1.2,1.2,0,0,0-.3-.444,1.332,1.332,0,0,0-.479-.275,2.086,2.086,0,0,0-.666-.1,3.333,3.333,0,0,0-1.368.316,4.913,4.913,0,0,0-1.394.983l-.849.829v-3.4l.2-.15a6.962,6.962,0,0,1,.843-.545A5.857,5.857,0,0,1-13.293,11a5.563,5.563,0,0,1,.976-.237A7.191,7.191,0,0,1-11.25,10.686Zm3.455,12.065h-5.687v-.544a1.835,1.835,0,0,1,.335-1.03,4.786,4.786,0,0,1,.731-.836c.279-.258.6-.524.943-.793s.671-.525,1.006-.8c.389-.321.749-.641,1.066-.947a5.432,5.432,0,0,0,.769-.917,3.972,3.972,0,0,0,.476-1.011,4.173,4.173,0,0,0,.167-1.228,3.42,3.42,0,0,0-.23-1.3,2.382,2.382,0,0,0-.629-.9,2.812,2.812,0,0,0-1.009-.558,4.546,4.546,0,0,0-1.393-.2,6.19,6.19,0,0,0-.919.065,4.561,4.561,0,0,0-.8.194,4.854,4.854,0,0,0-.741.327,5.769,5.769,0,0,0-.521.322v.641a5.263,5.263,0,0,1,.833-.474,4.323,4.323,0,0,1,1.779-.4,3.081,3.081,0,0,1,.986.154,2.344,2.344,0,0,1,.83.481,2.2,2.2,0,0,1,.558.8,2.791,2.791,0,0,1,.191,1.065,3.15,3.15,0,0,1-.158,1.008,3.6,3.6,0,0,1-.429.863,5.011,5.011,0,0,1-.635.757c-.231.228-.488.462-.766.7s-.591.488-.891.726-.579.473-.858.721-.534.5-.773.757a5.009,5.009,0,0,0-.6.791,4.055,4.055,0,0,0-.4.876,3.182,3.182,0,0,0-.143.969V23.5h6.91Zm6.31-12.065a4.561,4.561,0,0,1,3.01.96,3.181,3.181,0,0,1,1.19,2.546,3.476,3.476,0,0,1-1.572,3.1,3.418,3.418,0,0,1,1.054.743,3.339,3.339,0,0,1,.931,2.4A3.857,3.857,0,0,1,1.67,23.557,5.645,5.645,0,0,1-2,24.711a6.236,6.236,0,0,1-3.247-.749l-.241-.146V20.584l.811.643a3.834,3.834,0,0,0,2.467.867,2.772,2.772,0,0,0,1.706-.469,1.338,1.338,0,0,0,.554-1.149c0-.45,0-1.645-2.778-1.645H-4.209V16.2h1.432c2.409,0,2.409-1.105,2.409-1.521,0-.674-.21-1.363-1.768-1.363a3.205,3.205,0,0,0-2.067.794l-.815.661V11.614l.255-.143A6.612,6.612,0,0,1-1.485,10.686ZM-2,23.711a4.681,4.681,0,0,0,3.041-.929,2.863,2.863,0,0,0,1.091-2.351,2.34,2.34,0,0,0-.651-1.705,2.81,2.81,0,0,0-1.841-.8l-.452-.044v-.868l.365-.1a2.581,2.581,0,0,0,2.167-2.718,2.194,2.194,0,0,0-.831-1.778,3.6,3.6,0,0,0-2.369-.728,5.8,5.8,0,0,0-2.532.524v.577a3.991,3.991,0,0,1,1.882-.475c2.408,0,2.768,1.481,2.768,2.363A2.232,2.232,0,0,1-.31,16.6a4.264,4.264,0,0,1-2.467.595h-.432v.635h.476c3.123,0,3.778,1.438,3.778,2.645A2.326,2.326,0,0,1,.1,22.42a3.733,3.733,0,0,1-2.311.673,4.831,4.831,0,0,1-2.277-.554v.7A5.666,5.666,0,0,0-2,23.711ZM20.215,10.686a8.512,8.512,0,0,1,1.378.1,4.035,4.035,0,0,1,1.069.305l.285.136V14.2l-.727-.371a5.586,5.586,0,0,0-.879-.355,3.47,3.47,0,0,0-1.021-.136,2.632,2.632,0,0,0-1.146.25,2.5,2.5,0,0,0-.9.733,3.851,3.851,0,0,0-.627,1.261,5.037,5.037,0,0,0-.135.56q.146-.1.3-.178a3.965,3.965,0,0,1,1.853-.417,4.46,4.46,0,0,1,1.677.3,3.636,3.636,0,0,1,1.313.9,3.98,3.98,0,0,1,.831,1.405,5.414,5.414,0,0,1,.283,1.8,5.153,5.153,0,0,1-.348,1.917,4.574,4.574,0,0,1-.972,1.513,4.38,4.38,0,0,1-1.482.992,4.815,4.815,0,0,1-1.838.349,4.608,4.608,0,0,1-1.955-.416,4.251,4.251,0,0,1-1.553-1.242,5.8,5.8,0,0,1-.98-1.985,9.564,9.564,0,0,1-.336-2.658,11.077,11.077,0,0,1,.44-3.25,7.341,7.341,0,0,1,1.234-2.432,5.427,5.427,0,0,1,1.888-1.527A5.351,5.351,0,0,1,20.215,10.686Zm1.732,1.205a4.251,4.251,0,0,0-.518-.115,7.514,7.514,0,0,0-1.215-.09,4.359,4.359,0,0,0-1.91.425,4.435,4.435,0,0,0-1.54,1.25,6.353,6.353,0,0,0-1.06,2.1,10.086,10.086,0,0,0-.4,2.955,8.576,8.576,0,0,0,.3,2.378,4.814,4.814,0,0,0,.8,1.645A3.261,3.261,0,0,0,17.6,23.4a3.616,3.616,0,0,0,1.534.323,3.821,3.821,0,0,0,1.458-.275,3.386,3.386,0,0,0,1.146-.766,3.579,3.579,0,0,0,.759-1.185,4.159,4.159,0,0,0,.276-1.546,4.422,4.422,0,0,0-.227-1.465,2.988,2.988,0,0,0-.619-1.056,2.644,2.644,0,0,0-.955-.65,3.469,3.469,0,0,0-1.3-.232,2.981,2.981,0,0,0-1.39.3,2.334,2.334,0,0,0-.906.813l-.148.228H16.4l0-.5a7.416,7.416,0,0,1,.29-2.1,4.839,4.839,0,0,1,.8-1.587,3.528,3.528,0,0,1,1.254-1.016,3.623,3.623,0,0,1,1.578-.348,4.46,4.46,0,0,1,1.317.181q.157.049.31.1Zm6.986-1.205a4.975,4.975,0,0,1,1.675.275,4.294,4.294,0,0,1,1.352.767,3.57,3.57,0,0,1,.913,1.185,3.428,3.428,0,0,1,.33,1.49,3.279,3.279,0,0,1-.569,1.866,4.152,4.152,0,0,1-.735.825,3.777,3.777,0,0,1,.315.229A3.79,3.79,0,0,1,33.5,19.288a4.5,4.5,0,0,1,.159,1.2A4.163,4.163,0,0,1,33.31,22.2a3.91,3.91,0,0,1-.987,1.344,4.5,4.5,0,0,1-1.492.857,5.623,5.623,0,0,1-1.871.3,5.556,5.556,0,0,1-1.859-.3,4.56,4.56,0,0,1-1.489-.855,3.934,3.934,0,0,1-1-1.343,4.119,4.119,0,0,1-.357-1.719,4.587,4.587,0,0,1,.153-1.184,3.894,3.894,0,0,1,.469-1.079,3.8,3.8,0,0,1,.789-.891,3.58,3.58,0,0,1,.316-.234,4.068,4.068,0,0,1-.745-.829,3.278,3.278,0,0,1-.569-1.866,3.41,3.41,0,0,1,.336-1.5,3.622,3.622,0,0,1,.917-1.182,4.238,4.238,0,0,1,1.349-.763A4.983,4.983,0,0,1,28.934,10.686ZM28.96,23.7a4.629,4.629,0,0,0,1.539-.244,3.506,3.506,0,0,0,1.163-.664,2.917,2.917,0,0,0,.736-1,3.171,3.171,0,0,0,.264-1.307,3.5,3.5,0,0,0-.123-.931,2.79,2.79,0,0,0-.953-1.454,3.07,3.07,0,0,0-.828-.471l-.98-.379.912-.521a3.306,3.306,0,0,0,1.117-1.019,2.265,2.265,0,0,0,.4-1.307,2.4,2.4,0,0,0-.232-1.059,2.576,2.576,0,0,0-.66-.854,3.3,3.3,0,0,0-1.039-.586,4.241,4.241,0,0,0-2.667,0,3.244,3.244,0,0,0-1.033.581,2.628,2.628,0,0,0-.665.857,2.386,2.386,0,0,0-.236,1.065,2.265,2.265,0,0,0,.4,1.307,3.259,3.259,0,0,0,1.13,1.017l.934.523-1,.381a2.907,2.907,0,0,0-.826.471,2.8,2.8,0,0,0-.582.656,2.9,2.9,0,0,0-.348.8,3.586,3.586,0,0,0-.119.926,3.127,3.127,0,0,0,.267,1.3,2.94,2.94,0,0,0,.744,1,3.566,3.566,0,0,0,1.165.665A4.562,4.562,0,0,0,28.96,23.7ZM5.483,10.9h7.172v2.74H8.114l-.142,2.13c.2-.007.386-.01.562-.01a4.847,4.847,0,0,1,3.441,1.164A4.168,4.168,0,0,1,13.227,20.1a4.342,4.342,0,0,1-1.418,3.373,5.452,5.452,0,0,1-3.776,1.258,6.094,6.094,0,0,1-3-.585L4.782,24V20.81l.779.525a3.99,3.99,0,0,0,2.234.75,2.61,2.61,0,0,0,1.744-.538,1.669,1.669,0,0,0,.6-1.361,1.465,1.465,0,0,0-.6-1.27,3.292,3.292,0,0,0-1.98-.5c-.327,0-1.011.035-2.032.1l-.571.039Zm6.172,1H6.418l-.378,5.591c.74-.046,1.242-.069,1.528-.069a4.235,4.235,0,0,1,2.581.7,2.454,2.454,0,0,1,1,2.07,2.649,2.649,0,0,1-.961,2.128,3.608,3.608,0,0,1-2.386.771,4.657,4.657,0,0,1-2.014-.473V23.4a6.087,6.087,0,0,0,2.251.33,4.494,4.494,0,0,0,3.106-1,3.339,3.339,0,0,0,1.087-2.63,3.169,3.169,0,0,0-.937-2.448,3.9,3.9,0,0,0-2.756-.893c-.317,0-.677.012-1.07.034l-.566.033.28-4.187h4.476Zm17.287.362a2.257,2.257,0,0,1,.9.182,2.227,2.227,0,0,1,.724.5,2.3,2.3,0,0,1,.478.751,2.487,2.487,0,0,1,.172.923,2.386,2.386,0,0,1-.663,1.661,2.317,2.317,0,0,1-.716.5,2.159,2.159,0,0,1-.9.189,2.2,2.2,0,0,1-1.611-.688,2.409,2.409,0,0,1-.656-1.667,2.523,2.523,0,0,1,.16-.893,2.327,2.327,0,0,1,.459-.754,2.17,2.17,0,0,1,.724-.519A2.254,2.254,0,0,1,28.942,12.259Zm0,3.709a1.151,1.151,0,0,0,.484-.1,1.3,1.3,0,0,0,.409-.287,1.386,1.386,0,0,0,.383-.967,1.472,1.472,0,0,0-.1-.554,1.283,1.283,0,0,0-.269-.426,1.215,1.215,0,0,0-.4-.275,1.347,1.347,0,0,0-1.022,0,1.16,1.16,0,0,0-.393.281,1.314,1.314,0,0,0-.262.432,1.506,1.506,0,0,0-.1.54,1.386,1.386,0,0,0,.1.542,1.407,1.407,0,0,0,.279.437,1.2,1.2,0,0,0,.885.376Zm-58.815-.457h3.166l-.732,3.426h-3.178Zm1.929,1h-1.123l-.31,1.426h1.129Zm47.077.67a2.727,2.727,0,0,1,1.123.22,2.242,2.242,0,0,1,.834.638,2.642,2.642,0,0,1,.479.947,4.141,4.141,0,0,1,.147,1.13,3.779,3.779,0,0,1-.158,1.109,2.811,2.811,0,0,1-.483.934,2.316,2.316,0,0,1-.822.649,2.541,2.541,0,0,1-1.1.233,2.321,2.321,0,0,1-1.232-.324,2.692,2.692,0,0,1-.824-.782,3.328,3.328,0,0,1-.461-1.008,4.019,4.019,0,0,1-.145-1.049,2.977,2.977,0,0,1,.163-.971,2.534,2.534,0,0,1,1.34-1.489A2.652,2.652,0,0,1,19.134,17.181Zm.018,4.86a1.554,1.554,0,0,0,.672-.136,1.306,1.306,0,0,0,.47-.37,1.817,1.817,0,0,0,.308-.6,2.783,2.783,0,0,0,.114-.816,3.145,3.145,0,0,0-.108-.856,1.651,1.651,0,0,0-.295-.591,1.234,1.234,0,0,0-.466-.355,1.743,1.743,0,0,0-.713-.132,1.665,1.665,0,0,0-.714.141,1.535,1.535,0,0,0-.822.91,1.979,1.979,0,0,0-.109.646,3.02,3.02,0,0,0,.11.788,2.331,2.331,0,0,0,.322.706,1.675,1.675,0,0,0,.521.493A1.323,1.323,0,0,0,19.151,22.041Zm9.809-4.57a2.691,2.691,0,0,1,1.115.229,2.625,2.625,0,0,1,.862.619,2.746,2.746,0,0,1,.548.907,3.249,3.249,0,0,1-.012,2.22,2.675,2.675,0,0,1-.568.9,2.51,2.51,0,0,1-.871.581,2.866,2.866,0,0,1-1.074.2,3.009,3.009,0,0,1-1.09-.192,2.436,2.436,0,0,1-.877-.575,2.548,2.548,0,0,1-.559-.905,3.3,3.3,0,0,1-.189-1.139,3.089,3.089,0,0,1,.2-1.121,2.765,2.765,0,0,1,.564-.905,2.544,2.544,0,0,1,.873-.6A2.768,2.768,0,0,1,28.96,17.471Zm0,4.649a1.872,1.872,0,0,0,.7-.126,1.5,1.5,0,0,0,.527-.35,1.681,1.681,0,0,0,.355-.564,2.252,2.252,0,0,0,.006-1.507,1.728,1.728,0,0,0-.348-.579,1.609,1.609,0,0,0-.536-.383,1.7,1.7,0,0,0-.7-.14,1.75,1.75,0,0,0-.69.132,1.529,1.529,0,0,0-.533.365,1.771,1.771,0,0,0-.359.58,2.1,2.1,0,0,0-.133.76,2.306,2.306,0,0,0,.128.794,1.535,1.535,0,0,0,.338.554,1.424,1.424,0,0,0,.52.339A2.017,2.017,0,0,0,28.96,22.12Z" transform="translate(238 47)" fill="#707070"/>
        </g>
        <path id="Línea_3" data-name="Línea 3" d="M472,.5H0v-1H472Z" transform="translate(22 101.5)" fill="#707070"/>
        <text id="PREPARADAS-2" data-name="PREPARADAS" transform="translate(260 63.5)" fill="#b4b4b4" font-size="32" font-family="SegoeUI-Semibold, Segoe UI" font-weight="600"><tspan x="-97.969" y="0">PREPARADAS</tspan></text>
        <path id="PREPARADAS_-_Contorno" data-name="PREPARADAS - Contorno" d="M88.2.875A14.2,14.2,0,0,1,86.768.786C86.21.728,85.631.642,85.047.53A16.024,16.024,0,0,1,83.369.119a5.579,5.579,0,0,1-1.356-.587l-.232-.147V-5.849l.836.76a5.443,5.443,0,0,0,1.124.771,9.019,9.019,0,0,0,1.428.6,11.437,11.437,0,0,0,1.527.382,8.041,8.041,0,0,0,1.382.133A5.842,5.842,0,0,0,91.289-3.9a2.081,2.081,0,0,0,.93-1.852,1.966,1.966,0,0,0-.3-1.109,3.54,3.54,0,0,0-.94-.935,10.8,10.8,0,0,0-1.545-.887c-.613-.294-1.281-.605-1.984-.926l-.028-.014c-.768-.41-1.494-.832-2.157-1.253a9.688,9.688,0,0,1-1.8-1.459,6.309,6.309,0,0,1-1.238-1.858,6.091,6.091,0,0,1-.455-2.434,5.672,5.672,0,0,1,.784-3,6.528,6.528,0,0,1,2.029-2.08,9.133,9.133,0,0,1,2.8-1.191,13.134,13.134,0,0,1,3.151-.382,12.554,12.554,0,0,1,5.347.849l.278.138v4.959l-.793-.572a7.738,7.738,0,0,0-4.614-1.281,8.331,8.331,0,0,0-1.555.147,4.426,4.426,0,0,0-1.32.462,2.7,2.7,0,0,0-.892.777,1.758,1.758,0,0,0-.312,1.067,2.092,2.092,0,0,0,.247,1.049,2.867,2.867,0,0,0,.781.849,8.888,8.888,0,0,0,1.39.834c.568.282,1.237.591,1.987.92l.03.014c.792.412,1.549.851,2.252,1.305a10.969,10.969,0,0,1,1.915,1.556,7.052,7.052,0,0,1,1.345,1.942A5.818,5.818,0,0,1,97.125-5.8a6.109,6.109,0,0,1-.756,3.128A6.062,6.062,0,0,1,94.353-.593,8.782,8.782,0,0,1,91.512.536,15.679,15.679,0,0,1,88.2.875ZM82.781-1.181a5.49,5.49,0,0,0,.881.344,15.032,15.032,0,0,0,1.572.385c.556.106,1.108.188,1.638.244A13.22,13.22,0,0,0,88.2-.125a14.679,14.679,0,0,0,3.1-.317,7.788,7.788,0,0,0,2.519-1,5.071,5.071,0,0,0,1.687-1.736A5.133,5.133,0,0,0,96.125-5.8a4.83,4.83,0,0,0-.414-2.047,6.054,6.054,0,0,0-1.155-1.667,9.969,9.969,0,0,0-1.741-1.413c-.672-.434-1.4-.855-2.156-1.25-.758-.332-1.435-.646-2.014-.933a9.875,9.875,0,0,1-1.548-.931,3.855,3.855,0,0,1-1.047-1.151,3.074,3.074,0,0,1-.378-1.545,2.758,2.758,0,0,1,.5-1.652,3.69,3.69,0,0,1,1.218-1.066,5.421,5.421,0,0,1,1.618-.569,9.333,9.333,0,0,1,1.742-.165,9.3,9.3,0,0,1,4.406.977v-2.45a13.056,13.056,0,0,0-4.625-.62,12.134,12.134,0,0,0-2.911.353,8.137,8.137,0,0,0-2.5,1.059A5.536,5.536,0,0,0,83.4-19.107a4.69,4.69,0,0,0-.638,2.482,5.105,5.105,0,0,0,.373,2.035,5.312,5.312,0,0,0,1.043,1.564A8.69,8.69,0,0,0,85.8-11.719c.639.405,1.338.812,2.079,1.208.7.321,1.372.633,1.987.927a11.8,11.8,0,0,1,1.689.972,4.528,4.528,0,0,1,1.2,1.206,2.973,2.973,0,0,1,.464,1.656,3.055,3.055,0,0,1-1.367,2.679,6.667,6.667,0,0,1-3.773.868,9.038,9.038,0,0,1-1.556-.148,12.442,12.442,0,0,1-1.661-.415,10.019,10.019,0,0,1-1.587-.666q-.257-.136-.493-.285ZM80.954.5H75.8L73.787-5.2h-8.1L63.749.5H58.607l8.765-23.406h4.882ZM76.51-.5h3.005L71.559-21.906H68.065L60.049-.5h2.983L64.97-6.2h9.524ZM45.578.5h-6.7V-22.906h6.969c4.236,0,7.474.961,9.624,2.855,2.168,1.911,3.267,4.793,3.267,8.566a11.29,11.29,0,0,1-3.6,8.7C52.759-.6,49.543.5,45.578.5Zm-5.7-1h5.7a12.7,12.7,0,0,0,8.881-3.017,10.328,10.328,0,0,0,3.275-7.967c0-3.474-.985-6.1-2.928-7.816-1.961-1.729-4.977-2.606-8.962-2.606H39.875ZM37.016.5H31.865L29.85-5.2h-8.1L19.811.5H10.654L6.93-5.744A12.114,12.114,0,0,0,6.021-7.1a5.22,5.22,0,0,0-.854-.877,2.68,2.68,0,0,0-.876-.462,3.848,3.848,0,0,0-1.12-.15h-1V.5h-4.7V-22.906H5.344a11.216,11.216,0,0,1,3.042.394,7.283,7.283,0,0,1,2.482,1.218,5.8,5.8,0,0,1,1.683,2.067,6.476,6.476,0,0,1,.606,2.868,7.013,7.013,0,0,1-.38,2.347,6.192,6.192,0,0,1-1.088,1.92A6.643,6.643,0,0,1,10-10.665a7.865,7.865,0,0,1-1.233.595q.169.132.321.271c.311.284.61.58.889.88a10.758,10.758,0,0,1,.844,1.041c.268.374.569.813.894,1.305l.005.008,3.515,5.555,8.2-21.9h4.882Zm-4.444-1h3.005L27.621-21.906H24.128L16.112-.5h2.983l1.937-5.7h9.524ZM11.221-.5h3.152l-3.5-5.525c-.317-.48-.609-.907-.869-1.269a9.761,9.761,0,0,0-.765-.944c-.26-.28-.54-.557-.83-.823a5.3,5.3,0,0,0-.971-.691L7.188-9.9v-.741l.374-.1a7.346,7.346,0,0,0,1.924-.789,5.646,5.646,0,0,0,1.436-1.212,5.2,5.2,0,0,0,.912-1.611,6.019,6.019,0,0,0,.323-2.013,5.491,5.491,0,0,0-.5-2.429,4.813,4.813,0,0,0-1.4-1.714A6.29,6.29,0,0,0,8.114-21.55a10.22,10.22,0,0,0-2.77-.356H-1.531V-.5h2.7V-9.594h2A4.841,4.841,0,0,1,4.584-9.4a3.676,3.676,0,0,1,1.2.632A6.213,6.213,0,0,1,6.807-7.723a13.078,13.078,0,0,1,.984,1.471ZM-4.39.5H-9.541l-2.016-5.7h-8.1L-21.595.5h-5.142l8.765-23.406h4.882Zm-4.444-1h3.005l-7.956-21.406h-3.493L-25.294-.5h2.983l1.937-5.7h9.524ZM-35.812.5h-4.7V-22.906h7.3a9.519,9.519,0,0,1,6.307,1.915,6.77,6.77,0,0,1,2.3,5.444,7.506,7.506,0,0,1-2.377,5.709,8.942,8.942,0,0,1-6.342,2.213h-2.484Zm-3.7-1h2.7V-8.625h3.484a7.982,7.982,0,0,0,5.658-1.943,6.459,6.459,0,0,0,2.061-4.979,5.742,5.742,0,0,0-1.948-4.681,8.568,8.568,0,0,0-5.662-1.679h-6.3ZM-43.5.5H-57.078V-22.906H-44v4.156h-8.359v5.344h7.7v4.141h-7.7v5.625H-43.5Zm-12.578-1H-44.5V-2.641h-8.859v-7.625h7.7v-2.141h-7.7V-19.75H-45v-2.156H-56.078Zm-2.2,1h-5.536l-3.724-6.244A12.12,12.12,0,0,0-68.448-7.1a5.22,5.22,0,0,0-.854-.877,2.681,2.681,0,0,0-.876-.462,3.848,3.848,0,0,0-1.12-.15h-1V.5H-77V-22.906h7.875a11.216,11.216,0,0,1,3.042.394A7.283,7.283,0,0,1-63.6-21.295a5.8,5.8,0,0,1,1.683,2.067,6.476,6.476,0,0,1,.606,2.868,7.014,7.014,0,0,1-.38,2.347,6.193,6.193,0,0,1-1.088,1.92,6.643,6.643,0,0,1-1.689,1.428,7.865,7.865,0,0,1-1.233.595q.169.132.321.271c.311.284.61.58.889.88a10.758,10.758,0,0,1,.844,1.041c.268.373.569.813.894,1.305l.005.008Zm-4.968-1H-60.1l-3.5-5.526c-.317-.48-.609-.907-.869-1.269a9.761,9.761,0,0,0-.765-.944c-.26-.28-.54-.557-.83-.823a5.293,5.293,0,0,0-.971-.691l-.254-.143v-.741l.374-.1a7.346,7.346,0,0,0,1.924-.789,5.645,5.645,0,0,0,1.436-1.212,5.2,5.2,0,0,0,.912-1.611,6.019,6.019,0,0,0,.323-2.013,5.491,5.491,0,0,0-.5-2.429,4.813,4.813,0,0,0-1.4-1.714,6.289,6.289,0,0,0-2.143-1.048,10.219,10.219,0,0,0-2.77-.356H-76V-.5h2.7V-9.594h2a4.841,4.841,0,0,1,1.412.194,3.676,3.676,0,0,1,1.2.632,6.213,6.213,0,0,1,1.021,1.045,13.082,13.082,0,0,1,.984,1.471ZM-91,.5h-4.7V-22.906h7.3A9.519,9.519,0,0,1-82.1-20.991a6.77,6.77,0,0,1,2.3,5.444,7.506,7.506,0,0,1-2.377,5.709,8.942,8.942,0,0,1-6.342,2.213H-91Zm-3.7-1H-92V-8.625h3.484a7.982,7.982,0,0,0,5.658-1.943A6.459,6.459,0,0,0-80.8-15.547a5.742,5.742,0,0,0-1.948-4.681,8.568,8.568,0,0,0-5.662-1.679h-6.3ZM46.047-2.641H42.578V-19.75h3.609c2.835,0,5.006.708,6.453,2.105s2.188,3.506,2.188,6.254A8.7,8.7,0,0,1,52.5-4.941,8.815,8.815,0,0,1,46.047-2.641Zm-2.469-1h2.469A7.86,7.86,0,0,0,51.8-5.652a7.748,7.748,0,0,0,2.031-5.738c0-2.467-.633-4.329-1.882-5.535s-3.191-1.825-5.758-1.825H43.578ZM73.86-8.234H65.6l3.306-9.6a8.732,8.732,0,0,0,.291-1.321l.067-.422h.916l.068.42a10.307,10.307,0,0,0,.277,1.327ZM67-9.234h5.455l-2.741-7.879Zm-37.076,1H21.658l3.306-9.6a8.733,8.733,0,0,0,.291-1.321l.067-.422h.916l.068.42a10.308,10.308,0,0,0,.278,1.328Zm-6.862-1h5.455l-2.741-7.879Zm-34.545,1h-8.264l3.306-9.6a8.729,8.729,0,0,0,.291-1.321l.067-.422h.916l.068.42a10.306,10.306,0,0,0,.277,1.327Zm-6.862-1h5.455l-2.741-7.88Zm-15.56-1.422h-2.906v-9.188h3.2c4.21,0,5.094,2.422,5.094,4.453a4.454,4.454,0,0,1-1.418,3.5A5.819,5.819,0,0,1-33.906-10.656Zm-1.906-1h1.906A4.875,4.875,0,0,0-30.6-12.64a3.455,3.455,0,0,0,1.082-2.751c0-2.356-1.3-3.453-4.094-3.453h-2.2Zm-53.281,1H-92v-9.188h3.2c4.21,0,5.094,2.422,5.094,4.453a4.454,4.454,0,0,1-1.418,3.5A5.819,5.819,0,0,1-89.094-10.656Zm-1.906-1h1.906a4.875,4.875,0,0,0,3.309-.983A3.455,3.455,0,0,0-84.7-15.391c0-2.356-1.3-3.453-4.094-3.453H-91Zm95.766.047H1.172v-8.281H4.8a4.743,4.743,0,0,1,3.255,1.033,3.69,3.69,0,0,1,1.183,2.889,4.7,4.7,0,0,1-.335,1.8,3.978,3.978,0,0,1-.948,1.392,4.143,4.143,0,0,1-1.429.871A5.1,5.1,0,0,1,4.766-11.609Zm-2.594-1H4.766a4.11,4.11,0,0,0,1.414-.235,3.15,3.15,0,0,0,1.087-.66,2.985,2.985,0,0,0,.709-1.046,3.7,3.7,0,0,0,.259-1.418,2.7,2.7,0,0,0-.849-2.143A3.8,3.8,0,0,0,4.8-18.891H2.172Zm-71.875,1H-73.3v-8.281h3.625a4.743,4.743,0,0,1,3.255,1.033,3.69,3.69,0,0,1,1.183,2.889,4.694,4.694,0,0,1-.335,1.8,3.977,3.977,0,0,1-.948,1.392,4.143,4.143,0,0,1-1.429.871A5.1,5.1,0,0,1-69.7-11.609Zm-2.594-1H-69.7a4.11,4.11,0,0,0,1.414-.235A3.149,3.149,0,0,0-67.2-13.5a2.984,2.984,0,0,0,.709-1.046,3.7,3.7,0,0,0,.259-1.418,2.7,2.7,0,0,0-.848-2.143,3.8,3.8,0,0,0-2.589-.779H-72.3Z" transform="translate(260 63.5)" fill="#707070"/>
        <g id="Barra_de_navegacion_pedidos_hechos-3" data-name="Barra de navegacion pedidos hechos" transform="translate(528.508)">
          <g id="Barra_de_navegacion-3" data-name="Barra de navegacion" fill="#424242">
            <path d="M 27.99183082580566 872.5 L 0.500052273273468 872.5 L 0.500052273273468 0.5 L 27.99183082580566 0.5 L 27.99183082580566 14.32577800750732 L 27.99183082580566 872.5 Z" stroke="none"/>
            <path d="M 1.000051498413086 1 L 1.000051498413086 872 L 27.49183082580566 872 L 27.49183082580566 1 L 1.000051498413086 1 M 5.14984130859375e-05 0 L 28.49183082580566 0 L 28.49183082580566 873 L 5.14984130859375e-05 873 L 5.14984130859375e-05 0 Z" stroke="none" fill="#707070"/>
          </g>
          <g id="Barra-3" data-name="Barra" transform="translate(0.5 24.191)" fill="#686868" stroke="#707070" stroke-width="1">
            <rect width="27.992" height="412" stroke="none"/>
            <rect x="0.5" y="0.5" width="26.992" height="411" fill="none"/>
          </g>
          <g id="boton_barra_de_navegacion-5" data-name="boton barra de navegacion" transform="translate(0.5 850.809)">
            <g id="Rectángulo_2-5" data-name="Rectángulo 2" fill="#424242" stroke="#707070" stroke-width="1">
              <rect width="27.992" height="22" stroke="none"/>
              <rect x="0.5" y="0.5" width="26.992" height="21" fill="none"/>
            </g>
            <g id="Polígono_1-5" data-name="Polígono 1" transform="translate(23.992 16) rotate(180)" fill="#686868">
              <path d="M 18.92463874816895 11.5 L 1.067243695259094 11.5 L 9.995941162109375 0.781211256980896 L 18.92463874816895 11.5 Z" stroke="none"/>
              <path d="M 9.995941162109375 1.562424659729004 L 2.134487152099609 11 L 17.85739517211914 11 L 9.995941162109375 1.562424659729004 M 9.995941162109375 0 L 19.99188041687012 12 L 1.9073486328125e-06 12 L 9.995941162109375 0 Z" stroke="none" fill="#707070"/>
            </g>
          </g>
          <g id="boton_barra_de_navegacion-6" data-name="boton barra de navegacion" transform="translate(0.5 0.191)">
            <g id="Rectángulo_2-6" data-name="Rectángulo 2" fill="#424242" stroke="#707070" stroke-width="1">
              <rect width="27.992" height="22" stroke="none"/>
              <rect x="0.5" y="0.5" width="26.992" height="21" fill="none"/>
            </g>
            <g id="Polígono_1-6" data-name="Polígono 1" transform="translate(4 4)" fill="#686868">
              <path d="M 18.86191368103027 10.5 L 1.129968881607056 10.5 L 9.995941162109375 0.7434692978858948 L 18.86191368103027 10.5 Z" stroke="none"/>
              <path d="M 9.995941162109375 1.4869384765625 L 2.259937286376953 10 L 17.7319450378418 10 L 9.995941162109375 1.4869384765625 M 9.995941162109375 0 L 19.99188041687012 11 L 1.9073486328125e-06 11 L 9.995941162109375 0 Z" stroke="none" fill="#707070"/>
            </g>
          </g>
        </g>
        <g id="detalle_extendido-7" data-name="detalle extendido" transform="translate(20 247.762)">
          <rect id="Rectángulo_16-6" data-name="Rectángulo 16" width="476" height="443" rx="16" transform="translate(0 0.238)" fill="#2f2f2f"/>
          <path id="Rectángulo_16_-_Contorno-2" data-name="Rectángulo 16 - Contorno" d="M16,1A15,15,0,0,0,1,16V427a15,15,0,0,0,15,15H460a15,15,0,0,0,15-15V16A15,15,0,0,0,460,1H16m0-1H460a16,16,0,0,1,16,16V427a16,16,0,0,1-16,16H16A16,16,0,0,1,0,427V16A16,16,0,0,1,16,0Z" transform="translate(0 0.238)" fill="#707070"/>
          <g id="Detalle_del_pedido-5" data-name="Detalle del pedido" transform="translate(86 103.309)">
            <g id="Cuadrícula_de_repetición_4-5" data-name="Cuadrícula de repetición 4" clip-path="url(#clip-path-2)">
              <g id="Grupo_2-13" data-name="Grupo 2" transform="translate(-74 -907.921)">
                <text id="_1-13" data-name="1" transform="translate(74 923.921)" fill="#b4b4b4" stroke="#707070" stroke-width="1" font-size="15" font-family="SegoeUI-Semibold, Segoe UI" font-weight="600"><tspan x="0" y="0">1</tspan></text>
                <text id="Pizza_Alfredo_Chicken:_personal_1_jamon_2_queso_Sin_Salsa_por_favor_13" data-name="Pizza Alfredo Chicken: personal
+ 1 jamon + 2 queso 
Sin Salsa por favor " transform="translate(96 923.921)" fill="#b4b4b4" stroke="#707070" stroke-width="1" font-size="20" font-family="SegoeUI-Semibold, Segoe UI" font-weight="600"><tspan x="0" y="0">Pizza Alfredo Chicken: personal</tspan><tspan x="0" y="27">+ 1 jamon + 2 queso </tspan><tspan x="0" y="54">Sin Salsa por favor </tspan></text>
              </g>
              <g id="Grupo_2-14" data-name="Grupo 2" transform="translate(-74 -798.921)">
                <text id="_1-14" data-name="1" transform="translate(74 923.921)" fill="#b4b4b4" stroke="#707070" stroke-width="1" font-size="15" font-family="SegoeUI-Semibold, Segoe UI" font-weight="600"><tspan x="0" y="0">1</tspan></text>
                <text id="Pizza_Alfredo_Chicken:_personal_1_jamon_2_queso_Sin_Salsa_por_favor_14" data-name="Pizza Alfredo Chicken: personal
+ 1 jamon + 2 queso 
Sin Salsa por favor " transform="translate(96 923.921)" fill="#b4b4b4" stroke="#707070" stroke-width="1" font-size="20" font-family="SegoeUI-Semibold, Segoe UI" font-weight="600"><tspan x="0" y="0">Pizza Alfredo Chicken: personal</tspan><tspan x="0" y="27">+ 1 jamon + 2 queso </tspan><tspan x="0" y="54">Sin Salsa por favor </tspan></text>
              </g>
              <g id="Grupo_2-15" data-name="Grupo 2" transform="translate(-74 -689.921)">
                <text id="_1-15" data-name="1" transform="translate(74 923.921)" fill="#b4b4b4" stroke="#707070" stroke-width="1" font-size="15" font-family="SegoeUI-Semibold, Segoe UI" font-weight="600"><tspan x="0" y="0">1</tspan></text>
                <text id="Pizza_Alfredo_Chicken:_personal_1_jamon_2_queso_Sin_Salsa_por_favor_15" data-name="Pizza Alfredo Chicken: personal
+ 1 jamon + 2 queso 
Sin Salsa por favor " transform="translate(96 923.921)" fill="#b4b4b4" stroke="#707070" stroke-width="1" font-size="20" font-family="SegoeUI-Semibold, Segoe UI" font-weight="600"><tspan x="0" y="0">Pizza Alfredo Chicken: personal</tspan><tspan x="0" y="27">+ 1 jamon + 2 queso </tspan><tspan x="0" y="54">Sin Salsa por favor </tspan></text>
              </g>
            </g>
          </g>
          <text id="Pedido:_123568-6" data-name="Pedido:
#123568" transform="translate(238 38.238)" fill="#b4b4b4" font-size="18" font-family="SegoeUI-Semibold, Segoe UI" font-weight="600"><tspan x="-30.48" y="0">Pedido:</tspan><tspan x="-33.952" y="24">#123568</tspan></text>
          <path id="Pedido:_123568_-_Contorno-2" data-name="Pedido:
#123568 - Contorno" d="M-4.033-13.824H-.994V.5H-4.033V-.167A3.813,3.813,0,0,1-6.6.711,3.766,3.766,0,0,1-9.645-.679a5.519,5.519,0,0,1-1.112-3.61A5.972,5.972,0,0,1-9.54-8.183,4.1,4.1,0,0,1-6.214-9.711a3.516,3.516,0,0,1,2.181.662Zm2.039,1H-3.033v5.572H-3.76a2.79,2.79,0,0,1,.753,1.961v1.178a3.451,3.451,0,0,1-.63,2.084h.6V-.5h1.039ZM-3.981-7.466-4-7.506a2.329,2.329,0,0,0-2.21-1.205A3.107,3.107,0,0,0-8.767-7.549a5.009,5.009,0,0,0-.99,3.26,4.561,4.561,0,0,0,.883,2.973A2.773,2.773,0,0,0-6.6-.289,2.744,2.744,0,0,0-4.234-1.417a2.635,2.635,0,0,1-1.619.511,2.531,2.531,0,0,1-2.084-.985,3.9,3.9,0,0,1-.736-2.476,4.294,4.294,0,0,1,.758-2.669A2.628,2.628,0,0,1-5.722-8.085,2.583,2.583,0,0,1-3.981-7.466ZM-5.854-1.906A1.624,1.624,0,0,0-4.539-2.5a2.394,2.394,0,0,0,.532-1.615V-5.291A1.8,1.8,0,0,0-4.5-6.576a1.588,1.588,0,0,0-1.225-.509,1.653,1.653,0,0,0-1.4.657,3.341,3.341,0,0,0-.551,2.06,2.942,2.942,0,0,0,.521,1.857A1.555,1.555,0,0,0-5.854-1.906ZM11.515-13.824h3.039V.5H11.515V-.167A3.813,3.813,0,0,1,8.947.711,3.766,3.766,0,0,1,5.9-.679a5.519,5.519,0,0,1-1.112-3.61A5.972,5.972,0,0,1,6.007-8.183,4.1,4.1,0,0,1,9.334-9.711a3.516,3.516,0,0,1,2.181.662Zm2.039,1H12.515v5.572h-.726a2.79,2.79,0,0,1,.753,1.961v1.178a3.451,3.451,0,0,1-.63,2.084h.6V-.5h1.039ZM11.567-7.465l-.023-.04a2.329,2.329,0,0,0-2.21-1.205A3.107,3.107,0,0,0,6.781-7.549a5.009,5.009,0,0,0-.99,3.26,4.561,4.561,0,0,0,.883,2.973A2.773,2.773,0,0,0,8.947-.289a2.744,2.744,0,0,0,2.366-1.128,2.635,2.635,0,0,1-1.619.511A2.531,2.531,0,0,1,7.61-1.892a3.9,3.9,0,0,1-.736-2.476,4.294,4.294,0,0,1,.758-2.669A2.629,2.629,0,0,1,9.826-8.085,2.584,2.584,0,0,1,11.567-7.465ZM9.694-1.906A1.624,1.624,0,0,0,11.009-2.5a2.394,2.394,0,0,0,.532-1.615V-5.291a1.8,1.8,0,0,0-.489-1.285,1.588,1.588,0,0,0-1.225-.509,1.653,1.653,0,0,0-1.4.657,3.341,3.341,0,0,0-.551,2.06,2.942,2.942,0,0,0,.521,1.857A1.555,1.555,0,0,0,9.694-1.906ZM2.2-13.71a1.736,1.736,0,0,1,1.219.467,1.6,1.6,0,0,1,.52,1.2,1.583,1.583,0,0,1-.518,1.177A1.727,1.727,0,0,1,2.2-10.39,1.717,1.717,0,0,1,1-10.846a1.576,1.576,0,0,1-.519-1.2A1.605,1.605,0,0,1,1-13.241,1.7,1.7,0,0,1,2.2-13.71Zm0,2.32a.738.738,0,0,0,.537-.2.576.576,0,0,0,.2-.448.591.591,0,0,0-.2-.468.747.747,0,0,0-.539-.2.71.71,0,0,0-.515.2.6.6,0,0,0-.2.47.571.571,0,0,0,.193.457A.727.727,0,0,0,2.2-11.39ZM-29.425-13.1H-25.1a5.563,5.563,0,0,1,3.689,1.129A4.017,4.017,0,0,1-20.04-8.745a4.433,4.433,0,0,1-1.406,3.371,5.24,5.24,0,0,1-3.717,1.3h-1.179V.5h-3.083Zm4.262,8.033A4.224,4.224,0,0,0-22.13-6.1a3.425,3.425,0,0,0,1.09-2.641,3.024,3.024,0,0,0-1.018-2.466A4.612,4.612,0,0,0-25.1-12.1h-3.323V-.5h1.083V-5.07Zm-2.179-6.311h2.021a3.389,3.389,0,0,1,2.264.677,2.563,2.563,0,0,1,.82,2.047,2.715,2.715,0,0,1-.871,2.132,3.481,3.481,0,0,1-2.38.75h-1.854Zm1.854,4.605a2.538,2.538,0,0,0,1.716-.5,1.738,1.738,0,0,0,.535-1.384c0-.8-.237-1.724-2.084-1.724h-1.021v3.605Zm10-2.936a4.04,4.04,0,0,1,3.237,1.362,5.427,5.427,0,0,1,1.13,3.62v1.282H-17.2a1.857,1.857,0,0,0,.555,1.057,2.365,2.365,0,0,0,1.678.544,3.925,3.925,0,0,0,2.355-.768l.791-.566V-.286l-.234.147a6.554,6.554,0,0,1-3.518.85A4.522,4.522,0,0,1-19.058-.676a5.4,5.4,0,0,1-1.262-3.788A5.3,5.3,0,0,1-18.94-8.231,4.568,4.568,0,0,1-15.486-9.711Zm3.367,5.265v-.282A4.472,4.472,0,0,0-13.011-7.7a3.047,3.047,0,0,0-2.476-1.011,3.557,3.557,0,0,0-2.725,1.165,4.278,4.278,0,0,0-1.108,3.081,4.45,4.45,0,0,0,1,3.111A3.519,3.519,0,0,0-15.574-.289a5.917,5.917,0,0,0,2.752-.562V-1.33a4.9,4.9,0,0,1-2.146.485,3.354,3.354,0,0,1-2.356-.809,3.083,3.083,0,0,1-.93-2.278l-.014-.514ZM20.927-9.711a4.815,4.815,0,0,1,3.65,1.395,5.287,5.287,0,0,1,1.315,3.781,5.219,5.219,0,0,1-1.413,3.8A5.062,5.062,0,0,1,20.707.711,4.961,4.961,0,0,1,17.024-.7a5.057,5.057,0,0,1-1.388-3.7,5.24,5.24,0,0,1,1.446-3.9A5.269,5.269,0,0,1,20.927-9.711Zm-.22,9.422a4.049,4.049,0,0,0,3.057-1.146,4.2,4.2,0,0,0,1.127-3.1,4.331,4.331,0,0,0-1.04-3.092,3.81,3.81,0,0,0-2.925-1.084A4.252,4.252,0,0,0,17.784-7.58a4.229,4.229,0,0,0-1.147,3.185,4.042,4.042,0,0,0,1.1,2.993A3.949,3.949,0,0,0,20.707-.289Zm7.6-9.343a1.769,1.769,0,0,1,1.252.487,1.626,1.626,0,0,1,.531,1.208,1.6,1.6,0,0,1-.533,1.2,1.778,1.778,0,0,1-1.25.481,1.751,1.751,0,0,1-1.239-.483,1.608,1.608,0,0,1-.527-1.195,1.633,1.633,0,0,1,.524-1.206A1.742,1.742,0,0,1,28.31-9.632Zm0,2.373a.787.787,0,0,0,.569-.213.6.6,0,0,0,.214-.464.617.617,0,0,0-.216-.48.779.779,0,0,0-.567-.216.753.753,0,0,0-.552.214.622.622,0,0,0-.214.482.6.6,0,0,0,.212.466A.761.761,0,0,0,28.31-7.259ZM.669-9.5H3.708V.5H.669Zm2.039,1H1.669v8H2.708Zm-18.221.292a2.218,2.218,0,0,1,1.79.79,3.118,3.118,0,0,1,.635,2.026l0,.5h-5.242l.077-.567a3.432,3.432,0,0,1,.885-1.956A2.47,2.47,0,0,1-15.513-8.208Zm1.386,2.32a1.793,1.793,0,0,0-.364-.889,1.231,1.231,0,0,0-1.022-.431,1.486,1.486,0,0,0-1.128.486,2.178,2.178,0,0,0-.49.834Zm34.93-2.2a2.716,2.716,0,0,1,2.241,1A4.086,4.086,0,0,1,23.8-4.482a4.032,4.032,0,0,1-.757,2.591A2.727,2.727,0,0,1,20.8-.906a2.851,2.851,0,0,1-2.259-.986,3.787,3.787,0,0,1-.825-2.555,3.991,3.991,0,0,1,.81-2.622A2.816,2.816,0,0,1,20.8-8.085Zm0,6.179a1.752,1.752,0,0,0,1.461-.614A3.085,3.085,0,0,0,22.8-4.482a3.139,3.139,0,0,0-.537-1.982A1.742,1.742,0,0,0,20.8-7.085,1.836,1.836,0,0,0,19.3-6.43a3.036,3.036,0,0,0-.579,1.983,2.83,2.83,0,0,0,.581,1.9A1.868,1.868,0,0,0,20.8-1.906ZM28.31-2.68a1.769,1.769,0,0,1,1.252.487,1.626,1.626,0,0,1,.531,1.208,1.6,1.6,0,0,1-.533,1.2,1.778,1.778,0,0,1-1.25.481A1.751,1.751,0,0,1,27.071.21a1.608,1.608,0,0,1-.527-1.195,1.633,1.633,0,0,1,.524-1.206A1.742,1.742,0,0,1,28.31-2.68Zm0,2.373a.787.787,0,0,0,.569-.213.6.6,0,0,0,.214-.464.617.617,0,0,0-.216-.48.779.779,0,0,0-.567-.216.753.753,0,0,0-.552.214.622.622,0,0,0-.214.482.6.6,0,0,0,.212.466A.761.761,0,0,0,28.31-.307ZM-18.926,10.615H-17.4V24.5h-3.039V14.506q-.24.127-.492.236a10.362,10.362,0,0,1-1.529.513l-.625.161v-.948l-.452,2.042h-1.991l-.3,1.426h2.2l-.558,2.23H-26.3l-.721,3.252h-2.418l.7-3.252h-1.1l-.686,3.252h-2.419l.686-3.252h-2.006l.446-2.23h2.039l.284-1.426h-2.149l.462-2.23h2.145l.7-3.384H-27.9l-.694,3.384h1.109l.721-3.384h2.408l-.7,3.384h1.97V12.669l.344-.113c.33-.108.652-.223.959-.342s.6-.25.9-.4.6-.311.9-.491.615-.387.936-.618Zm.522,1h-.2c-.3.21-.592.4-.874.571-.323.193-.648.371-.966.529s-.648.3-.977.431c-.215.084-.438.166-.666.245v.717c.272-.088.525-.182.755-.282a6.025,6.025,0,0,0,1.1-.621l.791-.565V23.5H-18.4Zm-10.721.281h-.4l-.7,3.384h-2.144l-.048.23h2.14l-.683,3.426H-33l-.046.23h2.019l-.686,3.252h.375l.686-3.252H-27.5l-.7,3.252h.376l.721-3.252h2.138l.058-.23h-2.155l.72-3.426h2l.051-.23h-2l.7-3.384h-.369l-.721,3.384h-3.145Zm17.875-1.211a5.54,5.54,0,0,1,1.7.248,3.8,3.8,0,0,1,1.364.76,3.406,3.406,0,0,1,.891,1.27,4.408,4.408,0,0,1,.306,1.685A5.166,5.166,0,0,1-7.2,16.172a4.972,4.972,0,0,1-.6,1.265,6.433,6.433,0,0,1-.91,1.087c-.336.324-.715.661-1.127,1-.345.28-.689.552-1.028.814s-.619.5-.876.736a3.793,3.793,0,0,0-.579.658l-.011.017h5.532V24.5h-8.91V23.024a4.179,4.179,0,0,1,.191-1.273,5.055,5.055,0,0,1,.5-1.093,6.011,6.011,0,0,1,.719-.949c.262-.283.546-.561.844-.825s.6-.514.9-.756.586-.472.869-.708c.256-.217.5-.435.708-.645a4.011,4.011,0,0,0,.508-.605,2.6,2.6,0,0,0,.31-.623,2.154,2.154,0,0,0,.106-.688,1.805,1.805,0,0,0-.116-.684,1.2,1.2,0,0,0-.3-.444,1.332,1.332,0,0,0-.479-.275,2.086,2.086,0,0,0-.666-.1,3.333,3.333,0,0,0-1.368.316,4.913,4.913,0,0,0-1.394.983l-.849.829v-3.4l.2-.15a6.962,6.962,0,0,1,.843-.545A5.857,5.857,0,0,1-13.293,11a5.563,5.563,0,0,1,.976-.237A7.191,7.191,0,0,1-11.25,10.686Zm3.455,12.065h-5.687v-.544a1.835,1.835,0,0,1,.335-1.03,4.786,4.786,0,0,1,.731-.836c.279-.258.6-.524.943-.793s.671-.525,1.006-.8c.389-.321.749-.641,1.066-.947a5.432,5.432,0,0,0,.769-.917,3.972,3.972,0,0,0,.476-1.011,4.173,4.173,0,0,0,.167-1.228,3.42,3.42,0,0,0-.23-1.3,2.382,2.382,0,0,0-.629-.9,2.812,2.812,0,0,0-1.009-.558,4.546,4.546,0,0,0-1.393-.2,6.19,6.19,0,0,0-.919.065,4.561,4.561,0,0,0-.8.194,4.854,4.854,0,0,0-.741.327,5.769,5.769,0,0,0-.521.322v.641a5.263,5.263,0,0,1,.833-.474,4.323,4.323,0,0,1,1.779-.4,3.081,3.081,0,0,1,.986.154,2.344,2.344,0,0,1,.83.481,2.2,2.2,0,0,1,.558.8,2.791,2.791,0,0,1,.191,1.065,3.15,3.15,0,0,1-.158,1.008,3.6,3.6,0,0,1-.429.863,5.011,5.011,0,0,1-.635.757c-.231.228-.488.462-.766.7s-.591.488-.891.726-.579.473-.858.721-.534.5-.773.757a5.009,5.009,0,0,0-.6.791,4.055,4.055,0,0,0-.4.876,3.182,3.182,0,0,0-.143.969V23.5h6.91Zm6.31-12.065a4.561,4.561,0,0,1,3.01.96,3.181,3.181,0,0,1,1.19,2.546,3.476,3.476,0,0,1-1.572,3.1,3.418,3.418,0,0,1,1.054.743,3.339,3.339,0,0,1,.931,2.4A3.857,3.857,0,0,1,1.67,23.557,5.645,5.645,0,0,1-2,24.711a6.236,6.236,0,0,1-3.247-.749l-.241-.146V20.584l.811.643a3.834,3.834,0,0,0,2.467.867,2.772,2.772,0,0,0,1.706-.469,1.338,1.338,0,0,0,.554-1.149c0-.45,0-1.645-2.778-1.645H-4.209V16.2h1.432c2.409,0,2.409-1.105,2.409-1.521,0-.674-.21-1.363-1.768-1.363a3.205,3.205,0,0,0-2.067.794l-.815.661V11.614l.255-.143A6.612,6.612,0,0,1-1.485,10.686ZM-2,23.711a4.681,4.681,0,0,0,3.041-.929,2.863,2.863,0,0,0,1.091-2.351,2.34,2.34,0,0,0-.651-1.705,2.81,2.81,0,0,0-1.841-.8l-.452-.044v-.868l.365-.1a2.581,2.581,0,0,0,2.167-2.718,2.194,2.194,0,0,0-.831-1.778,3.6,3.6,0,0,0-2.369-.728,5.8,5.8,0,0,0-2.532.524v.577a3.991,3.991,0,0,1,1.882-.475c2.408,0,2.768,1.481,2.768,2.363A2.232,2.232,0,0,1-.31,16.6a4.264,4.264,0,0,1-2.467.595h-.432v.635h.476c3.123,0,3.778,1.438,3.778,2.645A2.326,2.326,0,0,1,.1,22.42a3.733,3.733,0,0,1-2.311.673,4.831,4.831,0,0,1-2.277-.554v.7A5.666,5.666,0,0,0-2,23.711ZM20.215,10.686a8.512,8.512,0,0,1,1.378.1,4.035,4.035,0,0,1,1.069.305l.285.136V14.2l-.727-.371a5.586,5.586,0,0,0-.879-.355,3.47,3.47,0,0,0-1.021-.136,2.632,2.632,0,0,0-1.146.25,2.5,2.5,0,0,0-.9.733,3.851,3.851,0,0,0-.627,1.261,5.037,5.037,0,0,0-.135.56q.146-.1.3-.178a3.965,3.965,0,0,1,1.853-.417,4.46,4.46,0,0,1,1.677.3,3.636,3.636,0,0,1,1.313.9,3.98,3.98,0,0,1,.831,1.405,5.414,5.414,0,0,1,.283,1.8,5.153,5.153,0,0,1-.348,1.917,4.574,4.574,0,0,1-.972,1.513,4.38,4.38,0,0,1-1.482.992,4.815,4.815,0,0,1-1.838.349,4.608,4.608,0,0,1-1.955-.416,4.251,4.251,0,0,1-1.553-1.242,5.8,5.8,0,0,1-.98-1.985,9.564,9.564,0,0,1-.336-2.658,11.077,11.077,0,0,1,.44-3.25,7.341,7.341,0,0,1,1.234-2.432,5.427,5.427,0,0,1,1.888-1.527A5.351,5.351,0,0,1,20.215,10.686Zm1.732,1.205a4.251,4.251,0,0,0-.518-.115,7.514,7.514,0,0,0-1.215-.09,4.359,4.359,0,0,0-1.91.425,4.435,4.435,0,0,0-1.54,1.25,6.353,6.353,0,0,0-1.06,2.1,10.086,10.086,0,0,0-.4,2.955,8.576,8.576,0,0,0,.3,2.378,4.814,4.814,0,0,0,.8,1.645A3.261,3.261,0,0,0,17.6,23.4a3.616,3.616,0,0,0,1.534.323,3.821,3.821,0,0,0,1.458-.275,3.386,3.386,0,0,0,1.146-.766,3.579,3.579,0,0,0,.759-1.185,4.159,4.159,0,0,0,.276-1.546,4.422,4.422,0,0,0-.227-1.465,2.988,2.988,0,0,0-.619-1.056,2.644,2.644,0,0,0-.955-.65,3.469,3.469,0,0,0-1.3-.232,2.981,2.981,0,0,0-1.39.3,2.334,2.334,0,0,0-.906.813l-.148.228H16.4l0-.5a7.416,7.416,0,0,1,.29-2.1,4.839,4.839,0,0,1,.8-1.587,3.528,3.528,0,0,1,1.254-1.016,3.623,3.623,0,0,1,1.578-.348,4.46,4.46,0,0,1,1.317.181q.157.049.31.1Zm6.986-1.205a4.975,4.975,0,0,1,1.675.275,4.294,4.294,0,0,1,1.352.767,3.57,3.57,0,0,1,.913,1.185,3.428,3.428,0,0,1,.33,1.49,3.279,3.279,0,0,1-.569,1.866,4.152,4.152,0,0,1-.735.825,3.777,3.777,0,0,1,.315.229A3.79,3.79,0,0,1,33.5,19.288a4.5,4.5,0,0,1,.159,1.2A4.163,4.163,0,0,1,33.31,22.2a3.91,3.91,0,0,1-.987,1.344,4.5,4.5,0,0,1-1.492.857,5.623,5.623,0,0,1-1.871.3,5.556,5.556,0,0,1-1.859-.3,4.56,4.56,0,0,1-1.489-.855,3.934,3.934,0,0,1-1-1.343,4.119,4.119,0,0,1-.357-1.719,4.587,4.587,0,0,1,.153-1.184,3.894,3.894,0,0,1,.469-1.079,3.8,3.8,0,0,1,.789-.891,3.58,3.58,0,0,1,.316-.234,4.068,4.068,0,0,1-.745-.829,3.278,3.278,0,0,1-.569-1.866,3.41,3.41,0,0,1,.336-1.5,3.622,3.622,0,0,1,.917-1.182,4.238,4.238,0,0,1,1.349-.763A4.983,4.983,0,0,1,28.934,10.686ZM28.96,23.7a4.629,4.629,0,0,0,1.539-.244,3.506,3.506,0,0,0,1.163-.664,2.917,2.917,0,0,0,.736-1,3.171,3.171,0,0,0,.264-1.307,3.5,3.5,0,0,0-.123-.931,2.79,2.79,0,0,0-.953-1.454,3.07,3.07,0,0,0-.828-.471l-.98-.379.912-.521a3.306,3.306,0,0,0,1.117-1.019,2.265,2.265,0,0,0,.4-1.307,2.4,2.4,0,0,0-.232-1.059,2.576,2.576,0,0,0-.66-.854,3.3,3.3,0,0,0-1.039-.586,4.241,4.241,0,0,0-2.667,0,3.244,3.244,0,0,0-1.033.581,2.628,2.628,0,0,0-.665.857,2.386,2.386,0,0,0-.236,1.065,2.265,2.265,0,0,0,.4,1.307,3.259,3.259,0,0,0,1.13,1.017l.934.523-1,.381a2.907,2.907,0,0,0-.826.471,2.8,2.8,0,0,0-.582.656,2.9,2.9,0,0,0-.348.8,3.586,3.586,0,0,0-.119.926,3.127,3.127,0,0,0,.267,1.3,2.94,2.94,0,0,0,.744,1,3.566,3.566,0,0,0,1.165.665A4.562,4.562,0,0,0,28.96,23.7ZM5.483,10.9h7.172v2.74H8.114l-.142,2.13c.2-.007.386-.01.562-.01a4.847,4.847,0,0,1,3.441,1.164A4.168,4.168,0,0,1,13.227,20.1a4.342,4.342,0,0,1-1.418,3.373,5.452,5.452,0,0,1-3.776,1.258,6.094,6.094,0,0,1-3-.585L4.782,24V20.81l.779.525a3.99,3.99,0,0,0,2.234.75,2.61,2.61,0,0,0,1.744-.538,1.669,1.669,0,0,0,.6-1.361,1.465,1.465,0,0,0-.6-1.27,3.292,3.292,0,0,0-1.98-.5c-.327,0-1.011.035-2.032.1l-.571.039Zm6.172,1H6.418l-.378,5.591c.74-.046,1.242-.069,1.528-.069a4.235,4.235,0,0,1,2.581.7,2.454,2.454,0,0,1,1,2.07,2.649,2.649,0,0,1-.961,2.128,3.608,3.608,0,0,1-2.386.771,4.657,4.657,0,0,1-2.014-.473V23.4a6.087,6.087,0,0,0,2.251.33,4.494,4.494,0,0,0,3.106-1,3.339,3.339,0,0,0,1.087-2.63,3.169,3.169,0,0,0-.937-2.448,3.9,3.9,0,0,0-2.756-.893c-.317,0-.677.012-1.07.034l-.566.033.28-4.187h4.476Zm17.287.362a2.257,2.257,0,0,1,.9.182,2.227,2.227,0,0,1,.724.5,2.3,2.3,0,0,1,.478.751,2.487,2.487,0,0,1,.172.923,2.386,2.386,0,0,1-.663,1.661,2.317,2.317,0,0,1-.716.5,2.159,2.159,0,0,1-.9.189,2.2,2.2,0,0,1-1.611-.688,2.409,2.409,0,0,1-.656-1.667,2.523,2.523,0,0,1,.16-.893,2.327,2.327,0,0,1,.459-.754,2.17,2.17,0,0,1,.724-.519A2.254,2.254,0,0,1,28.942,12.259Zm0,3.709a1.151,1.151,0,0,0,.484-.1,1.3,1.3,0,0,0,.409-.287,1.386,1.386,0,0,0,.383-.967,1.472,1.472,0,0,0-.1-.554,1.283,1.283,0,0,0-.269-.426,1.215,1.215,0,0,0-.4-.275,1.347,1.347,0,0,0-1.022,0,1.16,1.16,0,0,0-.393.281,1.314,1.314,0,0,0-.262.432,1.506,1.506,0,0,0-.1.54,1.386,1.386,0,0,0,.1.542,1.407,1.407,0,0,0,.279.437,1.2,1.2,0,0,0,.885.376Zm-58.815-.457h3.166l-.732,3.426h-3.178Zm1.929,1h-1.123l-.31,1.426h1.129Zm47.077.67a2.727,2.727,0,0,1,1.123.22,2.242,2.242,0,0,1,.834.638,2.642,2.642,0,0,1,.479.947,4.141,4.141,0,0,1,.147,1.13,3.779,3.779,0,0,1-.158,1.109,2.811,2.811,0,0,1-.483.934,2.316,2.316,0,0,1-.822.649,2.541,2.541,0,0,1-1.1.233,2.321,2.321,0,0,1-1.232-.324,2.692,2.692,0,0,1-.824-.782,3.328,3.328,0,0,1-.461-1.008,4.019,4.019,0,0,1-.145-1.049,2.977,2.977,0,0,1,.163-.971,2.534,2.534,0,0,1,1.34-1.489A2.652,2.652,0,0,1,19.134,17.181Zm.018,4.86a1.554,1.554,0,0,0,.672-.136,1.306,1.306,0,0,0,.47-.37,1.817,1.817,0,0,0,.308-.6,2.783,2.783,0,0,0,.114-.816,3.145,3.145,0,0,0-.108-.856,1.651,1.651,0,0,0-.295-.591,1.234,1.234,0,0,0-.466-.355,1.743,1.743,0,0,0-.713-.132,1.665,1.665,0,0,0-.714.141,1.535,1.535,0,0,0-.822.91,1.979,1.979,0,0,0-.109.646,3.02,3.02,0,0,0,.11.788,2.331,2.331,0,0,0,.322.706,1.675,1.675,0,0,0,.521.493A1.323,1.323,0,0,0,19.151,22.041Zm9.809-4.57a2.691,2.691,0,0,1,1.115.229,2.625,2.625,0,0,1,.862.619,2.746,2.746,0,0,1,.548.907,3.249,3.249,0,0,1-.012,2.22,2.675,2.675,0,0,1-.568.9,2.51,2.51,0,0,1-.871.581,2.866,2.866,0,0,1-1.074.2,3.009,3.009,0,0,1-1.09-.192,2.436,2.436,0,0,1-.877-.575,2.548,2.548,0,0,1-.559-.905,3.3,3.3,0,0,1-.189-1.139,3.089,3.089,0,0,1,.2-1.121,2.765,2.765,0,0,1,.564-.905,2.544,2.544,0,0,1,.873-.6A2.768,2.768,0,0,1,28.96,17.471Zm0,4.649a1.872,1.872,0,0,0,.7-.126,1.5,1.5,0,0,0,.527-.35,1.681,1.681,0,0,0,.355-.564,2.252,2.252,0,0,0,.006-1.507,1.728,1.728,0,0,0-.348-.579,1.609,1.609,0,0,0-.536-.383,1.7,1.7,0,0,0-.7-.14,1.75,1.75,0,0,0-.69.132,1.529,1.529,0,0,0-.533.365,1.771,1.771,0,0,0-.359.58,2.1,2.1,0,0,0-.133.76,2.306,2.306,0,0,0,.128.794,1.535,1.535,0,0,0,.338.554,1.424,1.424,0,0,0,.52.339A2.017,2.017,0,0,0,28.96,22.12Z" transform="translate(238 38.238)" fill="#707070"/>
          <path id="CambiaEstado-5" data-name="CambiaEstado" d="M187.5-687l-3.85-3.988,9.762-9.762H160v-5.5h33.412l-9.762-9.762L187.5-720,204-703.5Z" transform="translate(246 1114)" fill="#5f6368"/>
          <path id="CambiaEstado_-_Contorno" data-name="CambiaEstado - Contorno" d="M187.494-686.287l-4.545-4.707,9.256-9.256H159.5v-6.5h32.705l-9.256-9.256,4.545-4.707L204.707-703.5Zm-3.143-4.695,3.155,3.268L203.293-703.5l-15.787-15.787-3.155,3.268L194.62-705.75H160.5v4.5h34.12Z" transform="translate(246 1114)" fill="#707070"/>
        </g>
        <path id="DespliegaDetalle-2" data-name="DespliegaDetalle" d="M4.471,23.631,0,19.16,19.16,0l19.16,19.16L33.85,23.631,19.16,9.021Z" transform="translate(479.321 159.631) rotate(180)" fill="#5f6368"/>
        <path id="DespliegaDetalle_-_Contorno-2" data-name="DespliegaDetalle - Contorno" d="M33.851,24.337,19.16,9.727,4.47,24.337-.707,19.16,19.16-.707,39.028,19.16ZM.707,19.16l3.765,3.765L19.16,8.316,33.849,22.925l3.765-3.765L19.16.707Z" transform="translate(479.321 159.631) rotate(180)" fill="#707070"/>
        <path id="DespliegaDetalle-3" data-name="DespliegaDetalle" d="M4.471,0,0,4.471l19.16,19.16,19.16-19.16L33.85,0,19.16,14.61Z" transform="translate(479.321 307.979) rotate(180)" fill="#5f6368"/>
        <path id="DespliegaDetalle_-_Contorno-3" data-name="DespliegaDetalle - Contorno" d="M4.47-.706,19.16,13.9,33.851-.706l5.177,5.177L19.16,24.338-.707,4.471ZM19.16,15.315,4.472.706.707,4.471,19.16,22.924,37.614,4.471,33.849.706Z" transform="translate(479.321 307.979) rotate(180)" fill="#707070"/>
        <g id="Cuadrícula_de_repetición_5" data-name="Cuadrícula de repetición 5" transform="translate(20 710)" clip-path="url(#clip-path-8)">
          <g id="Grupo_9" data-name="Grupo 9">
            <g id="Rectángulo_16-7" data-name="Rectángulo 16" fill="#2f2f2f" stroke="#707070" stroke-width="1">
              <rect width="476" height="109" rx="16" stroke="none"/>
              <rect x="0.5" y="0.5" width="475" height="108" rx="15.5" fill="none"/>
            </g>
            <path id="DespliegaDetalle-4" data-name="DespliegaDetalle" d="M4.471,23.631,0,19.16,19.16,0l19.16,19.16L33.85,23.631,19.16,9.021Z" transform="translate(457.321 39.631) rotate(180)" fill="#5f6368" stroke="#707070" stroke-width="1"/>
            <text id="Pedido:_123568-7" data-name="Pedido:
#123568" transform="translate(238 47)" fill="#b4b4b4" stroke="#707070" stroke-width="1" font-size="18" font-family="SegoeUI-Semibold, Segoe UI" font-weight="600"><tspan x="-30.48" y="0">Pedido:</tspan><tspan x="-33.952" y="24">#123568</tspan></text>
          </g>
          <g id="Grupo_9-2" data-name="Grupo 9" transform="translate(0 129)">
            <g id="Rectángulo_16-8" data-name="Rectángulo 16" fill="#2f2f2f" stroke="#707070" stroke-width="1">
              <rect width="476" height="109" rx="16" stroke="none"/>
              <rect x="0.5" y="0.5" width="475" height="108" rx="15.5" fill="none"/>
            </g>
            <path id="DespliegaDetalle-5" data-name="DespliegaDetalle" d="M4.471,23.631,0,19.16,19.16,0l19.16,19.16L33.85,23.631,19.16,9.021Z" transform="translate(457.321 39.631) rotate(180)" fill="#5f6368" stroke="#707070" stroke-width="1"/>
            <text id="Pedido:_123568-8" data-name="Pedido:
#123568" transform="translate(238 47)" fill="#b4b4b4" stroke="#707070" stroke-width="1" font-size="18" font-family="SegoeUI-Semibold, Segoe UI" font-weight="600"><tspan x="-30.48" y="0">Pedido:</tspan><tspan x="-33.952" y="24">#123568</tspan></text>
          </g>
        </g>
      </g>
      <g id="Bar_Menu" data-name="Bar Menu" transform="translate(347 41)">
        <g id="Rectángulo_17-2" data-name="Rectángulo 17" fill="none" stroke="#707070" stroke-width="1">
          <rect width="1260" height="66" rx="33" stroke="none"/>
          <rect x="0.5" y="0.5" width="1259" height="65" rx="32.5" fill="none"/>
        </g>
        <text id="_Ludwin" data-name="    Ludwin" transform="translate(1138 38)" fill="#212121" stroke="#707070" stroke-width="1" font-size="18" font-family="SegoeUI-Semibold, Segoe UI" font-weight="600"><tspan x="0" y="0"> </tspan><tspan y="0" xml:space="preserve" fill="#b4b4b4">   Ludwin</tspan></text>
        <text id="Gestion" transform="translate(31 38)" fill="#b4b4b4" stroke="#707070" stroke-width="1" font-size="18" font-family="SegoeUI-Semibold, Segoe UI" font-weight="600"><tspan x="0" y="0">Gestion</tspan></text>
        <text id="Cocina-2" data-name="Cocina" transform="translate(131 38)" fill="#b4b4b4" stroke="#707070" stroke-width="1" font-size="18" font-family="SegoeUI-Semibold, Segoe UI" font-weight="600"><tspan x="0" y="0">Cocina</tspan></text>
        <text id="Call_Center" data-name="Call Center" transform="translate(224 38)" fill="#b4b4b4" stroke="#707070" stroke-width="1" font-size="18" font-family="SegoeUI-Semibold, Segoe UI" font-weight="600" text-decoration="underline"><tspan x="0" y="0">Call Center</tspan></text>
        <text id="Delivery" transform="translate(351 38)" fill="#b4b4b4" stroke="#707070" stroke-width="1" font-size="18" font-family="SegoeUI-Semibold, Segoe UI" font-weight="600"><tspan x="0" y="0">Delivery</tspan></text>
        <text id="Dashboard" transform="translate(456 38)" fill="#b4b4b4" stroke="#707070" stroke-width="1" font-size="18" font-family="SegoeUI-Semibold, Segoe UI" font-weight="600"><tspan x="0" y="0">Dashboard</tspan></text>
      </g>
    </g>
  </g>
</svg>
